<svg width="105" height="105" viewBox="0 0 105 105" fill="none" xmlns="http://www.w3.org/2000/svg">
<path d="M94.203 62.0639C99.7122 38.8056 85.3233 15.4848 62.0645 9.97547C38.8057 4.46611 15.4846 18.8544 9.97535 42.1127C4.46612 65.371 18.855 88.6918 42.1138 94.2012C65.3726 99.7105 88.6937 85.3222 94.203 62.0639Z" fill="#FFCE00"/>
<path d="M71.8318 65.5211H32.3338C31.1658 65.5211 30.2178 64.5741 30.2178 63.4041C30.2178 62.2361 31.1658 61.2871 32.3338 61.2871H71.8318C73.0008 61.2871 73.9478 62.2351 73.9478 63.4041C73.9478 64.5741 73.0008 65.5211 71.8318 65.5211Z" fill="#562912"/>
<path d="M74.7269 44.7301C74.7269 47.2521 72.6819 49.2981 70.1579 49.2981C67.6349 49.2981 65.5889 47.2521 65.5889 44.7301C65.5889 42.2071 67.6339 40.1611 70.1579 40.1611C72.6819 40.1611 74.7269 42.2071 74.7269 44.7301Z" fill="#562912"/>
<path d="M38.5745 44.7301C38.5745 47.2521 36.5285 49.2981 34.0055 49.2981C31.4825 49.2981 29.4365 47.2521 29.4365 44.7301C29.4365 42.2071 31.4825 40.1611 34.0055 40.1611C36.5285 40.1611 38.5745 42.2071 38.5745 44.7301Z" fill="#562912"/>
</svg>
