<svg width="95" height="143" viewBox="0 0 95 143" fill="none" xmlns="http://www.w3.org/2000/svg">
<g clip-path="url(#clip0_93_80628)">
<path d="M28.3653 82.9331C28.4586 83.1227 15.9976 103.04 13.0371 139.274L9.20312 183.909" stroke="#D68552" stroke-width="9.07167" stroke-miterlimit="10"/>
<path d="M9.20312 108.573C9.95845 78.7124 33.064 69.5457 33.064 69.5457L37.7409 91.1858C27.3396 94.589 25.2675 108.573 25.2675 108.573C25.2675 108.573 10.1486 108.573 9.20312 108.573Z" fill="#2F2E41"/>
<path d="M76.8563 82.9332C75.4072 106.537 68.0981 164.379 68.0981 164.379C51.0664 164.379 20.7266 122.104 20.7266 98.3056C20.7266 74.507 33.2629 71.0896 39.1844 69.0747H70.0459C74.8359 70.7494 76.8563 75.9486 76.8563 82.9332Z" fill="#2F2E41"/>
<path d="M36.009 69.0747C27.8829 73.3998 23.4727 83.6898 23.4727 93.2656H29.5832C30.3666 79.6576 31.3743 72.6028 40.8252 69.0747H36.009Z" fill="#D8DADE"/>
<path d="M65.2316 69.0747C57.1049 73.3998 52.6953 83.6898 52.6953 93.2656H58.8053C59.5905 79.6576 60.5976 72.6028 70.0478 69.0747H65.2316Z" fill="#D8DADE"/>
<path d="M72.3207 177.036H20.7266V93.2656H60.9818L56.1309 128.803L72.3207 148.458V177.036Z" fill="#F58218"/>
<path d="M33.2629 69.0745C25.1362 73.3995 20.7266 83.6896 20.7266 93.2654H26.8365C27.7816 77.957 32.0021 72.6025 41.4523 69.0745H33.2629Z" fill="#F58218"/>
<path d="M61.8571 69.0745C50.4629 72.6025 49.3203 83.6896 49.3203 93.2654H55.69C55.312 79.0282 59.6303 73.3161 70.0471 69.0745H61.8571Z" fill="#F58218"/>
<path d="M51.4686 110.373C51.4686 119.155 45.6285 126.276 38.427 126.276C31.2229 126.276 25.3828 119.155 25.3828 110.373C25.3828 101.589 31.2229 103.595 38.427 103.595C45.6285 103.595 51.4686 101.589 51.4686 110.373Z" fill="white" fill-opacity="0.68"/>
<path d="M51.4617 110.526C51.4617 110.474 51.4686 110.424 51.4686 110.373C51.4686 101.589 45.6285 103.595 38.427 103.595C31.2229 103.595 25.3828 101.589 25.3828 110.373C25.3828 110.424 25.389 110.474 25.3897 110.526H51.4617Z" fill="white" fill-opacity="0.68"/>
<path d="M76.855 82.9331C76.9495 83.1227 92.9204 103.398 89.9594 139.632L37.293 144.419" stroke="#D68552" stroke-width="9.07167" stroke-miterlimit="10"/>
<path d="M31.0859 133.42C31.0859 133.42 40.4262 132.236 40.2831 138.231C40.1407 144.226 34.5195 139.534 34.5195 139.534L31.0859 133.42Z" fill="#FAC52F"/>
<path d="M37.1088 138.07C37.0648 137.537 38.4268 135.755 38.4268 135.755C38.4268 135.755 35.2754 133.323 31.0859 133.42C33.8766 134.414 36.2154 137.327 37.1088 138.07Z" fill="#B89021"/>
<path d="M52.8023 151.395L36.9531 149.83V137.839L52.8023 135.755V151.395Z" fill="#FAC52F"/>
<path d="M36.9539 137.839C36.9539 137.839 35.4071 132.813 29.2811 132.931C23.1557 133.048 23.2924 146.845 25.0704 148.924C26.8478 151.003 30.8974 153.349 36.9539 149.83C43.0098 146.311 36.9539 137.839 36.9539 137.839Z" fill="#FAC52F"/>
<path d="M94.9981 108.573C94.2428 78.7124 71.1385 69.5457 71.1385 69.5457L66.4609 91.1858C76.8622 94.589 78.9344 108.573 78.9344 108.573C78.9344 108.573 94.0532 108.573 94.9981 108.573Z" fill="#2F2E41"/>
<path d="M23.4695 112.738C24.3821 112.738 25.1213 125.777 25.1213 141.86C25.1213 157.944 24.3821 170.984 23.4695 170.984C22.5557 170.984 21.8164 157.944 21.8164 141.86C21.8164 125.777 22.5557 112.738 23.4695 112.738Z" fill="#D37015"/>
<path d="M35.8449 69.0747C36.7581 69.0698 25.3322 75.5308 25.3844 86.4619L23.5623 106.745C21.6401 106.755 21.9154 108.375 21.8166 87.3981C21.765 76.4677 34.9309 69.079 35.8449 69.0747Z" fill="#D37015"/>
<path d="M64.5705 69.0747C65.4843 69.0698 54.0584 75.5308 54.11 86.4619L52.2891 100.498C50.3656 100.507 50.5434 96.2895 50.5434 87.3981C50.5434 76.4677 63.6565 69.079 64.5705 69.0747Z" fill="#D37015"/>
<path d="M58.2311 69.5457C53.9837 73.0177 41.2685 82.5575 38.8352 79.579C36.4 76.6011 37.4923 73.0177 41.7391 69.5457H58.2311Z" fill="#D68552"/>
<path d="M34.0562 41.9557C34.0562 45.0001 31.9997 47.4688 29.462 47.4688C26.9244 47.4688 24.8672 45.0001 24.8672 41.9557C24.8672 38.9094 26.9244 36.4419 29.462 36.4419C31.9997 36.4419 34.0562 38.9094 34.0562 41.9557Z" fill="#D68552"/>
<path d="M74.6382 41.9557C74.6382 45.0001 72.5804 47.4688 70.0434 47.4688C67.5058 47.4688 65.4492 45.0001 65.4492 41.9557C65.4492 38.9094 67.5058 36.4419 70.0434 36.4419C72.5806 36.4421 74.6382 38.9094 74.6382 41.9557Z" fill="#D68552"/>
<path d="M53.6787 71.9268L43.8828 71.2853H43.874C43.8976 70.5965 43.8884 64.7731 43.8672 59.6448L53.6947 59.6038C53.7415 71.1528 53.6979 71.6943 53.6787 71.9268Z" fill="#D68552"/>
<path d="M52.1914 68.507C52.1914 68.507 43.4027 70.6803 43.8653 59.6448L53.6929 59.6038C53.6929 59.6038 54.1765 68.507 52.1914 68.507Z" fill="#D8DADE"/>
<path d="M72.137 30.7644C72.137 45.6462 61.9214 65.7657 49.3169 65.7657C36.7136 65.7657 26.4961 45.6462 26.4961 30.7644C26.4961 15.8819 36.7134 11.8721 49.3169 11.8721C61.9216 11.8721 72.137 15.8819 72.137 30.7644Z" fill="#D68552"/>
<path d="M65.5117 27.3228C67.3805 34.0176 70.8675 37.1813 68.019 48.8753C68.0607 49.3223 71.8361 40.1748 72.8414 27.3228H65.5117Z" fill="#1B0900"/>
<path d="M30.6202 48.8906C30.5419 49.7417 20.7268 24.3422 29.6411 9.6195C31.0891 14.2182 33.9555 14.2182 33.9555 14.2182C33.9555 14.2182 38.8911 -3.10189 59.8443 0.490778C56.2304 3.51337 59.8443 6.15988 59.8443 6.15988C59.8443 6.15988 65.4158 -0.655585 82.3722 9.55059C82.3722 9.55059 84.2011 22.2721 72.2941 28.6741C60.3882 35.075 51.5051 27.1374 46.6865 24.1135C46.6865 24.1135 35.5733 23.4577 31.0897 33.8777C29.595 37.3521 30.5567 42.7534 30.6202 48.8906Z" fill="#1B0900"/>
<path d="M43.0898 55.5999C43.0898 58.2881 45.8786 60.4664 49.3185 60.4664C52.7584 60.4664 55.5478 58.2879 55.5478 55.5999H43.0898Z" fill="#DBDBDB"/>
<path d="M52.3267 39.7546L55.4464 52.8634L48.3555 53.3197L53.8089 52.6415L52.3267 39.7546Z" fill="#AA673E"/>
<path d="M51.8978 34.9204C51.9774 34.5412 54.1309 33.8772 54.1309 33.8772L63.8081 37.1808C63.8081 37.1808 51.6648 36.0507 51.8978 34.9204Z" fill="#1B0900"/>
<path d="M46.0925 34.9204C46.0142 34.5412 43.8595 33.8772 43.8595 33.8772L34.1836 37.1808C34.1836 37.1808 46.327 36.0507 46.0925 34.9204Z" fill="#1B0900"/>
<path d="M57.852 42.3005C57.852 44.2227 57.3123 45.7826 56.6483 45.7826C55.9837 45.7826 55.4453 44.2227 55.4453 42.3005C55.4453 40.3777 55.9837 38.8191 56.6483 38.8191C57.3123 38.8191 57.852 40.3777 57.852 42.3005Z" fill="#1B0900"/>
<path d="M43.227 42.3005C43.227 44.2227 42.6886 45.7826 42.0233 45.7826C41.3587 45.7826 40.8203 44.2227 40.8203 42.3005C40.8203 40.3777 41.3587 38.8191 42.0233 38.8191C42.6886 38.8191 43.227 40.3777 43.227 42.3005Z" fill="#1B0900"/>
</g>
<defs>
<clipPath id="clip0_93_80628">
<rect width="95" height="143" fill="white"/>
</clipPath>
</defs>
</svg>
