<svg width="236" height="132" viewBox="0 0 236 132" fill="none" xmlns="http://www.w3.org/2000/svg">
<path d="M160.302 11.79H0V112H160.302V11.79Z" fill="#E6E6E6"/>
<path d="M40.1089 31.0947H10.7495V50.2526H40.1089V31.0947Z" fill="white"/>
<path d="M76.5889 31.0947H47.2295V50.2526H76.5889V31.0947Z" fill="white"/>
<path d="M113.073 31.0947H83.7139V50.2526H113.073V31.0947Z" fill="white"/>
<path d="M149.553 31.0947H120.194V50.2526H149.553V31.0947Z" fill="white"/>
<path d="M40.1089 58.21H10.7495V77.3678H40.1089V58.21Z" fill="white"/>
<path d="M76.5889 58.21H47.2295V77.3678H76.5889V58.21Z" fill="white"/>
<path d="M113.073 58.21H83.7139V77.3678H113.073V58.21Z" fill="white"/>
<path d="M149.553 58.21H120.194V77.3678H149.553V58.21Z" fill="white"/>
<path d="M40.1089 85.3262H10.7495V104.484H40.1089V85.3262Z" fill="white"/>
<path d="M76.5889 85.3262H47.2295V104.484H76.5889V85.3262Z" fill="white"/>
<path d="M113.073 85.3262H83.7139V104.484H113.073V85.3262Z" fill="white"/>
<path d="M149.553 85.3262H120.194V104.484H149.553V85.3262Z" fill="white"/>
<path d="M41.982 23.5784C44.4142 23.5784 46.3859 21.5991 46.3859 19.1574C46.3859 16.7157 44.4142 14.7363 41.982 14.7363C39.5498 14.7363 37.5781 16.7157 37.5781 19.1574C37.5781 21.5991 39.5498 23.5784 41.982 23.5784Z" fill="white"/>
<path d="M114.795 23.5794C117.227 23.5794 119.199 21.6 119.199 19.1583C119.199 16.7167 117.227 14.7373 114.795 14.7373C112.363 14.7373 110.391 16.7167 110.391 19.1583C110.391 21.6 112.363 23.5794 114.795 23.5794Z" fill="white"/>
<path d="M43.7472 0H40.2241V20.3368H43.7472V0Z" fill="#E6E6E6"/>
<path d="M116.555 0H113.032V20.3368H116.555V0Z" fill="#E6E6E6"/>
<path d="M141.51 40.6732C141.509 42.2737 140.932 43.82 139.886 45.0278C138.84 46.2357 137.394 47.0239 135.816 47.2478C134.237 47.4717 132.631 47.1162 131.292 46.2465C129.954 45.3768 128.973 44.0515 128.53 42.514C128.087 40.9765 128.211 39.33 128.88 37.8773C129.55 36.4245 130.719 35.263 132.172 34.6061C133.626 33.9492 135.268 33.841 136.794 34.3016C138.321 34.7621 139.632 35.7603 140.484 37.1128C141.155 38.1779 141.511 39.4127 141.51 40.6732Z" fill="#F58218"/>
<path d="M140.486 37.1136L133.95 43.6732C133.539 43.0348 131.251 40.068 131.251 40.068C131.544 39.7705 131.857 39.4931 132.188 39.2379L134.085 41.7779L139.72 36.1211C140.006 36.4269 140.262 36.7592 140.486 37.1136Z" fill="white"/>
<path d="M68.5502 67.7894C68.5487 69.3899 67.9719 70.9362 66.9257 72.144C65.8796 73.3519 64.4344 74.1401 62.8557 74.364C61.277 74.5879 59.6709 74.2324 58.3324 73.3627C56.9939 72.493 56.013 71.1677 55.5699 69.6302C55.1268 68.0926 55.2513 66.4463 55.9205 64.9935C56.5896 63.5407 57.7586 62.3792 59.2125 61.7223C60.6663 61.0654 62.3075 60.9572 63.8345 61.4178C65.3614 61.8783 66.6716 62.8765 67.5241 64.229C68.1955 65.2941 68.5514 66.5289 68.5502 67.7894Z" fill="#F58218"/>
<path d="M67.5256 64.2288L60.9902 70.7884C60.5794 70.1501 58.291 67.1833 58.291 67.1833C58.5843 66.8857 58.8972 66.6084 59.2277 66.3532L61.1254 68.8931L66.7603 63.2363C67.046 63.5421 67.3023 63.8745 67.5256 64.2288Z" fill="white"/>
<path d="M32.0703 67.7894C32.0688 69.39 31.4919 70.9362 30.4458 72.1441C29.3997 73.3519 27.9545 74.1402 26.3758 74.3641C24.7971 74.588 23.1909 74.2324 21.8524 73.3628C20.5139 72.4931 19.533 71.1677 19.0899 69.6302C18.6468 68.0927 18.7713 66.4463 19.4405 64.9935C20.1097 63.5407 21.2786 62.3792 22.7325 61.7223C24.1864 61.0654 25.8276 60.9573 27.3546 61.4178C28.8815 61.8783 30.1916 62.8765 31.0442 64.229C31.7156 65.2941 32.0715 66.5289 32.0703 67.7894Z" fill="#F58218"/>
<path d="M31.0412 64.2288L24.5058 70.7884C24.095 70.1501 21.8066 67.1833 21.8066 67.1833C22.0999 66.8857 22.4129 66.6084 22.7434 66.3532L24.641 68.8931L30.2759 63.2363C30.5616 63.5421 30.8179 63.8745 31.0412 64.2288Z" fill="white"/>
<path d="M195.826 77.4706C195.563 77.1785 195.367 76.832 195.251 76.4556C195.136 76.0791 195.104 75.6817 195.158 75.2916C195.212 74.9014 195.35 74.5279 195.564 74.1973C195.777 73.8667 196.06 73.5871 196.393 73.3782L194.265 64.0439L198.907 65.7874L200.216 74.3841C200.529 74.9684 200.617 75.6475 200.464 76.2927C200.311 76.9379 199.928 77.5044 199.387 77.8849C198.846 78.2653 198.184 78.4333 197.528 78.3569C196.872 78.2806 196.266 77.9652 195.826 77.4706Z" fill="#FFB8B8"/>
<path d="M195.504 70.0632L191.423 62.1424L191.975 42.1973L192.238 42.752C192.543 43.3982 199.704 58.6163 199.193 63.7109L200.011 68.3665L195.504 70.0632Z" fill="#3F3D56"/>
<path d="M192.842 128.6H196.114L197.671 115.929L192.841 115.929L192.842 128.6Z" fill="#FFB8B8"/>
<path d="M192.006 127.528L198.45 127.527H198.451C199.54 127.527 200.585 127.962 201.355 128.735C202.125 129.508 202.558 130.557 202.558 131.65V131.784L192.006 131.785L192.006 127.528Z" fill="#2F2E41"/>
<path d="M160.511 126.104L163.664 126.984L168.546 115.194L163.892 113.896L160.511 126.104Z" fill="#FFB8B8"/>
<path d="M159.99 124.846L166.199 126.579L166.199 126.579C167.249 126.872 168.139 127.571 168.675 128.523C169.211 129.476 169.348 130.602 169.056 131.656L169.02 131.785L158.854 128.947L159.99 124.846Z" fill="#2F2E41"/>
<path d="M189.578 123.661L182.974 76.1896L168.71 123.392L157.494 119.548L173.569 56.3416L173.675 56.3341L190.515 55.1582L202.681 119.824L189.578 123.661Z" fill="#2F2E41"/>
<path d="M187.836 33.9719C187.836 33.9719 181.696 30.7563 173.422 32.0961C173.422 32.0961 169.018 42.7629 173.422 47.0092L174.623 57.6865C174.623 57.6865 185.834 64.3856 189.571 56.6147L189.037 47.7719C189.037 47.7719 191.706 43.5309 189.571 40.4262C188.291 38.5295 187.68 36.2574 187.836 33.9719Z" fill="#F58218"/>
<path d="M188.611 82.5382L189.689 60.0916L186.639 33.3889L186.779 33.3676C190.78 32.7621 192.063 39.6807 192.115 39.9754L199.078 79.4966L188.611 82.5382Z" fill="#3F3D56"/>
<path d="M175.036 82.7715L162.727 81.3985L162.73 81.2635C162.773 79.434 163.833 36.4208 166.802 33.3744C169.788 30.31 175.423 31.6359 175.662 31.6942L175.781 31.7229L174.768 49.9236L175.036 82.7715Z" fill="#3F3D56"/>
<path d="M177.305 57.064C176.932 57.1868 176.537 57.2261 176.148 57.179C175.758 57.132 175.383 56.9997 175.05 56.7916C174.717 56.5835 174.433 56.3046 174.219 55.9745C174.005 55.6444 173.866 55.2712 173.811 54.8812L164.45 53.0401L167.924 49.4902L176.28 51.7828C176.939 51.7335 177.593 51.9286 178.118 52.331C178.643 52.7335 179.003 53.3153 179.129 53.9663C179.256 54.6172 179.14 55.2921 178.804 55.8631C178.467 56.434 177.934 56.8613 177.305 57.064Z" fill="#FFB8B8"/>
<path d="M172.308 54.9095L169.258 54.2512C164.755 55.6107 156.895 50.8248 153.719 48.699C153.121 48.2991 152.927 47.5066 153.143 46.3439C153.461 44.7175 154.354 43.2614 155.657 42.2442L166.844 33.3392L169.668 32.8652L170.507 37.6366L163.379 45.3222L173.872 51.0555L172.308 54.9095Z" fill="#3F3D56"/>
<path d="M171.102 28.0569V21.8698C171.102 19.2522 172.137 16.7418 173.981 14.8908C175.825 13.0399 178.326 12 180.933 12C183.541 12 186.041 13.0399 187.885 14.8908C189.729 16.7418 190.765 19.2522 190.765 21.8698V28.0569C190.764 28.4084 190.625 28.7454 190.377 28.9939C190.13 29.2425 189.794 29.3823 189.444 29.3827H172.422C172.072 29.3823 171.736 29.2425 171.489 28.9939C171.241 28.7454 171.102 28.4084 171.102 28.0569Z" fill="#2F2E41"/>
<path d="M180.54 29.322C184.521 29.322 187.748 26.0823 187.748 22.0858C187.748 18.0894 184.521 14.8496 180.54 14.8496C176.559 14.8496 173.332 18.0894 173.332 22.0858C173.332 26.0823 176.559 29.322 180.54 29.322Z" fill="#FFB8B8"/>
<path d="M173.133 22.0577C173.064 21.9779 173.013 21.8842 172.984 21.7828C172.954 21.6815 172.947 21.575 172.962 21.4705L173.815 15.5015C173.832 15.3801 173.879 15.2648 173.952 15.166C174.024 15.0673 174.12 14.9883 174.231 14.9361C178.589 12.8885 183.008 12.8859 187.367 14.9284C187.482 14.9834 187.582 15.0676 187.655 15.1727C187.729 15.2779 187.774 15.4004 187.786 15.5283L188.356 21.505C188.366 21.6072 188.354 21.7103 188.322 21.8077C188.29 21.9051 188.237 21.9947 188.169 22.0706C188.1 22.1466 188.016 22.2073 187.922 22.2488C187.829 22.2903 187.728 22.3118 187.626 22.3118H186.18C186.041 22.3114 185.904 22.2713 185.786 22.1961C185.669 22.1208 185.575 22.0136 185.515 21.8868L184.891 20.5449C184.851 20.458 184.784 20.3866 184.699 20.3416C184.615 20.2965 184.518 20.2802 184.424 20.2952C184.33 20.3101 184.243 20.3554 184.176 20.4242C184.11 20.4931 184.067 20.5818 184.056 20.6769L183.932 21.6664C183.91 21.8445 183.824 22.0083 183.69 22.1271C183.556 22.2459 183.383 22.3115 183.204 22.3118H173.688C173.583 22.3118 173.479 22.2891 173.383 22.2453C173.287 22.2014 173.202 22.1375 173.133 22.0577Z" fill="#2F2E41"/>
<path opacity="0.14" d="M235.109 132H123.293C123.216 132 123.141 131.969 123.086 131.914C123.031 131.859 123 131.784 123 131.706C123 131.628 123.031 131.553 123.086 131.497C123.141 131.442 123.216 131.411 123.293 131.411H235.109C235.187 131.411 235.262 131.442 235.317 131.497C235.372 131.553 235.403 131.628 235.403 131.706C235.403 131.784 235.372 131.859 235.317 131.914C235.262 131.969 235.187 132 235.109 132Z" fill="#3F3D56"/>
</svg>
