<svg width="122" height="146" viewBox="0 0 122 146" fill="none" xmlns="http://www.w3.org/2000/svg">
<path d="M79.4704 34.1579C79.5649 36.2297 79.6532 38.6142 79.7046 41.0413C79.7136 39.0148 79.9854 34.8804 82.0422 34.6368C82.1749 34.6221 82.3084 34.632 82.4418 34.6532C82.7933 33.5774 83.3736 31.6898 83.8837 29.5061C83.8682 30.0169 83.8523 30.5276 83.8383 31.0386C83.8281 31.4086 83.8124 31.7783 83.8001 32.1482C83.7851 32.599 83.8463 32.9983 83.8936 33.4413C83.9054 33.5514 84.0611 33.587 84.0956 33.4686C84.2097 33.0764 84.3311 32.7451 84.3828 32.333C84.429 31.9645 84.4591 31.5932 84.4934 31.2235C84.5706 30.3904 84.6221 29.5603 84.6472 28.724C84.6614 28.2467 84.6627 27.7689 84.6683 27.2914C84.8511 28.1172 85.0242 28.9467 85.2839 29.7491C85.3201 29.8607 85.4794 29.8384 85.4859 29.7218C85.5536 28.5207 85.3233 27.3034 85.078 26.1312C85.0722 26.1035 85.0663 26.0735 85.0605 26.0457C83.9652 26.6461 82.5731 27.1095 80.8032 27.1602C80.4939 28.8587 79.3455 31.42 79.4704 34.1579Z" fill="#0C0C10"/>
<path d="M66.4453 6.19174C67.2322 6.43672 68.0307 6.64485 68.8369 6.81605C70.4398 7.15643 72.0838 7.23733 73.6816 7.58088C73.725 7.5902 73.7266 7.66204 73.6816 7.67013C72.2306 7.93075 70.699 7.74373 69.2453 7.48943C69.8042 7.59758 70.3621 7.70758 70.918 7.80299C72.7039 8.10969 74.5674 8.22066 76.3054 8.73093L76.2985 8.7814C74.9823 8.95058 73.6162 8.83943 72.2743 8.67852C72.7537 8.77771 73.2341 8.87171 73.717 8.95278C74.8793 9.14798 76.0506 9.28138 77.2196 9.424C76.2223 8.39195 75.1858 7.39455 74.1457 6.48016C74.6046 6.72865 75.0597 6.98418 75.498 7.2674C76.0898 7.64982 76.6599 8.06819 77.2578 8.43961C77.3007 8.46626 77.3563 8.41253 77.3281 8.36927C76.5802 7.21684 75.3225 6.35283 74.1616 5.65712C73.5413 5.28544 72.9034 4.9586 72.2488 4.65198C72.1063 4.58524 71.9634 4.51551 71.8191 4.44851C72.7859 4.73631 73.7737 4.94233 74.7708 5.0883C74.8333 5.09744 74.8875 5.00863 74.8183 4.97548C73.7693 4.47392 72.6867 4.05968 71.6137 3.61044C71.0714 3.38331 70.5197 3.18309 69.9835 2.94058C69.4915 2.71803 68.9622 2.52203 68.4227 2.472C67.4411 2.00913 66.5396 1.74252 65.7692 1.7397C66.142 1.65239 66.5117 1.55786 66.8798 1.44856C67.0987 1.38358 67.3234 1.32608 67.5351 1.23982C67.7818 1.13922 68.0079 0.996424 68.2538 0.898469C68.3284 0.868748 68.2996 0.76833 68.221 0.77941C67.9678 0.815461 67.7071 0.797085 67.4511 0.822761C67.2292 0.845007 67.0092 0.893017 66.7892 0.929069C66.508 0.975145 66.227 1.02122 65.9459 1.0673C66.465 0.814582 66.9682 0.53118 67.444 0.202582C67.5399 0.136282 67.4845 -0.0317545 67.3608 0.00526449C65.74 0.489677 64.1566 1.08664 62.5124 1.50132C61.702 1.70568 60.8819 1.8716 60.0557 1.99787C59.6096 2.06611 59.0688 2.05415 58.5898 2.15984C60.6191 2.89187 62.9385 4.46715 65.644 5.92874C65.9091 6.0165 66.1743 6.10742 66.4453 6.19174Z" fill="#0C0C10"/>
<path d="M77.9491 10.1939C77.8769 10.1164 77.8053 10.039 77.7326 9.96191C77.4675 9.96578 77.2025 9.97123 76.9375 9.96367C77.2943 10.0476 77.6309 10.1238 77.9491 10.1939Z" fill="#D78E60"/>
<path d="M43.9414 149.114H51.1798L54.8686 116.969C52.3267 127.23 48.8123 137.39 43.9414 149.114Z" fill="#CCCCCC"/>
<path d="M79.4816 97.8119C79.2188 92.2062 78.4221 87.6305 77.5175 84.0747L67.7637 94.9241L64.572 87.455C64.572 87.455 63.3703 94.7219 62.625 95.5802L67.3185 149.114H80.0215C80.0215 149.114 76.6483 140.276 76.5882 128.711C76.5323 117.943 79.8016 104.637 79.4816 97.8119Z" fill="#CCCCCC"/>
<path d="M57.3284 95.5232C56.3286 94.3215 54.6692 87.9129 54.6692 87.9129L52.5519 94.9242L44.0846 84.4072C43.2149 87.9145 42.4586 92.3793 42.204 97.812C41.884 104.637 45.1533 117.944 45.0973 128.711C45.0372 140.276 41.6641 149.114 41.6641 149.114H43.9402C48.811 137.39 52.3254 127.231 54.8674 116.969L57.3284 95.5232Z" fill="#A8A8A8"/>
<path d="M59.2625 76.0676C56.6367 77.3032 57.476 85.9839 59.6208 90.6588L74.0503 74.8136C73.3363 72.0497 72.4049 68.1824 71.7937 64.6479C68.4899 69.659 65.8292 72.9777 59.2625 76.0676Z" fill="#FACFBC"/>
<path d="M59.6187 90.6597C57.4739 85.9846 56.6347 77.304 59.2604 76.0685C65.8271 72.9786 68.4879 69.6598 71.7916 64.6488C71.7403 64.3497 71.6929 64.056 71.6465 63.7637C69.8511 65.2596 67.9609 66.8382 66.2522 68.5646C64.8511 69.9803 55.4458 70.0804 53.8589 68.5302C52.2336 66.9422 50.5264 65.521 48.8944 64.1972C48.855 68.1122 48.209 72.0511 47.6328 74.8148L47.6336 74.8144L59.6187 90.6597Z" fill="#ED9E8A"/>
<path d="M82.4418 34.6531C82.3084 34.6319 82.1748 34.622 82.0421 34.6366C79.9853 34.8803 79.7135 39.0147 79.7046 41.0412C79.6531 38.614 79.5648 36.2295 79.4703 34.1578C79.3454 31.4199 80.4938 28.8585 80.8033 27.16C79.946 27.1846 79.0012 27.112 77.9546 26.9075C77.9518 26.9698 77.9483 27.0304 77.9478 27.0987C77.7055 27.1349 77.4686 27.1659 77.2307 27.1978C77.8389 27.4157 78.4529 27.6114 79.0657 27.7559C79.1106 27.7666 79.101 27.8396 79.0547 27.8368C78.2898 27.7898 77.5638 27.7515 76.818 27.5637C76.5609 27.499 76.3095 27.4193 76.0575 27.3413C58.1078 29.2915 53.1379 18.9204 52.0185 15.6063C51.9003 15.3634 51.787 15.118 51.6837 14.8672C51.6784 14.8793 51.6728 14.8914 51.6674 14.9034C51.3568 16.197 49.9254 21.5274 46.7323 24.8272C43.078 28.6038 41.0258 28.3463 41.0258 28.3463C41.0258 28.3463 42.4761 31.4356 40.4405 35.9617C40.5884 38.6386 40.4838 41.2212 39.7045 42.288C39.6454 42.3689 39.5897 42.439 39.5333 42.5114C39.5338 42.56 39.5341 42.6086 39.5346 42.6573C39.5321 42.6045 39.5301 42.5604 39.5281 42.5183C39.5216 42.3753 39.5176 42.288 39.5176 42.288C39.5176 42.288 39.4975 34.9602 36.7667 34.6367C36.4137 34.5978 36.0537 34.6926 35.7133 34.9086C34.5331 35.6574 33.6006 37.9423 34.1196 41.8526C34.721 46.4329 37.0727 49.489 38.6387 49.6594C39.1381 49.7187 39.5581 49.3675 39.7347 48.7899C39.9147 51.7012 40.2279 54.2091 40.7384 55.7019C41.7197 58.5709 45.104 61.119 48.8982 64.1969C50.5302 65.5207 52.2374 66.9419 53.8628 68.5298C55.4496 70.0801 64.8549 69.98 66.256 68.5643C67.9647 66.8378 69.8549 65.2592 71.6503 63.7634C75.0543 60.9271 78.1177 58.3881 78.9557 55.7019C79.3562 54.4187 79.5756 52.1506 79.6778 49.4424C79.869 49.6158 80.1691 49.6846 80.4373 49.6528C82.0033 49.4823 84.0878 46.4328 84.6892 41.8525C85.3017 37.2381 83.8942 34.8837 82.4418 34.6531Z" fill="#FACFBC"/>
<path d="M84.8321 20.5643C84.7472 19.7048 84.1919 18.4726 83.3186 17.0487C83.3846 17.0927 83.4486 17.139 83.5156 17.1822C83.8896 17.4232 84.301 17.5822 84.6888 17.7947L84.7261 17.7462C84.4027 17.4692 84.1327 17.1364 83.8151 16.8508C83.4957 16.5637 83.1793 16.2744 82.8579 15.9896C82.6459 15.8018 82.4416 15.6061 82.2358 15.4118L82.1918 15.3479C82.2806 15.4175 82.3672 15.49 82.4563 15.5591C82.7181 15.7622 82.9872 15.9488 83.2635 16.1316C83.4051 16.2254 83.5442 16.3187 83.6966 16.3942C83.8692 16.4797 84.0551 16.5142 84.2286 16.6005C84.2866 16.6293 84.3401 16.5607 84.2971 16.5117C84.1825 16.3811 84.1053 16.2271 84.0006 16.0908C83.8969 15.9556 83.7712 15.842 83.6477 15.7256C83.4003 15.4921 83.1549 15.2603 82.8965 15.0388C82.3798 14.5958 81.8712 14.1438 81.3657 13.688C80.8734 13.2441 80.3713 12.8114 79.8823 12.3638L79.83 12.3153C79.692 12.1515 79.5494 11.9876 79.408 11.8237C78.879 12.1222 78.1962 12.3923 77.3639 12.4937C77.838 12.8486 78.3122 13.2032 78.7888 13.5547C80.0304 14.4704 81.272 15.402 82.433 16.4182C82.4933 16.4711 82.416 16.5553 82.352 16.5232C80.9045 15.798 79.5265 14.9279 78.1782 14.0332C77.9095 13.8549 77.6401 13.6764 77.3709 13.4979C77.2617 13.4254 77.1521 13.3534 77.043 13.2805C77.1861 13.3993 77.3247 13.5234 77.4669 13.6435C78.3359 14.3771 79.1892 15.1294 80.0158 15.9106C81.7835 17.5812 83.5229 19.3352 84.8815 21.3616C84.871 21.0911 84.8576 20.8228 84.8321 20.5643Z" fill="#0C0C10"/>
<path d="M79.4706 16.4611C79.2105 16.2231 78.9442 15.9921 78.6794 15.7596C78.1279 15.2755 77.5708 14.7981 77.0039 14.3323C77.6484 14.9619 78.2732 15.5913 78.8793 16.2158C81.3215 18.7323 83.4181 21.1586 84.8673 23.0953C84.8917 22.6407 84.903 22.194 84.8968 21.7591C83.041 20.0419 81.3376 18.1685 79.4706 16.4611Z" fill="#1F1F29"/>
<path d="M48.6415 21.3761C48.5995 21.4443 48.5074 21.3965 48.5193 21.3246C48.8177 19.5319 49.5537 17.7864 50.2007 16.0945C50.4413 15.4653 50.6969 14.8427 50.9571 14.2217C50.764 14.5219 50.5759 14.8252 50.4021 15.1369C49.6863 16.4197 49.1208 17.7781 48.5982 19.1489C47.7044 21.4926 46.8045 24.3745 44.4794 25.6896C44.3597 25.7574 44.2465 25.6015 44.3361 25.5039C46.2599 23.4082 46.9947 20.7349 48.0206 18.1495C48.3225 17.3887 48.6453 16.6346 48.9992 15.8957C47.3794 18.1441 46.9397 21.4211 45.0565 23.5678C43.6953 25.1192 41.0786 26.9726 39.9894 27.7158C40.0856 28.0257 40.1868 28.334 40.2908 28.6412C40.6845 29.804 40.9974 30.9498 41.0105 32.1817C41.0124 32.3662 40.7495 32.3924 40.6975 32.2241C40.4222 31.3356 40.0703 30.4684 39.7422 29.5948C39.9764 31.1249 40.3077 33.5805 40.4392 35.9615C42.4749 31.4354 41.0245 28.3461 41.0245 28.3461C41.0245 28.3461 43.0767 28.6036 46.731 24.827C49.9241 21.5273 51.3555 16.1968 51.6661 14.9032C51.4388 15.4104 51.212 15.9179 50.9825 16.424C50.2339 18.0749 49.5932 19.8311 48.6415 21.3761Z" fill="#EFAD95"/>
<path d="M74.5744 25.9005C73.5782 25.5081 72.2682 24.7801 70.9492 23.9736L70.9936 24.0041C72.2078 24.8168 73.4753 25.5698 74.7991 26.1905C75.5776 26.5556 76.397 26.9002 77.2285 27.198C77.4665 27.1661 77.7034 27.135 77.9456 27.0988C77.9461 27.0306 77.9496 26.9701 77.9525 26.9076C76.9244 26.7066 75.8043 26.385 74.5744 25.9005Z" fill="#EFAD95"/>
<path d="M71.8743 25.4183L71.9558 25.4713C72.3431 25.7254 72.7338 25.9741 73.1265 26.2199C73.5403 26.479 73.9091 26.7973 74.3178 27.0649C74.3687 27.0981 74.3247 27.1688 74.2712 27.1448C73.7999 26.9338 73.3102 26.7822 72.8473 26.5531C72.4098 26.3365 71.9741 26.1163 71.5419 25.8897C70.7287 25.4632 69.9454 24.9639 69.1882 24.4435C70.0715 25.4894 70.666 26.3064 70.3224 26.2603C67.5495 25.8879 64.8005 24.9586 62.209 23.3747C59.2286 21.5532 56.3526 18.5675 54.4633 16.3828C54.9749 17.1607 55.5311 17.9142 56.1432 18.6429C57.8184 20.6371 59.8029 22.2968 61.7502 24.009C61.817 24.0677 61.7302 24.1749 61.6567 24.1302C59.3679 22.7331 57.2852 20.9166 55.4823 18.9312C54.4203 17.7616 53.4304 16.4491 52.6485 15.0359C52.9305 15.6904 53.2634 16.3248 53.6308 16.9338C54.0929 17.6998 54.614 18.4305 55.142 19.1519C55.6659 19.8679 56.1691 20.6013 56.6936 21.3141C56.7335 21.3683 56.6495 21.4236 56.6047 21.3827C55.88 20.719 55.1828 20.082 54.534 19.3383C53.9427 18.6605 53.4008 17.9371 52.9094 17.1838C52.5779 16.6757 52.2799 16.15 52.0156 15.6066C53.135 18.9207 58.1049 29.2918 76.0547 27.3417C75.5885 27.1976 75.1274 27.0392 74.6757 26.8493C73.7048 26.441 72.7764 25.9538 71.8743 25.4183Z" fill="#EFAD95"/>
<path d="M80.875 45.9516C80.875 45.9516 81.8786 45.7686 82.6392 44.078C83.6359 41.8627 83.5681 37.6448 82.6211 36.6135C81.4504 35.3384 81.4577 39.1865 81.4577 39.1865C81.4577 39.1865 80.5861 40.8581 81.2032 42.3058C81.9259 44.0014 80.875 45.9516 80.875 45.9516Z" fill="#EFAD95"/>
<path d="M62.7424 50.5301V49.8535L57.0234 49.8744L59.4551 51.523L62.7424 50.5301Z" fill="#ED9E8A"/>
<path d="M60.5027 38.4629L60.1094 43.7176L62.7505 48.9722L60.5027 38.4629Z" fill="#ED9E8A"/>
<path d="M73.0503 33.2402C75.7747 33.4844 76.9438 34.2771 77.2461 33.7591C77.5484 33.2409 75.4489 30.7896 72.8638 30.112C70.7858 29.5673 66.191 29.1995 66.0038 29.3521C65.5373 29.7324 65.8167 32.7769 66.0923 33.3084C66.1691 33.4564 70.6851 33.0282 73.0503 33.2402Z" fill="#1F1F29"/>
<path d="M65.0929 32.4474C65.1892 32.723 65.3175 33.1772 65.5937 33.2763L65.6402 33.2454C65.6684 33.1021 65.6336 32.9791 65.5903 32.8439C65.5359 32.6741 65.4821 32.5059 65.4435 32.3301C65.3743 32.0144 65.3683 31.6571 65.3793 31.3308C65.3908 30.9967 65.387 30.6669 65.425 30.3334C65.4453 30.1557 65.4319 29.9785 65.4354 29.8001C65.4385 29.6313 65.4409 29.4706 65.4267 29.3031C65.4201 29.2257 65.3195 29.1727 65.265 29.234C64.779 29.7824 64.6589 30.6585 64.7847 31.3809C64.85 31.7566 64.9697 32.0944 65.0929 32.4474Z" fill="#1F1F29"/>
<path d="M64.7793 32.8282C64.8089 32.8722 64.8797 32.827 64.8563 32.7762C64.7569 32.5599 64.6047 31.8097 64.5787 31.3293C64.566 31.0941 64.5713 30.852 64.5883 30.6164C64.5977 30.4851 64.629 30.355 64.5976 30.227C64.5699 30.1137 64.5446 29.9999 64.5238 29.8845L64.47 29.8616C64.395 29.9445 64.323 30.0307 64.2582 30.1238C64.1703 30.2501 64.1537 30.3869 64.1357 30.54C64.1025 30.8247 64.0938 31.1075 64.1506 31.3847C64.328 32.2504 64.6338 32.6114 64.7793 32.8282Z" fill="#1F1F29"/>
<path d="M67.7436 36.3797C69.7323 35.4336 72.5496 35.4824 73.1489 35.8067C73.8563 36.1897 74.3396 36.8318 74.6453 37.3732L74.6458 37.3733C74.6458 37.3733 74.3272 36.2456 73.4759 35.4524C72.7559 34.7818 71.8598 34.353 69.5521 34.734C67.4279 35.0846 65.1953 38.1209 65.1953 38.1209C65.719 37.5973 66.6948 36.8787 67.7436 36.3797Z" fill="#ED9E8A"/>
<path d="M67.6495 38.6839C67.5734 37.8776 67.9484 37.1486 68.5645 36.7124C68.3851 36.74 68.206 36.7701 68.0277 36.8025C67.2217 36.9489 66.0737 37.9406 65.3861 38.4587C65.3261 38.5416 65.293 38.5937 65.293 38.5937C65.293 38.5937 66.1556 39.7008 66.8327 40.0084C66.9987 40.0838 67.7351 40.3573 68.7189 40.4368L68.6941 40.4241C68.0377 40.0154 67.7112 39.4042 67.6495 38.6839Z" fill="white"/>
<path d="M72.1771 36.6296C71.7792 36.5672 71.3629 36.5386 70.9375 36.5322C70.9921 36.5581 71.0486 36.5808 71.1008 36.6105L71.1055 36.6102L71.1306 36.6278C71.7699 37.0129 72.2209 37.6741 72.2949 38.4367C72.3776 39.3332 71.69 40.2609 71.2092 40.5371L71.1162 40.5815C72.236 40.6137 73.2415 40.2889 73.4577 40.1496C73.9961 39.8026 74.6285 38.8072 74.6754 38.0238C73.9264 37.462 72.751 36.7195 72.1771 36.6296Z" fill="white"/>
<path d="M71.1327 36.6281L71.1077 36.6105L71.1029 36.6108C71.0507 36.5811 70.9942 36.5585 70.9396 36.5325C70.168 36.5209 69.3638 36.5896 68.5654 36.7123C67.9493 37.1486 67.5742 37.8775 67.6504 38.6838C67.712 39.4042 68.0386 40.0154 68.6951 40.4239L68.7199 40.4367C69.4726 40.5024 70.3347 40.5563 71.1184 40.5817L71.2114 40.5373C71.6922 40.2611 72.3799 39.3334 72.2971 38.4368C72.2231 37.6744 71.7721 37.0132 71.1327 36.6281Z" fill="#52A9DF"/>
<path d="M70.2199 37.9633C70.216 37.9035 70.2219 37.8458 70.2324 37.7895C70.1238 37.758 70.0095 37.7404 69.8907 37.7469C69.3497 37.7755 68.9388 38.2303 68.9884 38.7655C69.0352 39.2988 69.526 39.7104 70.0607 39.6833C70.6187 39.656 71.0218 39.1995 70.9705 38.6612C70.9691 38.6468 70.9642 38.6335 70.9622 38.6192C70.577 38.6412 70.2451 38.349 70.2199 37.9633Z" fill="#583636"/>
<path d="M74.6469 37.3728C74.3413 36.8314 73.8579 36.1892 73.1505 35.8063C72.5513 35.482 69.7339 35.4331 67.7452 36.3792C66.6964 36.8782 65.7206 37.5968 65.1968 38.1205C64.888 38.4293 64.7358 38.6705 64.8197 38.7584C64.8786 38.8199 65.0914 38.683 65.3894 38.4585C66.077 37.9405 67.225 36.9489 68.031 36.8024C68.2093 36.7699 68.3884 36.7398 68.5678 36.7122C69.3663 36.5895 70.1705 36.5208 70.9421 36.5324C71.3675 36.5387 71.7837 36.5674 72.1817 36.6298C72.7556 36.7197 73.9309 37.4623 74.6802 38.0239C74.8292 38.1357 74.9675 38.2428 75.0741 38.3333C75.0741 38.3333 74.9451 37.9011 74.6469 37.3728Z" fill="#583636"/>
<path d="M71.6282 37.8711C71.6028 37.4834 71.2678 37.1895 70.88 37.2149C70.5519 37.2365 70.2935 37.4803 70.2363 37.7895C70.2259 37.8457 70.22 37.9034 70.2238 37.9632C70.2491 38.349 70.5808 38.6411 70.9661 38.6192C70.9681 38.6191 70.97 38.6195 70.972 38.6194C71.3597 38.594 71.6535 38.259 71.6282 37.8711Z" fill="white"/>
<path d="M46.2274 35.8067C46.8265 35.4824 49.6439 35.4336 51.6326 36.3797C52.6814 36.8787 53.6571 37.5973 54.1809 38.1209C54.1809 38.1209 51.9485 35.0846 49.8241 34.734C47.5165 34.3531 46.6203 34.7817 45.9004 35.4525C45.049 36.2456 44.7305 37.3733 44.7305 37.3733L44.7309 37.3732C45.0366 36.8318 45.52 36.1897 46.2274 35.8067Z" fill="#ED9E8A"/>
<path d="M47.076 38.4367C47.15 37.6741 47.6011 37.0129 48.2403 36.6278L48.2654 36.6102L48.2702 36.6105C48.3224 36.5808 48.3788 36.5582 48.4334 36.5322C48.008 36.5386 47.5917 36.5672 47.1938 36.6296C46.6199 36.7195 45.4446 37.462 44.6953 38.0237C44.7423 38.8071 45.3748 39.8026 45.9132 40.1495C46.1293 40.2889 47.1348 40.6136 48.2547 40.5815L48.1616 40.5371C47.6809 40.2609 46.9933 39.3332 47.076 38.4367Z" fill="white"/>
<path d="M51.3436 36.8025C51.1653 36.7701 50.9861 36.74 50.8068 36.7124C51.4229 37.1486 51.7979 37.8776 51.7218 38.6839C51.6601 39.4042 51.3335 40.0154 50.6771 40.424L50.6523 40.4367C51.6362 40.3572 52.3726 40.0837 52.5386 40.0083C53.2157 39.7007 54.0784 38.5936 54.0784 38.5936C54.0784 38.5936 54.0453 38.5415 53.9854 38.4586C53.2977 37.9406 52.1495 36.9489 51.3436 36.8025Z" fill="white"/>
<path d="M50.8049 36.7123C50.0064 36.5896 49.2022 36.5209 48.4306 36.5325C48.376 36.5584 48.3196 36.5811 48.2673 36.6108L48.2626 36.6105L48.2375 36.6281C47.5983 37.0131 47.1472 37.6744 47.0732 38.437C46.9905 39.3335 47.6781 40.2612 48.1589 40.5374L48.2519 40.5818C49.0355 40.5564 49.8978 40.5026 50.6504 40.4368L50.6752 40.4241C51.3317 40.0156 51.6583 39.4043 51.7199 38.684C51.796 37.8775 51.421 37.1486 50.8049 36.7123Z" fill="#52A9DF"/>
<path d="M50.339 38.6196C49.9513 38.5942 49.6574 38.2592 49.6828 37.8714C49.6847 37.8417 49.6918 37.8138 49.6972 37.7853C49.6272 37.7654 49.5548 37.7511 49.4787 37.7472C48.9276 37.7171 48.4482 38.1294 48.3989 38.6614C48.3477 39.1997 48.7507 39.6562 49.3087 39.6835C49.8433 39.7107 50.3341 39.299 50.381 38.7657C50.3856 38.7154 50.3824 38.6668 50.3792 38.6182C50.3657 38.618 50.3528 38.6204 50.339 38.6196Z" fill="#583636"/>
<path d="M47.1933 36.6297C47.5912 36.5674 48.0075 36.5388 48.4329 36.5324C49.2045 36.5208 50.0087 36.5895 50.8072 36.7122C50.9866 36.7398 51.1657 36.7699 51.344 36.8023C52.1499 36.9487 53.2981 37.9404 53.9857 38.4585C54.2837 38.683 54.4963 38.8199 54.5552 38.7584C54.6392 38.6705 54.487 38.4292 54.1781 38.1204C53.6543 37.5968 52.6785 36.8782 51.6297 36.3792C49.641 35.4332 46.8237 35.482 46.2245 35.8063C45.5171 36.1892 45.0337 36.8314 44.728 37.3727C44.4298 37.901 44.3008 38.3333 44.3008 38.3333C44.4074 38.2426 44.5456 38.1356 44.6947 38.0238C45.4441 37.4622 46.6194 36.7197 47.1933 36.6297Z" fill="#583636"/>
<path d="M50.3414 38.6198C50.3551 38.6207 50.368 38.6182 50.3815 38.6184C50.7518 38.6215 51.065 38.3377 51.0896 37.9636C51.115 37.5758 50.8212 37.2408 50.4333 37.2154C50.0752 37.192 49.7653 37.4419 49.6995 37.7855C49.6941 37.814 49.6871 37.8419 49.6851 37.8716C49.6597 38.2594 49.9535 38.5944 50.3414 38.6198Z" fill="white"/>
<path d="M52.9679 33.3084C53.2436 32.777 53.5229 29.7324 53.0564 29.3521C52.8692 29.1995 48.2745 29.5673 46.1965 30.112C43.6113 30.7896 41.5119 33.2411 41.8142 33.7591C42.1165 34.2771 43.2855 33.4845 46.01 33.2403C48.3751 33.0283 52.8911 33.4565 52.9679 33.3084Z" fill="#1F1F29"/>
<path d="M53.4668 33.2763C53.7432 33.1771 53.8715 32.723 53.9678 32.4474C54.091 32.0944 54.2106 31.7565 54.276 31.3809C54.4016 30.6585 54.2816 29.7825 53.7955 29.234C53.7411 29.1727 53.6405 29.2257 53.6339 29.3031C53.6197 29.4706 53.6221 29.6313 53.6253 29.8001C53.6286 29.9785 53.6154 30.1557 53.6356 30.3334C53.6736 30.6669 53.6698 30.9966 53.6812 31.3308C53.6923 31.657 53.6863 32.0144 53.617 32.3301C53.5783 32.5058 53.5246 32.6741 53.4703 32.8439C53.4269 32.9792 53.3922 33.1022 53.4203 33.2453L53.4668 33.2763Z" fill="#1F1F29"/>
<path d="M54.4853 31.3294C54.4594 31.8098 54.3071 32.56 54.2078 32.7763C54.1844 32.8271 54.2553 32.8723 54.2847 32.8283C54.4302 32.6114 54.7362 32.2504 54.9134 31.3847C54.9702 31.1075 54.9614 30.8248 54.9283 30.54C54.9104 30.387 54.8937 30.2501 54.8058 30.1238C54.741 30.0307 54.669 29.9445 54.594 29.8616L54.5402 29.8845C54.5193 29.9999 54.4942 30.1137 54.4664 30.227C54.4351 30.355 54.4664 30.4851 54.4758 30.6164C54.4928 30.8521 54.498 31.0942 54.4853 31.3294Z" fill="#1F1F29"/>
<path d="M61.5685 61.3788C60.6826 61.1179 59.2959 61.0555 58.4561 61.5408C57.6668 61.9971 58.0979 62.998 58.9964 62.8861C59.322 62.8456 59.6218 62.6951 59.924 62.5672C60.2263 62.4392 60.5529 62.3302 60.8775 62.3788C61.1248 62.4159 61.3495 62.5416 61.5911 62.6062C61.8326 62.6709 62.1258 62.6578 62.2877 62.4673C62.4558 62.2694 62.4058 61.9515 62.2384 61.753C62.0711 61.5547 61.8176 61.4521 61.5685 61.3788Z" fill="#ED9E8A"/>
<path d="M36.7616 34.6366C39.4925 34.9601 39.5125 42.288 39.5125 42.288C39.5125 42.288 39.5165 42.3752 39.523 42.5182C39.5248 42.5159 39.5265 42.5136 39.5283 42.5113C39.5847 42.4388 39.6404 42.3689 39.6994 42.288C40.4787 41.221 40.5834 38.6385 40.4355 35.9616C40.3039 33.5806 39.9727 31.125 39.7384 29.5948C40.0666 30.4685 40.4185 31.3357 40.6937 32.2242C40.7458 32.3925 41.0087 32.3663 41.0067 32.1818C40.9936 30.9499 40.6807 29.8041 40.287 28.6413C40.183 28.3341 40.0818 28.0258 39.9856 27.7159C41.075 26.9727 43.6915 25.1193 45.0527 23.5679C46.9359 21.4213 47.3756 18.1442 48.9955 15.8958C48.6415 16.6347 48.3187 17.3888 48.0169 18.1496C46.9909 20.735 46.2561 23.4083 44.3324 25.504C44.2427 25.6017 44.3559 25.7574 44.4756 25.6897C46.8008 24.3746 47.7008 21.4927 48.5944 19.149C49.1171 17.7782 49.6826 16.4198 50.3983 15.137C50.5721 14.8254 50.7602 14.522 50.9533 14.2218C50.6931 14.8428 50.4375 15.4653 50.1969 16.0946C49.5499 17.7865 48.8139 19.532 48.5155 21.3247C48.5036 21.3966 48.5956 21.4443 48.6378 21.3762C49.5894 19.8312 50.2302 18.075 50.9788 16.4242C51.2083 15.918 51.4351 15.4106 51.6624 14.9034C51.6679 14.8914 51.6733 14.8793 51.6788 14.8672C51.782 15.118 51.8954 15.3635 52.0135 15.6063C52.2777 16.1497 52.5757 16.6754 52.9072 17.1835C53.3987 17.9368 53.9407 18.6602 54.5319 19.3379C55.1807 20.0818 55.8779 20.7187 56.6026 21.3823C56.6474 21.4233 56.7314 21.368 56.6914 21.3138C56.167 20.601 55.6638 19.8676 55.1399 19.1516C54.6119 18.4301 54.0909 17.6994 53.6287 16.9335C53.2612 16.3245 52.9284 15.6901 52.6463 15.0356C53.4283 16.4488 54.4182 17.7612 55.4802 18.9309C57.283 20.9164 59.3657 22.7329 61.6546 24.1298C61.728 24.1746 61.8147 24.0674 61.7481 24.0087C59.8008 22.2965 57.8163 20.6368 56.1411 18.6426C55.529 17.914 54.9728 17.1605 54.4612 16.3825C56.3505 18.5671 59.2265 21.5528 62.2068 23.3744C64.7984 24.9583 67.5474 25.8876 70.3203 26.26C70.6638 26.3061 70.0694 25.4892 69.1861 24.4431C69.9433 24.9636 70.7265 25.463 71.5397 25.8893C71.972 26.116 72.4077 26.3362 72.8452 26.5528C73.308 26.7819 73.7978 26.9335 74.269 27.1445C74.3227 27.1685 74.3666 27.0979 74.3157 27.0645C73.907 26.797 73.5382 26.4787 73.1244 26.2196C72.7318 25.9738 72.3411 25.725 71.9536 25.471L71.8722 25.418C72.7743 25.9535 73.7028 26.4406 74.6737 26.8488C75.1254 27.0386 75.5865 27.197 76.0526 27.3411C76.3046 27.419 76.556 27.4987 76.8131 27.5635C77.5589 27.7512 78.2849 27.7894 79.0498 27.8365C79.0961 27.8394 79.1058 27.7663 79.0608 27.7557C78.448 27.6111 77.834 27.4154 77.2258 27.1976C76.3942 26.8999 75.5748 26.5552 74.7964 26.1902C73.4726 25.5694 72.205 24.8164 70.9909 24.0037L70.9465 23.9732C72.2654 24.7797 73.5754 25.5077 74.5716 25.9001C75.8017 26.3846 76.9217 26.7062 77.9497 26.9072C78.9962 27.1118 79.941 27.1843 80.7983 27.1598C82.5681 27.1091 83.9603 26.6457 85.0555 26.0452C85.5247 25.788 85.9422 25.5076 86.3109 25.2248C85.9529 24.6182 85.4624 23.8987 84.8611 23.0951C83.4119 21.1584 81.3153 18.732 78.8731 16.2155C78.267 15.591 77.6422 14.9616 76.9977 14.332C77.5646 14.7978 78.1217 15.2753 78.6731 15.7593C78.938 15.9919 79.2043 16.2229 79.4644 16.4608C81.3314 18.1683 83.0349 20.0417 84.8905 21.759C85.0104 21.8699 85.1254 21.986 85.2469 22.0956C85.2846 22.1297 85.3479 22.0861 85.3195 22.0395C85.1795 21.809 85.0306 21.5848 84.8807 21.3612C83.5221 19.3348 81.7827 17.5807 80.0151 15.9101C79.1885 15.129 78.3352 14.3766 77.4661 13.643C77.324 13.523 77.1854 13.3988 77.0422 13.28C77.1513 13.3528 77.2608 13.4249 77.3702 13.4975C77.6393 13.676 77.9088 13.8544 78.1775 14.0327C79.5257 14.9275 80.9037 15.7975 82.3512 16.5227C82.4152 16.5548 82.4925 16.4706 82.4322 16.4178C81.2712 15.4015 80.0297 14.4699 78.7881 13.5543C78.3114 13.2027 77.8372 12.8481 77.3632 12.4932C78.1954 12.3919 78.8782 12.1217 79.4072 11.8233C80.2923 11.3239 80.7463 10.7452 80.7463 10.7452C80.7463 10.7452 79.6427 10.567 77.9459 10.1935C77.6277 10.1234 77.291 10.0472 76.9344 9.96327C77.1993 9.97083 77.4645 9.96538 77.7295 9.96151C78.2247 9.9543 78.7199 9.93319 79.2151 9.87621C79.3082 9.86549 79.3524 9.71178 79.2396 9.69446C78.5674 9.59097 77.8918 9.50611 77.2157 9.42363C76.0466 9.28101 74.8754 9.14762 73.713 8.95241C73.2302 8.87134 72.7498 8.77734 72.2704 8.67815C73.6123 8.83907 74.9784 8.95021 76.2946 8.78103L76.3015 8.73056C74.5634 8.2203 72.7 8.10933 70.914 7.80262C70.3581 7.70722 69.8003 7.59722 69.2414 7.48906C70.6951 7.74336 72.2267 7.93039 73.6777 7.66976C73.7226 7.66167 73.7211 7.58983 73.6777 7.58051C72.0799 7.23696 70.4359 7.15616 68.833 6.81569C68.0268 6.64448 67.2283 6.43635 66.4414 6.19138C66.1704 6.10705 65.9052 6.01613 65.64 5.92829C62.9345 4.4667 60.6152 2.89141 58.5858 2.15939C57.4972 1.76669 56.4907 1.61254 55.5561 1.85796C53.9219 2.28697 51.742 3.83236 50.4286 4.84999C50.0465 5.14605 49.734 5.39982 49.5343 5.56548C49.545 5.46454 49.5525 5.36316 49.5686 5.26309C49.5842 5.16619 49.6057 5.0707 49.6248 4.97468C49.7474 4.35582 49.9294 3.75234 50.0781 3.13911C50.1032 3.03562 49.9757 2.95666 49.8976 3.03413C49.3742 3.55318 49.0612 4.23702 48.8627 4.94073C48.6195 4.64458 48.3566 4.37622 48.0482 4.14505C47.7379 3.91247 47.3574 3.67637 46.9569 3.69422C46.8894 3.6973 46.8612 3.76061 46.8858 3.81794C47.0306 4.15516 47.3182 4.41992 47.5589 4.6918C47.6908 4.84067 47.8199 4.99314 47.9453 5.1486C48.0374 5.26274 48.1285 5.37784 48.213 5.49734C47.7437 5.38338 47.1552 5.26001 46.5304 5.17103C45.8412 5.07307 45.1074 5.01723 44.4335 5.06806C42.6793 5.0044 40.9756 6.7238 39.7577 7.73395C38.0399 9.15861 36.2477 10.3716 34.3352 11.5109C34.261 11.5552 34.3135 11.6548 34.3907 11.6425C35.2415 11.5063 36.0286 11.1757 36.7701 10.7453C35.2159 12.0799 33.6228 13.3793 32.1897 14.8451C32.1019 14.935 32.2157 15.0931 32.3267 15.0227C33.8339 14.068 35.2299 12.9494 36.6157 11.8253C36.4038 12.0423 36.187 12.2545 35.9837 12.4797C35.0868 13.4735 34.237 14.5126 33.386 15.5457C32.9524 16.0721 32.5062 16.5885 32.0329 17.0798C31.5686 17.5619 31.1231 18.0992 30.6264 18.5423C30.5869 18.5775 30.6378 18.6416 30.6825 18.615C31.2351 18.2839 31.7685 17.9937 32.2596 17.5682C32.774 17.1224 33.2619 16.6469 33.7373 16.1599C34.1139 15.7741 34.4743 15.3734 34.8319 14.97C34.5887 15.3573 34.3488 15.7468 34.1098 16.137C33.4779 17.1687 32.8626 18.2126 32.1535 19.1941C31.7987 19.6852 31.4378 20.1739 31.0397 20.631C30.6305 21.1007 30.217 21.6276 29.7782 22.0625C29.6996 22.1404 29.8003 22.2725 29.8966 22.2159C30.4181 21.9094 30.8631 21.6616 31.3095 21.2368C31.6397 20.9226 31.9507 20.5862 32.2473 20.2384C32.1968 20.4265 32.1491 20.6136 32.1057 20.7966C31.9111 21.6179 31.7863 22.4509 31.7597 23.2948C31.731 24.2076 31.8511 25.0144 32.0416 25.9007C32.0515 25.9469 32.1216 25.9352 32.1224 25.8898C32.1358 25.159 32.2187 24.4008 32.3078 23.6686C32.3215 23.793 32.3353 23.9174 32.352 24.0417C32.5341 25.3939 32.9153 26.6827 33.3941 27.955C33.4091 27.9949 33.4795 27.9938 33.4749 27.9441C33.3631 26.725 33.1839 25.5141 33.0819 24.2941C33.6947 27.4014 34.8022 31.6239 35.7084 34.9083C36.0487 34.6925 36.4087 34.5976 36.7616 34.6366Z" fill="#1F1F29"/>
<path d="M37.5976 42.3058C38.2147 40.8581 37.343 39.1865 37.343 39.1865C37.343 39.1865 37.3503 35.3384 36.1796 36.6135C35.2327 37.6448 35.1649 41.8627 36.1616 44.078C36.9222 45.7686 37.9258 45.9516 37.9258 45.9516C37.9258 45.9516 36.8748 44.0014 37.5976 42.3058Z" fill="#EFAD95"/>
<path d="M65.7887 57.0896C65.5737 57.23 65.3413 57.3572 65.0825 57.4757C64.1963 57.8749 63.0382 58.1249 61.4457 58.1775C59.9147 58.2302 58.0547 58.0986 56.6903 57.8002C56.0455 57.6599 55.5147 57.48 55.1813 57.265C54.8733 57.0658 54.4465 56.2753 54.0547 55.4267C54.4965 56.5895 55.1762 58.2263 55.6059 58.5262C55.9149 58.7412 56.4069 58.921 57.0046 59.0614C58.2692 59.3598 59.9933 59.4913 61.4123 59.4387C62.8883 59.386 63.9619 59.136 64.7832 58.7368C65.0232 58.6183 65.2387 58.4911 65.4379 58.3507C66.0356 57.9264 66.604 56.3654 66.9444 55.2627C66.6111 56.0596 66.2071 56.8143 65.7887 57.0896Z" fill="#ED9E8A"/>
<path d="M65.3168 55.7167C64.7821 55.776 64.2147 55.8596 63.6289 55.9476C64.4169 56.3266 64.9572 56.8653 65.0843 57.4758C65.343 57.3574 65.5756 57.2301 65.7905 57.0898C66.2088 56.8145 66.6129 56.0598 66.9462 55.2629C67.4308 54.1045 67.7647 52.8564 67.7647 52.8564C67.7647 52.8564 67.618 52.9685 67.354 53.1178C66.9305 54.3675 66.5734 55.7167 65.3168 55.7167Z" fill="#583636"/>
<path d="M55.1799 57.2654C55.5134 57.4804 56.0441 57.6602 56.689 57.8007V57.7568C56.689 57.187 57.0456 56.6639 57.6388 56.2541C55.9592 55.9637 54.4913 55.1446 53.5724 53.2923C53.241 53.1158 53.0391 52.9751 53.0391 52.9751C53.0391 52.9751 53.5127 54.2568 54.0533 55.4272C54.4452 56.2758 54.872 57.0663 55.1799 57.2654Z" fill="#583636"/>
<path d="M63.6282 55.9473C61.6832 56.2391 59.5288 56.58 57.6412 56.2536C57.048 56.6635 56.6914 57.1866 56.6914 57.7563V57.8002C58.0557 58.0985 59.9157 58.23 61.4468 58.1775C63.0392 58.1248 64.1974 57.8748 65.0835 57.4756C64.9565 56.865 64.4162 56.3263 63.6282 55.9473Z" fill="#AC390F"/>
<path d="M57.6375 56.2542C59.525 56.5806 61.6795 56.2397 63.6244 55.9478C64.2102 55.8599 64.7777 55.7763 65.3124 55.7169C66.5689 55.7169 66.9261 54.3676 67.3495 53.1179C67.3496 53.1175 67.3498 53.1171 67.35 53.1167C67.2966 53.1469 67.2379 53.1781 67.1751 53.2098C67.1719 53.2114 67.1694 53.2129 67.1662 53.2145C66.7046 53.4464 65.998 53.7058 65.1336 53.8024C63.9202 53.938 56.2262 54.0079 55.6349 53.9383C54.8155 53.8419 54.0468 53.5454 53.5703 53.2909C53.5705 53.2913 53.5707 53.2918 53.5711 53.2923C54.49 55.1446 55.9578 55.9637 57.6375 56.2542Z" fill="white"/>
<path d="M59.6211 90.6596L64.5706 87.4553L67.7624 94.9245L77.5162 84.0751C75.9462 77.9036 74.0506 74.8145 74.0506 74.8145L59.6211 90.6596Z" fill="#E6E6E6"/>
<path d="M116.24 112.106C112.235 92.9281 102.221 91.5176 95.4274 87.1365L95.4272 87.1364C93.5245 85.7142 90.7871 84.0106 87.904 82.3301C90.4937 89.3699 91.4701 99.7922 88.9453 106.509C88.535 107.601 81.8001 104.335 81.8001 104.335C81.8001 104.335 88.6392 110.234 88.0298 111.951C83.4556 124.841 78.2703 137.249 84.394 149.114H90.7888H97.4878H98.444H103.594C103.594 149.114 99.2451 129.626 99.5884 123.904C99.7218 121.682 99.4826 115.906 99.001 109.57C99.9291 113.046 100.592 117.166 100.847 122.026C101.311 130.845 104.764 138.049 105.836 149.114H121.685C120.229 136.272 118.352 122.233 116.24 112.106Z" fill="#F58218"/>
<path d="M99.0039 109.57C99.4856 115.906 99.7248 121.682 99.5914 123.904C99.2481 129.626 103.597 149.114 103.597 149.114H105.839C104.767 138.049 101.314 130.845 100.85 122.026C100.595 117.166 99.932 113.045 99.0039 109.57Z" fill="#2F2E41"/>
<path d="M88.0313 111.951C88.6407 110.234 81.8016 104.335 81.8016 104.335C81.8016 104.335 88.5366 107.601 88.9468 106.51C91.4715 99.7926 90.4951 89.3703 87.9055 82.3305C87.9053 82.3303 87.9052 82.33 87.9052 82.33C87.8999 82.327 87.8944 82.3239 87.889 82.321C86.8807 81.757 85.777 81.1474 84.6469 80.528C79.6117 77.7686 74.0508 74.8145 74.0508 74.8145C74.0508 74.8145 75.9465 77.9036 77.5164 84.0751C78.4209 87.6308 79.2177 92.2066 79.4805 97.8123C79.8006 104.638 76.5311 117.944 76.5872 128.711C76.6473 140.276 80.0204 149.114 80.0204 149.114H84.3955C78.2718 137.249 83.4571 124.842 88.0313 111.951Z" fill="#2F2E41"/>
<path d="M47.635 74.8145C47.635 74.8145 45.6713 78.0146 44.0859 84.4076L52.5533 94.9245L54.6705 87.9132L59.62 90.6597L47.635 74.8145Z" fill="#E6E6E6"/>
<path d="M22.0955 123.904C21.9621 121.682 22.2013 115.906 22.683 109.57C21.755 113.045 21.0922 117.166 20.8367 122.026C20.373 130.845 16.9202 138.049 15.8477 149.114H16.2148H18.0901C18.0901 149.114 22.4388 129.626 22.0955 123.904Z" fill="#2F2E41"/>
<path d="M33.6547 111.951C33.0454 110.234 39.8845 104.335 39.8845 104.335C39.8845 104.335 33.1494 107.601 32.7391 106.509C30.2144 99.7922 31.1908 89.3698 33.7807 82.3301C30.8974 84.0106 28.16 85.7141 26.2574 87.1364C26.2574 87.1364 26.2573 87.1365 26.2571 87.1365C19.4639 91.5176 9.44977 92.9281 5.44408 112.106C3.33188 122.233 1.45587 136.272 0 149.114H15.8483C16.9208 138.049 20.3736 130.845 20.8373 122.026C21.0928 117.166 21.7555 113.045 22.6836 109.57C22.2019 115.906 21.9627 121.682 22.0961 123.904C22.4394 129.626 18.0907 149.114 18.0907 149.114H24.1967H30.8957H37.2905C43.4142 137.249 38.2289 124.841 33.6547 111.951Z" fill="#F58218"/>
<path d="M42.206 97.8123C42.4608 92.3796 43.217 87.9148 44.0867 84.4076C45.672 78.0146 47.6358 74.8145 47.6358 74.8145L47.635 74.8149C47.6202 74.8228 42.0681 77.7724 37.0396 80.528C35.9092 81.1476 34.8052 81.7572 33.7967 82.3215C33.7917 82.3243 33.7864 82.3272 33.7813 82.33C33.7813 82.33 33.7813 82.3303 33.7812 82.3305C31.1913 89.3702 30.2149 99.7926 32.7396 106.51C33.1499 107.601 39.885 104.335 39.885 104.335C39.885 104.335 33.0459 110.234 33.6553 111.951C38.2294 124.841 43.4147 137.249 37.291 149.114H41.6661C41.6661 149.114 45.0392 140.276 45.0994 128.711C45.1554 117.944 41.886 104.638 42.206 97.8123Z" fill="#2F2E41"/>
<path d="M62.6223 95.5799C63.3676 94.7216 64.5693 87.4546 64.5693 87.4546L59.6197 90.6589L54.6702 87.9124C54.6702 87.9124 56.3296 94.321 57.3295 95.5227L54.8685 116.968L51.1797 149.114H53.3604H67.3159L62.6223 95.5799Z" fill="#2F2E41"/>
<path d="M57.6352 100.616L53.3633 149.114L61.4314 137.008L57.6352 100.616Z" fill="#F58218"/>
</svg>
