<svg width="132" height="149" viewBox="0 0 132 149" fill="none" xmlns="http://www.w3.org/2000/svg">
<g clip-path="url(#clip0_93_80997)">
<path d="M74.8324 114.337C106.406 114.337 132.001 88.7415 132.001 57.1683C132.001 25.5951 106.406 0 74.8324 0C43.2592 0 17.6641 25.5951 17.6641 57.1683C17.6641 88.7415 43.2592 114.337 74.8324 114.337Z" fill="#E9E9E9"/>
<path d="M112.189 25.5657H7.46442C7.23986 25.5609 7.0617 25.3749 7.0665 25.1504C7.07116 24.9326 7.24662 24.7571 7.46442 24.7524H112.189C112.413 24.7572 112.592 24.9432 112.587 25.1677C112.582 25.3856 112.407 25.561 112.189 25.5657Z" fill="black"/>
<path d="M76.5004 39.269H47.5505C45.376 39.269 43.6133 41.0318 43.6133 43.2063V43.2063C43.6133 45.3807 45.376 47.1435 47.5505 47.1435H76.5004C78.6749 47.1435 80.4377 45.3807 80.4377 43.2063C80.4377 41.0318 78.6749 39.269 76.5004 39.269Z" fill="white"/>
<path d="M28.8474 55.0178H95.201C97.3755 55.0178 99.1382 56.7806 99.1382 58.9551C99.1382 61.1295 97.3755 62.8923 95.201 62.8923H28.8474C26.6729 62.8923 24.9102 61.1295 24.9102 58.9551C24.9102 56.7806 26.6729 55.0178 28.8474 55.0178Z" fill="white"/>
<path d="M28.8474 70.7668H95.201C97.3755 70.7668 99.1382 72.5296 99.1382 74.7041C99.1382 76.8785 97.3755 78.6413 95.201 78.6413H28.8474C26.6729 78.6413 24.9102 76.8785 24.9102 74.7041C24.9102 72.5296 26.6729 70.7668 28.8474 70.7668Z" fill="white"/>
<path d="M20.6248 148.043L20.4686 148.028C15.1702 147.481 10.3805 144.632 7.37199 140.236C6.54791 139.012 5.88134 137.688 5.38798 136.297L5.34056 136.164L5.48094 136.153C7.15705 136.018 8.87893 135.733 9.64384 135.598L4.71145 133.927L4.68095 133.781C4.38853 132.407 4.96142 130.993 6.12783 130.21C7.2974 129.39 8.84835 129.364 10.045 130.144C10.582 130.487 11.1437 130.827 11.6869 131.156C13.5534 132.285 15.4836 133.452 16.9307 135.05C19.125 137.52 20.0868 140.85 19.5483 144.11L20.6248 148.043Z" fill="#F2F2F2"/>
<path d="M38.5554 145.59L40.9861 145.59L42.1428 136.213L38.5547 136.213L38.5554 145.59Z" fill="#A0616A"/>
<path d="M38.4689 148.126L45.9445 148.126V148.032C45.9444 146.425 44.6417 145.122 43.0348 145.122L41.6691 144.086L39.1213 145.122L38.4688 145.122L38.4689 148.126Z" fill="#2F2E41"/>
<path d="M19.0742 138.857L21.0186 140.316L27.5711 133.509L24.701 131.356L19.0742 138.857Z" fill="#A0616A"/>
<path d="M17.4844 140.834L23.4643 145.321L23.5211 145.245C24.4853 143.959 24.2251 142.136 22.9397 141.171L22.469 139.523L19.8093 138.823L19.2872 138.431L17.4844 140.834Z" fill="#2F2E41"/>
<path d="M27.1567 101.587C27.1567 101.587 27.2909 105.247 27.4602 108.183C27.4879 108.665 26.36 109.188 26.3892 109.711C26.4086 110.059 26.6206 110.397 26.6403 110.759C26.6611 111.141 26.3683 111.48 26.3892 111.875C26.4096 112.262 26.7435 112.705 26.7636 113.1C26.9804 117.356 27.7662 122.451 26.9793 123.875C26.5915 124.577 21.6484 134.302 21.6484 134.302C21.6484 134.302 24.4026 138.433 25.1895 137.056C26.2288 135.237 34.2387 126.728 34.2387 125.103C34.2387 123.48 36.0919 111.317 36.0919 111.317L37.384 118.515L37.9765 119.941L37.7903 120.778L38.1732 121.908L38.1939 123.026L38.5667 125.103C38.5667 125.103 37.4454 141.282 38.0768 141.732C38.7103 142.185 41.7772 142.997 42.1392 142.185C42.4992 141.372 44.8425 125.3 44.8425 125.3C44.8425 125.3 45.2202 117.934 45.6294 111.088C45.6529 110.691 45.9323 110.211 45.954 109.82C45.9795 109.365 45.8025 108.775 45.8261 108.334C45.8517 107.829 46.0759 107.473 46.0976 106.989C46.2648 103.249 45.3261 98.695 45.0271 98.2464C44.1241 96.893 43.3116 95.811 43.3116 95.811C43.3116 95.811 31.1497 91.8151 27.8999 95.8754L27.1567 101.587Z" fill="#5E5D6F"/>
<path d="M39.2856 63.944L34.4644 62.9797L32.2145 66.0332C28.0163 70.1611 27.953 73.8044 28.7025 79.6442V87.8403L28.1601 93.3347C28.1601 93.3347 26.2398 97.3512 28.2204 98.2863C30.2009 99.2215 43.2098 99.1417 44.4519 98.7684C45.6939 98.3951 44.6173 97.9368 44.2912 96.1971C43.6785 92.9292 44.0883 94.5055 44.1305 93.4651C44.735 78.5397 43.3269 72.4123 43.184 70.8017L40.732 66.3546L39.2856 63.944Z" fill="#2F2E41"/>
<path d="M64.6936 75.9778C64.1911 76.9299 63.012 77.2943 62.0599 76.7919C61.9584 76.7383 61.8618 76.6758 61.7713 76.6053L51.3594 83.2163L51.3894 79.6169L61.5038 73.7474C62.2242 72.9396 63.4631 72.8688 64.2708 73.5893C64.9467 74.1921 65.1215 75.1796 64.6936 75.9778Z" fill="#A0616A"/>
<path d="M35.4763 68.1123L34.291 67.9867C33.1957 67.8731 32.121 68.3422 31.4597 69.2226C31.2063 69.5565 31.0244 69.9389 30.9251 70.3461L30.9244 70.3493C30.6271 71.5749 31.0934 72.8594 32.1079 73.6087L36.202 76.6271C39.0751 80.5094 44.4749 83.085 50.8088 85.1775L60.6541 79.0631L57.1718 74.8456L50.4189 78.4647L40.381 70.6944L40.3752 70.6897L36.5548 68.2283L35.4763 68.1123Z" fill="#2F2E41"/>
<path d="M37.6574 61.5763C40.7625 61.5763 43.2797 59.0591 43.2797 55.954C43.2797 52.849 40.7625 50.3318 37.6574 50.3318C34.5523 50.3318 32.0352 52.849 32.0352 55.954C32.0352 59.0591 34.5523 61.5763 37.6574 61.5763Z" fill="#A0616A"/>
<path d="M37.7827 61.5776C37.7374 61.5791 37.692 61.5801 37.6466 61.5814C37.6272 61.6318 37.6062 61.6817 37.582 61.7307L37.7827 61.5776Z" fill="#2F2E41"/>
<path d="M39.3281 56.1101C39.3369 56.1655 39.3504 56.22 39.3684 56.2732C39.361 56.2175 39.3475 56.1628 39.3281 56.1101Z" fill="#2F2E41"/>
<path d="M43.3488 50.5722C43.1174 51.2908 42.9109 50.3793 42.1496 50.5432C41.2338 50.7405 40.1681 50.6727 39.4181 50.1114C38.3007 49.2915 36.8526 49.0708 35.5416 49.5205C34.2584 49.9745 32.1085 50.2946 31.7741 51.6141C31.6579 52.0728 31.6118 52.5705 31.33 52.9506C31.0837 53.283 30.695 53.4725 30.3699 53.7283C29.2721 54.592 30.1111 57.0458 30.6307 58.3423C31.1502 59.6389 32.342 60.5834 33.6523 61.0672C34.9201 61.5353 36.2961 61.6179 37.6486 61.5811C37.8838 60.971 37.7822 60.2664 37.5881 59.6339C37.3779 58.9493 37.0668 58.2885 36.979 57.5777C36.8913 56.8669 37.084 56.0595 37.68 55.6624C38.2278 55.2973 39.1193 55.5197 39.3277 56.1099C39.2061 55.372 39.9535 54.658 40.7243 54.5324C41.5518 54.3976 42.3792 54.6963 43.2043 54.845C44.0294 54.9937 43.7365 51.52 43.3488 50.5722Z" fill="#2F2E41"/>
<path d="M74.7921 65.2545C75.3163 58.9217 70.6074 53.3631 64.2746 52.839C57.9419 52.3149 52.3833 57.0237 51.8592 63.3565C51.335 69.6893 56.0439 75.2479 62.3767 75.772C68.7094 76.2961 74.268 71.5873 74.7921 65.2545Z" fill="#F58218"/>
<path d="M66.3474 59.5115L63.325 62.5338L60.3027 59.5115C59.8135 59.0222 59.0202 59.0222 58.531 59.5115C58.0418 60.0007 58.0418 60.7939 58.531 61.2832L61.5533 64.3055L58.531 67.3278C58.0422 67.8175 58.0429 68.6108 58.5327 69.0996C59.0217 69.5877 59.8137 69.5877 60.3027 69.0996L63.325 66.0772L66.3474 69.0996C66.8371 69.5883 67.6303 69.5876 68.1191 69.0979C68.6072 68.6088 68.6072 67.8169 68.1191 67.3278L65.0968 64.3055L68.1191 61.2832C68.6083 60.7939 68.6083 60.0007 68.1191 59.5115C67.6298 59.0222 66.8366 59.0222 66.3474 59.5115Z" fill="white"/>
<path d="M58.7916 54.635C59.1307 55.6567 58.5774 56.7599 57.5557 57.099C57.4468 57.1352 57.3349 57.1617 57.2213 57.1781L54.7836 69.2683L52.207 66.7547L54.9738 55.3926C54.8897 54.3135 55.6963 53.3706 56.7754 53.2865C57.6783 53.2161 58.5118 53.7736 58.7916 54.635Z" fill="#A0616A"/>
<path d="M32.8878 70.2732L31.9765 71.0416C31.1363 71.7533 30.7308 72.8535 30.9082 73.9403C30.9738 74.3542 31.1238 74.7503 31.3489 75.1038L31.3507 75.1066C32.0293 76.1696 33.279 76.7223 34.522 76.509L39.5345 75.6444C44.3251 76.2588 49.9219 74.1455 55.8169 71.0235L58.2206 59.686L52.7664 59.2791L50.7029 66.6575L38.1466 68.5215L38.1392 68.5224L33.7181 69.5752L32.8878 70.2732Z" fill="#2F2E41"/>
<path d="M61.4305 148.32L0.267124 148.39C0.119119 148.389 -0.000477967 148.269 1.43624e-06 148.121C0.000476338 147.973 0.119792 147.854 0.267124 147.854L61.4305 147.784C61.5785 147.785 61.6981 147.905 61.6976 148.053C61.6971 148.201 61.5778 148.32 61.4305 148.32Z" fill="black"/>
<path d="M12.7823 20.4147C13.8334 20.4147 14.6856 19.5436 14.6856 18.469C14.6856 17.3943 13.8334 16.5232 12.7823 16.5232C11.7311 16.5232 10.8789 17.3943 10.8789 18.469C10.8789 19.5436 11.7311 20.4147 12.7823 20.4147Z" fill="#2F2E41"/>
<path d="M19.3565 20.4147C20.4077 20.4147 21.2598 19.5436 21.2598 18.469C21.2598 17.3943 20.4077 16.5232 19.3565 16.5232C18.3053 16.5232 17.4531 17.3943 17.4531 18.469C17.4531 19.5436 18.3053 20.4147 19.3565 20.4147Z" fill="#2F2E41"/>
<path d="M25.9307 20.4147C26.9819 20.4147 27.834 19.5436 27.834 18.469C27.834 17.3943 26.9819 16.5232 25.9307 16.5232C24.8795 16.5232 24.0273 17.3943 24.0273 18.469C24.0273 19.5436 24.8795 20.4147 25.9307 20.4147Z" fill="#2F2E41"/>
<path d="M33.4312 20.0068C33.3728 20.0068 33.3144 19.9841 33.2704 19.9391L31.9861 18.6262C31.9005 18.5387 31.9005 18.399 31.9861 18.3115L33.2704 16.9987C33.3575 16.9099 33.5002 16.9085 33.5886 16.9952C33.6775 17.0822 33.6791 17.2247 33.5921 17.3135L32.4618 18.4689L33.5921 19.6243C33.6791 19.7131 33.6775 19.8557 33.5886 19.9426C33.5449 19.9855 33.4881 20.0068 33.4312 20.0068Z" fill="#2F2E41"/>
<path d="M35.5884 20.0069C35.5316 20.0069 35.4747 19.9856 35.431 19.9428C35.3421 19.8558 35.3405 19.7134 35.4275 19.6245L36.5577 18.469L35.4275 17.3137C35.3405 17.2249 35.3421 17.0823 35.431 16.9954C35.5197 16.9083 35.6623 16.91 35.7493 16.9989L37.0334 18.3116C37.119 18.3991 37.119 18.5389 37.0334 18.6264L35.7493 19.9392C35.7052 19.9843 35.6468 20.0069 35.5884 20.0069Z" fill="#2F2E41"/>
<path d="M102.772 16.7485H100.384C100.111 16.7485 99.8906 16.9691 99.8906 17.2414V19.6317C99.8906 19.9041 100.111 20.1246 100.384 20.1246H102.772C103.044 20.1246 103.267 19.9041 103.267 19.6317V17.2414C103.267 16.9691 103.044 16.7485 102.772 16.7485Z" fill="#2F2E41"/>
<path d="M96.92 16.7485H94.532C94.2596 16.7485 94.0391 16.9691 94.0391 17.2414V19.6317C94.0391 19.9041 94.2596 20.1246 94.532 20.1246H96.92C97.1923 20.1246 97.4151 19.9041 97.4151 19.6317V17.2414C97.4151 16.9691 97.1923 16.7485 96.92 16.7485Z" fill="#2F2E41"/>
<path d="M108.291 16.8611H105.903C105.631 16.8611 105.41 17.0816 105.41 17.354V19.7443C105.41 20.0166 105.631 20.2372 105.903 20.2372H108.291C108.563 20.2372 108.786 20.0166 108.786 19.7443V17.354C108.786 17.0816 108.563 16.8611 108.291 16.8611Z" fill="#2F2E41"/>
<path d="M72.2948 17.7703H53.2064C52.8733 17.7703 52.6055 18.0404 52.6055 18.3712C52.6055 18.7021 52.8733 18.9722 53.2064 18.9722H72.2948C72.6256 18.9722 72.8957 18.7021 72.8957 18.3712C72.8957 18.0404 72.6256 17.7703 72.2948 17.7703Z" fill="#2F2E41"/>
</g>
<defs>
<clipPath id="clip0_93_80997">
<rect width="132" height="148.39" fill="white"/>
</clipPath>
</defs>
</svg>
