<svg width="98" height="135" viewBox="0 0 98 135" fill="none" xmlns="http://www.w3.org/2000/svg">
<g clip-path="url(#clip0_34_4124)">
<path d="M86.7455 134.782H44.0786C37.8726 134.782 32.8242 129.702 32.8242 123.456V11.3262C32.8242 5.08054 37.8726 0 44.0786 0H86.7455C92.9516 0 98 5.08054 98 11.3262V123.456C98 129.702 92.9516 134.782 86.7455 134.782Z" fill="#DADBDC"/>
<path d="M86.777 131.716H44.0482C39.455 131.716 35.7168 127.954 35.7168 123.332V11.2307C35.7168 6.60823 39.455 2.84619 44.0482 2.84619H86.777C91.3702 2.84619 95.1085 6.60823 95.1085 11.2307V123.332C95.1085 127.954 91.3702 131.716 86.777 131.716Z" fill="white"/>
<path d="M71.4554 10.3078H59.3725C57.7774 10.3078 56.4805 9.0026 56.4805 7.39729C56.4805 5.79197 57.7774 4.48682 59.3725 4.48682H71.4554C73.0506 4.48682 74.3475 5.79197 74.3475 7.39729C74.3475 9.0026 73.0506 10.3078 71.4554 10.3078Z" fill="#DADBDC"/>
<path d="M83.7848 44.5397H48.4286C47.7282 44.5397 47.1582 43.8104 47.1582 42.9166C47.1582 42.0227 47.7282 41.2935 48.4286 41.2935H83.7848C84.4851 41.2935 85.0551 42.0227 85.0551 42.9166C85.0551 43.8104 84.4851 44.5397 83.7848 44.5397Z" fill="#DADBDC"/>
<path d="M83.7848 51.7325H48.4286C47.7282 51.7325 47.1582 51.0032 47.1582 50.1094C47.1582 49.2156 47.7282 48.4863 48.4286 48.4863H83.7848C84.4851 48.4863 85.0551 49.2156 85.0551 50.1094C85.0551 51.0032 84.4851 51.7325 83.7848 51.7325Z" fill="#DADBDC"/>
<path d="M73.6461 58.9254H48.4286C47.7282 58.9254 47.1582 58.1961 47.1582 57.3023C47.1582 56.4085 47.7282 55.6792 48.4286 55.6792H73.6461C74.3464 55.6792 74.9164 56.4085 74.9164 57.3023C74.9164 58.1961 74.3464 58.9254 73.6461 58.9254Z" fill="#DADBDC"/>
<path d="M65.4124 101.215C73.7475 101.215 80.5044 94.4149 80.5044 86.0266C80.5044 77.6384 73.7475 70.8384 65.4124 70.8384C57.0773 70.8384 50.3203 77.6384 50.3203 86.0266C50.3203 94.4149 57.0773 101.215 65.4124 101.215Z" fill="#F58218"/>
<path d="M61.3979 86.3427C62.1778 87.8791 62.9577 89.4177 63.7376 90.9541C63.9608 91.3965 64.6169 91.2564 64.7473 90.8207C65.7702 87.3877 67.6703 84.2593 70.2309 81.7713C70.7435 81.2732 69.9613 80.4884 69.4488 80.9842C66.7534 83.6034 64.7583 86.9141 63.6802 90.5249L64.6898 90.3915C63.9099 88.8551 63.13 87.3165 62.3501 85.7801C62.0276 85.142 61.0731 85.7045 61.3957 86.3404H61.3979V86.3427Z" fill="white"/>
<path d="M24.7278 67.6544L21.0692 68.9107L21.0117 63.5944L24.3412 63.5566L24.7278 67.6544Z" fill="#F3A3A6"/>
<path d="M21.4399 65.0622C23.4606 65.0622 25.0986 63.4138 25.0986 61.3802C25.0986 59.3467 23.4606 57.6982 21.4399 57.6982C19.4193 57.6982 17.7812 59.3467 17.7812 61.3802C17.7812 63.4138 19.4193 65.0622 21.4399 65.0622Z" fill="#F3A3A6"/>
<path d="M22.44 61.0043C21.828 60.9932 21.4193 60.3751 21.1741 59.8081C20.9288 59.2433 20.677 58.5919 20.1092 58.3629C19.643 58.1761 18.8388 59.4813 18.4676 59.1411C18.081 58.7853 18.4345 56.931 18.8366 56.5952C19.2387 56.2595 19.7932 56.1884 20.3146 56.1572C21.5894 56.0839 22.8709 56.1728 24.1236 56.4218C24.8968 56.5752 25.6966 56.8109 26.26 57.3668C26.9736 58.0716 27.1658 59.1455 27.2277 60.1505C27.2918 61.1777 27.2431 62.2561 26.7571 63.1633C26.2688 64.0682 25.2371 64.7441 24.2362 64.5262C24.1302 63.9815 24.2252 63.4212 24.2583 62.8653C24.2915 62.3117 24.2429 61.7136 23.9026 61.2756C23.5624 60.8375 22.8421 60.6708 22.4555 61.0666" fill="#2F2E43"/>
<path d="M26.9541 62.2293C27.3164 61.9558 27.7517 61.7246 28.2024 61.7757C28.6907 61.8291 29.106 62.2293 29.2364 62.7051C29.3667 63.1809 29.2319 63.7078 28.9359 64.1014C28.6398 64.4949 28.1958 64.7573 27.723 64.8907C27.449 64.9685 27.1507 65.0019 26.8878 64.8907C26.5012 64.7284 26.2891 64.237 26.4349 63.8413" fill="#2F2E43"/>
<path d="M13.3406 97.0148C13.1108 98.2266 13.5682 99.3272 14.3657 99.4717C15.1611 99.6163 15.994 98.7491 16.2238 97.5374C16.3232 97.0549 16.3011 96.5546 16.1597 96.081L18.9744 77.0907L15.1832 76.417L13.9349 95.6786C13.63 96.0721 13.4246 96.5301 13.3406 97.0171V97.0148Z" fill="#F3A3A6"/>
<path d="M21.0016 66.4717L18.4189 66.5006C16.5962 66.7985 16.1101 67.7857 15.7168 69.6C15.1137 72.3682 14.3448 76.0569 14.5061 76.108C14.7646 76.1925 19.1833 78.2247 21.4192 77.7222L21.0016 66.4717Z" fill="#F58218"/>
<path d="M24.1739 126.827L20.7363 126.866L20.7908 131.773L24.2283 131.734L24.1739 126.827Z" fill="#F3A3A6"/>
<path d="M17.4667 134.782C17.1044 134.786 16.784 134.782 16.541 134.762C15.6263 134.689 14.7492 134.019 14.3051 133.628C14.1063 133.452 14.04 133.168 14.1394 132.923C14.2101 132.748 14.3559 132.614 14.5371 132.559L16.9431 131.838L20.8205 129.141L20.8647 129.219C20.8824 129.248 21.2734 129.939 21.406 130.408C21.4568 130.586 21.4457 130.735 21.3728 130.851C21.322 130.931 21.2513 130.978 21.1939 131.007C21.2646 131.08 21.4877 131.229 22.1726 131.331C23.169 131.48 23.3701 130.437 23.3767 130.393L23.3833 130.357L23.4121 130.337C23.8826 130.024 24.1721 129.882 24.2737 129.91C24.3378 129.928 24.4416 129.959 24.7553 132.788C24.7841 132.876 24.9895 133.526 24.8614 134.15C24.7222 134.831 21.7771 134.629 21.1895 134.582C21.1718 134.584 18.9713 134.766 17.4623 134.782H17.4667Z" fill="#2F2E43"/>
<path d="M33.9199 122.854L31.0234 124.717L33.6498 128.852L36.5462 126.988L33.9199 122.854Z" fill="#F3A3A6"/>
<path d="M30.16 133.966C29.7557 133.971 29.3845 133.926 29.1194 133.882C28.8587 133.837 28.6533 133.633 28.6091 133.37C28.5759 133.181 28.6312 132.992 28.7549 132.85L30.4163 130.958L32.2876 126.604L32.3672 126.647C32.3959 126.662 33.0918 127.04 33.452 127.367C33.5889 127.492 33.6574 127.623 33.6574 127.761C33.6574 127.856 33.6221 127.934 33.5867 127.987C33.6861 128.012 33.9535 128.018 34.5876 127.741C35.5111 127.336 35.1333 126.344 35.1156 126.304L35.1023 126.271L35.1178 126.24C35.352 125.724 35.5243 125.448 35.6237 125.417C35.6878 125.399 35.7917 125.368 37.5459 127.6C37.6166 127.66 38.1336 128.101 38.3523 128.699C38.5909 129.35 35.9883 130.747 35.4625 131.02C35.447 131.033 32.7273 133.068 31.6094 133.65C31.1653 133.882 30.6372 133.957 30.1556 133.962L30.16 133.966Z" fill="#2F2E43"/>
<path d="M26.2448 85.7535L16.6209 85.8602L15.8477 94.8784L20.0366 128.128L24.9502 128.072L22.774 108.866L30.9353 126.138L35.2678 123.011L28.8651 106.874C28.8651 106.874 30.9331 92.7306 29.1479 89.2331C27.3628 85.7357 26.2471 85.749 26.2471 85.749V85.7535H26.2448Z" fill="#2F2E43"/>
<path d="M31.0362 86.2491L15.752 86.4203L20.1176 66.4828L26.7788 66.4072L31.0362 86.2491Z" fill="#F58218"/>
<path d="M32.5305 96.8014C32.7868 98.0088 32.3538 99.1182 31.5606 99.2806C30.7675 99.4429 29.9169 98.5957 29.6606 97.3884C29.5501 96.9082 29.5612 96.4079 29.6915 95.9299L26.457 77.0062L30.2328 76.248L31.9053 95.4785C32.219 95.8654 32.4333 96.319 32.5305 96.8037V96.8014Z" fill="#F3A3A6"/>
<path d="M24.1972 66.4361L26.7799 66.4072C28.6093 66.6651 29.1152 67.6412 29.5505 69.4467C30.2133 72.2015 31.0639 75.8701 30.9048 75.9257C30.6463 76.0147 26.2762 78.1447 24.0293 77.6934L24.1994 66.4361H24.1972Z" fill="#F58218"/>
<path d="M47.5186 134.782C47.5186 134.902 47.4214 135 47.3021 135H0.216516C0.0972113 135 0 134.902 0 134.782C0 134.662 0.0972113 134.564 0.216516 134.564H47.3021C47.4214 134.564 47.5186 134.662 47.5186 134.782Z" fill="#3F3D58"/>
</g>
<defs>
<clipPath id="clip0_34_4124">
<rect width="98" height="135" fill="white"/>
</clipPath>
</defs>
</svg>
