<svg width="320" height="344" viewBox="0 0 320 344" fill="none" xmlns="http://www.w3.org/2000/svg">
<g clip-path="url(#clip0_19_8153)">
<path d="M202.985 195.174L64.6603 230.761C59.9681 231.963 54.9906 231.256 50.8196 228.795C46.6486 226.335 43.6248 222.322 42.4115 217.637L0.578629 55.3363C-0.623997 50.6485 0.0836806 45.6755 2.54641 41.5084C5.00915 37.3412 9.02582 34.3202 13.7152 33.1081L142.403 0L175.342 14.7317L216.121 172.946C217.324 177.634 216.616 182.607 214.153 186.774C211.691 190.941 207.674 193.962 202.985 195.174Z" fill="#F2F2F2"/>
<path d="M15.0284 38.1966C11.6889 39.0598 8.82858 41.2111 7.07481 44.1786C5.32104 47.1461 4.81709 50.6875 5.67351 54.0258L47.5064 216.327C48.3704 219.663 50.5237 222.521 53.494 224.273C56.4642 226.025 60.0089 226.528 63.3502 225.673L201.675 190.085C205.014 189.222 207.874 187.071 209.628 184.103C211.382 181.136 211.886 177.595 211.029 174.256L170.882 18.4935L141.935 5.54688L15.0284 38.1966Z" fill="white"/>
<path d="M174.991 15.569L153.583 21.0766C152.021 21.4787 150.362 21.2441 148.972 20.4243C147.583 19.6046 146.576 18.2669 146.173 16.7055L142.102 0.908778C142.084 0.83962 142.086 0.766843 142.108 0.698792C142.129 0.630742 142.17 0.570175 142.224 0.524035C142.279 0.477894 142.345 0.448048 142.416 0.437922C142.487 0.427795 142.559 0.437795 142.624 0.466778L175.051 14.8539C175.123 14.8859 175.183 14.9395 175.223 15.0074C175.264 15.0753 175.282 15.154 175.275 15.2326C175.269 15.3112 175.238 15.3858 175.187 15.4461C175.136 15.5064 175.067 15.5494 174.991 15.569Z" fill="#F2F2F2"/>
<path d="M163.727 154.17L100.75 170.373C100.363 170.472 99.9607 170.495 99.5651 170.439C99.1695 170.383 98.7888 170.249 98.4448 170.046C98.1007 169.843 97.8001 169.575 97.56 169.256C97.3198 168.937 97.145 168.574 97.0453 168.187C96.9457 167.8 96.9233 167.398 96.9793 167.003C97.0353 166.608 97.1687 166.227 97.3718 165.884C97.5749 165.54 97.8439 165.239 98.1632 165C98.4825 164.76 98.846 164.585 99.2329 164.485L162.21 148.283C162.597 148.183 163 148.161 163.395 148.217C163.791 148.273 164.172 148.406 164.516 148.609C164.86 148.812 165.16 149.081 165.4 149.4C165.641 149.719 165.815 150.082 165.915 150.469C166.015 150.855 166.037 151.258 165.981 151.653C165.925 152.048 165.792 152.428 165.589 152.772C165.385 153.116 165.117 153.416 164.797 153.656C164.478 153.896 164.114 154.071 163.727 154.17Z" fill="#CCCCCC"/>
<path d="M178.443 160.978L103.313 180.307C102.531 180.508 101.702 180.391 101.007 179.981C100.312 179.571 99.8091 178.902 99.6078 178.122C99.4066 177.341 99.5241 176.512 99.9343 175.818C100.345 175.124 101.014 174.621 101.795 174.42L176.926 155.091C177.707 154.891 178.536 155.009 179.23 155.419C179.924 155.828 180.427 156.497 180.628 157.277C180.83 158.057 180.712 158.886 180.303 159.58C179.893 160.273 179.224 160.777 178.443 160.978Z" fill="#CCCCCC"/>
<path d="M75.0482 189.887C80.9871 189.887 85.8015 185.077 85.8015 179.144C85.8015 173.21 80.9871 168.4 75.0482 168.4C69.1093 168.4 64.2949 173.21 64.2949 179.144C64.2949 185.077 69.1093 189.887 75.0482 189.887Z" fill="#E6E6E6"/>
<path d="M157.033 126.054L73.3929 147.564C70.9757 148.183 68.4115 147.819 66.263 146.551C64.1144 145.283 62.5568 143.216 61.9321 140.802L44.4042 72.7738C43.7849 70.3588 44.1497 67.797 45.4186 65.6504C46.6875 63.5038 48.7568 61.9477 51.1726 61.3235L134.813 39.8131C137.23 39.1944 139.794 39.5588 141.943 40.8265C144.091 42.0943 145.649 44.1617 146.273 46.5753L163.801 114.604C164.421 117.019 164.056 119.581 162.787 121.727C161.518 123.874 159.449 125.43 157.033 126.054Z" fill="white"/>
<path d="M157.033 126.054L73.3929 147.564C70.9757 148.183 68.4115 147.819 66.263 146.551C64.1144 145.283 62.5568 143.216 61.9321 140.802L44.4042 72.7738C43.7849 70.3588 44.1497 67.797 45.4186 65.6504C46.6875 63.5038 48.7568 61.9477 51.1726 61.3235L134.813 39.8131C137.23 39.1944 139.794 39.5588 141.943 40.8265C144.091 42.0943 145.649 44.1617 146.273 46.5753L163.801 114.604C164.421 117.019 164.056 119.581 162.787 121.727C161.518 123.874 159.449 125.43 157.033 126.054ZM51.4486 62.3948C49.3171 62.9456 47.4912 64.3186 46.3716 66.2127C45.252 68.1067 44.9301 70.3671 45.4766 72.498L63.0044 140.527C63.5557 142.656 64.93 144.48 66.8258 145.599C68.7216 146.718 70.9841 147.039 73.1169 146.493L156.757 124.983C158.888 124.432 160.714 123.059 161.834 121.165C162.954 119.271 163.275 117.011 162.729 114.88L145.201 46.851C144.65 44.7214 143.275 42.8972 141.38 41.7786C139.484 40.6601 137.221 40.3385 135.089 40.8845L51.4486 62.3948Z" fill="#E6E6E6"/>
<path d="M130.568 62.6871L88.3562 73.5431C87.9872 73.6461 87.5928 73.6052 87.2528 73.4287C86.9128 73.2523 86.6525 72.9534 86.5246 72.5926C86.465 72.4041 86.4445 72.2054 86.4644 72.0088C86.4842 71.8121 86.544 71.6215 86.6399 71.4487C86.7359 71.2759 86.8662 71.1244 87.0227 71.0035C87.1792 70.8826 87.3588 70.7948 87.5503 70.7456L130.52 59.6948C132.255 60.5735 131.799 62.3706 130.568 62.6871Z" fill="#F2F2F2"/>
<path d="M132.474 70.0846L90.2624 80.9406C89.8934 81.0435 89.499 81.0026 89.159 80.8262C88.819 80.6497 88.5587 80.3509 88.4308 79.99C88.3712 79.8015 88.3508 79.6029 88.3706 79.4062C88.3905 79.2096 88.4502 79.019 88.5462 78.8462C88.6422 78.6733 88.7724 78.5218 88.9289 78.4009C89.0854 78.2801 89.265 78.1923 89.4566 78.143L132.426 67.0923C134.162 67.971 133.705 69.7681 132.474 70.0846Z" fill="#F2F2F2"/>
<path d="M82.2232 87.4992L69.3405 90.8123C68.9198 90.9201 68.4734 90.8567 68.0994 90.636C67.7254 90.4153 67.4543 90.0554 67.3456 89.6353L63.4322 74.4467C63.3244 74.0264 63.3878 73.5805 63.6087 73.2068C63.8296 72.8332 64.1898 72.5623 64.6103 72.4537L77.493 69.1406C77.9137 69.0329 78.36 69.0964 78.734 69.3171C79.1079 69.5377 79.3791 69.8975 79.4879 70.3176L83.4013 85.5062C83.5091 85.9265 83.4457 86.3725 83.2248 86.7461C83.0039 87.1198 82.6437 87.3906 82.2232 87.4992Z" fill="#E6E6E6"/>
<path d="M136.254 85.2625L71.8308 101.831C71.4618 101.934 71.0674 101.893 70.7274 101.716C70.3874 101.54 70.1271 101.241 69.9992 100.88C69.9396 100.692 69.9191 100.493 69.939 100.296C69.9588 100.1 70.0186 99.9091 70.1145 99.7363C70.2105 99.5635 70.3408 99.412 70.4973 99.2911C70.6538 99.1702 70.8333 99.0824 71.0249 99.0332L136.206 82.27C137.942 83.1487 137.485 84.9459 136.254 85.2625Z" fill="#F2F2F2"/>
<path d="M138.16 92.6619L73.7371 109.23C73.368 109.333 72.9737 109.292 72.6336 109.116C72.2936 108.939 72.0333 108.64 71.9054 108.28C71.8459 108.091 71.8254 107.892 71.8452 107.696C71.8651 107.499 71.9248 107.309 72.0208 107.136C72.1168 106.963 72.247 106.811 72.4035 106.69C72.5601 106.57 72.7396 106.482 72.9312 106.433L138.112 89.6694C139.848 90.5481 139.391 92.3453 138.16 92.6619Z" fill="#F2F2F2"/>
<path d="M140.067 100.057L75.6433 116.625C75.2743 116.728 74.8799 116.687 74.5399 116.511C74.1999 116.334 73.9396 116.035 73.8117 115.675C73.7521 115.486 73.7316 115.287 73.7515 115.091C73.7713 114.894 73.8311 114.704 73.927 114.531C74.023 114.358 74.1533 114.206 74.3098 114.086C74.4663 113.965 74.6459 113.877 74.8375 113.828L140.018 97.0645C141.754 97.9431 141.297 99.7404 140.067 100.057Z" fill="#F2F2F2"/>
<path d="M141.973 107.456L77.5496 124.024C77.1805 124.127 76.7862 124.086 76.4461 123.91C76.1061 123.733 75.8458 123.434 75.7179 123.073C75.6584 122.885 75.6379 122.686 75.6577 122.49C75.6776 122.293 75.7373 122.102 75.8333 121.93C75.9293 121.757 76.0595 121.605 76.216 121.484C76.3726 121.364 76.5521 121.276 76.7437 121.226L141.925 104.463C143.66 105.342 143.204 107.139 141.973 107.456Z" fill="#F2F2F2"/>
<path d="M143.877 114.851L79.4539 131.42C79.0848 131.523 78.6904 131.482 78.3504 131.305C78.0104 131.129 77.7501 130.83 77.6222 130.469C77.5627 130.281 77.5422 130.082 77.562 129.885C77.5819 129.689 77.6416 129.498 77.7376 129.325C77.8336 129.152 77.9638 129.001 78.1203 128.88C78.2769 128.759 78.4564 128.671 78.648 128.622L143.829 111.859C145.565 112.738 145.108 114.535 143.877 114.851Z" fill="#F2F2F2"/>
<path d="M75.8417 182.909C75.6076 182.97 75.36 182.953 75.1364 182.861L75.1225 182.855L72.1931 181.614C72.0571 181.557 71.9338 181.473 71.8303 181.368C71.7268 181.263 71.645 181.138 71.5897 181.002C71.5343 180.865 71.5065 180.719 71.5079 180.571C71.5092 180.424 71.5396 180.278 71.5974 180.142C71.6551 180.006 71.7391 179.883 71.8445 179.78C71.9499 179.677 72.0747 179.595 72.2116 179.54C72.3486 179.485 72.4951 179.458 72.6427 179.459C72.7903 179.461 72.9362 179.491 73.072 179.549L74.9702 180.356L77.4576 174.51C77.5153 174.374 77.5991 174.251 77.7043 174.148C77.8095 174.045 77.9341 173.964 78.0708 173.909C78.2075 173.853 78.3537 173.826 78.5012 173.827C78.6486 173.829 78.7943 173.859 78.9299 173.917L78.9154 173.955L78.9309 173.917C79.2047 174.033 79.421 174.254 79.5323 174.53C79.6436 174.805 79.6408 175.114 79.5246 175.388L76.5982 182.262C76.5303 182.42 76.4269 182.561 76.2958 182.673C76.1647 182.785 76.0096 182.865 75.8423 182.908L75.8417 182.909Z" fill="white"/>
<path d="M256.04 257.023H113.203C108.36 257.018 103.716 255.093 100.291 251.671C96.8657 248.249 94.9391 243.609 94.9336 238.77V71.1744C94.9391 66.3351 96.8657 61.6955 100.291 58.2736C103.716 54.8517 108.36 52.9269 113.203 52.9214H246.09L274.31 75.3941V238.77C274.305 243.609 272.378 248.249 268.953 251.671C265.528 255.093 260.884 257.018 256.04 257.023Z" fill="#E6E6E6"/>
<path d="M113.204 58.1758C109.754 58.1797 106.447 59.5504 104.008 61.9872C101.569 64.424 100.197 67.7279 100.193 71.1741V238.77C100.197 242.216 101.569 245.52 104.008 247.957C106.447 250.393 109.754 251.764 113.204 251.768H256.041C259.49 251.764 262.797 250.393 265.236 247.957C267.675 245.52 269.047 242.216 269.051 238.77V77.9253L244.251 58.1758H113.204Z" fill="white"/>
<path d="M228.26 106.908H163.228C162.421 106.908 161.647 106.588 161.077 106.018C160.506 105.448 160.186 104.675 160.186 103.869C160.186 103.063 160.506 102.289 161.077 101.719C161.647 101.149 162.421 100.829 163.228 100.829H228.26C229.067 100.829 229.84 101.149 230.411 101.719C230.982 102.289 231.302 103.063 231.302 103.869C231.302 104.675 230.982 105.448 230.411 106.018C229.84 106.588 229.067 106.908 228.26 106.908Z" fill="#F58218"/>
<path d="M240.809 117.167H163.228C162.422 117.166 161.649 116.845 161.079 116.275C160.509 115.705 160.189 114.933 160.189 114.127C160.189 113.322 160.509 112.55 161.079 111.98C161.649 111.41 162.422 111.089 163.228 111.088H240.809C241.209 111.087 241.605 111.166 241.975 111.318C242.345 111.471 242.68 111.694 242.963 111.977C243.246 112.259 243.471 112.594 243.624 112.963C243.777 113.332 243.856 113.728 243.856 114.127C243.856 114.527 243.777 114.923 243.624 115.292C243.471 115.661 243.246 115.996 242.963 116.278C242.68 116.561 242.345 116.784 241.975 116.937C241.605 117.089 241.209 117.168 240.809 117.167Z" fill="#F58218"/>
<path d="M228.259 146.801H163.23C162.423 146.801 161.649 147.121 161.079 147.691C160.508 148.261 160.188 149.035 160.188 149.841C160.188 150.647 160.508 151.42 161.079 151.99C161.649 152.56 162.423 152.88 163.23 152.88H228.259C229.066 152.88 229.84 152.56 230.411 151.99C230.981 151.42 231.302 150.647 231.302 149.841C231.302 149.035 230.981 148.261 230.411 147.691C229.84 147.121 229.066 146.801 228.259 146.801Z" fill="#CCCCCC"/>
<path d="M240.81 157.062H163.23C162.423 157.062 161.649 157.382 161.079 157.952C160.508 158.522 160.188 159.295 160.188 160.101C160.188 160.907 160.508 161.68 161.079 162.25C161.649 162.82 162.423 163.14 163.23 163.14H240.81C241.617 163.14 242.391 162.82 242.961 162.25C243.532 161.68 243.852 160.907 243.852 160.101C243.852 159.295 243.532 158.522 242.961 157.952C242.391 157.382 241.617 157.062 240.81 157.062Z" fill="#CCCCCC"/>
<path d="M228.26 198.857H163.228C162.421 198.857 161.647 198.536 161.077 197.966C160.506 197.396 160.186 196.623 160.186 195.817C160.186 195.011 160.506 194.238 161.077 193.668C161.647 193.098 162.421 192.777 163.228 192.777H228.26C229.067 192.777 229.84 193.098 230.411 193.668C230.982 194.238 231.302 195.011 231.302 195.817C231.302 196.623 230.982 197.396 230.411 197.966C229.84 198.536 229.067 198.857 228.26 198.857Z" fill="#CCCCCC"/>
<path d="M240.809 209.115H163.228C162.422 209.114 161.649 208.793 161.079 208.223C160.509 207.653 160.189 206.881 160.189 206.075C160.189 205.27 160.509 204.497 161.079 203.927C161.649 203.357 162.422 203.037 163.228 203.036H240.809C241.209 203.035 241.605 203.113 241.975 203.266C242.345 203.418 242.68 203.642 242.963 203.924C243.246 204.207 243.471 204.542 243.624 204.911C243.777 205.28 243.856 205.676 243.856 206.075C243.856 206.475 243.777 206.87 243.624 207.239C243.471 207.608 243.246 207.944 242.963 208.226C242.68 208.508 242.345 208.732 241.975 208.885C241.605 209.037 241.209 209.115 240.809 209.115Z" fill="#CCCCCC"/>
<path d="M136.146 119.741C142.085 119.741 146.899 114.931 146.899 108.998C146.899 103.064 142.085 98.2544 136.146 98.2544C130.207 98.2544 125.393 103.064 125.393 108.998C125.393 114.931 130.207 119.741 136.146 119.741Z" fill="#F58218"/>
<path d="M135.082 113.096C134.84 113.097 134.604 113.018 134.411 112.873L134.399 112.864L131.871 110.933C131.754 110.843 131.655 110.732 131.581 110.604C131.507 110.476 131.459 110.335 131.44 110.189C131.42 110.043 131.43 109.894 131.468 109.752C131.506 109.609 131.572 109.475 131.661 109.358C131.751 109.241 131.863 109.143 131.991 109.069C132.119 108.996 132.26 108.948 132.407 108.929C132.553 108.909 132.702 108.919 132.845 108.958C132.987 108.996 133.121 109.062 133.238 109.152L134.875 110.406L138.743 105.364C138.833 105.248 138.944 105.149 139.072 105.076C139.2 105.002 139.341 104.954 139.487 104.935C139.633 104.916 139.781 104.925 139.924 104.963C140.066 105.001 140.2 105.067 140.317 105.157L140.293 105.19L140.318 105.157C140.554 105.338 140.708 105.606 140.747 105.9C140.786 106.195 140.706 106.494 140.525 106.73L135.976 112.657C135.871 112.794 135.735 112.904 135.58 112.98C135.425 113.056 135.255 113.095 135.082 113.095L135.082 113.096Z" fill="white"/>
<path d="M148.005 154.971C148.006 156.382 147.728 157.779 147.188 159.083C146.648 160.387 145.856 161.572 144.858 162.57C143.859 163.568 142.674 164.359 141.369 164.899C140.065 165.44 138.666 165.718 137.254 165.718C137.161 165.72 137.069 165.716 136.977 165.707C134.863 165.653 132.811 164.977 131.079 163.764C129.348 162.551 128.012 160.854 127.241 158.887C126.469 156.919 126.296 154.768 126.742 152.702C127.188 150.637 128.234 148.748 129.749 147.274C131.263 145.799 133.18 144.803 135.258 144.411C137.337 144.02 139.485 144.249 141.433 145.07C143.382 145.892 145.045 147.269 146.214 149.03C147.383 150.791 148.006 152.858 148.005 154.971Z" fill="#CCCCCC"/>
<path d="M136.146 211.689C142.085 211.689 146.899 206.879 146.899 200.946C146.899 195.013 142.085 190.203 136.146 190.203C130.207 190.203 125.393 195.013 125.393 200.946C125.393 206.879 130.207 211.689 136.146 211.689Z" fill="#CCCCCC"/>
<path d="M273.761 76.117H251.655C250.041 76.117 248.494 75.4765 247.353 74.3364C246.211 73.1963 245.57 71.65 245.57 70.0377V53.7257C245.57 53.6542 245.59 53.5843 245.628 53.5238C245.666 53.4633 245.721 53.4147 245.785 53.3836C245.849 53.3525 245.921 53.3402 245.992 53.348C246.063 53.3558 246.131 53.3835 246.187 53.4278L273.997 75.4392C274.059 75.4882 274.104 75.5552 274.126 75.6309C274.148 75.7067 274.146 75.7874 274.12 75.8619C274.094 75.9364 274.046 76.001 273.981 76.0467C273.917 76.0924 273.84 76.117 273.761 76.117Z" fill="#CCCCCC"/>
<path d="M148.005 154.971C148.006 156.382 147.728 157.779 147.188 159.083C146.648 160.387 145.856 161.572 144.857 162.57C143.859 163.568 142.674 164.359 141.369 164.9C140.064 165.44 138.666 165.718 137.254 165.718C137.161 165.72 137.069 165.716 136.977 165.707C135.587 162.245 135.052 158.501 135.415 154.789C135.778 151.077 137.03 147.506 139.064 144.379C141.565 144.807 143.835 146.105 145.471 148.044C147.107 149.982 148.004 152.436 148.005 154.971Z" fill="#F58218"/>
<path d="M160.186 149.843C160.187 149.037 160.508 148.264 161.079 147.694C161.65 147.124 162.423 146.803 163.231 146.801H179.435C180.382 148.725 181.055 150.771 181.434 152.88H163.231C162.424 152.88 161.65 152.56 161.08 151.991C160.509 151.421 160.187 150.649 160.186 149.843Z" fill="#F58218"/>
<path d="M181.81 157.062C181.811 159.115 181.539 161.159 181.001 163.14H163.23C162.423 163.14 161.649 162.82 161.079 162.25C160.508 161.68 160.188 160.907 160.188 160.101C160.188 159.295 160.508 158.522 161.079 157.952C161.649 157.382 162.423 157.062 163.23 157.062H181.81Z" fill="#F58218"/>
<path d="M221.905 194.551C221.446 195.302 220.707 195.841 219.851 196.048C218.995 196.256 218.091 196.114 217.339 195.656L178.582 172.038C178.21 171.811 177.886 171.513 177.629 171.161C177.372 170.809 177.186 170.409 177.084 169.986C176.981 169.562 176.963 169.123 177.03 168.692C177.097 168.261 177.249 167.848 177.476 167.476C177.703 167.104 178.002 166.78 178.354 166.524C178.706 166.267 179.106 166.082 179.53 165.979C179.954 165.876 180.394 165.858 180.825 165.926C181.256 165.993 181.669 166.144 182.042 166.371L220.799 189.99C221.551 190.448 222.09 191.186 222.297 192.041C222.505 192.897 222.364 193.8 221.905 194.551Z" fill="#383A45"/>
<path d="M183.148 170.932C180.411 175.415 176.405 178.987 171.637 181.195C166.868 183.403 161.551 184.149 156.358 183.338C151.165 182.528 146.33 180.197 142.463 176.64C138.596 173.084 135.871 168.462 134.634 163.358C133.396 158.255 133.701 152.899 135.51 147.969C137.319 143.039 140.551 138.755 144.797 135.66C149.042 132.565 154.111 130.797 159.363 130.58C164.614 130.363 169.812 131.706 174.299 134.441C180.31 138.113 184.617 144.017 186.276 150.859C187.935 157.7 186.81 164.919 183.148 170.932ZM143.446 146.738C141.393 150.1 140.384 153.995 140.547 157.93C140.71 161.865 142.037 165.663 144.361 168.844C146.685 172.026 149.9 174.447 153.601 175.803C157.302 177.158 161.323 177.387 165.154 176.459C168.985 175.532 172.455 173.491 175.125 170.593C177.794 167.696 179.544 164.072 180.153 160.181C180.761 156.29 180.201 152.306 178.544 148.733C176.886 145.16 174.205 142.158 170.84 140.107C166.325 137.363 160.906 136.52 155.77 137.763C150.635 139.006 146.203 142.234 143.446 146.738Z" fill="#383A45"/>
<path d="M268.291 161.364C275.801 161.364 281.889 155.281 281.889 147.779C281.889 140.276 275.801 134.193 268.291 134.193C260.781 134.193 254.693 140.276 254.693 147.779C254.693 155.281 260.781 161.364 268.291 161.364Z" fill="#A0616A"/>
<path d="M267.412 223.939C267.15 223.122 267.064 222.26 267.158 221.408C267.253 220.556 267.527 219.733 267.962 218.994C268.397 218.255 268.983 217.616 269.683 217.119C270.382 216.623 271.179 216.279 272.02 216.111C272.287 216.059 272.557 216.026 272.828 216.012L287.151 193.044L274.068 180.617C273.568 180.143 273.167 179.574 272.888 178.943C272.61 178.313 272.459 177.634 272.445 176.945C272.43 176.256 272.553 175.571 272.805 174.929C273.057 174.288 273.434 173.703 273.914 173.207C274.393 172.712 274.967 172.317 275.6 172.045C276.234 171.772 276.915 171.628 277.605 171.619C278.294 171.611 278.979 171.74 279.619 171.998C280.258 172.256 280.84 172.637 281.332 173.121L299.396 190.917L299.433 190.961C299.992 191.811 300.261 192.818 300.202 193.833C300.143 194.847 299.758 195.816 299.104 196.595L279.034 220.309C279.094 220.499 279.144 220.692 279.184 220.887C279.352 221.728 279.34 222.595 279.149 223.431C278.958 224.267 278.593 225.053 278.076 225.738C277.56 226.423 276.905 226.991 276.154 227.405C275.402 227.82 274.572 228.071 273.717 228.142C273.544 228.157 273.372 228.165 273.201 228.165C271.913 228.159 270.66 227.748 269.621 226.989C268.582 226.23 267.809 225.162 267.412 223.939Z" fill="#A0616A"/>
<path d="M245.897 336.851L239.11 336.851L235.881 310.695L245.898 310.695L245.897 336.851Z" fill="#A0616A"/>
<path d="M247.628 343.425L225.742 343.424V343.147C225.742 342.03 225.962 340.923 226.391 339.89C226.819 338.858 227.446 337.92 228.237 337.129C229.028 336.339 229.967 335.712 231.001 335.285C232.034 334.857 233.142 334.637 234.261 334.637L247.628 334.637L247.628 343.425Z" fill="#2F3139"/>
<path d="M313.36 327.475L307.528 330.944L291.359 310.122L299.967 305.001L313.36 327.475Z" fill="#A0616A"/>
<path d="M318.212 332.238L299.407 343.424L299.266 343.187C298.693 342.226 298.316 341.163 298.155 340.057C297.994 338.951 298.053 337.824 298.328 336.741C298.603 335.657 299.089 334.639 299.758 333.743C300.427 332.847 301.266 332.092 302.227 331.52L313.712 324.688L318.212 332.238Z" fill="#2F3139"/>
<path d="M235.024 325.332C230.477 271.842 227.772 222.15 244.394 201.879L244.522 201.722L272.495 212.901L272.541 213.001C272.635 213.206 281.938 233.651 279.768 247.402L286.668 279.112L309.165 316.746C309.346 317.049 309.461 317.387 309.501 317.738C309.542 318.089 309.507 318.444 309.4 318.78C309.292 319.116 309.115 319.426 308.879 319.688C308.642 319.95 308.353 320.16 308.03 320.302L298.253 324.599C297.701 324.839 297.082 324.872 296.507 324.693C295.933 324.514 295.443 324.134 295.126 323.623L270.653 283.754L256.83 253.174C256.755 253.008 256.627 252.871 256.467 252.785C256.306 252.699 256.122 252.667 255.942 252.696C255.762 252.725 255.596 252.812 255.471 252.945C255.345 253.077 255.267 253.247 255.247 253.428L247.585 325.387C247.521 325.998 247.232 326.564 246.775 326.976C246.317 327.387 245.723 327.614 245.108 327.613H237.507C236.884 327.609 236.284 327.374 235.825 326.952C235.366 326.53 235.08 325.953 235.024 325.332Z" fill="#2F3139"/>
<path d="M244.488 202.303L244.355 202.239L244.334 202.093C243.289 194.786 244.526 186.668 248.01 177.963C249.727 173.703 252.919 170.201 257.005 168.095C261.09 165.989 265.797 165.419 270.267 166.49C272.842 167.124 275.257 168.285 277.36 169.9C279.462 171.515 281.206 173.549 282.48 175.873C283.739 178.173 284.505 180.708 284.731 183.32C284.957 185.931 284.638 188.56 283.794 191.042C279.402 203.874 273.704 215.881 273.647 216.001L273.527 216.252L244.488 202.303Z" fill="#F58218"/>
<path d="M213.968 184.103C214.641 183.572 215.419 183.189 216.251 182.979C217.083 182.769 217.95 182.738 218.796 182.886C219.641 183.034 220.445 183.359 221.156 183.84C221.867 184.32 222.468 184.945 222.92 185.674C223.062 185.905 223.187 186.146 223.296 186.395L249.845 191.756L256.914 175.161C257.184 174.527 257.577 173.952 258.07 173.471C258.564 172.989 259.148 172.61 259.789 172.356C260.43 172.101 261.115 171.976 261.804 171.987C262.494 171.998 263.175 172.146 263.807 172.422C264.439 172.697 265.01 173.095 265.488 173.593C265.965 174.09 266.339 174.677 266.588 175.32C266.837 175.962 266.956 176.648 266.939 177.337C266.921 178.026 266.767 178.704 266.486 179.333L256.127 202.471L256.098 202.52C255.498 203.34 254.648 203.945 253.676 204.245C252.704 204.545 251.661 204.524 250.702 204.185L221.441 193.708C221.283 193.831 221.12 193.945 220.951 194.051C220.221 194.502 219.404 194.795 218.554 194.909C217.703 195.023 216.838 194.956 216.015 194.713C215.192 194.47 214.43 194.056 213.778 193.498C213.127 192.94 212.601 192.25 212.234 191.475C212.16 191.319 212.092 191.16 212.032 191C211.587 189.793 211.534 188.477 211.881 187.238C212.229 186 212.959 184.903 213.968 184.103Z" fill="#A0616A"/>
<path d="M317.414 162.327C316.105 160.009 314.196 157.885 311.674 157.028C308.416 155.921 304.888 157.1 301.538 157.887C298.957 158.493 296.261 158.864 293.66 158.352C291.059 157.841 288.55 156.328 287.366 153.958C285.625 150.472 287.092 146.314 286.986 142.419C286.931 140.298 286.396 138.218 285.42 136.335C284.443 134.451 283.052 132.814 281.35 131.545C279.648 130.277 277.681 129.412 275.595 129.014C273.51 128.616 271.362 128.696 269.312 129.249C266.105 128.324 263.2 128.238 261.216 130.702C258.72 130.702 256.326 131.692 254.561 133.456C252.796 135.219 251.805 137.611 251.805 140.105H260.804C260.378 142.397 260.865 144.766 262.163 146.704C263.752 149.036 266.514 150.723 267.046 153.493C267.561 156.178 265.735 158.725 263.819 160.676C261.903 162.628 259.68 164.561 259.082 167.229C258.715 169.254 259.132 171.342 260.246 173.072C261.359 174.782 262.74 176.301 264.336 177.572C271.525 183.726 280.069 188.093 289.27 190.316C295.75 191.875 302.837 192.279 308.853 189.412C311.259 188.265 313.403 186.636 315.153 184.626C316.903 182.616 318.22 180.268 319.023 177.728C319.826 175.188 320.097 172.51 319.82 169.861C319.544 167.211 318.725 164.647 317.414 162.327Z" fill="#2F3139"/>
<path d="M319.447 344H214.257C214.11 344 213.969 343.942 213.865 343.838C213.761 343.734 213.703 343.593 213.703 343.447C213.703 343.3 213.761 343.159 213.865 343.056C213.969 342.952 214.11 342.894 214.257 342.894H319.447C319.594 342.894 319.734 342.952 319.838 343.056C319.942 343.159 320 343.3 320 343.447C320 343.593 319.942 343.734 319.838 343.838C319.734 343.942 319.594 344 319.447 344Z" fill="#CCCCCC"/>
</g>
<defs>
<clipPath id="clip0_19_8153">
<rect width="320" height="344" fill="white"/>
</clipPath>
</defs>
</svg>
