<svg width="245" height="364" viewBox="0 0 245 364" fill="none" xmlns="http://www.w3.org/2000/svg">
<g clip-path="url(#clip0_26_10319)">
<path d="M156.563 25.6183H108.053V54.3488H156.563V25.6183Z" fill="#2F3139"/>
<path d="M59.9932 30.2509H34.9824V21.5271C34.9824 18.2096 36.2999 15.028 38.6451 12.6821C40.9904 10.3363 44.1712 9.01843 47.4878 9.01843C50.8044 9.01843 53.9853 10.3363 56.3305 12.6821C58.6757 15.028 59.9932 18.2096 59.9932 21.5271V30.2509ZM35.5361 29.697H59.4395V21.5271C59.4395 18.3565 58.1803 15.3158 55.9389 13.0738C53.6976 10.8318 50.6576 9.57232 47.4878 9.57232C44.318 9.57232 41.2781 10.8318 39.0367 13.0738C36.7953 15.3158 35.5361 18.3565 35.5361 21.5271V29.697Z" fill="#2F3139"/>
<path d="M72.3589 29.0511V25.6417L8.75341 27.3464L6.74023 113.704L16.1537 125.335L72.3589 29.0511Z" fill="#2F3139"/>
<path d="M83.6206 27.8507L14.6797 29.42L16.1561 125.335L82.6875 118.162L83.6206 27.8507Z" fill="#F58218"/>
<path d="M142.233 338.608H134.408L130.686 308.417H142.235L142.233 338.608Z" fill="#FFB6B6"/>
<path d="M144.23 346.196L118.998 346.195V345.876C118.998 343.27 120.033 340.772 121.875 338.93C123.717 337.087 126.214 336.053 128.819 336.052L144.231 336.053L144.23 346.196Z" fill="#2F3139"/>
<path d="M113.511 338.608H105.685L101.963 308.417H113.512L113.511 338.608Z" fill="#FFB6B6"/>
<path d="M115.505 346.196L90.2734 346.195V345.876C90.2736 343.27 91.3084 340.772 93.1501 338.93C94.9919 337.087 97.4898 336.053 100.094 336.052L115.506 336.053L115.505 346.196Z" fill="#2F3139"/>
<path d="M90.5287 149.564C90.5287 149.564 79.0954 174.193 89.4244 223.766C99.7535 273.339 99.8389 327.763 99.8389 327.763L115.633 328.02L124.505 210.851L129.15 326.366H144.71L158.423 212.677C158.423 212.677 167.447 161.911 147.324 152.822L90.5287 149.564Z" fill="#2F3139"/>
<path d="M145.257 62.6487L110.676 59.4602C99.832 67.3665 93.7456 81.5668 94.995 96.2184C96.6891 116.084 96.116 143.422 82.5215 155.299C82.5215 155.299 119.574 184.55 152.488 156.799C152.488 156.799 141.233 126.64 148.96 114.596C156.687 102.552 159.475 68.7141 145.257 62.6487Z" fill="#E4E4E4"/>
<path d="M42.3607 13.562C42.2547 14.5591 42.3685 15.5673 42.6941 16.5156C43.0198 17.4639 43.5494 18.3293 44.2455 19.0508C44.9417 19.7722 45.7875 20.3322 46.7235 20.6913C47.6594 21.0505 48.6627 21.1999 49.6627 21.1292L95.3215 63.7511L103.505 51.2822L56.0505 13.3071C55.8204 11.6347 54.985 10.1048 53.7026 9.00728C52.4202 7.90979 50.7798 7.32097 49.0924 7.35239C47.4049 7.38382 45.7877 8.0333 44.547 9.17777C43.3063 10.3222 42.5284 11.8822 42.3607 13.562Z" fill="#FFB6B6"/>
<path d="M86.7953 57.1667L97.627 46.0373C97.9352 45.7206 98.308 45.4741 98.72 45.3146C99.132 45.155 99.5736 45.0862 100.015 45.1127C100.456 45.1393 100.886 45.2606 101.276 45.4684C101.666 45.6762 102.006 45.9656 102.274 46.3169L111.665 58.628C113.275 60.2145 114.191 62.375 114.212 64.6359C114.232 66.8968 113.356 69.0736 111.774 70.689C110.193 72.3045 108.035 73.2268 105.775 73.2537C103.515 73.2806 101.336 72.41 99.7167 70.8327L87.1996 61.806C86.8412 61.5474 86.5429 61.2146 86.3247 60.8303C86.1066 60.446 85.9738 60.0192 85.9354 59.5789C85.8971 59.1387 85.954 58.6953 86.1024 58.279C86.2508 57.8628 86.4871 57.4834 86.7953 57.1667Z" fill="#E4E4E4"/>
<path d="M211.992 117.356C212.043 116.354 211.873 115.354 211.496 114.425C211.118 113.497 210.541 112.662 209.806 111.98C209.071 111.299 208.195 110.786 207.241 110.48C206.286 110.173 205.276 110.08 204.282 110.206L156.326 70.1874L148.848 83.0918L198.338 118.371C198.661 120.028 199.58 121.509 200.921 122.534C202.263 123.558 203.933 124.055 205.616 123.93C207.299 123.805 208.878 123.066 210.053 121.855C211.228 120.643 211.918 119.042 211.992 117.356Z" fill="#FFB6B6"/>
<path d="M165.202 76.2877L155.005 88.0019C154.715 88.3352 154.357 88.602 153.954 88.7842C153.552 88.9664 153.114 89.0597 152.673 89.0577C152.231 89.0557 151.795 88.9585 151.394 88.7727C150.993 88.5869 150.637 88.3169 150.35 87.981L140.29 76.2107C138.593 74.7163 137.559 72.6099 137.412 70.3535C137.266 68.0971 138.021 65.8748 139.51 64.1738C140.999 62.4729 143.102 61.4321 145.358 61.2797C147.613 61.1273 149.837 61.8758 151.542 63.3609L164.541 71.6781C164.913 71.9163 165.229 72.232 165.468 72.6036C165.708 72.9752 165.864 73.394 165.927 73.8314C165.989 74.2689 165.957 74.7147 165.832 75.1386C165.707 75.5625 165.492 75.9544 165.202 76.2877Z" fill="#E4E4E4"/>
<path d="M216.863 134.277H197.918V127.669C197.918 125.156 198.916 122.746 200.692 120.97C202.469 119.193 204.878 118.194 207.391 118.194C209.903 118.194 212.312 119.193 214.089 120.97C215.865 122.746 216.863 125.156 216.863 127.669L216.863 134.277ZM198.337 133.858H216.444V127.669C216.444 125.268 215.49 122.964 213.792 121.266C212.094 119.568 209.791 118.614 207.39 118.614C204.989 118.614 202.687 119.568 200.989 121.266C199.291 122.964 198.337 125.268 198.337 127.669V133.858Z" fill="#2F3139"/>
<path d="M226.232 133.368V130.786L178.052 132.077L176.527 197.49L183.658 206.301L226.232 133.368Z" fill="#2F3139"/>
<path d="M234.758 132.459L182.537 133.648L183.655 206.301L234.051 200.868L234.758 132.459Z" fill="#F58218"/>
<path d="M130.392 53.7103C141.673 53.7103 150.817 44.5632 150.817 33.2797C150.817 21.9962 141.673 12.8491 130.392 12.8491C119.111 12.8491 109.967 21.9962 109.967 33.2797C109.967 44.5632 119.111 53.7103 130.392 53.7103Z" fill="#FFB6B6"/>
<path d="M120.989 24.1741C128.054 31.1004 140.35 31.7642 148.121 25.6389C150.277 33.079 150.513 40.9444 148.807 48.5005C147.1 56.0566 143.507 63.0568 138.362 68.8471C142.685 70.4092 147.66 69.3815 151.524 66.8916C155.387 64.4018 158.248 60.6002 160.407 56.542C165.752 46.4961 167.09 34.2297 163.309 23.4968C159.528 12.7639 150.469 3.86405 139.463 0.982229C128.457 -1.8996 115.837 1.66018 108.484 10.3437C100.795 19.4239 99.5493 32.7288 102.919 44.1412C106.288 55.5537 113.679 65.3545 121.799 74.0513C117.899 64.0196 115.312 53.5253 114.104 42.8297C113.691 39.1667 113.45 35.3909 114.484 31.8529C115.519 28.3149 118.065 25.0195 121.614 24.0254" fill="#2F3139"/>
<path d="M244.362 347.4H1.17345C1.00416 347.4 0.841818 347.333 0.722116 347.213C0.602414 347.093 0.535156 346.931 0.535156 346.762C0.535156 346.592 0.602414 346.43 0.722116 346.31C0.841818 346.191 1.00416 346.123 1.17345 346.123H244.362C244.531 346.123 244.693 346.191 244.813 346.31C244.933 346.43 245 346.592 245 346.762C245 346.931 244.933 347.093 244.813 347.213C244.693 347.333 244.531 347.4 244.362 347.4Z" fill="#CACACA"/>
<path d="M206.65 291.976H187.705V285.368C187.705 282.855 188.703 280.445 190.48 278.668C192.256 276.891 194.665 275.893 197.178 275.893C199.69 275.893 202.099 276.891 203.876 278.668C205.652 280.445 206.65 282.855 206.65 285.368L206.65 291.976ZM188.125 291.557H206.231V285.368C206.231 282.966 205.277 280.663 203.579 278.965C201.881 277.267 199.579 276.313 197.178 276.313C194.777 276.313 192.474 277.267 190.776 278.965C189.078 280.663 188.125 282.966 188.125 285.368V291.557Z" fill="#CACACA"/>
<path d="M216.019 291.067V288.485L167.839 289.776L166.314 355.189L173.445 364L216.019 291.067Z" fill="#CACACA"/>
<path d="M224.547 290.158L172.326 291.347L173.444 364L223.841 358.567L224.547 290.158Z" fill="#E4E4E4"/>
</g>
<defs>
<clipPath id="clip0_26_10319">
<rect width="245" height="364" fill="white"/>
</clipPath>
</defs>
</svg>
