<svg width="322" height="265" viewBox="0 0 322 265" fill="none" xmlns="http://www.w3.org/2000/svg">
<g clip-path="url(#clip0_19_7888)">
<path d="M165.148 62.8221H163.697V23.0303C163.697 16.9223 161.271 11.0644 156.952 6.74541C152.633 2.4264 146.775 3.00417e-09 140.667 3.00417e-09H56.3607C53.3364 -4.88447e-05 50.3416 0.595599 47.5474 1.75293C44.7532 2.91027 42.2144 4.60663 40.0758 6.74515C37.9372 8.88368 36.2407 11.4225 35.0833 14.2166C33.9259 17.0108 33.3301 20.0055 33.3301 23.0299V241.331C33.3301 244.355 33.9258 247.35 35.0832 250.144C36.2405 252.938 37.9369 255.477 40.0755 257.616C42.2141 259.754 44.7529 261.451 47.5471 262.608C50.3412 263.766 53.336 264.361 56.3604 264.361H140.666C146.774 264.361 152.632 261.935 156.951 257.616C161.27 253.297 163.696 247.439 163.696 241.331V91.1466H165.147L165.148 62.8221Z" fill="#2F3139"/>
<path d="M159 21.4876V242.873C159 247.504 157.16 251.945 153.886 255.22C150.611 258.495 146.17 260.335 141.539 260.337H55.5036C50.8708 260.338 46.4274 258.498 43.1508 255.223C39.8742 251.948 38.0326 247.505 38.0312 242.873V21.4876C38.0326 16.855 39.8741 12.4126 43.1505 9.13747C46.427 5.86239 50.8702 4.02285 55.5029 4.02344H65.9395C65.427 5.28366 65.232 6.65046 65.3715 8.00371C65.511 9.35696 65.9808 10.6552 66.7395 11.7844C67.4983 12.9136 68.5228 13.8391 69.723 14.4796C70.9232 15.1201 72.2624 15.456 73.6228 15.4577H122.673C124.034 15.456 125.373 15.1201 126.573 14.4796C127.773 13.8391 128.798 12.9136 129.557 11.7844C130.315 10.6552 130.785 9.35696 130.925 8.00371C131.064 6.65046 130.869 5.28366 130.357 4.02344H141.536C146.167 4.02423 150.608 5.86399 153.883 9.13826C157.158 12.4125 158.999 16.8533 159 21.4843V21.4876Z" fill="white"/>
<path d="M139.028 212.843H59.5716C56.7139 212.84 53.9742 211.704 51.9535 209.683C49.9328 207.662 48.7962 204.922 48.793 202.065V90.2872C48.793 63.1479 70.8723 41.0684 98.0117 41.0684H139.028C141.886 41.0716 144.626 42.2082 146.646 44.2289C148.667 46.2495 149.803 48.9892 149.807 51.8468V202.065C149.803 204.922 148.667 207.662 146.646 209.683C144.625 211.704 141.886 212.84 139.028 212.843Z" fill="#E6E6E6"/>
<path d="M54.8121 239.749C57.9714 239.749 60.5325 237.188 60.5325 234.029C60.5325 230.87 57.9714 228.309 54.8121 228.309C51.6529 228.309 49.0918 230.87 49.0918 234.029C49.0918 237.188 51.6529 239.749 54.8121 239.749Z" fill="#E6E6E6"/>
<path d="M143.9 239.749C147.059 239.749 149.62 237.188 149.62 234.029C149.62 230.87 147.059 228.309 143.9 228.309C140.741 228.309 138.18 230.87 138.18 234.029C138.18 237.188 140.741 239.749 143.9 239.749Z" fill="#E6E6E6"/>
<path d="M144.675 212.623L141.128 216.488L124.535 204.649L129.769 198.945L144.675 212.623Z" fill="#FFB6B6"/>
<path d="M149.325 215.075L137.891 227.535L137.734 227.391C136.447 226.21 135.683 224.567 135.608 222.823C135.533 221.079 136.154 219.377 137.334 218.09L137.334 218.09L137.696 214.229L143.319 211.567L144.318 210.479L149.325 215.075Z" fill="#2F3139"/>
<path d="M146.994 255.749L141.749 255.749L139.254 235.519L146.995 235.519L146.994 255.749Z" fill="#FFB6B6"/>
<path d="M148.332 260.833L131.42 260.832V260.618C131.42 258.873 132.114 257.198 133.348 255.964C134.582 254.73 136.257 254.036 138.002 254.036H138.003L141.092 251.692L146.856 254.036L148.332 254.036L148.332 260.833Z" fill="#2F3139"/>
<path d="M121.666 153.623C121.666 153.623 89.6256 184.558 109.881 194.133H116.142C116.142 194.133 118.023 187.449 122.33 181.813C122.922 181.039 125.137 181.196 125.753 180.442C129.51 175.836 133.584 171.88 136.397 172.037L138.238 193.397L137.33 199.657C136.758 203.599 136.908 207.611 137.774 211.499L137.133 236.485L148.368 236.492C148.368 236.492 148.821 230.636 149.201 223.311C149.303 221.349 150.147 219.982 150.228 217.894C150.421 212.887 149.779 207.058 149.655 202.972L158.125 158.042L121.666 153.623Z" fill="#2F3139"/>
<path d="M136.465 88.0776L131.24 95.0664L118.719 102.431L126.084 121.582L126.363 135.83L125.678 137.549L126.452 140.364C126.452 140.364 126.095 143.658 124.19 146.104C120.859 150.381 115.774 155.029 120.928 156.2C129.03 158.042 157.756 162.092 159.229 158.778C159.738 157.632 159.675 152.784 159.374 146.932C159.318 145.838 158.109 144.647 158.039 143.501C157.986 142.64 159.073 141.831 159.014 140.958C158.357 131.233 157.388 121.214 157.388 121.214L160.27 94.4011L148.739 91.4254L147.445 88.1252L136.465 88.0776Z" fill="#F58218"/>
<path d="M108.342 192.296L110.054 194.46C110.054 194.46 125.805 205.48 126.346 206.51L128.835 208.865L134.858 202.427L131.726 198.501C129.219 195.359 125.981 192.88 122.294 191.28L117.494 187.021L108.342 192.296Z" fill="#2F3139"/>
<path d="M118.351 161.368L121.219 133.605L121.976 122.179L113.948 120.727C113.948 120.727 112.746 128.582 111.694 133.192C110.656 137.741 113.076 160.759 113.141 161.366C112.551 161.893 112.135 162.587 111.949 163.355C111.762 164.124 111.813 164.931 112.095 165.67C112.377 166.409 112.877 167.045 113.528 167.494C114.179 167.943 114.951 168.183 115.742 168.183C116.533 168.184 117.306 167.944 117.957 167.496C118.609 167.048 119.109 166.412 119.392 165.674C119.675 164.935 119.727 164.128 119.541 163.359C119.355 162.59 118.94 161.896 118.351 161.368Z" fill="#FFB9B9"/>
<path d="M107.979 138.269L121.838 141.787L121.742 137.897L122.793 136.781L124.895 125.772L127.91 119.323L127.126 97.2695L119.468 101.331L119.459 101.338C118.121 102.81 117.003 104.466 116.138 106.256C113.251 112.125 110.478 125.052 109.026 132.561C108.976 132.718 108.88 132.857 108.75 132.959C108.029 133.62 107.559 134.509 107.419 135.477C107.279 136.444 107.476 137.431 107.979 138.269Z" fill="#F58218"/>
<path d="M190.28 145.357C190.28 145.357 173.409 127.569 173.251 127.234C172.073 118.284 168.683 114.336 168.175 114.765L159.426 117.796C159.426 117.796 162.028 126.037 163.79 130.931C165.474 135.609 184.878 147.033 185.202 147.597C184.854 148.365 184.748 149.22 184.896 150.049C185.045 150.879 185.442 151.643 186.035 152.242C186.628 152.841 187.389 153.246 188.217 153.403C189.045 153.56 189.901 153.462 190.672 153.122C191.443 152.782 192.093 152.215 192.535 151.498C192.977 150.781 193.191 149.946 193.149 149.105C193.106 148.263 192.809 147.454 192.297 146.785C191.785 146.116 191.082 145.618 190.28 145.357Z" fill="#FFB9B9"/>
<path d="M152.359 95.0133C152.359 95.0133 160.948 90.8042 164.279 99.0711C166.105 103.738 170.775 115.065 173.103 122.037C173.118 122.082 173.14 122.124 173.166 122.162C173.789 123.087 174.125 124.175 174.132 125.29C174.131 125.372 174.14 125.453 174.157 125.532C174.157 125.532 164.72 127.371 161.912 132.318L160.799 131.109L160.601 130.263L152.459 108.536L152.359 95.0133Z" fill="#F58218"/>
<path d="M292.614 128.754H192.063C191.167 128.753 190.308 128.396 189.675 127.763C189.041 127.129 188.685 126.27 188.684 125.374V110.648C188.685 109.752 189.041 108.893 189.675 108.259C190.308 107.626 191.167 107.27 192.063 107.269H292.614C293.51 107.27 294.369 107.626 295.002 108.259C295.636 108.893 295.992 109.752 295.993 110.648V125.374C295.992 126.27 295.636 127.129 295.002 127.763C294.369 128.396 293.51 128.753 292.614 128.754Z" fill="#E6E6E6"/>
<path d="M282.845 126.474H194.344C193.448 126.473 192.589 126.117 191.956 125.483C191.322 124.85 190.966 123.991 190.965 123.095V112.929C190.966 112.033 191.322 111.174 191.956 110.541C192.589 109.907 193.448 109.551 194.344 109.55H290.336C291.232 109.551 292.09 109.907 292.724 110.541C293.358 111.174 293.714 112.033 293.715 112.929V115.605C293.712 118.486 292.565 121.249 290.528 123.287C288.49 125.325 285.727 126.471 282.845 126.474Z" fill="white"/>
<path d="M252.317 116.963H211.903C211.672 116.963 211.45 116.871 211.287 116.708C211.123 116.545 211.031 116.323 211.031 116.092C211.031 115.861 211.123 115.639 211.287 115.475C211.45 115.312 211.672 115.22 211.903 115.22H252.317C252.548 115.22 252.769 115.312 252.933 115.475C253.096 115.639 253.188 115.861 253.188 116.092C253.188 116.323 253.096 116.545 252.933 116.708C252.769 116.871 252.548 116.963 252.317 116.963Z" fill="#F58218"/>
<path d="M272.775 120.528H211.903C211.672 120.528 211.45 120.436 211.287 120.273C211.123 120.109 211.031 119.888 211.031 119.657C211.031 119.426 211.123 119.204 211.287 119.04C211.45 118.877 211.672 118.785 211.903 118.785H272.775C273.006 118.785 273.227 118.877 273.391 119.04C273.554 119.204 273.646 119.426 273.646 119.657C273.646 119.888 273.554 120.109 273.391 120.273C273.227 120.436 273.006 120.528 272.775 120.528Z" fill="#E6E6E6"/>
<path d="M292.614 159.999H192.063C191.167 159.998 190.308 159.641 189.675 159.008C189.041 158.374 188.685 157.515 188.684 156.619V141.893C188.685 140.997 189.041 140.138 189.675 139.505C190.308 138.871 191.167 138.515 192.063 138.514H292.614C293.51 138.515 294.369 138.871 295.002 139.505C295.636 140.138 295.992 140.997 295.993 141.893V156.619C295.992 157.515 295.636 158.374 295.002 159.008C294.369 159.641 293.51 159.998 292.614 159.999Z" fill="#E6E6E6"/>
<path d="M282.845 157.719H194.344C193.448 157.718 192.589 157.362 191.956 156.728C191.322 156.095 190.966 155.236 190.965 154.34V144.174C190.966 143.278 191.322 142.419 191.956 141.786C192.589 141.152 193.448 140.796 194.344 140.795H290.336C291.232 140.796 292.09 141.152 292.724 141.786C293.358 142.419 293.714 143.278 293.715 144.174V146.85C293.712 149.732 292.565 152.494 290.528 154.532C288.49 156.57 285.727 157.716 282.845 157.719Z" fill="white"/>
<path d="M252.317 148.209H211.903C211.788 148.209 211.675 148.186 211.569 148.143C211.464 148.099 211.367 148.035 211.287 147.954C211.206 147.873 211.141 147.777 211.098 147.671C211.054 147.565 211.031 147.452 211.031 147.337C211.031 147.223 211.054 147.11 211.098 147.004C211.141 146.898 211.206 146.802 211.287 146.721C211.367 146.64 211.464 146.576 211.569 146.532C211.675 146.488 211.788 146.466 211.903 146.466H252.317C252.548 146.466 252.769 146.558 252.933 146.721C253.096 146.885 253.188 147.106 253.188 147.337C253.188 147.568 253.096 147.79 252.933 147.954C252.769 148.117 252.548 148.209 252.317 148.209Z" fill="#F58218"/>
<path d="M272.775 151.773H211.903C211.788 151.773 211.675 151.751 211.569 151.707C211.464 151.663 211.367 151.599 211.287 151.518C211.206 151.437 211.141 151.341 211.098 151.235C211.054 151.13 211.031 151.016 211.031 150.902C211.031 150.787 211.054 150.674 211.098 150.568C211.141 150.463 211.206 150.366 211.287 150.286C211.367 150.205 211.464 150.14 211.569 150.097C211.675 150.053 211.788 150.03 211.903 150.03H272.775C273.006 150.03 273.227 150.122 273.391 150.286C273.554 150.449 273.646 150.671 273.646 150.902C273.646 151.133 273.554 151.355 273.391 151.518C273.227 151.681 273.006 151.773 272.775 151.773Z" fill="#E6E6E6"/>
<path d="M292.614 191.244H192.063C191.167 191.243 190.308 190.886 189.675 190.253C189.041 189.619 188.685 188.76 188.684 187.865V173.138C188.685 172.242 189.041 171.383 189.675 170.75C190.308 170.116 191.167 169.76 192.063 169.759H292.614C293.51 169.76 294.369 170.116 295.002 170.75C295.636 171.383 295.992 172.242 295.993 173.138V187.865C295.992 188.76 295.636 189.619 295.002 190.253C294.369 190.886 293.51 191.243 292.614 191.244Z" fill="#E6E6E6"/>
<path d="M282.845 188.965H194.344C193.448 188.963 192.589 188.607 191.956 187.974C191.322 187.34 190.966 186.481 190.965 185.585V175.419C190.966 174.523 191.322 173.664 191.956 173.031C192.589 172.397 193.448 172.041 194.344 172.04H290.336C291.232 172.041 292.09 172.397 292.724 173.031C293.358 173.664 293.714 174.523 293.715 175.419V178.095C293.712 180.977 292.565 183.74 290.528 185.777C288.49 187.815 285.727 188.961 282.845 188.965Z" fill="white"/>
<path d="M252.317 179.454H211.903C211.672 179.454 211.45 179.362 211.287 179.199C211.123 179.035 211.031 178.814 211.031 178.582C211.031 178.351 211.123 178.13 211.287 177.966C211.45 177.803 211.672 177.711 211.903 177.711H252.317C252.548 177.711 252.769 177.803 252.933 177.966C253.096 178.13 253.188 178.351 253.188 178.582C253.188 178.814 253.096 179.035 252.933 179.199C252.769 179.362 252.548 179.454 252.317 179.454Z" fill="#F58218"/>
<path d="M272.775 183.018H211.903C211.672 183.018 211.45 182.927 211.287 182.763C211.123 182.6 211.031 182.378 211.031 182.147C211.031 181.916 211.123 181.694 211.287 181.531C211.45 181.367 211.672 181.275 211.903 181.275H272.775C273.006 181.275 273.227 181.367 273.391 181.531C273.554 181.694 273.646 181.916 273.646 182.147C273.646 182.378 273.554 182.6 273.391 182.763C273.227 182.927 273.006 183.018 272.775 183.018Z" fill="#E6E6E6"/>
<path d="M141.969 85.8342C147.777 85.8342 152.486 81.1259 152.486 75.318C152.486 69.51 147.777 64.8018 141.969 64.8018C136.161 64.8018 131.453 69.51 131.453 75.318C131.453 81.1259 136.161 85.8342 141.969 85.8342Z" fill="#FFB9B9"/>
<path d="M134.237 82.0813C134.111 82.0818 133.985 82.0616 133.866 82.0215C133.396 81.8158 133.004 81.467 132.745 81.025C130.934 78.4209 130.06 74.949 130.146 70.7055C130.183 68.9102 130.386 66.6149 131.644 64.7853C132.701 63.2468 134.84 62.0258 136.833 62.6387C136.81 62.2401 136.898 61.8431 137.088 61.4919C137.278 61.1407 137.562 60.8491 137.908 60.6497C138.662 60.1874 139.571 60.1023 140.373 60.027C142.397 59.8372 144.49 59.6411 146.54 60.0295C148.838 60.4655 150.717 61.6501 151.695 63.2796L151.715 63.3308L151.914 64.2964C151.941 64.4262 151.996 64.5487 152.074 64.6554C152.153 64.7621 152.253 64.8505 152.37 64.9145C152.486 64.9785 152.614 65.0166 152.746 65.0262C152.879 65.0357 153.011 65.0165 153.135 64.9699C153.271 64.9189 153.417 64.9041 153.56 64.927C153.703 64.9499 153.837 65.0096 153.95 65.1002C154.063 65.1909 154.15 65.3094 154.203 65.4441C154.256 65.5787 154.272 65.7248 154.252 65.868L154.196 66.2521L154.774 66.1439C154.919 66.117 155.068 66.1288 155.207 66.1783C155.345 66.2277 155.468 66.313 155.563 66.4255C155.658 66.538 155.721 66.6735 155.747 66.8185C155.772 66.9634 155.759 67.1125 155.708 67.2505L155.544 67.6922C155.664 67.6929 155.782 67.7182 155.892 67.7664C156.001 67.8146 156.1 67.8847 156.181 67.9725C156.298 68.0982 156.372 68.258 156.391 68.4286C156.411 68.5992 156.375 68.7716 156.29 68.9206C155.644 70.0254 154.728 70.9476 153.627 71.6004C153.025 71.9623 152.367 72.221 151.68 72.3658C147.222 73.3279 142.626 73.4661 138.118 72.7736C138.385 73.6627 138.488 74.5929 138.422 75.5188C138.277 76.6765 137.597 77.6319 136.69 77.9527C136.483 78.0199 136.272 78.0709 136.057 78.1053C135.852 78.1372 135.65 78.1864 135.453 78.2521C135.161 78.3593 134.902 78.5416 134.703 78.7806C134.504 79.0196 134.372 79.3069 134.319 79.6134C134.267 79.9199 134.296 80.2348 134.404 80.5264C134.512 80.818 134.695 81.076 134.935 81.2742L135.383 80.8077L135.237 81.4008C135.207 81.5162 135.152 81.624 135.078 81.717C135.003 81.8101 134.909 81.8864 134.803 81.941C134.629 82.034 134.434 82.0822 134.237 82.0813Z" fill="#2F3139"/>
<path d="M280.529 240.869L280.955 231.302C285.39 228.932 290.337 227.679 295.367 227.654C288.445 233.313 289.31 244.222 284.617 251.832C283.135 254.194 281.141 256.193 278.782 257.68C276.423 259.166 273.759 260.103 270.989 260.42L265.196 263.967C264.401 259.536 264.577 254.985 265.71 250.629C266.843 246.272 268.907 242.213 271.76 238.731C273.38 236.793 275.238 235.067 277.289 233.594C278.676 237.252 280.529 240.869 280.529 240.869Z" fill="#F2F2F2"/>
<path d="M322 264.201C322 264.259 321.989 264.317 321.967 264.371C321.944 264.424 321.912 264.473 321.871 264.514C321.83 264.555 321.781 264.588 321.727 264.61C321.673 264.632 321.615 264.644 321.557 264.644H0.442641C0.325245 264.644 0.212662 264.597 0.129651 264.514C0.0466402 264.431 0 264.318 0 264.201C0 264.084 0.0466402 263.971 0.129651 263.888C0.212662 263.805 0.325245 263.758 0.442641 263.758H321.557C321.616 263.758 321.673 263.769 321.727 263.792C321.781 263.814 321.83 263.846 321.871 263.888C321.912 263.929 321.944 263.978 321.967 264.031C321.989 264.085 322 264.143 322 264.201Z" fill="#CCCCCC"/>
</g>
<defs>
<clipPath id="clip0_19_7888">
<rect width="322" height="264.644" fill="white"/>
</clipPath>
</defs>
</svg>
