<svg width="310" height="274" viewBox="0 0 310 274" fill="none" xmlns="http://www.w3.org/2000/svg">
<g clip-path="url(#clip0_22_3609)">
<path d="M266.413 226.397C261.182 241.636 254.456 256.842 245.838 271.314C245.647 271.64 245.453 271.96 245.258 272.284L223.924 265.571C224.047 265.264 224.181 264.92 224.325 264.545C232.93 242.409 284.847 107.545 282.517 80.9541C282.768 83.1307 290.889 155.162 266.413 226.397Z" fill="#E6E6E6"/>
<path d="M249.954 272.609C249.664 272.904 249.367 273.197 249.067 273.483L233.062 268.447C233.279 268.186 233.531 267.879 233.821 267.533C238.561 261.775 252.653 244.536 266.413 226.397C281.201 206.905 295.609 186.376 297.628 177.941C297.223 179.86 284.594 238.25 249.954 272.609Z" fill="#E6E6E6"/>
<path d="M257.954 48.0537C257.948 48.0537 257.942 48.0554 257.936 48.0556V13.9304C257.936 10.2358 256.461 6.69258 253.834 4.08012C251.208 1.46766 247.646 0 243.931 0H136.522C132.808 0 129.246 1.46766 126.619 4.08012C123.993 6.69258 122.517 10.2358 122.517 13.9304V31.4248C122.221 31.4311 121.938 31.5526 121.731 31.7633C121.523 31.9741 121.407 32.2572 121.407 32.5523V41.2174C121.407 41.5124 121.523 41.7956 121.731 42.0063C121.938 42.217 122.221 42.3385 122.517 42.3447V51.4223H122.46C122.311 51.4223 122.163 51.4515 122.025 51.5083C121.888 51.565 121.762 51.6483 121.657 51.7532C121.551 51.8581 121.468 51.9827 121.411 52.1198C121.354 52.2569 121.324 52.4038 121.324 52.5522V69.3085C121.324 69.4568 121.354 69.6038 121.411 69.7409C121.468 69.878 121.551 70.0025 121.657 70.1075C121.762 70.2124 121.888 70.2956 122.025 70.3524C122.163 70.4092 122.311 70.4384 122.46 70.4384H122.517V77.0935H122.499C122.35 77.0934 122.203 77.1227 122.065 77.1795C121.927 77.2362 121.802 77.3195 121.696 77.4244C121.591 77.5293 121.507 77.6539 121.45 77.791C121.393 77.9281 121.363 78.075 121.363 78.2234V95.1435C121.363 95.2919 121.393 95.4389 121.45 95.576C121.507 95.7131 121.591 95.8376 121.696 95.9426C121.802 96.0475 121.927 96.1307 122.065 96.1875C122.203 96.2443 122.35 96.2735 122.499 96.2735H122.517V259.827C122.517 263.521 123.993 267.065 126.619 269.677C129.246 272.289 132.808 273.757 136.522 273.757H243.931C247.646 273.757 251.208 272.289 253.834 269.677C256.461 267.065 257.936 263.521 257.936 259.827V81.2368C257.942 81.2368 257.948 81.2385 257.954 81.2385C258.219 81.2385 258.482 81.1865 258.728 81.0854C258.973 80.9843 259.196 80.8361 259.384 80.6492C259.572 80.4624 259.721 80.2406 259.823 79.9965C259.924 79.7524 259.977 79.4907 259.977 79.2265V50.0659C259.977 49.5322 259.764 49.0204 259.384 48.6431C259.005 48.2657 258.49 48.0537 257.954 48.0537Z" fill="#2F3139"/>
<path d="M249.574 17.83V255.924C249.573 258.761 248.439 261.481 246.422 263.486C244.405 265.492 241.67 266.618 238.818 266.618H141.635C138.783 266.618 136.048 265.492 134.031 263.486C132.014 261.481 130.88 258.761 130.879 255.924V17.83C130.879 14.9925 132.012 12.2713 134.029 10.2649C136.046 8.25852 138.782 7.13135 141.635 7.13135H156.177V9.00877C156.178 11.3449 157.112 13.585 158.772 15.2369C160.433 16.8887 162.685 17.8172 165.034 17.8182H214.477C216.822 17.8131 219.07 16.8827 220.727 15.2311C222.383 13.5796 223.314 11.3418 223.314 9.00877V7.15086H238.818C241.667 7.15086 244.4 8.27535 246.416 10.2775C248.433 12.2797 249.568 14.9959 249.574 17.83Z" fill="white"/>
<path d="M91.9843 133.599C91.4096 133.377 90.7931 133.284 90.1782 133.325C89.5633 133.367 88.965 133.542 88.4254 133.838C87.8859 134.134 87.4181 134.544 87.0552 135.04C86.6922 135.535 86.4429 136.104 86.3248 136.705L51.6934 155.436L57.7824 162.252L89.9439 141.722C90.9731 141.852 92.0147 141.603 92.8713 141.02C93.7279 140.438 94.3399 139.563 94.5914 138.562C94.8429 137.561 94.7164 136.502 94.2359 135.588C93.7554 134.673 92.9542 133.965 91.9843 133.599Z" fill="#FFB8B8"/>
<path d="M83.1512 268.364L87.4665 265.587L78.7539 247.709L72.3848 251.807L83.1512 268.364Z" fill="#FFB8B8"/>
<path d="M98.3808 264.218L84.8183 272.944L81.4289 267.732L89.9473 262.251C91.2851 261.391 92.9118 261.094 94.4697 261.426C96.0275 261.758 97.3888 262.693 98.2541 264.023L98.3808 264.218Z" fill="#2F3139"/>
<path d="M34.7324 269.009H39.8718L42.3176 249.291H34.7324V269.009Z" fill="#FFB8B8"/>
<path d="M49.7832 273.756H33.6307V267.548H43.7758C44.5647 267.548 45.3459 267.703 46.0747 268.003C46.8036 268.303 47.4658 268.744 48.0237 269.298C48.5815 269.853 49.024 270.512 49.3259 271.237C49.6278 271.962 49.7832 272.739 49.7832 273.524V273.756Z" fill="#2F3139"/>
<path d="M152.646 38.6386H142.051C141.791 38.6386 141.542 38.5358 141.358 38.3528C141.174 38.1698 141.07 37.9216 141.07 37.6628C141.07 37.404 141.174 37.1558 141.358 36.9728C141.542 36.7898 141.791 36.687 142.051 36.687H152.646C152.906 36.687 153.156 36.7898 153.34 36.9728C153.524 37.1558 153.627 37.404 153.627 37.6628C153.627 37.9216 153.524 38.1698 153.34 38.3528C153.156 38.5358 152.906 38.6386 152.646 38.6386Z" fill="#2F3139"/>
<path d="M152.646 41.3705H142.051C141.791 41.3705 141.542 41.2677 141.358 41.0847C141.174 40.9017 141.07 40.6535 141.07 40.3947C141.07 40.1359 141.174 39.8877 141.358 39.7047C141.542 39.5217 141.791 39.4189 142.051 39.4189H152.646C152.906 39.4189 153.156 39.5217 153.34 39.7047C153.524 39.8877 153.627 40.1359 153.627 40.3947C153.627 40.6535 153.524 40.9017 153.34 41.0847C153.156 41.2677 152.906 41.3705 152.646 41.3705Z" fill="#2F3139"/>
<path d="M152.646 44.103H142.051C141.791 44.103 141.542 44.0001 141.358 43.8172C141.174 43.6342 141.07 43.386 141.07 43.1272C141.07 42.8684 141.174 42.6202 141.358 42.4372C141.542 42.2542 141.791 42.1514 142.051 42.1514H152.646C152.906 42.1514 153.156 42.2542 153.34 42.4372C153.524 42.6202 153.627 42.8684 153.627 43.1272C153.627 43.386 153.524 43.6342 153.34 43.8172C153.156 44.0001 152.906 44.103 152.646 44.103Z" fill="#2F3139"/>
<path d="M234.774 41.3901H234.416L234.279 41.2769C234.73 40.7421 234.978 40.0664 234.978 39.3683C234.975 38.7939 234.8 38.2334 234.477 37.7576C234.153 37.2818 233.696 36.912 233.161 36.6951C232.626 36.4782 232.039 36.4238 231.473 36.5389C230.908 36.6539 230.389 36.9333 229.983 37.3416C229.577 37.7499 229.301 38.2688 229.192 38.8327C229.082 39.3966 229.143 39.9802 229.367 40.5096C229.591 41.0391 229.967 41.4906 230.449 41.8071C230.931 42.1236 231.496 42.2909 232.074 42.2879C232.774 42.2829 233.45 42.0375 233.989 41.5931L234.122 41.7063V42.0654L236.375 44.3097L237.05 43.6384L234.774 41.3901ZM232.074 41.3901C231.672 41.3917 231.278 41.2746 230.943 41.0537C230.608 40.8329 230.346 40.5181 230.191 40.1493C230.036 39.7804 229.994 39.374 230.071 38.9815C230.148 38.589 230.34 38.228 230.623 37.9442C230.906 37.6603 231.268 37.4664 231.662 37.3868C232.056 37.3073 232.465 37.3458 232.837 37.4974C233.209 37.649 233.527 37.9069 233.752 38.2385C233.976 38.5702 234.097 38.9606 234.099 39.3605L234.099 39.3683C234.1 39.6323 234.049 39.894 233.949 40.1384C233.849 40.3829 233.702 40.6053 233.515 40.7931C233.328 40.9808 233.107 41.1302 232.862 41.2326C232.617 41.3351 232.355 41.3886 232.09 41.3901C232.084 41.3901 232.079 41.3901 232.074 41.3901Z" fill="#2F3139"/>
<path d="M174.229 74.5474H155.195C154.051 74.5474 152.953 74.0951 152.143 73.2899C151.334 72.4847 150.879 71.3927 150.879 70.2539C150.879 69.1152 151.334 68.0232 152.143 67.218C152.953 66.4128 154.051 65.9604 155.195 65.9604H174.229C175.374 65.9604 176.472 66.4128 177.281 67.218C178.091 68.0232 178.546 69.1152 178.546 70.2539C178.546 71.3927 178.091 72.4847 177.281 73.2899C176.472 74.0951 175.374 74.5474 174.229 74.5474Z" fill="#F58218"/>
<path d="M232.499 83.9153H153.233C152.609 83.9153 152.01 83.6685 151.569 83.2293C151.127 82.7901 150.879 82.1945 150.879 81.5734C150.879 80.9522 151.127 80.3566 151.569 79.9174C152.01 79.4782 152.609 79.2314 153.233 79.2314H232.499C233.124 79.2314 233.722 79.4782 234.164 79.9174C234.606 80.3566 234.854 80.9522 234.854 81.5734C234.854 82.1945 234.606 82.7901 234.164 83.2293C233.722 83.6685 233.124 83.9153 232.499 83.9153Z" fill="#E6E6E6"/>
<path d="M182.35 93.2829H153.233C152.609 93.2829 152.01 93.0362 151.569 92.597C151.127 92.1578 150.879 91.5621 150.879 90.941C150.879 90.3199 151.127 89.7242 151.569 89.285C152.01 88.8459 152.609 88.5991 153.233 88.5991H182.35C182.974 88.5991 183.573 88.8459 184.015 89.285C184.456 89.7242 184.704 90.3199 184.704 90.941C184.704 91.5621 184.456 92.1578 184.015 92.597C183.573 93.0362 182.974 93.2829 182.35 93.2829Z" fill="#E6E6E6"/>
<path d="M174.229 178.372H155.195C154.051 178.372 152.953 177.92 152.143 177.115C151.334 176.309 150.879 175.217 150.879 174.079C150.879 172.94 151.334 171.848 152.143 171.043C152.953 170.237 154.051 169.785 155.195 169.785H174.229C175.374 169.785 176.472 170.237 177.281 171.043C178.091 171.848 178.546 172.94 178.546 174.079C178.546 175.217 178.091 176.309 177.281 177.115C176.472 177.92 175.374 178.372 174.229 178.372Z" fill="#F58218"/>
<path d="M232.499 187.74H153.233C152.609 187.74 152.01 187.493 151.569 187.054C151.127 186.615 150.879 186.019 150.879 185.398C150.879 184.777 151.127 184.181 151.569 183.742C152.01 183.303 152.609 183.056 153.233 183.056H232.499C233.124 183.056 233.722 183.303 234.164 183.742C234.606 184.181 234.854 184.777 234.854 185.398C234.854 186.019 234.606 186.615 234.164 187.054C233.722 187.493 233.124 187.74 232.499 187.74Z" fill="#E6E6E6"/>
<path d="M182.35 197.108H153.233C152.609 197.108 152.01 196.861 151.569 196.422C151.127 195.983 150.879 195.387 150.879 194.766C150.879 194.145 151.127 193.549 151.569 193.11C152.01 192.671 152.609 192.424 153.233 192.424H182.35C182.974 192.424 183.573 192.671 184.015 193.11C184.456 193.549 184.704 194.145 184.704 194.766C184.704 195.387 184.456 195.983 184.015 196.422C183.573 196.861 182.974 197.108 182.35 197.108Z" fill="#E6E6E6"/>
<path d="M174.229 226.381H155.195C154.051 226.381 152.953 225.929 152.143 225.124C151.334 224.319 150.879 223.227 150.879 222.088C150.879 220.949 151.334 219.857 152.143 219.052C152.953 218.247 154.051 217.794 155.195 217.794H174.229C175.374 217.794 176.472 218.247 177.281 219.052C178.091 219.857 178.546 220.949 178.546 222.088C178.546 223.227 178.091 224.319 177.281 225.124C176.472 225.929 175.374 226.381 174.229 226.381Z" fill="#F58218"/>
<path d="M232.499 235.749H153.233C152.609 235.749 152.01 235.502 151.569 235.063C151.127 234.624 150.879 234.028 150.879 233.407C150.879 232.786 151.127 232.19 151.569 231.751C152.01 231.312 152.609 231.065 153.233 231.065H232.499C233.124 231.065 233.722 231.312 234.164 231.751C234.606 232.19 234.854 232.786 234.854 233.407C234.854 234.028 234.606 234.624 234.164 235.063C233.722 235.502 233.124 235.749 232.499 235.749Z" fill="#E6E6E6"/>
<path d="M182.35 245.116H153.233C152.609 245.116 152.01 244.87 151.569 244.43C151.127 243.991 150.879 243.396 150.879 242.775C150.879 242.153 151.127 241.558 151.569 241.119C152.01 240.679 152.609 240.433 153.233 240.433H182.35C182.974 240.433 183.573 240.679 184.015 241.119C184.456 241.558 184.704 242.153 184.704 242.775C184.704 243.396 184.456 243.991 184.015 244.43C183.573 244.87 182.974 245.116 182.35 245.116Z" fill="#E6E6E6"/>
<path d="M243.683 153.977H92.2143C91.33 153.976 90.4823 153.626 89.857 153.004C89.2317 152.382 88.8799 151.539 88.8789 150.659V109.676C88.8799 108.796 89.2316 107.953 89.8569 107.331C90.4822 106.709 91.33 106.359 92.2143 106.358H243.683C244.567 106.359 245.415 106.709 246.04 107.331C246.665 107.953 247.017 108.797 247.018 109.676V150.659C247.017 151.539 246.665 152.382 246.04 153.004C245.415 153.626 244.567 153.976 243.683 153.977Z" fill="#F58218"/>
<path d="M37.7625 202.736C39.2104 212.841 31.5428 257.61 32.3944 257.606L43.4052 257.548C43.7976 256.799 48.8518 232.642 50.4371 228.766C52.6503 223.387 54.8831 217.942 55.7542 212.197C56.5744 206.803 56.1702 201.307 55.6365 195.878C55.6613 195.716 55.6471 195.551 55.5952 195.396C55.5432 195.241 55.455 195.101 55.3377 194.986C55.2204 194.872 55.0774 194.787 54.9206 194.738C54.7638 194.69 54.5976 194.679 54.4357 194.707L39.6617 193.95C36.6166 193.793 35.8946 193.13 36.3576 196.104C36.6794 198.325 37.4407 200.487 37.7625 202.736Z" fill="#2F3139"/>
<path d="M40.6665 178.165C37.6646 182.459 34.5175 187.4 35.5142 192.541C36.2716 196.444 39.2617 199.469 42.0831 202.299C53.3608 213.563 75.5984 263.266 75.5984 263.266C86.3301 256.436 75.3427 263.461 86.2326 256.24C85.2673 256.166 63.3357 177.748 61.5189 177.642C54.1692 177.158 47.8279 176.444 40.6665 178.165Z" fill="#2F3139"/>
<path d="M52.5394 137.299C51.0146 135.947 40.2993 131.776 40.2993 131.776C40.1023 131.75 39.9024 131.756 39.7073 131.793C39.0975 131.946 38.8193 132.7 38.9495 133.31C39.0798 133.919 38.0112 143.936 37.7359 148.491C37.2534 156.441 41.96 174.448 41.9185 174.999C41.7573 176.963 40.8928 178.803 39.4824 180.187C39.8489 180.639 63.1307 181.547 64.7143 182.083C65.034 181.68 62.9116 153.116 62.8139 151.503C62.6511 149.053 54.5522 139.154 52.5394 137.299Z" fill="#E6E6E6"/>
<path d="M35.9343 199.277C36.486 199.004 36.9708 198.614 37.3546 198.134C37.7384 197.655 38.0118 197.097 38.1555 196.501C38.2992 195.905 38.3098 195.285 38.1865 194.684C38.0631 194.084 37.8089 193.517 37.4417 193.025L47.2648 138.95L38.0982 138.83L31.2766 192.303C30.4861 192.971 29.9694 193.905 29.8247 194.927C29.6799 195.949 29.917 196.988 30.4912 197.848C31.0653 198.707 31.9365 199.328 32.9397 199.591C33.9429 199.855 35.0084 199.743 35.9343 199.277Z" fill="#FFB8B8"/>
<path d="M35.8538 142.963C35.4715 142.99 35.0908 142.892 34.7708 142.682C34.2253 142.217 38.6752 135.11 39.5542 135.004C42.4148 134.676 45.3579 134.567 48.1322 135.336C50.9065 136.105 53.516 137.853 54.756 140.441C55.2739 141.519 51.5186 146.94 49.8117 146.144C47.7672 145.191 38.5457 143.029 35.8538 142.963Z" fill="#E6E6E6"/>
<path d="M45.9505 131.193C51.637 131.193 56.2468 126.608 56.2468 120.952C56.2468 115.296 51.637 110.71 45.9505 110.71C40.2641 110.71 35.6543 115.296 35.6543 120.952C35.6543 126.608 40.2641 131.193 45.9505 131.193Z" fill="#FFB8B8"/>
<path d="M35.8381 137.885C37.2689 138.034 38.7144 137.823 40.0424 137.273C41.3703 136.723 42.5383 135.85 43.4395 134.735C44.3407 133.619 44.9463 132.297 45.2009 130.888C45.4556 129.48 45.3511 128.031 44.897 126.673C44.4873 125.447 43.8023 124.324 43.4271 123.088C43.0519 121.852 43.0417 120.39 43.8739 119.399C45.5023 117.46 48.6408 118.68 51.1512 118.294C53.826 117.883 55.8782 115.331 56.0922 112.647C56.3063 109.963 54.9 107.307 52.8065 105.601C50.713 103.895 48.013 103.055 45.3193 102.791C41.8601 102.453 38.3715 103.007 35.1897 104.399C32.0078 105.79 29.2398 107.974 27.1521 110.738C25.0644 113.502 23.7275 116.755 23.2699 120.182C22.8124 123.61 23.2497 127.096 24.5397 130.307C25.6651 133.108 27.5032 135.716 30.1141 137.25C32.725 138.784 36.1734 139.079 38.7756 137.53" fill="#2F3139"/>
<path d="M146.083 125.094H119.771C118.1 125.094 116.74 123.168 116.74 120.8C116.74 118.433 118.1 116.507 119.771 116.507H146.083C147.754 116.507 149.114 118.433 149.114 120.8C149.114 123.168 147.754 125.094 146.083 125.094Z" fill="white"/>
<path d="M216.804 134.462H119.095C118.47 134.462 117.871 134.215 117.43 133.776C116.988 133.337 116.74 132.741 116.74 132.12C116.74 131.499 116.988 130.903 117.43 130.464C117.871 130.025 118.47 129.778 119.095 129.778H216.804C217.428 129.778 218.027 130.025 218.468 130.464C218.91 130.903 219.158 131.499 219.158 132.12C219.158 132.741 218.91 133.337 218.468 133.776C218.027 134.215 217.428 134.462 216.804 134.462Z" fill="#E6E6E6"/>
<path d="M166.654 143.829H119.095C118.47 143.829 117.871 143.582 117.43 143.143C116.988 142.704 116.74 142.108 116.74 141.487C116.74 140.866 116.988 140.27 117.43 139.831C117.871 139.392 118.47 139.145 119.095 139.145H166.654C167.279 139.145 167.878 139.392 168.319 139.831C168.761 140.27 169.009 140.866 169.009 141.487C169.009 142.108 168.761 142.704 168.319 143.143C167.878 143.582 167.279 143.829 166.654 143.829Z" fill="#E6E6E6"/>
<path d="M310 273.219H0V274H310V273.219Z" fill="#2F3139"/>
</g>
<defs>
<clipPath id="clip0_22_3609">
<rect width="310" height="274" fill="white"/>
</clipPath>
</defs>
</svg>
