<svg width="334" height="295" viewBox="0 0 334 295" fill="none" xmlns="http://www.w3.org/2000/svg">
<g clip-path="url(#clip0_19_8080)">
<path d="M319.204 294.608L318.76 294.441C318.662 294.405 308.935 290.682 304.378 282.242C299.822 273.801 302.053 263.638 302.076 263.537L302.181 263.074L302.626 263.241C302.723 263.278 312.45 267 317.007 275.44C321.563 283.881 319.332 294.044 319.309 294.145L319.204 294.608ZM305.108 281.849C308.96 288.985 316.647 292.643 318.594 293.479C318.965 291.394 320.126 282.963 316.277 275.833C312.429 268.705 304.739 265.041 302.791 264.204C302.42 266.29 301.259 274.72 305.108 281.849Z" fill="#2F3139"/>
<path d="M307.86 279.281C316.049 284.202 319.202 293.976 319.202 293.976C319.202 293.976 309.08 295.772 300.891 290.851C292.703 285.93 289.549 276.156 289.549 276.156C289.549 276.156 299.672 274.36 307.86 279.281Z" fill="#F58218"/>
<path d="M176.031 158.099C176.428 157.486 176.95 156.964 177.563 156.566C178.176 156.169 178.866 155.905 179.589 155.793C180.311 155.68 181.049 155.722 181.754 155.914C182.459 156.106 183.116 156.445 183.68 156.908C183.859 157.056 184.026 157.216 184.182 157.386L204.575 154.421L205.71 139.104C205.796 137.929 206.347 136.837 207.24 136.067C208.134 135.298 209.297 134.914 210.473 135.001C211.649 135.088 212.743 135.638 213.514 136.53C214.284 137.422 214.668 138.584 214.581 139.759C214.579 139.786 214.577 139.813 214.574 139.84L212.586 161.333L212.577 161.381C212.318 162.207 211.8 162.928 211.098 163.436C210.397 163.945 209.55 164.214 208.684 164.204L184.698 163.79C184.605 163.932 184.504 164.069 184.397 164.201C183.933 164.765 183.355 165.225 182.7 165.55C182.046 165.876 181.33 166.059 180.6 166.089C179.869 166.119 179.141 165.994 178.462 165.723C177.783 165.452 177.17 165.041 176.661 164.517C176.558 164.411 176.46 164.302 176.368 164.189C175.676 163.339 175.271 162.292 175.211 161.199C175.151 160.105 175.438 159.02 176.031 158.099Z" fill="#FFB7B7"/>
<path d="M217.144 288.694L211.327 288.694L208.561 266.286L217.145 266.287L217.144 288.694Z" fill="#FFB7B7"/>
<path d="M218.627 294.326L199.873 294.325V294.088C199.873 292.155 200.642 290.3 202.011 288.933C203.38 287.566 205.237 286.797 207.173 286.797H207.173L218.627 286.798L218.627 294.326Z" fill="#2F3139"/>
<path d="M257.786 283.428L252.282 285.303L242.42 264.987L250.545 262.219L257.786 283.428Z" fill="#FFB7B7"/>
<path d="M261.01 288.279L243.26 294.326L243.184 294.102C242.559 292.271 242.687 290.268 243.541 288.533C244.395 286.797 245.904 285.472 247.736 284.847L247.736 284.847L258.577 281.154L261.01 288.279Z" fill="#2F3139"/>
<path d="M218.5 126L221.5 118.5H230.5L234 126H218.5Z" fill="#CBCBCB"/>
<path d="M223.548 92.7682C223.548 92.7682 217.759 90.8586 214.038 98.4971C210.316 106.136 204.527 114.538 204.527 114.538L207.835 115.302C207.835 115.302 208.662 109.955 210.73 109.191L209.903 116.066C209.903 116.066 234.713 124.086 245.877 115.302L245.464 112.628C245.464 112.628 247.118 113.01 247.118 115.302L248.358 114.156C248.358 114.156 247.118 111.864 243.396 108.809C240.954 106.804 240.114 102.988 239.826 100.603C239.597 98.5834 238.73 96.6891 237.351 95.1951C234.878 92.5477 230.371 89.734 223.548 92.7682Z" fill="#2F3139"/>
<path d="M225.683 119.456C231.522 119.456 236.256 114.728 236.256 108.895C236.256 103.062 231.522 98.334 225.683 98.334C219.843 98.334 215.109 103.062 215.109 108.895C215.109 114.728 219.843 119.456 225.683 119.456Z" fill="#FFB7B7"/>
<path d="M211.584 128.152L209.661 127.512C209.661 127.512 205.817 129.112 205.817 131.993C205.817 134.873 205.176 146.394 205.176 146.394L213.827 147.354L211.584 128.152Z" fill="#CBCBCB"/>
<path d="M245.993 191.102C245.195 190.209 244.745 189.061 244.724 187.865C244.703 186.669 245.113 185.505 245.878 184.585L240.482 139.441C240.429 138.377 240.801 137.334 241.516 136.544C242.232 135.753 243.232 135.278 244.298 135.223C245.364 135.168 246.408 135.538 247.201 136.251C247.994 136.964 248.471 137.963 248.528 139.027C248.529 139.042 248.53 139.056 248.53 139.071L253.358 184.263C253.533 184.439 253.695 184.627 253.841 184.827C254.228 185.362 254.506 185.968 254.659 186.61C254.812 187.253 254.836 187.919 254.732 188.57C254.627 189.222 254.394 189.847 254.048 190.409C253.701 190.971 253.247 191.459 252.712 191.846C252.656 191.886 252.6 191.925 252.543 191.963C251.923 192.373 251.22 192.64 250.484 192.746C249.748 192.853 248.998 192.795 248.287 192.577C247.399 192.309 246.605 191.798 245.993 191.102Z" fill="#FFB7B7"/>
<path d="M241.049 146.394L249.7 145.434C249.7 145.434 249.059 133.913 249.059 131.033C249.059 128.152 245.214 126.552 245.214 126.552L243.292 127.192L241.049 146.394Z" fill="#CBCBCB"/>
<path d="M212.866 162.379C212.866 162.379 205.496 175.837 205.496 192.158C205.496 208.48 204.855 283.367 204.855 283.367C204.855 283.367 214.468 287.848 220.235 282.407L225.361 199.519L245.547 280.807C245.547 280.807 255.159 282.727 259.644 279.527L250.993 222.882C250.993 222.882 247.469 169.756 237.857 165.916C228.245 162.076 212.866 162.379 212.866 162.379Z" fill="#2F3139"/>
<path d="M214.257 108.962C218 106.256 221.03 103.14 223.034 99.4327C223.034 99.4327 229.903 107.056 234.101 107.437C238.299 107.819 234.482 98.2892 234.482 98.2892L226.85 96.3833L219.599 97.1457L213.875 100.957L214.257 108.962Z" fill="#2F3139"/>
<path d="M236.256 124.632C236.256 124.632 236.561 124.468 218.314 125.132L210.677 127.233L209.662 127.512C209.662 127.512 210.623 146.714 213.187 150.235C215.75 153.755 215.109 155.675 214.468 155.995C213.827 156.315 212.225 155.675 213.187 157.275C214.148 158.875 215.429 157.915 214.148 158.875C212.866 159.836 212.225 163.356 212.225 163.356L240.421 167.196C240.421 167.196 241.382 154.715 243.945 148.314C246.508 141.914 247.149 139.354 247.149 139.354L245.227 126.552L236.256 124.632Z" fill="#CBCBCB"/>
<path d="M182.65 70.0436H181.029V25.6778C181.029 18.8676 178.321 12.3364 173.5 7.52086C168.678 2.70534 162.14 1.09777e-05 155.322 0L61.2174 0C54.3993 -1.86619e-05 47.8605 2.70529 43.0394 7.52078C38.2183 12.3363 35.5098 18.8675 35.5098 25.6777V269.072C35.5098 275.882 38.2182 282.413 43.0393 287.229C47.8604 292.045 54.3992 294.75 61.2173 294.75H155.321C158.697 294.75 162.04 294.086 165.159 292.795C168.278 291.505 171.112 289.613 173.499 287.229C175.887 284.845 177.78 282.014 179.072 278.899C180.364 275.783 181.029 272.444 181.029 269.072V101.624H182.65L182.65 70.0436Z" fill="#2F3139"/>
<path d="M175.557 25.8582V268.895C175.559 271.411 175.065 273.903 174.104 276.228C173.142 278.553 171.731 280.667 169.951 282.447C168.171 284.228 166.058 285.641 163.732 286.606C161.405 287.571 158.912 288.069 156.393 288.071H61.8023C56.7141 288.075 51.8328 286.059 48.2323 282.468C44.6319 278.877 42.6071 274.004 42.6035 268.922V25.8582C42.6017 23.3416 43.0962 20.8494 44.0587 18.5238C45.0212 16.1981 46.4329 14.0846 48.2132 12.3039C49.9934 10.5232 52.1074 9.11019 54.4344 8.14552C56.7614 7.18084 59.2558 6.68342 61.7752 6.68165H73.2727C72.7078 8.06495 72.4922 9.56579 72.6449 11.0519C72.7975 12.5381 73.3138 13.9639 74.1482 15.2038C74.9825 16.4437 76.1094 17.4595 77.4295 18.1619C78.7496 18.8643 80.2223 19.2316 81.718 19.2314H135.63C137.126 19.2316 138.599 18.8643 139.919 18.1619C141.239 17.4595 142.366 16.4437 143.2 15.2038C144.035 13.9639 144.551 12.5381 144.704 11.0519C144.856 9.56579 144.641 8.06495 144.076 6.68165H156.358C161.446 6.67709 166.326 8.69129 169.927 12.2811C173.527 15.871 175.553 20.7424 175.557 25.8238L175.557 25.8582Z" fill="white"/>
<path d="M175.557 61.8147V53.5365H163.013V7.86549C160.883 7.07959 158.629 6.67873 156.358 6.68166H154.726V53.5365H111.214V19.2315H102.926V53.5365H66.46V6.6817H61.8023C60.584 6.6798 59.3684 6.79484 58.1721 7.02524V53.5365H42.6035V61.8147H58.1722V80.9625L42.6037 89.9401V99.5015L58.1722 90.5239V147.494H42.6035V155.773H58.1722V238.141H42.6035V246.419H58.1722V287.728C59.3684 287.958 60.5841 288.073 61.8023 288.071H66.46V246.419H102.926V288.071H111.214V246.419H154.726V288.071H156.358C158.629 288.074 160.883 287.673 163.013 286.887V246.419H175.557V238.141H163.013V202.131H175.445V193.853H163.013V155.773H175.557V147.494H163.013V96.9972H175.557V88.719H163.013V61.8147L175.557 61.8147ZM91.3777 61.8147L66.4602 76.1859L66.46 61.8147H91.3777ZM66.46 85.7432L102.926 64.7123V147.494H66.46V85.7432ZM66.46 238.141V155.773H102.926V238.141H66.46ZM154.725 238.141H111.214V202.131H154.725V238.141ZM154.725 193.853H111.214V155.773H154.725V193.853ZM154.725 147.494H111.214V96.9972H154.725V147.494ZM154.725 88.719H111.214V61.8147H154.725V88.719Z" fill="#E5E5E5"/>
<path d="M182.49 88.8718C182.49 115.16 134.835 173.724 134.835 173.724C134.835 173.724 87.1797 115.16 87.1797 88.8718C87.1797 76.2475 92.2005 64.1403 101.138 55.2136C110.075 46.2869 122.196 41.272 134.835 41.272C147.474 41.272 159.595 46.2869 168.532 55.2136C177.469 64.1403 182.49 76.2475 182.49 88.8718Z" fill="#F58218"/>
<path d="M163.014 86.8027C163.014 92.3695 161.361 97.8112 158.265 102.44C155.168 107.068 150.767 110.676 145.618 112.806C140.469 114.937 134.804 115.494 129.338 114.408C123.871 113.322 118.85 110.641 114.91 106.705C110.969 102.769 108.285 97.7535 107.198 92.2937C106.11 86.8339 106.668 81.1747 108.801 76.0317C110.934 70.8887 114.546 66.4929 119.18 63.4002C123.814 60.3075 129.262 58.6567 134.835 58.6567C138.534 58.655 142.197 59.381 145.614 60.7933C149.032 62.2055 152.138 64.2764 154.755 66.8876C157.372 69.4988 159.448 72.5992 160.865 76.0118C162.282 79.4244 163.012 83.0824 163.014 86.7769V86.8027Z" fill="white"/>
<path d="M134.738 97.9129C140.536 97.9129 145.236 93.2183 145.236 87.4272C145.236 81.636 140.536 76.9414 134.738 76.9414C128.94 76.9414 124.24 81.636 124.24 87.4272C124.24 93.2183 128.94 97.9129 134.738 97.9129Z" fill="#F58218"/>
<path d="M149.973 111.376C145.447 114.251 140.195 115.777 134.833 115.776C129.47 115.775 124.218 114.248 119.693 111.372C120.634 108.086 122.621 105.196 125.353 103.139C128.085 101.082 131.413 99.9693 134.835 99.9697C138.256 99.9702 141.584 101.084 144.316 103.142C147.047 105.2 149.033 108.09 149.973 111.376Z" fill="#F58218"/>
<path d="M134.834 208.079C141.929 208.079 147.681 202.334 147.681 195.247C147.681 188.161 141.929 182.416 134.834 182.416C127.74 182.416 121.988 188.161 121.988 195.247C121.988 202.334 127.74 208.079 134.834 208.079Z" fill="#F58218"/>
<path d="M333.586 295H0.414392C0.304488 295 0.199086 294.957 0.121373 294.879C0.043659 294.801 0 294.696 0 294.586C0 294.476 0.043659 294.371 0.121373 294.294C0.199086 294.216 0.304488 294.172 0.414392 294.172H333.586C333.695 294.172 333.801 294.216 333.879 294.294C333.956 294.371 334 294.476 334 294.586C334 294.696 333.956 294.801 333.879 294.879C333.801 294.957 333.695 295 333.586 295Z" fill="#CBCBCB"/>
</g>
<defs>
<clipPath id="clip0_19_8080">
<rect width="334" height="295" fill="white"/>
</clipPath>
</defs>
</svg>
