<svg width="254" height="264" viewBox="0 0 254 264" fill="none" xmlns="http://www.w3.org/2000/svg">
<path d="M167.53 37.081C177.921 29.4318 192.551 26.4995 203.998 32.4669C191.112 38.0424 180.619 47.9804 174.378 60.5226C171.988 65.3682 169.837 71.0057 164.907 73.2452C161.839 74.6388 158.219 74.3697 155.042 73.2445C151.866 72.1192 149.04 70.2076 146.254 68.3162L145.418 68.216C150.377 56.3285 157.139 44.7301 167.53 37.081Z" fill="#F0F0F0"/>
<path d="M203.905 32.7217C193.217 33.0554 182.906 36.7364 174.437 43.2419C172.589 44.6101 170.968 46.2601 169.636 48.131C168.397 49.9954 167.682 52.1563 167.564 54.3893C167.413 56.4692 167.5 58.6142 166.843 60.6211C166.492 61.6435 165.928 62.5803 165.188 63.3702C164.448 64.1601 163.549 64.7851 162.549 65.2044C160.086 66.3137 157.37 66.475 154.708 66.5407C151.753 66.6136 148.682 66.6428 145.995 68.0294C145.669 68.1974 145.426 67.6841 145.752 67.5163C150.428 65.1038 155.892 66.6778 160.807 65.242C163.1 64.572 165.205 63.2093 166.125 60.9294C166.931 58.9356 166.843 56.7236 166.978 54.6164C167.061 52.4363 167.677 50.3096 168.775 48.4219C170.008 46.4894 171.561 44.78 173.369 43.3669C177.389 40.1208 181.897 37.5248 186.726 35.6738C192.225 33.5309 198.053 32.3413 203.955 32.1564C204.32 32.1451 204.268 32.7105 203.905 32.7217Z" fill="white"/>
<path d="M177.041 40.9866C176.139 39.4225 175.824 37.5897 176.152 35.8155C176.481 34.0412 177.431 32.4411 178.834 31.3009C179.119 31.0712 179.491 31.5012 179.206 31.7313C177.897 32.7906 177.012 34.2812 176.709 35.934C176.407 37.5868 176.707 39.2929 177.556 40.7444C177.74 41.06 177.224 41.3004 177.041 40.9866Z" fill="white"/>
<path d="M167.504 53.3237C171.069 54.3165 174.878 53.9341 178.172 52.2526C178.498 52.0858 178.741 52.5991 178.415 52.7657C174.984 54.5091 171.019 54.8991 167.312 53.8578C166.959 53.7583 167.153 53.2248 167.504 53.3237Z" fill="white"/>
<path d="M192.199 34.2822C192.422 34.9599 192.81 35.5719 193.329 36.0632C193.847 36.5545 194.48 36.9097 195.171 37.097C195.525 37.192 195.331 37.7255 194.978 37.6311C194.217 37.4206 193.518 37.0275 192.944 36.4859C192.37 35.9444 191.937 35.2709 191.684 34.5244C191.655 34.4561 191.652 34.379 191.677 34.3088C191.703 34.2387 191.754 34.1807 191.82 34.1468C191.889 34.1151 191.967 34.1115 192.038 34.1369C192.109 34.1622 192.167 34.2145 192.199 34.2822Z" fill="white"/>
<path d="M213.075 75.106C212.852 75.053 212.629 75 212.403 74.9501C209.401 74.2525 206.348 73.7991 203.273 73.5942C203.036 73.5746 202.795 73.5583 202.557 73.5456C195.144 73.1307 187.717 74.091 180.656 76.3776C177.846 77.2901 175.111 78.4142 172.473 79.7402C168.83 81.5717 165.026 83.8463 161.104 84.3565C160.695 84.4144 160.284 84.4469 159.871 84.454L145.361 69.2403C145.345 69.1892 145.326 69.1413 145.31 69.09L144.703 68.509C144.834 68.4311 144.972 68.3532 145.103 68.2753C145.179 68.2298 145.259 68.1878 145.335 68.1423C145.386 68.1131 145.438 68.084 145.483 68.0546C145.5 68.0448 145.517 68.0352 145.531 68.0287C145.576 67.9993 145.621 67.9768 145.662 67.9508C146.432 67.513 147.205 67.0799 147.983 66.6514C147.987 66.6481 147.987 66.6481 147.993 66.6481C153.93 63.398 160.191 60.6132 166.677 58.8639C166.872 58.8113 167.07 58.7553 167.272 58.7097C170.2 57.9373 173.187 57.4047 176.202 57.1172C177.853 56.965 179.511 56.8963 181.17 56.9112C185.455 56.9579 189.706 57.676 193.767 59.0392C201.862 61.7577 208.995 67.0259 212.791 74.5299C212.888 74.7219 212.982 74.9107 213.075 75.106Z" fill="#F0F0F0"/>
<path d="M212.848 75.2552C204.112 69.1093 193.655 65.8625 182.963 65.9758C180.66 65.9594 178.37 66.3048 176.175 66.9992C174.06 67.7445 172.183 69.0408 170.74 70.7533C169.362 72.3231 168.136 74.0878 166.399 75.2966C165.501 75.9022 164.485 76.3117 163.417 76.4984C162.348 76.6851 161.253 76.6447 160.201 76.3799C157.565 75.7879 155.298 74.2871 153.133 72.7427C150.73 71.0279 148.26 69.2089 145.276 68.7036C144.915 68.6424 145.031 68.087 145.392 68.1481C150.584 69.0273 153.996 73.5623 158.787 75.3645C161.023 76.2054 163.527 76.3799 165.64 75.1119C167.487 74.0031 168.754 72.1844 170.135 70.5829C171.518 68.8918 173.295 67.5638 175.312 66.715C177.464 65.9115 179.737 65.4788 182.035 65.4353C187.206 65.2552 192.373 65.8864 197.347 67.3058C203.033 68.8943 208.405 71.4404 213.229 74.8338C213.528 75.044 213.144 75.4639 212.848 75.2552Z" fill="white"/>
<path d="M186.405 65.7369C186.629 63.9467 187.485 62.2942 188.819 61.0747C190.154 59.8551 191.879 59.1479 193.689 59.0793C194.055 59.0667 194.092 59.633 193.725 59.6457C192.04 59.7064 190.433 60.3654 189.192 61.5036C187.952 62.6417 187.161 64.1842 186.962 65.8524C186.919 66.2149 186.361 66.0973 186.405 65.7369Z" fill="white"/>
<path d="M171.332 69.8651C173.579 72.7963 176.851 74.7762 180.497 75.4099C180.859 75.4724 180.742 76.0279 180.381 75.9654C176.588 75.2988 173.187 73.2316 170.856 70.1762C170.634 69.8848 171.112 69.5753 171.332 69.8651Z" fill="white"/>
<path d="M202.558 69.4785C202.326 70.1532 202.267 70.8746 202.384 71.5781C202.501 72.2815 202.792 72.9449 203.23 73.5087C203.455 73.7971 202.978 74.1063 202.754 73.8198C202.273 73.1947 201.952 72.4616 201.821 71.6847C201.69 70.9078 201.751 70.1107 202.001 69.363C202.018 69.2906 202.063 69.2275 202.125 69.1867C202.188 69.1458 202.264 69.1302 202.337 69.1431C202.411 69.1587 202.476 69.2027 202.517 69.2656C202.558 69.3284 202.573 69.4049 202.558 69.4785Z" fill="white"/>
<path d="M164.788 48.4608H163.664V17.7656C163.664 15.4326 163.203 13.1224 162.307 10.967C161.411 8.81157 160.098 6.85311 158.442 5.20342C156.787 3.55373 154.821 2.24513 152.658 1.35233C150.495 0.459525 148.177 1.25773e-06 145.835 0H80.5728C78.2315 -5.03074e-06 75.9131 0.459509 73.7501 1.35231C71.587 2.24511 69.6216 3.5537 67.966 5.20338C66.3105 6.85307 64.9973 8.81153 64.1013 10.9669C63.2053 13.1224 62.7441 15.4325 62.7441 17.7655V186.162C62.7441 190.874 64.6225 195.393 67.966 198.724C71.3095 202.056 75.8443 203.928 80.5727 203.928H145.835C150.564 203.928 155.098 202.056 158.442 198.724C161.786 195.393 163.664 190.874 163.664 186.162V70.3102H164.788V48.4608Z" fill="#3F3D56"/>
<path d="M146.553 4.62208H138.034C138.426 5.57917 138.576 6.61756 138.47 7.6458C138.364 8.67404 138.006 9.66057 137.427 10.5185C136.849 11.3764 136.067 12.0793 135.152 12.5654C134.236 13.0515 133.215 13.3057 132.178 13.3058H94.7896C93.7523 13.3057 92.7309 13.0515 91.8155 12.5654C90.9 12.0793 90.1186 11.3764 89.54 10.5185C88.9614 9.66057 88.6034 8.67405 88.4975 7.6458C88.3917 6.61756 88.5412 5.57915 88.933 4.62207H80.9763C77.4452 4.62207 74.0586 6.01985 71.5618 8.50792C69.0649 10.996 67.6621 14.3705 67.6621 17.8892V186.039C67.6621 187.781 68.0065 189.506 68.6756 191.116C69.3447 192.725 70.3254 194.188 71.5617 195.42C72.7981 196.652 74.2658 197.629 75.8812 198.296C77.4965 198.963 79.2278 199.306 80.9763 199.306H146.553C148.302 199.306 150.033 198.963 151.648 198.296C153.264 197.629 154.731 196.652 155.968 195.42C157.204 194.188 158.185 192.725 158.854 191.116C159.523 189.506 159.867 187.781 159.867 186.039V17.8892C159.867 14.3705 158.465 10.996 155.968 8.50792C153.471 6.01986 150.084 4.62208 146.553 4.62208Z" fill="white"/>
<path d="M115.026 145.29C110.197 145.294 105.415 144.35 100.953 142.51C96.4903 140.671 92.4358 137.973 89.0212 134.57C85.6066 131.168 82.8988 127.128 81.0529 122.681C79.207 118.235 78.2592 113.469 78.2637 108.657C78.2568 101.9 80.1282 95.2735 83.6704 89.5117C87.2125 83.75 92.2869 79.0785 98.3309 76.0152C102.712 73.7941 107.495 72.4692 112.398 72.1186C117.301 71.7679 122.225 72.3987 126.879 73.9735C135.122 76.7727 142.101 82.3966 146.572 89.8437C151.043 97.2907 152.716 106.077 151.293 114.639C149.87 123.2 145.443 130.98 138.802 136.593C132.16 142.206 123.735 145.288 115.026 145.29ZM115.026 73.461C109.449 73.4446 103.949 74.7592 98.9864 77.2947C94.6484 79.497 90.8141 82.5691 87.7243 86.3183C84.6344 90.0674 82.3557 94.4126 81.0313 99.081C79.7068 103.749 79.3652 108.64 80.0278 113.446C80.6904 118.253 82.343 122.871 84.8817 127.01C87.4205 131.15 90.7907 134.722 94.7807 137.501C98.7707 140.281 103.294 142.209 108.068 143.164C112.841 144.12 117.761 144.081 122.518 143.051C127.276 142.021 131.769 140.023 135.714 137.181C137.622 135.809 139.386 134.249 140.98 132.525C145.64 127.5 148.73 121.23 149.869 114.482C151.008 107.734 150.148 100.801 147.394 94.5328C144.639 88.2645 140.11 82.9326 134.362 79.19C128.613 75.4474 121.893 73.4564 115.026 73.461Z" fill="#F0F0F0"/>
<path d="M35.3662 76.1468C36.3753 76.2729 37.3444 76.6179 38.2052 77.1576C39.066 77.6972 39.7976 78.4184 40.3484 79.2703C40.8993 80.1221 41.256 81.084 41.3934 82.0881C41.5309 83.0922 41.4457 84.1141 41.1439 85.0819L53.3583 95.2201L48.9859 104.119L31.9386 89.5606C30.3406 88.9476 29.0239 87.7719 28.2378 86.2562C27.4517 84.7405 27.2508 82.99 27.6733 81.3366C28.0958 79.6832 29.1123 78.2417 30.5302 77.2851C31.948 76.3286 33.6687 75.9236 35.3662 76.1468Z" fill="#FFB6B6"/>
<path d="M149.443 118.425C149.198 115.801 148.185 111.084 147.326 109.34C144.684 102.45 127.616 96.7877 125.324 96.0577L124.742 89.6171L101.027 87.0743L98.0183 95.3107L89.5126 98.4904C88.9351 98.705 88.4124 99.0442 87.982 99.4838C87.5516 99.9235 87.2242 100.453 87.0232 101.033L79.392 103.231L71.8617 105.4L45.7002 87.0312L44.465 87.8357L36.2092 93.2038L34.9355 94.0322L68.7909 124.468L81.367 121.528L90.8245 119.311L91.6317 122.577L89.5414 134.05C95.5975 140.087 103.614 143.777 112.153 144.457C120.692 145.137 129.195 142.763 136.136 137.762L141.509 133.011C145.253 128.977 148.017 124.139 149.587 118.871L149.443 118.425Z" fill="#E4E4E4"/>
<path d="M120.336 81.807C129.289 78.8534 134.144 69.2272 131.18 60.3063C128.215 51.3854 118.555 46.548 109.603 49.5016C100.65 52.4552 95.7954 62.0814 98.7595 71.0023C101.724 79.9232 111.384 84.7606 120.336 81.807Z" fill="#FFB6B6"/>
<path d="M101.482 46.2571C103.142 43.8949 105.633 42.2414 108.461 41.6252C111.256 41.0523 114.166 41.5841 116.575 43.1083C119.195 42.0566 122.02 41.3589 124.795 41.7136C127.571 42.0683 130.291 43.6131 131.575 46.158C131.845 46.8173 132.173 47.4516 132.554 48.0537C133.686 49.5579 135.788 49.753 137.645 49.8252C136.707 50.3709 135.768 50.9164 134.829 51.462C135.764 51.8965 136.7 52.331 137.636 52.7656C136.362 53.2501 135.089 53.7346 133.815 54.2191C136.779 56.8156 137.497 61.4366 136.374 65.3108C135.311 68.9788 132.875 72.0665 130.154 74.71C129.624 72.7375 130.208 70.599 130.596 68.5569C131.007 66.3991 131.073 63.876 129.557 62.3526C128.534 61.325 127.033 61.0145 125.619 60.7652C118.483 59.5076 111.281 58.6555 104.048 58.213C103.08 58.0797 102.094 58.18 101.173 58.5055C99.413 59.2849 98.7058 61.4254 98.1957 63.3233C97.9514 59.992 98.1466 56.643 98.7763 53.3623C99.2588 50.8513 100.019 48.3381 101.482 46.2571Z" fill="#2F3139"/>
<path d="M123.676 162.549H103.493C102.792 162.549 102.119 162.271 101.624 161.777C101.128 161.283 100.85 160.613 100.85 159.915C100.85 159.216 101.128 158.547 101.624 158.053C102.119 157.559 102.792 157.281 103.493 157.281H123.676C124.377 157.281 125.049 157.559 125.545 158.053C126.041 158.547 126.319 159.216 126.319 159.915C126.319 160.613 126.041 161.283 125.545 161.777C125.049 162.271 124.377 162.549 123.676 162.549Z" fill="#F58218"/>
<path d="M57.446 21.6089H1.92983C1.41825 21.6081 0.927883 21.405 0.566426 21.0443C0.204968 20.6835 0.00195313 20.1946 0.00195312 19.6848C0.00195313 19.1751 0.204968 18.6861 0.566426 18.3254C0.927883 17.9646 1.41825 17.7615 1.92983 17.7607H57.446C57.9581 17.7607 58.4493 17.9635 58.8114 18.3243C59.1735 18.6851 59.3769 19.1745 59.3769 19.6848C59.3769 20.1951 59.1735 20.6845 58.8114 21.0454C58.4493 21.4062 57.9581 21.6089 57.446 21.6089Z" fill="#F58218"/>
<path d="M89.5002 33.8977H1.93079C1.41871 33.8977 0.927608 33.695 0.565514 33.3342C0.20342 32.9734 0 32.484 0 31.9738C0 31.4635 0.20342 30.9741 0.565514 30.6133C0.927608 30.2525 1.41871 30.0498 1.93079 30.0498H89.5002C90.0123 30.0498 90.5034 30.2525 90.8655 30.6133C91.2276 30.9741 91.431 31.4635 91.431 31.9738C91.431 32.484 91.2276 32.9734 90.8655 33.3342C90.5034 33.695 90.0123 33.8977 89.5002 33.8977Z" fill="#F58218"/>
<path d="M72.6722 45.4749H1.93079C1.41872 45.4749 0.927608 45.2722 0.565514 44.9114C0.20342 44.5506 0 44.0612 0 43.5509C0 43.0407 0.20342 42.5513 0.565514 42.1905C0.927608 41.8297 1.41872 41.627 1.93079 41.627H72.6722C73.1842 41.627 73.6753 41.8297 74.0374 42.1905C74.3995 42.5513 74.603 43.0407 74.603 43.5509C74.603 44.0612 74.3995 44.5506 74.0374 44.9114C73.6753 45.2722 73.1842 45.4749 72.6722 45.4749Z" fill="#CACACA"/>
<path d="M41.8214 57.0101H1.93079C1.41872 57.0101 0.927608 56.8073 0.565514 56.4465C0.20342 56.0857 0 55.5963 0 55.0861C0 54.5758 0.20342 54.0864 0.565514 53.7256C0.927608 53.3648 1.41872 53.1621 1.93079 53.1621H41.8214C42.3334 53.1621 42.8245 53.3648 43.1866 53.7256C43.5487 54.0864 43.7521 54.5758 43.7521 55.0861C43.7521 55.5963 43.5487 56.0857 43.1866 56.4465C42.8245 56.8073 42.3334 57.0101 41.8214 57.0101Z" fill="#CACACA"/>
<path d="M63.8587 68.5442H1.93165C1.4201 68.5434 0.929786 68.3404 0.56835 67.9796C0.206914 67.6189 0.00390625 67.13 0.00390625 66.6203C0.00390625 66.1105 0.206914 65.6216 0.56835 65.2609C0.929786 64.9001 1.4201 64.6971 1.93165 64.6963H63.8587C64.3702 64.6971 64.8605 64.9001 65.222 65.2609C65.5834 65.6216 65.7864 66.1105 65.7864 66.6203C65.7864 67.13 65.5834 67.6189 65.222 67.9796C64.8605 68.3404 64.3702 68.5434 63.8587 68.5442Z" fill="#CACACA"/>
<path d="M238.386 256.777L233.41 256.777L231.043 237.652L238.387 237.653L238.386 256.777Z" fill="#9F616A"/>
<path d="M240.342 263.639L221.346 263.639V263.399C221.346 261.445 222.125 259.571 223.512 258.19C224.898 256.808 226.779 256.032 228.74 256.031H228.74L232.21 253.408L238.685 256.032L240.343 256.032L240.342 263.639Z" fill="#2F3139"/>
<path d="M235.487 166.895L233.292 140.232L231.568 130.225L241.221 128.101L244.424 141.801L241.633 167.635C242.196 168.322 242.54 169.161 242.62 170.045C242.701 170.928 242.514 171.816 242.085 172.593C241.656 173.37 241.003 174.001 240.211 174.406C239.418 174.811 238.523 174.97 237.639 174.864C236.755 174.757 235.923 174.39 235.25 173.809C234.577 173.228 234.094 172.46 233.863 171.603C233.632 170.746 233.663 169.84 233.952 169.001C234.241 168.162 234.776 167.429 235.487 166.895Z" fill="#9F616A"/>
<path d="M211.954 256.777L206.979 256.777L204.611 237.652L211.955 237.653L211.954 256.777Z" fill="#9F616A"/>
<path d="M203.991 172.94L201.785 176.742C201.785 176.742 199.361 177.401 200.153 185.274C200.945 193.147 200.979 239.792 204.814 245.532L205.507 250.461L212.748 251.15L212.931 246.777L221.564 186.017C221.564 186.017 226.649 245.664 230.855 247.123L232.374 252.093L239.009 252.096L238.618 246.24L239.046 172.323L203.991 172.94Z" fill="#2F3139"/>
<path d="M201.567 176.451L201.414 176.412C205.967 159.443 204.654 137.47 201.439 113.875L201.439 113.777L213.061 103.17H223.152L233.156 109.603C239.624 112.826 241.094 119.649 241.108 119.718L241.118 119.767L237.155 133.55L240.141 173.412L240.144 173.458L240.127 173.501C239.161 175.942 236.572 175.595 233.574 175.192C230.581 174.79 219.553 178.467 216.172 178.467C209.563 178.467 202.039 176.572 201.567 176.451Z" fill="#F58218"/>
<path d="M231.06 114.976L235.396 113.097L241.107 120.075L245.737 142.437L229.879 140.042L231.06 114.976Z" fill="#F58218"/>
<path d="M164.38 156.212L184.198 138.166L191.086 130.683L198.679 136.99L189.765 147.898L167.554 161.508C167.353 162.372 166.897 163.157 166.245 163.761C165.593 164.365 164.775 164.761 163.895 164.899C163.015 165.036 162.115 164.908 161.309 164.531C160.503 164.154 159.828 163.546 159.372 162.784C158.915 162.023 158.698 161.142 158.747 160.256C158.797 159.371 159.111 158.52 159.649 157.813C160.187 157.107 160.925 156.577 161.768 156.291C162.611 156.006 163.521 155.978 164.38 156.212Z" fill="#9F616A"/>
<path d="M183.766 138.362L189.255 131.259C189.3 131.157 193.854 121.016 197.802 116.61C201.851 112.09 205.039 114.401 205.071 114.426L205.15 114.486L205.37 131.177L190.172 149.274L183.766 138.362Z" fill="#F58218"/>
<path d="M226.235 93.1791C227.054 88.1536 223.629 83.4186 218.586 82.6031C213.542 81.7876 208.791 85.2004 207.972 90.2258C207.154 95.2513 210.579 99.9863 215.622 100.802C220.665 101.617 225.417 98.2045 226.235 93.1791Z" fill="#9F616A"/>
<path d="M208.648 90.3344C208.648 90.3344 208.574 87.0937 208.163 85.6597C207.752 84.2257 206.929 82.9966 207.341 82.9966C207.752 82.9966 207.957 81.9724 207.957 81.9724C207.957 81.9724 208.368 81.7675 208.574 81.9724C208.78 82.1772 208.985 80.5384 208.985 80.5384C208.985 80.5384 209.191 79.9238 209.396 80.3335C209.602 80.7432 209.602 80.5384 209.808 79.9238C210.013 79.3093 211.041 78.8995 211.041 78.8995C211.041 78.8995 214.947 79.1044 215.564 78.285C216.181 77.4656 223.17 78.0801 224.609 79.1044C226.048 80.1286 232.421 83.816 231.393 86.8888C230.366 89.9616 227.407 97.0367 226.665 97.746C225.493 98.8677 224.681 99.2722 219.133 100.372C218.047 100.588 212.505 97.0557 212.505 96.4411C212.505 95.8266 213.173 93.8776 212.099 93.6101C210.475 93.2057 210.293 95.2509 209.882 94.6364C209.47 94.0218 208.648 90.3344 208.648 90.3344Z" fill="#2F3139"/>
<path d="M213.913 263.639L194.916 263.639V263.399C194.916 261.445 195.695 259.571 197.082 258.19C198.468 256.808 200.349 256.032 202.31 256.031H202.311L205.781 253.408L212.255 256.032L213.913 256.032L213.913 263.639Z" fill="#2F3139"/>
</svg>
