<svg width="210" height="127" viewBox="0 0 210 127" fill="none" xmlns="http://www.w3.org/2000/svg">
<g clip-path="url(#clip0_32_12454)">
<path opacity="0.1" d="M1.85156 60.8887C4.56755 71.3957 10.3122 80.4784 19.3906 84.8813C38.2633 94.0313 80.8263 89.3123 112.593 83.8952C129.024 81.0935 143.468 73.3616 153.959 62.4805L1.85156 60.8887Z" fill="#F58218"/>
<path opacity="0.1" d="M168.432 11.4303H151.002C150.175 11.4303 149.496 10.8168 149.496 10.067C149.496 9.31731 150.175 8.7022 151.002 8.7022H154.017C153.188 8.7022 152.511 8.08865 152.511 7.33736C152.511 6.58608 153.188 5.9741 154.017 5.9741H151.865C151.037 5.9741 150.358 5.36055 150.358 4.60926C150.358 3.85798 151.037 3.24599 151.865 3.24599H160.962C158.944 2.3961 156.584 1.79194 153.865 1.47421C129.059 -1.41041 120.202 0.497543 117.078 2.45871C113.184 4.93364 108.859 6.65093 104.328 7.52049C89.0239 10.3801 60.4021 13.8203 34.4602 6.42487C21.5667 2.74201 11.9834 8.95732 6.24023 19.347H171.459C171.243 16.3277 170.597 13.5386 169.412 11.0985C169.131 11.3154 168.786 11.4322 168.432 11.4303Z" fill="#F58218"/>
<path opacity="0.1" d="M0.373144 38.957C-0.296321 45.0677 -0.0687503 51.2436 1.04862 57.2884L154.076 62.358C158.288 57.9847 161.867 53.0417 164.708 47.6735L0.373144 38.957ZM60.8973 52.0341H57.8842C58.7129 52.0341 59.3915 52.6492 59.3915 53.3989C59.3915 54.1486 58.7129 54.7622 57.8842 54.7622H40.4547C39.6275 54.7622 38.9489 54.1486 38.9489 53.3989C38.9489 52.6492 39.6275 52.0341 40.4547 52.0341H43.4693C42.6406 52.0341 41.9636 51.4205 41.9636 50.6708C41.9636 49.9211 42.6406 49.306 43.4693 49.306H41.3162C40.4875 49.306 39.8089 48.6924 39.8089 47.9427C39.8089 47.193 40.4875 46.5779 41.3162 46.5779H58.7458C59.5745 46.5779 60.2515 47.1914 60.2515 47.9427C60.2515 48.694 59.5745 49.306 58.7458 49.306H60.8973C61.726 49.306 62.403 49.9195 62.403 50.6708C62.403 51.4221 61.726 52.0341 60.8973 52.0341Z" fill="#F58218"/>
<path opacity="0.1" d="M171.466 19.4409L4.39776 23.1191C2.36507 27.8506 1.01724 33.2004 0.396484 38.7442H168.539C169.633 35.5008 170.445 32.1686 170.966 28.785C171.468 25.5279 171.668 22.3772 171.466 19.4409ZM34.3174 31.5006H31.3043C32.133 31.5006 32.8116 32.1157 32.8116 32.8654C32.8116 33.6152 32.133 34.2303 31.3043 34.2303H13.8748C13.0476 34.2303 12.369 33.6152 12.369 32.8654C12.369 32.1157 13.0476 31.5006 13.8748 31.5006H16.8894C16.0607 31.5006 15.3837 30.8871 15.3837 30.1373C15.3837 29.3876 16.0607 28.7725 16.8894 28.7725H14.7363C13.9076 28.7725 13.229 28.159 13.229 27.4092C13.229 26.6595 13.9076 26.0444 14.7363 26.0444H32.1659C32.9946 26.0444 33.6716 26.6579 33.6716 27.4092C33.6716 28.1605 32.9946 28.7725 32.1659 28.7725H34.3174C35.1461 28.7725 35.8232 29.3876 35.8232 30.1373C35.8232 30.8871 35.1461 31.5006 34.3174 31.5006Z" fill="#F58218"/>
<path opacity="0.1" d="M85.23 122.253C123.829 122.253 155.12 119.371 155.12 115.817C155.12 112.262 123.829 109.381 85.23 109.381C46.6307 109.381 15.3398 112.262 15.3398 115.817C15.3398 119.371 46.6307 122.253 85.23 122.253Z" fill="#F58218"/>
<path d="M156.461 62.6571C156.46 62.6462 156.46 62.6352 156.461 62.6243C156.461 62.607 156.461 62.5914 156.461 62.5757C156.43 62.3965 156.362 62.2255 156.262 62.0733C155.905 61.5 155.406 61.028 154.814 60.7022C153.782 60.1356 152.364 59.893 151.951 58.8115C151.825 58.4765 151.822 58.1119 151.759 57.7613C151.65 57.215 151.399 56.7072 151.031 56.2888C150.664 55.8704 150.193 55.5561 149.665 55.3775C149.175 55.2132 148.644 55.1678 148.168 54.9643C147.101 54.5104 146.538 53.3913 146.061 52.3567C145.444 51.0211 144.827 49.6849 144.21 48.3483C143.741 48.5846 143.134 48.4735 142.695 48.1777C142.272 47.8622 141.934 47.445 141.715 46.9647C141.078 45.7282 140.805 44.3273 140.057 43.1503C139.31 41.9733 137.816 41.0436 136.497 41.5554C136.239 41.6843 135.973 41.7946 135.699 41.8857C134.569 42.1502 133.318 40.8573 132.35 41.485C132.189 41.5882 132.058 41.7317 131.97 41.9013C131.969 41.8909 131.969 41.8804 131.97 41.87C131.844 42.1246 131.774 42.4031 131.764 42.687C131.764 42.745 131.764 42.8013 131.764 42.8561C131.764 42.8655 131.764 42.8749 131.764 42.8843C131.764 43.1096 131.778 43.3382 131.781 43.5667C131.784 43.7586 131.77 43.9504 131.737 44.1395V44.1239C131.719 44.2303 131.692 44.335 131.656 44.4369C131.404 45.1131 130.707 45.556 130.38 46.1915V46.1602C130.343 46.2293 130.311 46.3009 130.285 46.3746C130.226 46.5412 130.196 46.7162 130.195 46.8927C130.167 48.0869 131.432 49.2107 131.579 50.4926C131.684 51.4004 131.892 51.6915 132.663 52.2049L132.832 52.3176C132.764 52.3176 132.696 52.327 132.619 52.3285C132.589 52.3291 132.559 52.3322 132.53 52.3379C132.394 52.3004 132.251 52.2936 132.112 52.318C131.973 52.3423 131.841 52.3973 131.726 52.4788C131.135 52.9483 129.737 52.5868 129.117 52.4788C128.496 52.3708 126.369 52.6619 126.072 53.8421C125.775 55.0222 125.265 57.4576 125.265 57.4576C125.265 57.4576 125.265 59.0024 125.076 59.2904C125.069 59.3107 125.069 59.3328 125.076 59.353C125.076 59.7866 125.092 62.3926 124.673 63.0641C124.57 63.2206 124.577 63.5665 124.654 63.9922C124.213 64.5604 123.799 65.224 123.872 65.6591C124.007 66.5497 125.811 69.3498 128.397 67.8504C128.397 67.8504 129.869 65.1567 128.017 63.7246L128.097 63.4115C128.657 64.1002 129.071 64.5948 129.071 64.5948C129.071 64.5948 129.093 64.6527 129.128 64.7513H129.071C129.313 65.4095 129.459 66.0989 129.506 66.7986C129.499 67.0551 129.452 67.309 129.368 67.5514H129.417C129.403 67.6047 129.387 67.6579 129.368 67.708C129.277 67.9723 129.108 68.2023 128.882 68.3669C127.589 69.2841 126.108 75.8344 126.108 75.8344C126.108 75.8344 123.175 86.4228 122.589 87.0254C122.104 87.52 125.15 88.913 127.436 88.7471C127.755 88.7281 128.07 88.6681 128.374 88.5686C128.388 88.7251 128.404 88.8817 128.419 89.0241C128.468 89.4936 128.518 89.9288 128.549 90.0649C128.63 90.4061 128.791 93.8902 128.791 93.8902C128.791 93.8902 128.461 96.1535 128.541 97.728C128.541 97.836 128.555 97.9393 128.565 98.0411L128.28 98.0849C127.848 99.0553 129.626 107.152 129.869 107.833C130.029 108.369 130.12 108.924 130.138 109.484C130.138 109.484 129.981 110.06 130.111 110.375C130.192 110.567 130.245 110.77 130.267 110.977C130.267 110.977 130.161 111.5 130.322 111.841C130.483 112.182 130.296 112.78 130.296 112.78C130.296 112.78 130.242 115.139 129.758 116.423C129.626 116.768 129.587 117.142 129.646 117.507C129.705 117.872 129.86 118.215 130.094 118.501C130.128 118.546 130.164 118.588 130.203 118.628C130.203 118.628 132.877 118.65 133.348 118.628H133.409C133.598 118.601 134.083 116.479 133.651 115.457C133.219 114.435 133.598 113.176 133.598 113.176V111.317C133.598 111.317 134.083 110.869 133.598 109.908C133.113 108.947 133.193 108.656 133.193 108.656C133.193 108.656 133.732 107.11 133.166 106.612C132.6 106.114 133.274 104.227 133.274 104.227L133.465 97.9346C133.365 97.9021 133.263 97.876 133.16 97.8564C133.149 97.7531 133.138 97.6467 133.127 97.534C133.016 96.3945 132.921 94.845 133.168 94.4036C133.415 93.9622 133.534 90.1088 133.573 87.4307L136.037 87.5247C136.089 88.7768 136.143 89.9194 136.178 90.0649C136.259 90.4061 136.422 93.8902 136.422 93.8902C136.422 93.8902 136.09 96.1535 136.17 97.728C136.17 97.836 136.184 97.9393 136.193 98.0411L135.909 98.0849C135.477 99.0553 137.255 107.152 137.497 107.833C137.658 108.369 137.749 108.924 137.768 109.484C137.768 109.484 137.612 110.06 137.74 110.375C137.821 110.567 137.873 110.77 137.896 110.977C137.896 110.977 137.79 111.5 137.951 111.841C138.112 112.182 137.924 112.78 137.924 112.78C137.924 112.78 137.871 115.139 137.386 116.423C137.257 116.768 137.22 117.143 137.281 117.507C137.342 117.871 137.498 118.213 137.734 118.498C137.767 118.543 137.804 118.585 137.843 118.625C137.843 118.625 140.517 118.647 140.987 118.625H141.048C141.238 118.598 141.722 116.476 141.291 115.454C140.859 114.432 141.238 113.173 141.238 113.173V111.317C141.238 111.317 141.722 110.869 141.238 109.908C140.753 108.947 140.833 108.656 140.833 108.656C140.833 108.656 141.372 107.11 140.806 106.612C140.24 106.114 140.914 104.227 140.914 104.227L141.108 97.9346C141.006 97.9016 140.901 97.8754 140.795 97.8564C140.784 97.7531 140.773 97.6467 140.762 97.534C140.651 96.3945 140.556 94.845 140.803 94.4036C141.002 94.0421 141.116 91.7131 141.167 89.4389C141.167 89.2823 141.167 89.1258 141.18 88.9693C142.312 88.9221 143.44 88.7956 144.554 88.5905C144.554 88.5905 143.236 83.9248 143.639 83.1656C143.813 82.8385 143.563 81.0965 143.22 79.2198C143.698 79.6068 144.292 79.8217 144.906 79.8303C145.495 80.965 147.289 83.5757 148.299 83.978C149.484 84.4475 148.594 80.2842 148.03 79.6816C147.763 79.3526 147.538 78.9913 147.361 78.6063C147.376 78.5875 147.394 78.5718 147.409 78.5546C147.425 78.5374 147.437 74.1252 147.167 74.205C146.896 74.2848 146.574 73.5492 146.574 73.5492L145.739 66.2132L145.389 63.1423C145.681 63.3583 146.029 63.4961 146.327 63.7105C147.14 64.3068 147.406 65.3539 147.763 66.2805C148.057 67.0428 148.469 67.7987 149.146 68.2777C149.823 68.7566 150.816 68.8834 151.492 68.3982C152.117 67.9427 152.302 67.121 152.439 66.3713C153.575 66.7704 154.952 65.703 154.805 64.5369C154.769 64.2489 154.663 63.9343 154.813 63.6823C155.113 63.1846 156.064 63.4742 156.376 62.9827C156.429 62.8977 156.456 62.7994 156.455 62.6994C156.459 62.6775 156.461 62.6681 156.461 62.6571ZM141.277 66.6922C141.26 66.9723 141.644 69.223 141.957 71.0042C141.7 69.8945 141.186 68.7097 140.173 67.8973C140.173 67.8973 140.173 67.841 140.16 67.7408H140.173C140.173 67.7408 140.131 67.2932 140.124 66.6562C140.126 66.0915 140.168 65.5277 140.249 64.9689V64.9548H140.229C140.229 64.9079 140.242 64.8593 140.249 64.8124C140.312 64.3409 140.439 63.8804 140.629 63.4444C140.713 63.2736 140.81 63.1093 140.919 62.9529C141.086 64.4665 141.292 66.4089 141.277 66.6922ZM142.118 71.9073C142.256 72.6758 142.354 73.2158 142.354 73.2158L143.184 78.9225V78.9491C142.737 76.5402 142.166 74.0015 142.166 74.0015C142.225 73.3037 142.208 72.6017 142.118 71.9073Z" fill="url(#paint0_linear_32_12454)"/>
<path d="M131.942 50.8055C131.785 49.3593 130.222 48.1118 130.691 46.7361C130.946 45.9863 131.743 45.5277 132.012 44.7827C132.19 44.2912 132.111 43.7513 132.112 43.2285C132.114 42.7057 132.236 42.1219 132.67 41.8324C133.609 41.2063 134.816 42.4944 135.91 42.2315C136.175 42.1409 136.433 42.031 136.681 41.9028C137.959 41.3941 139.403 42.3207 140.121 43.4914C140.839 44.6622 141.108 46.0583 141.724 47.2886C141.934 47.7636 142.26 48.1785 142.671 48.4953C143.097 48.7896 143.678 48.9007 144.138 48.6659L145.928 52.6571C146.397 53.6854 146.935 54.7998 147.961 55.2522C148.421 55.4541 148.934 55.4995 149.409 55.6638C149.926 55.8462 150.385 56.1613 150.742 56.5774C151.099 56.9936 151.34 57.4962 151.442 58.0351C151.503 58.3857 151.504 58.7488 151.628 59.0822C152.026 60.159 153.398 60.4 154.397 60.9604C154.975 61.2866 155.459 61.7561 155.804 62.3236C155.96 62.5944 156.095 62.9497 155.928 63.2158C155.626 63.7041 154.708 63.4161 154.417 63.9123C154.27 64.1627 154.373 64.4758 154.417 64.7638C154.559 65.9236 153.226 66.9863 152.128 66.5888C151.995 67.3353 151.815 68.1539 151.212 68.6063C150.563 69.0915 149.601 68.9631 148.946 68.4873C148.291 68.0115 147.894 67.2586 147.609 66.4995C147.264 65.5761 147.006 64.5337 146.219 63.9405C145.935 63.7276 145.594 63.5899 145.315 63.3754C144.69 62.8965 144.377 62.1061 144.154 61.3407C143.864 60.386 143.635 59.4046 143.215 58.503C142.796 57.6015 142.133 56.7626 141.225 56.3509C140.373 55.9675 139.391 55.9925 138.511 55.681C136.995 55.1457 135.874 53.8701 134.367 53.2691C133.885 53.0664 133.429 52.8079 133.007 52.499C132.248 51.9997 132.042 51.7102 131.942 50.8055Z" fill="#3F3D56"/>
<g opacity="0.1">
<path d="M132.084 44.4761C132.116 44.4149 132.144 44.3517 132.168 44.2867C132.345 43.7953 132.267 43.2553 132.268 42.7325C132.268 42.5582 132.285 42.3842 132.317 42.2129C132.173 42.5222 132.103 42.8609 132.112 43.2021C132.111 43.6231 132.161 44.0645 132.084 44.4761Z" fill="black"/>
<path d="M151.359 68.115C150.711 68.5986 149.749 68.4719 149.094 67.9945C148.439 67.5171 148.04 66.7674 147.763 66.0051C147.418 65.0817 147.161 64.0393 146.373 63.4461C146.09 63.2332 145.748 63.0939 145.471 62.8811C144.846 62.4021 144.533 61.6117 144.308 60.8541C144.018 59.8994 143.79 58.918 143.369 58.0165C142.949 57.1149 142.289 56.276 141.379 55.8644C140.528 55.4809 139.546 55.5059 138.666 55.1945C137.149 54.6592 136.028 53.3836 134.523 52.7825C134.04 52.5792 133.584 52.3208 133.161 52.0125C132.42 51.5007 132.222 51.2111 132.113 50.308C131.957 48.9525 130.581 47.7708 130.795 46.4937C130.76 46.5627 130.729 46.6338 130.703 46.7065C130.234 48.0839 131.797 49.3313 131.954 50.776C132.055 51.6791 132.266 51.9686 133.001 52.4805C133.424 52.7888 133.881 53.0472 134.363 53.2505C135.869 53.8516 136.99 55.1287 138.507 55.6625C139.387 55.9755 140.369 55.9489 141.22 56.3324C142.13 56.744 142.783 57.5845 143.21 58.4845C143.637 59.3844 143.865 60.3627 144.148 61.3221C144.378 62.0797 144.68 62.8701 145.311 63.349C145.594 63.5619 145.937 63.7012 146.214 63.9141C146.995 64.5073 147.258 65.5497 147.604 66.4731C147.888 67.2322 148.287 67.9835 148.942 68.4593C149.597 68.9352 150.559 69.0635 151.208 68.5799C151.622 68.2668 151.833 67.7894 151.972 67.2776C151.849 67.6077 151.637 67.8974 151.359 68.115Z" fill="black"/>
<path d="M154.574 63.4209C154.514 63.5332 154.488 63.6604 154.498 63.7872C154.852 63.4382 155.649 63.6432 155.928 63.194C155.992 63.083 156.018 62.9534 156 62.8262C155.637 63.1705 154.839 62.9655 154.574 63.4209Z" fill="black"/>
<path d="M152.277 66.0977C152.247 66.2542 152.217 66.4217 152.18 66.5845C153.137 66.8834 154.242 66.1149 154.398 65.1445C154.019 65.8911 153.08 66.3904 152.277 66.0977Z" fill="black"/>
</g>
<path d="M133.961 51.5583C133.961 51.5583 134.482 52.6101 132.945 52.632C131.408 52.6539 133.935 59.4625 133.935 59.4625L136.49 62.718L139.669 60.9963L139.852 56.2476L140.086 53.3786C140.086 53.3786 137.115 52.4129 137.663 51.1357C138.21 49.8585 133.961 51.5583 133.961 51.5583Z" fill="#FBBEBE"/>
<path d="M143.189 79.3183C143.189 79.3183 145.066 81.1667 147.255 78.7141L145.574 76.9282H143.447L143.189 79.3183Z" fill="#575A89"/>
<path opacity="0.1" d="M143.393 76.9282L143.135 79.3183C143.135 79.3183 145.011 81.1667 147.2 78.7141" fill="black"/>
<path d="M146.549 77.2539C146.549 77.2539 147.304 79.237 147.852 79.8364C148.399 80.4359 149.259 84.5836 148.113 84.1141C146.967 83.6445 144.778 80.1495 144.646 79.55C144.515 78.9506 144.465 77.2539 144.465 77.2539H146.549Z" fill="#FBBEBE"/>
<path d="M130.158 87.4277L140.268 87.819L139.096 83.5398L134.003 83.4365L130.158 87.4277Z" fill="#575A89"/>
<path opacity="0.1" d="M131.564 87.4277L141.676 87.819L140.504 83.5398L135.409 83.4365L131.564 87.4277Z" fill="black"/>
<path d="M133.467 94.4915C133.228 94.9376 133.32 96.4809 133.428 97.6219C133.497 98.3481 133.572 98.9069 133.572 98.9069C133.572 98.9069 129.793 100.081 129.22 99.0634C129.075 98.8051 129.003 98.3528 128.978 97.8222C128.9 96.257 129.22 94.0016 129.22 94.0016C129.22 94.0016 129.064 90.5332 128.986 90.1935C128.954 90.0574 128.906 89.6254 128.859 89.1574C128.79 88.4625 128.725 87.6893 128.725 87.6893L133.885 84.9502C133.885 84.9502 133.885 85.4636 133.875 86.254C133.847 88.7364 133.764 93.9437 133.467 94.4915Z" fill="#FBBEBE"/>
<path opacity="0.1" d="M133.57 98.9066C133.57 98.9066 129.791 100.081 129.219 99.0632C129.074 98.8049 129.002 98.3526 128.977 97.822C129.758 97.703 132.138 97.3743 133.427 97.6216C133.495 98.3479 133.57 98.9066 133.57 98.9066Z" fill="black"/>
<path d="M133.7 118.628H133.641C133.186 118.645 130.6 118.628 130.6 118.628C130.562 118.588 130.526 118.547 130.493 118.503C130.265 118.216 130.114 117.876 130.055 117.514C129.996 117.152 130.031 116.781 130.157 116.437C130.626 115.158 130.678 112.81 130.678 112.81C130.678 112.81 130.861 112.211 130.704 111.871C130.548 111.532 130.651 111.01 130.651 111.01C130.627 110.804 130.575 110.602 130.495 110.411C130.365 110.098 130.521 109.523 130.521 109.523C130.503 108.967 130.416 108.415 130.26 107.88C130.026 107.202 128.306 99.1416 128.723 98.1759C128.723 98.1759 132.371 97.5498 133.753 98.0194L133.57 104.28C133.57 104.28 132.918 106.158 133.466 106.654C134.013 107.151 133.492 108.689 133.492 108.689C133.492 108.689 133.414 108.976 133.883 109.941C134.352 110.907 133.883 111.35 133.883 111.35V113.202C133.883 113.202 133.519 114.454 133.935 115.471C134.351 116.488 133.883 118.595 133.7 118.628Z" fill="#3F3D56"/>
<path d="M140.862 94.4914C140.622 94.9375 140.715 96.4808 140.822 97.6218C140.891 98.348 140.966 98.9068 140.966 98.9068C140.966 98.9068 137.187 100.081 136.615 99.0633C136.469 98.805 136.397 98.3527 136.372 97.8221C136.294 96.2569 136.615 94.0015 136.615 94.0015C136.615 94.0015 136.458 90.5331 136.38 90.1934C136.338 90.0103 136.265 88.2636 136.207 86.6968C136.158 85.3602 136.119 84.1519 136.119 84.1519L141.279 84.9501C141.279 84.9501 141.279 87.2212 141.215 89.5548C141.159 91.8181 141.054 94.1377 140.862 94.4914Z" fill="#FBBEBE"/>
<path opacity="0.1" d="M140.965 98.9066C140.965 98.9066 137.186 100.081 136.613 99.0632C136.468 98.8049 136.396 98.3526 136.371 97.822C137.153 97.703 139.533 97.3743 140.821 97.6216C140.89 98.3479 140.965 98.9066 140.965 98.9066Z" fill="black"/>
<path d="M141.096 118.628H141.036C140.581 118.645 137.995 118.628 137.995 118.628C137.957 118.588 137.922 118.547 137.889 118.503C137.66 118.216 137.509 117.876 137.45 117.514C137.391 117.152 137.426 116.781 137.552 116.437C138.021 115.152 138.068 112.804 138.068 112.804C138.068 112.804 138.251 112.204 138.095 111.865C137.939 111.525 138.042 111.004 138.042 111.004C138.018 110.798 137.965 110.596 137.885 110.405C137.756 110.091 137.912 109.517 137.912 109.517C137.894 108.96 137.806 108.408 137.651 107.874C137.416 107.196 135.696 99.1352 136.114 98.1695C136.114 98.1695 139.762 97.5435 141.144 98.013L140.961 104.274C140.961 104.274 140.309 106.152 140.856 106.648C141.404 107.144 140.883 108.683 140.883 108.683C140.883 108.683 140.805 108.969 141.274 109.935C141.743 110.901 141.274 111.344 141.274 111.344V113.195C141.274 113.195 140.909 114.447 141.325 115.465C141.741 116.482 141.278 118.595 141.096 118.628Z" fill="#3F3D56"/>
<path opacity="0.1" d="M135.995 52.7889C138.024 52.7889 139.669 51.1422 139.669 49.1108C139.669 47.0794 138.024 45.4326 135.995 45.4326C133.965 45.4326 132.32 47.0794 132.32 49.1108C132.32 51.1422 133.965 52.7889 135.995 52.7889Z" fill="black"/>
<path d="M135.995 52.6322C138.024 52.6322 139.669 50.9854 139.669 48.954C139.669 46.9226 138.024 45.2759 135.995 45.2759C133.965 45.2759 132.32 46.9226 132.32 48.954C132.32 50.9854 133.965 52.6322 135.995 52.6322Z" fill="#FBBEBE"/>
<path opacity="0.1" d="M128.725 87.6893L133.885 84.9502C133.885 84.9502 133.885 85.4636 133.875 86.254C133.121 86.7048 131.985 87.3825 130.892 88.0226C130.298 88.3717 129.717 88.7098 129.22 88.993C129.105 89.0558 128.984 89.1082 128.859 89.1496C128.79 88.4625 128.725 87.6893 128.725 87.6893Z" fill="black"/>
<path opacity="0.1" d="M141.279 84.9437C141.279 84.9437 141.279 87.2148 141.215 89.5485H141.196C140.81 89.5622 140.424 89.5502 140.04 89.5125C139.366 89.4405 138.827 89.2621 138.633 88.9083C138.241 88.2197 137.141 87.3432 136.213 86.6905C136.164 85.3538 136.125 84.1455 136.125 84.1455L141.279 84.9437Z" fill="black"/>
<path d="M140.318 65.0517C140.188 66.0705 140.163 67.1001 140.243 68.1241C142.614 70.0806 142.171 74.2017 142.171 74.2017C142.171 74.2017 143.996 82.5503 143.605 83.3063C143.214 84.0623 144.49 88.7062 144.49 88.7062C143.403 88.9125 142.302 89.0391 141.196 89.085C140.81 89.0987 140.424 89.0867 140.04 89.049C139.366 88.977 138.827 88.7985 138.633 88.4448C137.904 87.1676 134.75 85.2628 134.75 85.2628C134.75 85.2628 132.752 86.4617 130.891 87.5526C130.297 87.9017 129.717 88.2398 129.22 88.5231C128.816 88.7373 128.371 88.8597 127.914 88.8815C125.702 89.0458 122.754 87.6591 123.224 87.1676C123.797 86.5666 126.638 76.0282 126.638 76.0282C126.638 76.0282 128.071 69.5062 129.322 68.5937C129.541 68.4278 129.705 68.1991 129.791 67.9379C130.219 66.7468 129.503 64.8372 129.503 64.8372C129.503 64.8372 125.464 59.8553 125.646 59.5673C125.827 59.2793 125.829 57.7423 125.829 57.7423C125.829 57.7423 126.324 55.3163 126.61 54.1424C126.896 52.9685 128.956 52.6805 129.555 52.7854C130.153 52.8902 131.508 53.2549 132.08 52.7854C132.652 52.3158 133.618 52.9685 133.618 52.9685L135.992 53.6227L138.126 52.3706C138.126 52.3706 140.265 52.4802 140.448 52.7666C140.631 53.053 143.446 53.6024 143.446 53.6024C144.878 54.5665 144.826 59.1588 144.826 59.1588C144.826 59.1588 141.386 62.1577 140.683 63.6978C140.501 64.1304 140.378 64.5859 140.318 65.0517Z" fill="#575A89"/>
<path d="M144.047 58.5234L144.829 59.1495L145.637 66.4276L146.444 73.7323C146.444 73.7323 146.757 74.4632 147.018 74.3849C147.279 74.3067 147.252 78.7142 147.252 78.7142C147.252 78.7142 144.26 76.872 143.187 79.3184L142.352 73.4192C142.352 73.4192 141.282 67.3933 141.309 66.9237C141.336 66.4542 140.762 61.3674 140.762 61.3674L144.047 58.5234Z" fill="#575A89"/>
<path d="M126.222 58.8633L125.649 59.5676C125.649 59.5676 125.702 62.5931 125.258 63.324C124.814 64.055 126.484 68.3326 127.109 68.0712C127.734 67.8098 129.142 61.1328 129.142 61.0545C129.142 60.9763 126.222 58.8633 126.222 58.8633Z" fill="#575A89"/>
<path d="M126.17 63.1675C126.17 63.1675 124.346 65.0191 124.475 65.9065C124.605 66.794 126.352 69.5816 128.853 68.0837C128.853 68.0837 131.174 63.7153 126.17 63.1675Z" fill="#575A89"/>
<path opacity="0.1" d="M133.642 118.632C133.187 118.65 130.6 118.632 130.6 118.632C130.563 118.593 130.527 118.551 130.494 118.507C131.156 118.282 132.585 117.944 133.642 118.632Z" fill="black"/>
<path opacity="0.1" d="M141.038 118.632C140.583 118.65 137.997 118.632 137.997 118.632C137.959 118.593 137.924 118.551 137.891 118.507C138.549 118.282 139.978 117.944 141.038 118.632Z" fill="black"/>
<path opacity="0.1" d="M131.076 72.7524C130.678 76.5809 130.809 84.1782 130.892 87.5528C130.298 87.9018 129.718 88.2399 129.22 88.5232C128.817 88.7374 128.371 88.8598 127.915 88.8816C127.749 87.8611 130.044 77.3791 131.076 72.7524Z" fill="black"/>
<path opacity="0.1" d="M131.564 70.5801C131.553 70.6349 131.364 71.4675 131.076 72.7525C131.189 71.6554 131.345 70.8681 131.564 70.5801Z" fill="black"/>
<path opacity="0.1" d="M137.912 70.167C137.912 70.167 140.127 84.0971 133.566 85.8188C133.565 85.8125 138.106 85.1223 137.912 70.167Z" fill="black"/>
<path opacity="0.1" d="M141.195 89.0851C140.81 89.0988 140.423 89.0868 140.04 89.0491L138.27 70.0024C139.398 70.7412 140.749 84.2581 141.195 89.0851Z" fill="black"/>
<path opacity="0.1" d="M133.258 46.7908C133.375 46.7815 133.493 46.7937 133.606 46.8268C133.772 46.9096 133.922 47.0221 134.047 47.1586C134.251 47.3292 134.495 47.4452 134.756 47.4959C135.017 47.5465 135.286 47.5301 135.539 47.4482C135.717 47.3684 135.906 47.3157 136.1 47.2917C136.399 47.2917 136.657 47.5108 136.812 47.7612C136.966 48.0117 137.046 48.309 137.179 48.5767C137.312 48.8443 137.525 49.0979 137.817 49.1636C137.957 49.1691 138.095 49.2009 138.224 49.2575C138.302 49.3215 138.363 49.4052 138.399 49.5001C138.643 50.0276 138.837 50.6505 139.357 50.9088C139.549 50.9977 139.758 51.0431 139.969 51.0418C140.183 51.0576 140.398 51.0188 140.594 50.9291C140.787 50.8215 140.946 50.6629 141.054 50.4705C141.379 49.9321 141.417 49.2654 141.34 48.6409C141.244 47.853 140.964 47.099 140.522 46.4402C140.056 45.774 139.422 45.2434 138.685 44.9027C137.947 44.562 137.132 44.4233 136.324 44.501C136.042 44.5327 135.762 44.5851 135.487 44.6575C134.493 44.9236 133.517 45.4213 132.914 46.2555C132.768 46.4638 132.607 46.6615 132.434 46.8472C132.707 46.8206 132.982 46.7971 133.258 46.7908Z" fill="black"/>
<path d="M133.258 46.6346C133.375 46.6252 133.493 46.6374 133.606 46.6706C133.772 46.7534 133.922 46.8658 134.047 47.0024C134.251 47.173 134.495 47.289 134.756 47.3396C135.017 47.3903 135.286 47.3739 135.539 47.2919C135.717 47.2122 135.906 47.1594 136.1 47.1354C136.399 47.1354 136.657 47.3546 136.812 47.605C136.966 47.8554 137.046 48.1528 137.179 48.4204C137.312 48.6881 137.525 48.9416 137.817 49.0074C137.957 49.0128 138.095 49.0447 138.224 49.1013C138.302 49.1653 138.363 49.249 138.399 49.3439C138.643 49.8714 138.837 50.4943 139.357 50.7525C139.549 50.8414 139.758 50.8868 139.969 50.8856C140.183 50.9014 140.398 50.8626 140.594 50.7729C140.787 50.6653 140.946 50.5066 141.054 50.3143C141.379 49.7759 141.417 49.1091 141.34 48.4846C141.244 47.6968 140.964 46.9427 140.522 46.284C140.056 45.6177 139.422 45.0871 138.685 44.7464C137.947 44.4057 137.132 44.2671 136.324 44.3447C136.042 44.3765 135.762 44.4288 135.487 44.5012C134.493 44.7673 133.517 45.265 132.914 46.0993C132.768 46.3075 132.607 46.5052 132.434 46.6909C132.707 46.6643 132.982 46.6408 133.258 46.6346Z" fill="#3F3D56"/>
<path opacity="0.1" d="M129.272 55.3931C129.272 55.3931 129.455 56.8549 128.829 57.2196C128.204 57.5843 129.272 55.3931 129.272 55.3931Z" fill="black"/>
<path opacity="0.1" d="M142.535 66.7158C142.535 66.7158 144.021 64.5245 144.23 65.1506C144.44 65.7767 142.535 66.7158 142.535 66.7158Z" fill="black"/>
<path opacity="0.1" d="M142.641 67.4451C142.641 67.4451 144.106 65.6452 144.246 66.3495C144.387 67.0538 142.641 67.4451 142.641 67.4451Z" fill="black"/>
<path opacity="0.1" d="M138.337 65.3023C137.806 65.3099 137.287 65.139 136.864 64.8171H136.736C136.297 65.2183 135.721 65.4352 135.127 65.4228C134.818 65.43 134.511 65.3743 134.224 65.2592C133.937 65.144 133.677 64.9718 133.459 64.753H133.288C132.838 65.12 132.273 65.3155 131.692 65.3049C131.112 65.2943 130.554 65.0782 130.117 64.695L129.506 64.6841C129.506 64.6841 130.222 66.5936 129.794 67.7847L140.243 67.971C140.162 66.947 140.187 65.9173 140.318 64.8985V64.8844L139.744 64.8735C139.332 65.16 138.839 65.31 138.337 65.3023Z" fill="black"/>
<path opacity="0.1" d="M138.337 65.6153C137.806 65.6228 137.287 65.452 136.864 65.1301H136.736C136.297 65.5313 135.721 65.7482 135.127 65.7358C134.818 65.743 134.511 65.6873 134.224 65.5722C133.937 65.457 133.677 65.2848 133.459 65.0659H133.288C132.838 65.4329 132.273 65.6285 131.692 65.6179C131.112 65.6073 130.554 65.3912 130.117 65.008L129.506 64.9971C129.506 64.9971 130.222 66.9066 129.794 68.0977L140.243 68.2839C140.162 67.2599 140.187 66.2303 140.318 65.2115V65.1974L139.744 65.1865C139.332 65.473 138.839 65.623 138.337 65.6153Z" fill="black"/>
<path d="M138.337 65.4591C137.806 65.4666 137.287 65.2958 136.864 64.9739H136.736C136.297 65.3751 135.721 65.592 135.127 65.5796C134.818 65.5868 134.511 65.5311 134.224 65.4159C133.937 65.3008 133.677 65.1286 133.459 64.9097H133.288C132.838 65.2767 132.273 65.4722 131.692 65.4616C131.112 65.451 130.554 65.235 130.117 64.8518L129.506 64.8408C129.506 64.8408 130.222 66.7503 129.794 67.9414L140.243 68.1277C140.162 67.1037 140.187 66.0741 140.318 65.0552V65.0412L139.744 65.0302C139.332 65.3168 138.839 65.4668 138.337 65.4591Z" fill="#3F3D56"/>
<path opacity="0.1" d="M137.873 55.0225C137.873 55.0225 140.073 55.1633 140.087 55.4764C140.101 55.7894 137.873 55.0225 137.873 55.0225Z" fill="black"/>
<path opacity="0.1" d="M132.529 53.687C132.529 53.687 130.329 53.8279 130.315 54.1409C130.3 54.454 132.529 53.687 132.529 53.687Z" fill="black"/>
<path opacity="0.1" d="M140.935 60.0872C140.914 60.0715 140.892 60.059 140.87 60.0449C141.433 60.552 141.339 61.6602 140.648 62.5742C139.957 63.4883 138.907 63.8686 138.27 63.4586C138.29 63.4758 138.307 63.4946 138.329 63.5118C138.954 63.9907 140.049 63.6151 140.771 62.6697C141.494 61.7244 141.564 60.5677 140.935 60.0872Z" fill="black"/>
<path opacity="0.1" d="M128.852 62.457C128.295 61.4521 128.367 60.3424 128.997 59.9214C128.974 59.9323 128.949 59.9417 128.925 59.9543C128.234 60.3393 128.143 61.4928 128.716 62.5321C129.288 63.5714 130.32 64.0973 131.011 63.7185C131.034 63.7054 131.056 63.6907 131.077 63.6747C130.387 63.9877 129.408 63.4618 128.852 62.457Z" fill="black"/>
<path opacity="0.1" d="M129.595 53.9832L129.393 54.2962L128.879 54.0223L129.149 53.606C129.328 53.6906 129.482 53.8207 129.595 53.9832Z" fill="black"/>
<path d="M126.328 65.567C126.328 65.567 126.786 63.4102 126.171 62.7247C125.557 62.0391 125.754 58.4455 126.692 58.5237C127.63 58.602 129.037 61.4443 128.803 62.0454C128.568 62.6464 127.682 65.7235 127.682 65.7235L126.328 65.567Z" fill="#FBBEBE"/>
<path opacity="0.1" d="M141.039 50.0057C140.931 50.198 140.772 50.3567 140.58 50.4643C140.384 50.554 140.169 50.5928 139.954 50.577C139.743 50.5783 139.534 50.5328 139.343 50.444C138.822 50.1842 138.628 49.5612 138.384 49.0353C138.353 48.9405 138.298 48.8552 138.225 48.788C138.098 48.7304 137.962 48.6969 137.823 48.6894C137.531 48.6237 137.319 48.3686 137.185 48.1025C137.051 47.8364 136.971 47.5421 136.818 47.287C136.664 47.0319 136.405 46.8081 136.106 46.8175C135.912 46.8433 135.722 46.8987 135.545 46.9818C135.292 47.0631 135.022 47.079 134.762 47.0281C134.501 46.9772 134.257 46.8611 134.053 46.6907C133.928 46.5541 133.778 46.4417 133.612 46.3589C133.499 46.3257 133.381 46.3135 133.263 46.3229C133.084 46.3229 132.905 46.3401 132.726 46.3542C132.637 46.4711 132.541 46.5829 132.439 46.6891C132.713 46.6656 132.988 46.6422 133.263 46.6359C133.381 46.6266 133.499 46.6388 133.612 46.6719C133.778 46.7547 133.928 46.8671 134.053 47.0037C134.257 47.1742 134.501 47.2902 134.762 47.3411C135.022 47.392 135.292 47.3761 135.545 47.2948C135.722 47.2117 135.912 47.1563 136.106 47.1305C136.405 47.1305 136.663 47.3496 136.818 47.6001C136.972 47.8505 137.052 48.1479 137.185 48.4155C137.318 48.6832 137.531 48.9367 137.823 49.0025C137.962 49.01 138.098 49.0434 138.225 49.1011C138.304 49.1651 138.364 49.2488 138.4 49.3437C138.644 49.8711 138.838 50.4941 139.358 50.7523C139.55 50.8412 139.759 50.8866 139.97 50.8854C140.184 50.9011 140.4 50.8624 140.595 50.7727C140.788 50.6651 140.947 50.5064 141.055 50.3141C141.298 49.8716 141.406 49.368 141.368 48.8647C141.356 49.2666 141.243 49.6591 141.039 50.0057Z" fill="black"/>
<path d="M127.021 67.2777C127.798 67.2777 128.428 66.8502 128.428 66.3229C128.428 65.7956 127.798 65.3682 127.021 65.3682C126.243 65.3682 125.613 65.7956 125.613 66.3229C125.613 66.8502 126.243 67.2777 127.021 67.2777Z" fill="#575A89"/>
<path opacity="0.05" d="M55.8402 37.0977C55.8402 37.0977 41.3096 46.3964 41.4285 60.9416C41.5473 75.4867 55.8402 37.0977 55.8402 37.0977Z" fill="black"/>
<path d="M129.369 10.8359C129.369 10.8359 116.204 10.0424 117.756 19.2769C117.756 19.2769 117.443 20.9078 118.926 21.6497C118.926 21.6497 118.949 20.9657 120.275 21.1974C120.748 21.2765 121.228 21.2996 121.706 21.2663C122.352 21.2223 122.966 20.9684 123.454 20.5431C123.454 20.5431 127.155 19.014 128.595 12.9583C128.595 12.9583 129.66 11.6373 129.618 11.2992L127.396 12.2477C127.396 12.2477 128.154 13.852 127.552 15.1855C127.552 15.1855 127.48 12.3072 127.053 12.3682C126.967 12.3823 125.899 12.9239 125.899 12.9239C125.899 12.9239 127.205 15.7193 126.212 17.7493C126.212 17.7493 126.586 14.3059 125.484 13.1258L123.92 14.0398C123.92 14.0398 125.446 16.926 124.411 19.2816C124.411 19.2816 124.677 15.6692 123.592 14.2621L122.173 15.3687C122.173 15.3687 123.607 18.2142 122.733 20.1675C122.733 20.1675 122.619 15.9619 121.867 15.6441C121.867 15.6441 120.627 16.7398 120.438 17.189C120.438 17.189 121.42 19.2534 120.811 20.3428C120.811 20.3428 120.438 17.5411 120.131 17.5255C120.131 17.5255 118.896 19.3818 118.766 20.6558C118.766 20.6558 118.821 18.762 119.831 17.3486C119.831 17.3486 118.636 17.5537 117.941 18.33C117.941 18.33 118.133 17.0168 120.13 16.9025C120.13 16.9025 121.151 15.4939 121.424 15.4094C121.424 15.4094 119.431 15.2419 118.222 15.7787C118.222 15.7787 119.285 14.5407 121.789 15.1026L123.196 13.96C123.196 13.96 120.572 13.6 119.459 13.9976C119.459 13.9976 120.74 12.902 123.573 13.7002L125.097 12.7877C125.097 12.7877 122.86 12.3056 121.526 12.4747C121.526 12.4747 122.933 11.7155 125.543 12.5388L126.637 12.0489C126.637 12.0489 124.997 11.7265 124.517 11.6764C124.037 11.6263 124.012 11.4917 124.012 11.4917C125.054 11.3222 126.122 11.4463 127.097 11.8502C127.097 11.8502 129.408 10.9815 129.369 10.8359Z" fill="#F58218"/>
<path d="M115.864 6.73045C115.864 6.73045 109.923 6.37046 110.617 10.5432C110.617 10.5432 110.478 11.2804 111.145 11.6154C111.145 11.6154 111.155 11.3023 111.755 11.4119C111.969 11.447 112.185 11.4575 112.401 11.4432C112.693 11.4223 112.971 11.3076 113.192 11.1161C113.192 11.1161 114.864 10.4243 115.514 7.68834C115.514 7.68834 115.996 7.09201 115.983 6.93862L114.979 7.36748C114.979 7.36748 115.323 8.09215 115.053 8.69475C115.053 8.69475 115.02 7.39409 114.828 7.42539C114.789 7.42539 114.306 7.67582 114.306 7.67582C114.306 7.67582 114.897 8.93892 114.451 9.85611C114.451 9.85611 114.62 8.30032 114.123 7.7666L113.416 8.17981C113.416 8.17981 114.105 9.48516 113.638 10.5495C113.638 10.5495 113.757 8.917 113.267 8.28154L112.626 8.78083C112.626 8.78083 113.274 10.0658 112.88 10.9486C112.88 10.9486 112.828 9.04848 112.487 8.90448C112.487 8.90448 111.927 9.39908 111.841 9.60255C111.841 9.60255 112.285 10.5417 112.01 11.0284C112.01 11.0284 111.841 9.7622 111.697 9.7575C111.697 9.7575 111.139 10.5949 111.081 11.1662C111.108 10.6345 111.274 10.1192 111.561 9.67142C111.24 9.73235 110.943 9.88635 110.708 10.1144C110.708 10.1144 110.794 9.52116 111.699 9.46951C111.699 9.46951 112.16 8.83405 112.284 8.79492C112.284 8.79492 111.383 8.71979 110.837 8.96239C110.837 8.96239 111.317 8.40206 112.45 8.64936L113.075 8.13442C113.075 8.13442 111.89 7.9779 111.386 8.15007C111.386 8.15007 111.965 7.65547 113.245 8.01703L113.933 7.60382C113.933 7.60382 112.923 7.38626 112.32 7.46452C112.32 7.46452 112.956 7.12175 114.135 7.49426L114.628 7.272C114.628 7.272 113.886 7.12644 113.671 7.10453C113.455 7.08262 113.441 7.02157 113.441 7.02157C113.91 6.94341 114.392 6.99761 114.832 7.17809C114.832 7.17809 115.882 6.79619 115.864 6.73045Z" fill="#F58218"/>
<path opacity="0.1" d="M167.789 114.259C170.114 114.259 172 113.94 172 113.547C172 113.154 170.114 112.835 167.789 112.835C165.463 112.835 163.578 113.154 163.578 113.547C163.578 113.94 165.463 114.259 167.789 114.259Z" fill="#F58218"/>
<path opacity="0.1" d="M7.31236 126.106C9.63792 126.106 11.5232 125.788 11.5232 125.394C11.5232 125.001 9.63792 124.682 7.31236 124.682C4.9868 124.682 3.10156 125.001 3.10156 125.394C3.10156 125.788 4.9868 126.106 7.31236 126.106Z" fill="#F58218"/>
<path opacity="0.1" d="M31.7577 127C34.0832 127 35.9685 126.681 35.9685 126.288C35.9685 125.895 34.0832 125.576 31.7577 125.576C29.4321 125.576 27.5469 125.895 27.5469 126.288C27.5469 126.681 29.4321 127 31.7577 127Z" fill="#F58218"/>
<path d="M158.572 122.243C162.045 122.243 164.86 121.767 164.86 121.179C164.86 120.591 162.045 120.115 158.572 120.115C155.1 120.115 152.285 120.591 152.285 121.179C152.285 121.767 155.1 122.243 158.572 122.243Z" fill="#F58218"/>
<path d="M161.172 119.44C161.459 119.206 161.668 118.89 161.772 118.534C161.849 118.176 161.695 117.744 161.353 117.612C160.968 117.465 160.557 117.733 160.246 118.002C159.935 118.271 159.577 118.578 159.169 118.522C159.378 118.331 159.535 118.09 159.624 117.821C159.713 117.552 159.731 117.264 159.675 116.986C159.657 116.871 159.609 116.763 159.534 116.673C159.32 116.445 158.934 116.542 158.678 116.722C157.865 117.295 157.638 118.4 157.633 119.395C157.552 119.037 157.621 118.663 157.619 118.299C157.618 117.936 157.516 117.517 157.206 117.324C157.014 117.222 156.799 117.171 156.581 117.177C156.215 117.163 155.808 117.199 155.558 117.467C155.246 117.8 155.328 118.357 155.599 118.719C155.869 119.08 156.279 119.315 156.656 119.567C156.959 119.748 157.218 119.994 157.413 120.289C157.435 120.33 157.454 120.374 157.469 120.419H159.76C160.272 120.158 160.747 119.829 161.172 119.44Z" fill="#F58218"/>
<path d="M9.27839 106.316C9.27839 106.316 10.1368 107.44 8.88124 109.134C7.62566 110.827 6.59055 112.264 7.00491 113.322C7.00491 113.322 8.89844 110.17 10.4448 110.124C11.9913 110.079 10.9733 108.212 9.27839 106.316Z" fill="#F58218"/>
<path opacity="0.1" d="M9.27859 106.316C9.35314 106.425 9.41209 106.544 9.45372 106.669C10.9579 108.437 11.7585 110.088 10.3137 110.129C8.96587 110.168 7.34285 112.579 6.96289 113.188C6.97617 113.235 6.99183 113.281 7.0098 113.327C7.0098 113.327 8.90333 110.175 10.4497 110.129C11.9961 110.084 10.9735 108.212 9.27859 106.316Z" fill="black"/>
<path d="M10.8744 107.749C10.8744 108.145 10.829 108.465 10.7743 108.465C10.7196 108.465 10.6758 108.152 10.6758 107.749C10.6758 107.345 10.7305 107.539 10.7868 107.539C10.8431 107.539 10.8744 107.353 10.8744 107.749Z" fill="#FFD037"/>
<path d="M11.4156 108.221C11.0685 108.41 10.7667 108.524 10.7401 108.476C10.7136 108.427 10.9747 108.236 11.3218 108.047C11.6689 107.858 11.5313 107.995 11.5579 108.047C11.5845 108.099 11.769 108.031 11.4156 108.221Z" fill="#FFD037"/>
<path d="M4.74018 106.316C4.74018 106.316 3.88176 107.44 5.13577 109.134C6.38979 110.827 7.42646 112.264 7.0121 113.322C7.0121 113.322 5.11701 110.17 3.57217 110.124C2.02732 110.079 3.04367 108.212 4.74018 106.316Z" fill="#F58218"/>
<path opacity="0.1" d="M4.74049 106.316C4.66526 106.425 4.60627 106.543 4.56537 106.669C3.06118 108.437 2.25905 110.088 3.70539 110.129C5.05165 110.168 6.67624 112.579 7.05464 113.188C7.04188 113.235 7.02675 113.281 7.00929 113.327C7.00929 113.327 5.1142 110.175 3.56935 110.129C2.02451 110.084 3.04398 108.212 4.74049 106.316Z" fill="black"/>
<path d="M3.14453 107.749C3.14453 108.145 3.18831 108.465 3.24304 108.465C3.29777 108.465 3.34155 108.152 3.34155 107.749C3.34155 107.345 3.28682 107.539 3.23209 107.539C3.17737 107.539 3.14453 107.353 3.14453 107.749Z" fill="#FFD037"/>
<path d="M2.59508 108.221C2.9422 108.41 3.24554 108.524 3.27213 108.476C3.29871 108.427 3.03758 108.236 2.69046 108.047C2.34334 107.858 2.47938 107.995 2.45436 108.047C2.42934 108.099 2.24796 108.031 2.59508 108.221Z" fill="#FFD037"/>
<path d="M3.41797 113.179C3.41797 113.179 5.81967 113.106 6.54518 112.589C7.2707 112.073 10.24 111.458 10.4198 112.276C10.5996 113.095 14.0286 116.393 11.3173 116.415C8.60602 116.437 5.01754 115.99 4.29515 115.551C3.57277 115.111 3.41797 113.179 3.41797 113.179Z" fill="#A8A8A8"/>
<path opacity="0.2" d="M11.3627 116.134C8.65137 116.156 5.06288 115.71 4.3405 115.27C3.79011 114.936 3.5712 113.732 3.49771 113.176H3.41797C3.41797 113.176 3.57433 115.116 4.29203 115.555C5.00972 115.995 8.60289 116.441 11.3142 116.419C12.096 116.419 12.3665 116.133 12.3524 115.721C12.243 115.973 11.9459 116.13 11.3627 116.134Z" fill="black"/>
<path d="M89.8506 111.775C110.203 111.775 126.701 95.26 126.701 74.8876C126.701 54.5151 110.203 38 89.8506 38C69.4986 38 53 54.5151 53 74.8876C53 95.26 69.4986 111.775 89.8506 111.775Z" fill="#F58218"/>
<path d="M109.187 93.4245C109.187 99.2476 100.041 93.9219 90.237 93.9219C80.4324 93.9219 70.5156 99.0276 70.5156 93.2045C70.5156 89.884 73.6763 85.2662 78.2107 81.9122C81.6269 79.3845 85.8221 77.5742 90.0363 77.5742C94.37 77.5742 98.6152 79.534 102.002 82.2243C106.276 85.6165 109.187 90.1746 109.187 93.4245Z" fill="#444053"/>
<path d="M102.001 82.2219C96.7891 81.4363 87.3633 80.4785 78.2109 81.9098C81.6272 79.3821 85.8223 77.5718 90.0366 77.5718C94.3691 77.5718 98.6143 79.5315 102.001 82.2219Z" fill="#F6F8FB"/>
<path d="M76.75 70.0507C77.4512 70.0113 80.7516 69.7626 82.848 68.5657C83.1847 68.3674 83.565 68.2553 83.9553 68.2392C84.6218 68.2201 85.3887 68.4987 84.8978 70.0579C84.1022 72.6084 79.4831 75.478 76.6162 75.319C73.8593 75.166 70.5888 74.054 68.4291 70.144C68.2222 69.7678 68.1203 69.3428 68.134 68.9136C68.1591 68.1244 68.4458 67.1356 69.9258 68.238C71.9254 69.7267 75.7192 70.0089 76.4801 70.0507C76.57 70.0556 76.6601 70.0556 76.75 70.0507Z" fill="#444053"/>
<path d="M103.268 70.0507C103.969 70.0113 107.269 69.7626 109.366 68.5657C109.702 68.3674 110.083 68.2553 110.473 68.2392C111.139 68.2201 111.906 68.4987 111.415 70.0579C110.62 72.6084 106.001 75.478 103.134 75.319C100.377 75.166 97.1063 74.054 94.9467 70.144C94.7398 69.7678 94.6378 69.3428 94.6516 68.9136C94.6767 68.1244 94.9634 67.1356 96.4434 68.238C98.443 69.7267 102.237 70.0089 102.998 70.0507C103.088 70.0556 103.178 70.0556 103.268 70.0507Z" fill="#444053"/>
</g>
<ellipse cx="153.5" cy="40" rx="5.5" ry="3" fill="#F58218"/>
<path d="M157.75 40C157.75 40.6941 157.231 41.3774 156.269 41.9018C155.317 42.4211 153.985 42.75 152.5 42.75C151.015 42.75 149.683 42.4211 148.731 41.9018C147.769 41.3774 147.25 40.6941 147.25 40C147.25 39.3059 147.769 38.6226 148.731 38.0982C149.683 37.5789 151.015 37.25 152.5 37.25C153.985 37.25 155.317 37.5789 156.269 38.0982C157.231 38.6226 157.75 39.3059 157.75 40Z" fill="white" stroke="#F58218" stroke-width="0.5"/>
<ellipse cx="181" cy="24.5" rx="29" ry="11.5" fill="#F58218"/>
<mask id="path-80-inside-1_32_12454" fill="white">
<path fill-rule="evenodd" clip-rule="evenodd" d="M155.632 16.1973C154.438 15.5229 153.766 14.7591 153.766 13.95C153.766 11.2162 161.447 9 170.922 9C177.038 9 182.407 9.92343 185.445 11.3134C187.359 9.90765 190.388 9 193.797 9C199.587 9 204.281 11.6191 204.281 14.85C204.281 15.6398 204.001 16.393 203.492 17.0803C206.404 18.9029 208.094 21.0721 208.094 23.4C208.094 29.8617 195.079 35.1 179.023 35.1C173.087 35.1 167.567 34.3839 162.966 33.1547C155.493 32.6199 149.953 30.6716 149.953 28.35C149.953 27.8048 150.259 27.2801 150.823 26.7895C149.657 25.635 149 24.3307 149 22.95C149 20.2048 151.596 17.7617 155.632 16.1973Z"/>
</mask>
<path fill-rule="evenodd" clip-rule="evenodd" d="M155.632 16.1973C154.438 15.5229 153.766 14.7591 153.766 13.95C153.766 11.2162 161.447 9 170.922 9C177.038 9 182.407 9.92343 185.445 11.3134C187.359 9.90765 190.388 9 193.797 9C199.587 9 204.281 11.6191 204.281 14.85C204.281 15.6398 204.001 16.393 203.492 17.0803C206.404 18.9029 208.094 21.0721 208.094 23.4C208.094 29.8617 195.079 35.1 179.023 35.1C173.087 35.1 167.567 34.3839 162.966 33.1547C155.493 32.6199 149.953 30.6716 149.953 28.35C149.953 27.8048 150.259 27.2801 150.823 26.7895C149.657 25.635 149 24.3307 149 22.95C149 20.2048 151.596 17.7617 155.632 16.1973Z" fill="white"/>
<path d="M155.632 16.1973L155.993 17.1297L157.963 16.3662L156.124 15.3268L155.632 16.1973ZM185.445 11.3134L185.028 12.2228L185.563 12.4672L186.036 12.1195L185.445 11.3134ZM203.492 17.0803L202.688 16.4856L202.046 17.3545L202.962 17.9279L203.492 17.0803ZM162.966 33.1547L163.224 32.1886L163.132 32.164L163.037 32.1572L162.966 33.1547ZM150.823 26.7895L151.479 27.5443L152.293 26.8371L151.527 26.0788L150.823 26.7895ZM152.766 13.95C152.766 15.3452 153.897 16.3656 155.14 17.0679L156.124 15.3268C154.98 14.6802 154.766 14.1731 154.766 13.95H152.766ZM170.922 8C166.118 8 161.731 8.56062 158.513 9.48901C156.911 9.95127 155.542 10.5207 154.55 11.1971C153.592 11.851 152.766 12.7636 152.766 13.95H154.766C154.766 13.7695 154.9 13.3798 155.677 12.8493C156.422 12.3413 157.565 11.8441 159.068 11.4106C162.059 10.5475 166.251 10 170.922 10V8ZM185.861 10.4041C182.634 8.92783 177.1 8 170.922 8V10C176.976 10 182.179 10.919 185.028 12.2228L185.861 10.4041ZM186.036 12.1195C187.736 10.8715 190.54 10 193.797 10V8C190.236 8 186.983 8.9438 184.853 10.5073L186.036 12.1195ZM193.797 10C196.554 10 199.001 10.6257 200.723 11.5867C202.478 12.566 203.281 13.7604 203.281 14.85H205.281C205.281 12.7087 203.737 10.9781 201.698 9.84017C199.625 8.68383 196.83 8 193.797 8V10ZM203.281 14.85C203.281 15.3909 203.092 15.9402 202.688 16.4856L204.296 17.675C204.91 16.8457 205.281 15.8886 205.281 14.85H203.281ZM209.094 23.4C209.094 20.5509 207.037 18.119 204.023 16.2326L202.962 17.9279C205.772 19.6869 207.094 21.5932 207.094 23.4H209.094ZM179.023 36.1C187.146 36.1 194.546 34.7767 199.953 32.6008C202.653 31.514 204.905 30.1947 206.499 28.6786C208.094 27.1603 209.094 25.3767 209.094 23.4H207.094C207.094 24.6542 206.466 25.9485 205.12 27.2297C203.771 28.5132 201.766 29.715 199.206 30.7455C194.091 32.8041 186.956 34.1 179.023 34.1V36.1ZM162.708 34.1208C167.403 35.3752 173.011 36.1 179.023 36.1V34.1C173.164 34.1 167.731 33.3927 163.224 32.1886L162.708 34.1208ZM148.953 28.35C148.953 29.3596 149.557 30.1727 150.304 30.7807C151.061 31.3965 152.103 31.9208 153.315 32.3621C155.75 33.2484 159.102 33.8808 162.895 34.1521L163.037 32.1572C159.356 31.8938 156.202 31.2846 153.999 30.4827C152.893 30.08 152.082 29.6484 151.567 29.2292C151.042 28.8023 150.953 28.5012 150.953 28.35H148.953ZM150.167 26.0348C149.488 26.6253 148.953 27.4016 148.953 28.35H150.953C150.953 28.2079 151.03 27.9349 151.479 27.5443L150.167 26.0348ZM148 22.95C148 24.6706 148.822 26.2163 150.12 27.5002L151.527 26.0788C150.491 25.0538 150 23.9909 150 22.95H148ZM155.27 15.2649C153.166 16.0805 151.376 17.1474 150.097 18.4225C148.813 19.7019 148 21.2396 148 22.95H150C150 21.9151 150.485 20.8588 151.508 19.8392C152.536 18.8154 154.061 17.8785 155.993 17.1297L155.27 15.2649Z" fill="#F58218" mask="url(#path-80-inside-1_32_12454)"/>
<path d="M176.125 16.2188C176.213 16.2676 176.271 16.3311 176.301 16.4092C176.33 16.4873 176.35 16.585 176.359 16.7021C176.359 16.7998 176.357 16.8706 176.352 16.9146C176.347 16.978 176.354 17.0488 176.374 17.127C176.34 17.1953 176.301 17.2515 176.257 17.2954C176.213 17.3394 176.179 17.4053 176.154 17.4932C176.062 17.7129 175.957 17.9033 175.839 18.0645C175.712 18.2354 175.593 18.416 175.48 18.6064C175.373 18.7041 175.288 18.8237 175.224 18.9653C175.161 19.1069 175.1 19.2559 175.041 19.4121C174.846 19.7344 174.658 20.0615 174.477 20.3936C174.296 20.7256 174.123 21.0625 173.957 21.4043L174.375 21.4922C174.516 21.5215 174.646 21.5654 174.763 21.624C174.812 21.6973 174.848 21.7388 174.873 21.7485C174.897 21.7583 174.899 21.7754 174.88 21.7998C174.919 22.0879 174.851 22.1855 174.675 22.0928C174.606 22.1172 174.553 22.1172 174.514 22.0928C174.357 22.1318 174.211 22.1611 174.074 22.1807C173.938 22.2002 173.781 22.2197 173.605 22.2393L173.43 22.6055C173.4 22.6641 173.371 22.7251 173.342 22.7886C173.312 22.8472 173.283 22.9082 173.254 22.9717C172.961 23.4893 172.695 24.0093 172.456 24.5317C172.216 25.0542 171.994 25.5938 171.789 26.1504C171.77 26.2383 171.75 26.3213 171.73 26.3994C171.711 26.4775 171.682 26.5508 171.643 26.6191C171.623 26.7363 171.594 26.8389 171.555 26.9268C171.53 26.9805 171.516 27.0269 171.511 27.0659C171.506 27.105 171.491 27.1514 171.467 27.2051C171.438 27.2832 171.396 27.3418 171.342 27.3809C171.289 27.4199 171.247 27.4736 171.218 27.542C171.159 27.4834 171.113 27.481 171.079 27.5347C171.044 27.5884 171.018 27.6396 170.998 27.6885C170.891 27.708 170.815 27.6836 170.771 27.6152C170.727 27.5469 170.705 27.4736 170.705 27.3955C170.666 27.3418 170.62 27.3198 170.566 27.3296C170.517 27.3345 170.466 27.3125 170.412 27.2637C170.334 26.9805 170.261 26.751 170.192 26.5752C170.124 26.3994 170.051 26.2334 169.973 26.0771C169.963 26.0381 169.953 26.0015 169.943 25.9673C169.934 25.9331 169.924 25.8989 169.914 25.8647C169.904 25.8306 169.895 25.7988 169.885 25.7695C169.875 25.7354 169.865 25.7012 169.855 25.667L169.79 25.5205C169.78 25.4961 169.768 25.4717 169.753 25.4473C169.743 25.4229 169.733 25.3984 169.724 25.374C169.704 25.3496 169.694 25.3203 169.694 25.2861C169.694 25.252 169.685 25.2227 169.665 25.1982C169.641 25.1445 169.614 25.0908 169.584 25.0371C169.555 24.9834 169.523 24.9297 169.489 24.876L169.299 24.5684C169.23 24.4854 169.182 24.4121 169.152 24.3486C169.128 24.29 169.094 24.2461 169.05 24.2168C168.991 24.0996 168.962 24.0288 168.962 24.0044C168.962 23.98 168.952 23.958 168.933 23.9385L168.786 23.7627C168.757 23.7285 168.723 23.6992 168.684 23.6748C168.64 23.6504 168.586 23.626 168.522 23.6016C168.459 23.5771 168.405 23.5527 168.361 23.5283L168.208 23.4624C168.183 23.4526 168.154 23.4429 168.12 23.4331C168.09 23.4185 168.059 23.4062 168.024 23.3965C167.937 23.5771 167.863 23.7627 167.805 23.9531C167.746 24.1484 167.658 24.3242 167.541 24.4805C167.487 24.6074 167.421 24.7417 167.343 24.8833C167.265 25.0249 167.199 25.1592 167.146 25.2861C167.102 25.3398 167.067 25.4155 167.043 25.5132C167.023 25.5913 166.994 25.6719 166.955 25.7549C166.94 25.7842 166.923 25.8135 166.904 25.8428C166.889 25.8721 166.872 25.9014 166.853 25.9307L166.735 26.1064C166.618 26.292 166.484 26.4434 166.333 26.5605C166.254 26.624 166.176 26.6924 166.098 26.7656C166.025 26.834 165.954 26.9072 165.886 26.9854C165.681 27.1514 165.515 27.1953 165.388 27.1172C165.354 27.0781 165.327 27.0757 165.307 27.1099C165.292 27.1343 165.271 27.1611 165.241 27.1904C165.173 27.1904 165.126 27.1782 165.102 27.1538L165.007 27.0586C165.031 26.9609 165.063 26.8828 165.102 26.8242C165.156 26.7461 165.197 26.6729 165.227 26.6045C165.28 26.5801 165.31 26.541 165.314 26.4873C165.319 26.4336 165.344 26.3896 165.388 26.3555C165.446 26.082 165.544 25.8574 165.681 25.6816C165.69 25.6572 165.7 25.6328 165.71 25.6084C165.72 25.5791 165.729 25.5522 165.739 25.5278C165.749 25.5034 165.759 25.4766 165.769 25.4473C165.783 25.418 165.798 25.3887 165.812 25.3594C165.842 25.3057 165.878 25.2617 165.922 25.2275C165.961 25.1934 165.993 25.1494 166.018 25.0957C166.052 24.9883 166.086 24.8931 166.12 24.8101C166.154 24.7271 166.188 24.6538 166.223 24.5903L166.428 24.2168C166.496 24.0117 166.574 23.8188 166.662 23.6382C166.75 23.4575 166.843 23.2744 166.94 23.0889C166.892 23.0693 166.867 23.0229 166.867 22.9497C166.867 22.8765 166.843 22.8252 166.794 22.7959C166.77 22.5762 166.696 22.4199 166.574 22.3271C166.623 22.2637 166.647 22.2002 166.647 22.1367C166.691 22.0928 166.76 22.0537 166.853 22.0195C166.872 22.0098 166.889 22 166.904 21.9902C166.923 21.9805 166.94 21.9731 166.955 21.9683C166.994 21.9487 167.033 21.9365 167.072 21.9316L167.299 21.9097C167.338 21.9048 167.375 21.8999 167.409 21.895C167.448 21.8901 167.487 21.8828 167.526 21.873C167.561 21.8193 167.59 21.7656 167.614 21.7119C167.644 21.6533 167.668 21.5947 167.688 21.5361C167.727 21.4189 167.785 21.3164 167.863 21.2285C167.873 21.1992 167.888 21.1699 167.907 21.1406C167.927 21.1162 167.932 21.0869 167.922 21.0527C167.995 20.9697 168.063 20.8623 168.127 20.7305C168.186 20.6084 168.254 20.4961 168.332 20.3936C168.4 20.2324 168.481 20.0884 168.574 19.9614C168.657 19.8442 168.742 19.6953 168.83 19.5146C168.918 19.4072 168.994 19.2656 169.057 19.0898C169.121 18.9141 169.177 18.7529 169.226 18.6064C169.245 18.5625 169.255 18.521 169.255 18.4819C169.255 18.4429 169.265 18.4062 169.284 18.3721C169.304 18.3281 169.333 18.2744 169.372 18.2109C169.392 18.1816 169.409 18.1523 169.423 18.123C169.443 18.0938 169.46 18.0645 169.475 18.0352C169.514 17.9668 169.548 17.9033 169.577 17.8447C169.606 17.7861 169.631 17.7178 169.65 17.6396C169.621 17.5811 169.575 17.5688 169.511 17.603C169.477 17.6226 169.443 17.6421 169.409 17.6616C169.375 17.6763 169.338 17.6934 169.299 17.7129C169.167 17.7812 169.03 17.8643 168.889 17.9619C168.674 18.0693 168.471 18.1841 168.281 18.3062C168.095 18.4282 167.922 18.5576 167.761 18.6943C167.717 18.6992 167.668 18.7139 167.614 18.7383C167.565 18.7578 167.507 18.7725 167.438 18.7822L167.329 18.6943C167.324 18.6846 167.316 18.6699 167.307 18.6504C167.336 18.6211 167.385 18.5918 167.453 18.5625C167.521 18.5332 167.556 18.4941 167.556 18.4453C167.546 18.2598 167.597 18.1157 167.709 18.0132C167.822 17.9106 167.932 17.8105 168.039 17.7129C168.112 17.6689 168.181 17.6299 168.244 17.5957C168.308 17.5566 168.366 17.5249 168.42 17.5005C168.532 17.4468 168.635 17.3809 168.728 17.3027C168.791 17.2783 168.852 17.2539 168.911 17.2295C168.974 17.2002 169.038 17.1685 169.101 17.1343C169.165 17.1001 169.226 17.0684 169.284 17.0391C169.348 17.0098 169.411 16.9805 169.475 16.9512C169.519 16.9316 169.565 16.9023 169.614 16.8633C169.638 16.8438 169.66 16.8242 169.68 16.8047C169.704 16.7852 169.729 16.7656 169.753 16.7461C169.87 16.668 169.995 16.5898 170.126 16.5117C170.258 16.4336 170.393 16.3555 170.529 16.2773C170.603 16.2578 170.644 16.2432 170.654 16.2334C170.673 16.2139 170.686 16.2041 170.69 16.2041C170.842 16.1553 170.964 16.1016 171.057 16.043C171.096 16.0283 171.135 16.0137 171.174 15.999C171.213 15.9795 171.25 15.96 171.284 15.9404C171.357 15.9014 171.438 15.8867 171.525 15.8965C171.604 15.8965 171.677 15.9307 171.745 15.999C171.813 16.0674 171.809 16.1357 171.73 16.2041C171.809 16.2822 171.848 16.3896 171.848 16.5264C171.848 16.6777 171.857 16.8145 171.877 16.9365C171.877 16.9707 171.882 17.0171 171.892 17.0757C171.901 17.1196 171.901 17.1611 171.892 17.2002C171.887 17.2344 171.87 17.2808 171.84 17.3394C171.816 17.3882 171.804 17.4297 171.804 17.4639C171.77 17.5127 171.74 17.564 171.716 17.6177C171.696 17.6665 171.667 17.7178 171.628 17.7715C171.604 17.8643 171.569 17.9326 171.525 17.9766C171.477 18.0254 171.438 18.0791 171.408 18.1377C171.335 18.1914 171.267 18.2549 171.203 18.3281C171.164 18.3281 171.142 18.3452 171.137 18.3794C171.132 18.4136 171.12 18.4404 171.101 18.46C170.905 18.5088 170.742 18.6187 170.61 18.7896C170.478 18.9604 170.349 19.1387 170.222 19.3242C170.065 19.4268 169.929 19.5439 169.812 19.6758C169.792 19.7002 169.772 19.7271 169.753 19.7563C169.738 19.7808 169.726 19.8101 169.716 19.8442C169.707 19.8784 169.692 19.9102 169.672 19.9395C169.658 19.9688 169.641 19.998 169.621 20.0273C169.582 20.0908 169.541 20.1592 169.497 20.2324C169.458 20.3008 169.416 20.3765 169.372 20.4595C169.328 20.5376 169.284 20.6157 169.24 20.6938C169.201 20.7671 169.162 20.8379 169.123 20.9062C169.099 20.9697 169.074 21.0234 169.05 21.0674C169.025 21.1064 169.001 21.165 168.977 21.2432L168.859 21.4629C168.83 21.5117 168.806 21.5752 168.786 21.6533C168.952 21.6533 169.118 21.6436 169.284 21.624C169.45 21.6045 169.616 21.585 169.782 21.5654C170.031 21.585 170.268 21.5581 170.493 21.4849C170.722 21.4067 170.949 21.3652 171.174 21.3604C171.213 21.3359 171.247 21.3286 171.276 21.3384C171.296 21.3433 171.33 21.3408 171.379 21.3311C171.594 21.3213 171.811 21.314 172.031 21.3091C172.25 21.3042 172.478 21.3115 172.712 21.3311C172.751 21.3115 172.783 21.2822 172.807 21.2432C172.832 21.2041 172.854 21.165 172.873 21.126C172.897 21.0674 172.924 21.0234 172.954 20.9941C172.973 20.9746 172.988 20.9551 172.998 20.9355C173.012 20.916 173.024 20.8965 173.034 20.877C173.063 20.7988 173.093 20.7451 173.122 20.7158C173.151 20.6865 173.176 20.6475 173.195 20.5986C173.259 20.4717 173.295 20.4009 173.305 20.3862C173.315 20.3765 173.322 20.3643 173.327 20.3496C173.337 20.3301 173.347 20.3105 173.356 20.291L173.781 19.5732C173.801 19.5488 173.818 19.5171 173.833 19.478C173.852 19.4292 173.869 19.3926 173.884 19.3682C173.898 19.3438 173.911 19.2998 173.92 19.2363C173.93 19.1826 173.957 19.1387 174.001 19.1045C174.021 19.0557 174.042 19.0068 174.067 18.958C174.091 18.9043 174.116 18.8506 174.14 18.7969L174.294 18.4746C174.318 18.4258 174.343 18.3794 174.367 18.3354C174.392 18.2866 174.416 18.2378 174.44 18.189L174.587 17.9033C174.597 17.8789 174.606 17.8545 174.616 17.8301C174.626 17.8057 174.636 17.7837 174.646 17.7642C174.655 17.7397 174.665 17.7178 174.675 17.6982C174.685 17.6738 174.694 17.6494 174.704 17.625C174.777 17.5225 174.841 17.415 174.895 17.3027C174.934 17.2441 174.973 17.1855 175.012 17.127C175.051 17.0684 175.09 17.0049 175.129 16.9365C175.153 16.873 175.178 16.8145 175.202 16.7607C175.231 16.7021 175.261 16.6484 175.29 16.5996L175.349 16.4897C175.373 16.4458 175.388 16.4189 175.393 16.4092C175.412 16.3848 175.417 16.353 175.407 16.314C175.402 16.2798 175.402 16.248 175.407 16.2188L175.48 16.1235C175.5 16.0991 175.524 16.0674 175.554 16.0283C175.583 15.999 175.607 15.9722 175.627 15.9478C175.656 15.9136 175.695 15.9111 175.744 15.9404C175.793 15.8916 175.861 15.8477 175.949 15.8086C175.988 15.8135 176.022 15.8306 176.052 15.8599C176.076 15.8794 176.105 15.9014 176.14 15.9258C176.159 15.9746 176.174 16.0283 176.184 16.0869C176.193 16.1455 176.174 16.1895 176.125 16.2188ZM171.774 22.3564C171.735 22.3467 171.704 22.3442 171.679 22.3491C171.655 22.354 171.623 22.3516 171.584 22.3418C171.516 22.3418 171.447 22.3271 171.379 22.2979C171.159 22.2881 170.957 22.2979 170.771 22.3271C170.561 22.3564 170.383 22.3613 170.236 22.3418C170.104 22.3613 169.973 22.3809 169.841 22.4004C169.709 22.415 169.575 22.4272 169.438 22.437C169.174 22.4565 168.913 22.4932 168.654 22.5469C168.532 22.5713 168.425 22.6006 168.332 22.6348C168.312 22.6689 168.298 22.7056 168.288 22.7446C168.283 22.7739 168.269 22.8154 168.244 22.8691C168.312 22.9473 168.386 23.0229 168.464 23.0962C168.542 23.1646 168.625 23.2305 168.713 23.2939C168.84 23.4502 168.969 23.5967 169.101 23.7334C169.233 23.8701 169.367 24.0068 169.504 24.1436C169.582 24.1924 169.636 24.2656 169.665 24.3633C169.719 24.4121 169.765 24.4707 169.804 24.5391C169.824 24.5732 169.843 24.6074 169.863 24.6416C169.882 24.6758 169.904 24.71 169.929 24.7441C170.026 24.7539 170.09 24.793 170.119 24.8613C170.153 24.9395 170.192 25.0029 170.236 25.0518C170.275 25.1152 170.317 25.1787 170.361 25.2422C170.41 25.3057 170.458 25.3691 170.507 25.4326C170.61 25.5547 170.69 25.6865 170.749 25.8281C170.783 25.8525 170.803 25.8745 170.808 25.894C170.812 25.9136 170.832 25.9355 170.866 25.96L171.123 25.1104C171.162 24.9883 171.203 24.8687 171.247 24.7515C171.291 24.6294 171.34 24.5098 171.394 24.3926C171.403 24.3242 171.43 24.2559 171.474 24.1875C171.518 24.124 171.535 24.0508 171.525 23.9678C171.579 23.8408 171.633 23.7163 171.687 23.5942C171.745 23.4673 171.804 23.3428 171.862 23.2207C171.921 23.0986 171.977 22.9741 172.031 22.8472C172.089 22.7202 172.146 22.5908 172.199 22.459C172.126 22.4541 172.055 22.4395 171.987 22.415C171.953 22.4053 171.918 22.3955 171.884 22.3857C171.85 22.376 171.813 22.3662 171.774 22.3564ZM181.926 22.7666C181.975 22.7715 182.006 22.791 182.021 22.8252C182.036 22.8545 182.062 22.8691 182.102 22.8691C182.121 22.9619 182.102 23.0278 182.043 23.0669C181.984 23.1011 181.965 23.1572 181.984 23.2354C181.896 23.2939 181.789 23.3306 181.662 23.3452C181.53 23.3599 181.433 23.4111 181.369 23.499C181.198 23.582 181.02 23.6333 180.834 23.6528C180.742 23.6626 180.644 23.6772 180.542 23.6968C180.444 23.7114 180.344 23.7285 180.241 23.748C180.134 23.8213 180.068 23.8604 180.043 23.8652C180.009 23.8701 179.973 23.8848 179.934 23.9092C179.831 23.8701 179.729 23.8506 179.626 23.8506C179.523 23.8506 179.416 23.8359 179.304 23.8066C179.25 23.8262 179.194 23.8359 179.135 23.8359C179.077 23.8359 179.021 23.8457 178.967 23.8652C178.928 23.9531 178.908 24.041 178.908 24.1289C178.908 24.2217 178.894 24.3096 178.864 24.3926L178.776 24.5684L178.754 24.7075C178.745 24.7661 178.732 24.8125 178.718 24.8467C178.698 24.876 178.676 24.9102 178.652 24.9492C178.627 24.9883 178.615 25.0322 178.615 25.0811C178.547 25.1689 178.498 25.2593 178.469 25.3521C178.439 25.4595 178.386 25.5449 178.308 25.6084C178.278 25.7109 178.232 25.7891 178.168 25.8428C178.105 25.9014 178.044 25.9697 177.985 26.0479C177.878 26.1943 177.783 26.3213 177.7 26.4287C177.617 26.5361 177.507 26.6289 177.37 26.707C177.321 26.7852 177.263 26.8389 177.194 26.8682C177.146 26.917 177.106 26.9658 177.077 27.0146L176.784 27.1904C176.667 27.2637 176.555 27.3125 176.447 27.3369C176.281 27.376 176.12 27.3711 175.964 27.3223C175.808 27.2734 175.661 27.2051 175.524 27.1172C175.432 27.127 175.361 27.1099 175.312 27.0659C175.263 27.0269 175.197 26.9951 175.114 26.9707C175.007 26.873 174.89 26.7852 174.763 26.707C174.631 26.624 174.538 26.5166 174.484 26.3848L174.418 26.0625C174.399 25.9648 174.377 25.8672 174.353 25.7695C174.333 25.6865 174.331 25.5938 174.345 25.4912C174.36 25.4033 174.362 25.3057 174.353 25.1982C174.353 25.1445 174.353 25.0957 174.353 25.0518C174.353 25.0029 174.35 24.9614 174.345 24.9272C174.34 24.854 174.362 24.7637 174.411 24.6562C174.44 24.5928 174.465 24.5342 174.484 24.4805C174.504 24.4268 174.519 24.3804 174.528 24.3413C174.538 24.3022 174.548 24.2656 174.558 24.2314C174.567 24.1924 174.577 24.1582 174.587 24.1289C174.602 24.1045 174.616 24.0801 174.631 24.0557C174.646 24.0264 174.66 23.9971 174.675 23.9678C174.689 23.9385 174.704 23.9116 174.719 23.8872C174.738 23.8579 174.758 23.8311 174.777 23.8066C174.836 23.7188 174.904 23.6309 174.982 23.543C175.061 23.4551 175.139 23.3721 175.217 23.2939C175.271 23.2207 175.324 23.1572 175.378 23.1035C175.466 23.0156 175.549 22.9424 175.627 22.8838C175.705 22.8252 175.793 22.7471 175.891 22.6494C175.91 22.6201 175.935 22.5957 175.964 22.5762L176.052 22.5176C176.149 22.459 176.24 22.4102 176.323 22.3711C176.406 22.332 176.501 22.2881 176.608 22.2393C176.701 22.1953 176.777 22.1685 176.835 22.1587C176.875 22.1489 176.914 22.1416 176.953 22.1367C176.997 22.127 177.043 22.1172 177.092 22.1074H177.268C177.321 22.1074 177.37 22.0977 177.414 22.0781C177.385 22 177.419 21.9463 177.517 21.917C177.614 21.8877 177.688 21.8779 177.736 21.8877C177.834 21.8877 177.912 21.9097 177.971 21.9536C178.029 21.9976 178.083 22.0488 178.132 22.1074C178.229 22.1758 178.337 22.2783 178.454 22.415C178.479 22.4395 178.503 22.4541 178.527 22.459C178.552 22.4639 178.576 22.4785 178.601 22.5029C178.64 22.5615 178.667 22.6152 178.681 22.6641C178.696 22.7227 178.728 22.7764 178.776 22.8252C178.806 22.8447 178.835 22.8691 178.864 22.8984C178.894 22.9277 178.913 22.9668 178.923 23.0156C179.025 23.0547 179.118 23.084 179.201 23.1035C179.245 23.123 179.296 23.1279 179.355 23.1182C179.409 23.1084 179.47 23.1084 179.538 23.1182C179.582 23.123 179.626 23.1353 179.67 23.1548C179.709 23.1694 179.753 23.1768 179.802 23.1768C179.875 23.1719 179.956 23.1523 180.043 23.1182C180.126 23.0889 180.222 23.084 180.329 23.1035C180.476 23.1377 180.629 23.123 180.791 23.0596C180.952 22.9912 181.115 22.9473 181.281 22.9277C181.33 22.9277 181.364 22.9253 181.384 22.9204C181.403 22.9155 181.438 22.9131 181.486 22.9131C181.535 22.874 181.599 22.8447 181.677 22.8252C181.755 22.8057 181.838 22.7861 181.926 22.7666ZM177.736 23.2061C177.639 23.1182 177.583 23.062 177.568 23.0376C177.548 23.0083 177.531 22.9912 177.517 22.9863C177.473 22.9424 177.424 22.918 177.37 22.9131C177.341 22.9082 177.312 22.9033 177.282 22.8984C177.258 22.8936 177.233 22.8887 177.209 22.8838C177.053 22.8545 176.923 22.8716 176.821 22.9351C176.772 22.9692 176.721 23.001 176.667 23.0303C176.618 23.0596 176.569 23.0889 176.521 23.1182C176.364 23.2158 176.228 23.3379 176.11 23.4844C176.081 23.5332 176.049 23.5869 176.015 23.6455C175.981 23.7041 175.954 23.7676 175.935 23.8359C175.896 23.9141 175.861 23.9849 175.832 24.0483C175.803 24.1118 175.778 24.1875 175.759 24.2754C175.71 24.3682 175.681 24.4487 175.671 24.5171C175.666 24.5513 175.661 24.583 175.656 24.6123C175.651 24.6367 175.646 24.6611 175.642 24.6855C175.637 24.7344 175.629 24.7856 175.62 24.8394C175.61 24.8882 175.6 24.9395 175.59 24.9932C175.566 25.1152 175.554 25.208 175.554 25.2715C175.563 25.3008 175.578 25.3398 175.598 25.3887C175.617 25.4375 175.637 25.4717 175.656 25.4912C175.676 25.54 175.698 25.5938 175.722 25.6523C175.747 25.7109 175.769 25.7549 175.788 25.7842C175.842 25.8525 175.905 25.8965 175.979 25.916C176.018 25.9258 176.059 25.938 176.103 25.9526C176.147 25.9624 176.193 25.9746 176.242 25.9893C176.35 26.0479 176.423 26.0723 176.462 26.0625C176.511 26.0527 176.54 26.0479 176.55 26.0479C176.682 26.0234 176.794 25.9697 176.887 25.8867C176.97 25.8086 177.067 25.7402 177.18 25.6816C177.219 25.623 177.258 25.562 177.297 25.4985C177.341 25.4351 177.387 25.3716 177.436 25.3081C177.485 25.2397 177.529 25.1738 177.568 25.1104C177.612 25.042 177.653 24.9736 177.692 24.9053C177.717 24.876 177.741 24.832 177.766 24.7734C177.775 24.749 177.785 24.7271 177.795 24.7075C177.805 24.6831 177.814 24.6611 177.824 24.6416C177.893 24.5586 177.924 24.5146 177.919 24.5098C177.915 24.5049 177.917 24.4902 177.927 24.4658C177.99 24.3193 178.02 24.207 178.015 24.1289C178.01 24.0508 178.01 23.9727 178.015 23.8945C177.99 23.8408 177.968 23.7847 177.949 23.7261C177.929 23.6675 177.91 23.6064 177.89 23.543C177.851 23.4111 177.8 23.2988 177.736 23.2061ZM184.943 23.543C185.041 23.5674 185.112 23.6016 185.156 23.6455C185.19 23.6797 185.207 23.7188 185.207 23.7627C185.129 23.8701 185.083 23.9409 185.068 23.9751C185.053 24.0093 185.021 24.0361 184.973 24.0557C184.909 24.1533 184.841 24.2461 184.768 24.334C184.699 24.417 184.624 24.4976 184.541 24.5757C184.389 24.7222 184.24 24.8906 184.094 25.0811C184.03 25.1445 183.986 25.1934 183.962 25.2275C183.938 25.2617 183.894 25.3105 183.83 25.374C183.713 25.457 183.615 25.5425 183.537 25.6304C183.493 25.6792 183.447 25.7256 183.398 25.7695C183.354 25.8086 183.308 25.8477 183.259 25.8867C183.234 25.9062 183.21 25.9258 183.186 25.9453C183.166 25.96 183.144 25.9771 183.12 25.9966C183.1 26.0161 183.078 26.0356 183.054 26.0552C183.029 26.0747 183.005 26.0967 182.98 26.1211C182.941 26.1602 182.897 26.1992 182.849 26.2383C182.829 26.2529 182.807 26.27 182.783 26.2896C182.763 26.3042 182.741 26.3213 182.717 26.3408C182.658 26.4092 182.6 26.4775 182.541 26.5459C182.482 26.6143 182.424 26.6875 182.365 26.7656C182.263 26.8145 182.165 26.873 182.072 26.9414C181.984 27.0049 181.882 27.0635 181.765 27.1172C181.716 27.1465 181.669 27.1929 181.625 27.2563C181.586 27.3149 181.53 27.3564 181.457 27.3809C181.379 27.4102 181.296 27.4175 181.208 27.4028C181.12 27.3882 181.047 27.3662 180.988 27.3369C180.925 27.293 180.886 27.2686 180.871 27.2637C180.832 27.2539 180.808 27.249 180.798 27.249C180.705 27.1172 180.642 26.978 180.607 26.8315C180.588 26.7534 180.566 26.6753 180.542 26.5972C180.522 26.519 180.5 26.4385 180.476 26.3555C180.456 26.3066 180.441 26.2554 180.432 26.2017C180.422 26.1479 180.412 26.0869 180.402 26.0186L180.38 25.9014C180.375 25.8818 180.371 25.8623 180.366 25.8428C180.361 25.8184 180.354 25.7939 180.344 25.7695C180.324 25.7207 180.305 25.6694 180.285 25.6157C180.266 25.562 180.251 25.5059 180.241 25.4473C180.222 25.3301 180.214 25.2153 180.219 25.103C180.224 24.9907 180.236 24.8809 180.256 24.7734C180.314 24.4512 180.4 24.1436 180.512 23.8506C180.625 23.5576 180.739 23.2793 180.856 23.0156C180.881 22.8936 180.908 22.8008 180.937 22.7373C180.966 22.6738 180.998 22.5859 181.032 22.4736C181.076 22.4199 181.11 22.3418 181.135 22.2393C181.145 22.1953 181.154 22.1514 181.164 22.1074C181.179 22.0635 181.193 22.0195 181.208 21.9756C181.223 21.9365 181.24 21.8975 181.259 21.8584C181.279 21.8145 181.298 21.7681 181.318 21.7192C181.357 21.6313 181.389 21.541 181.413 21.4482C181.447 21.3359 181.474 21.2383 181.494 21.1553C181.503 21.1064 181.516 21.0601 181.53 21.0161C181.55 20.9722 181.569 20.9307 181.589 20.8916C181.628 20.7891 181.665 20.689 181.699 20.5913C181.738 20.4937 181.774 20.3984 181.809 20.3057C181.843 20.2129 181.877 20.1201 181.911 20.0273C181.95 19.9346 181.989 19.8418 182.028 19.749C182.038 19.7197 182.048 19.6904 182.058 19.6611C182.067 19.6318 182.077 19.6025 182.087 19.5732C182.106 19.5195 182.136 19.4658 182.175 19.4121C182.199 19.3438 182.224 19.2925 182.248 19.2583C182.287 19.1997 182.316 19.1533 182.336 19.1191C182.336 19.0654 182.353 19.0288 182.387 19.0093C182.412 18.9946 182.438 18.9629 182.468 18.9141C182.521 18.8311 182.558 18.7529 182.578 18.6797C182.597 18.6064 182.634 18.5283 182.688 18.4453L182.863 18.2256C182.873 18.2061 182.883 18.1865 182.893 18.167C182.902 18.1475 182.912 18.1279 182.922 18.1084C182.946 18.0693 182.976 18.0352 183.01 18.0059C183.122 17.8301 183.239 17.6543 183.361 17.4785L183.757 16.9219C183.845 16.7852 183.942 16.6558 184.05 16.5337C184.157 16.4116 184.27 16.292 184.387 16.1748C184.426 16.126 184.472 16.0723 184.526 16.0137C184.58 15.9551 184.636 15.9209 184.694 15.9111C184.787 15.9014 184.885 15.9111 184.987 15.9404C185.017 15.9893 185.043 16.0405 185.068 16.0942C185.092 16.1479 185.114 16.209 185.134 16.2773C185.153 16.5801 185.144 16.873 185.104 17.1562C185.065 17.4395 185.021 17.7178 184.973 17.9912C184.963 18.0547 184.96 18.1011 184.965 18.1304C184.97 18.1597 184.968 18.2061 184.958 18.2695C184.938 18.3281 184.914 18.4038 184.885 18.4966C184.855 18.5894 184.831 18.6748 184.812 18.7529C184.812 18.8848 184.782 19.0068 184.724 19.1191C184.665 19.2266 184.626 19.334 184.606 19.4414C184.577 19.4609 184.56 19.4927 184.555 19.5366C184.55 19.5806 184.533 19.6123 184.504 19.6318C184.479 19.7441 184.448 19.8418 184.409 19.9248C184.365 20.0127 184.328 20.1006 184.299 20.1885C184.226 20.291 184.152 20.3911 184.079 20.4888C184.006 20.5864 183.93 20.6841 183.852 20.7817C183.774 20.8745 183.698 20.9722 183.625 21.0747C183.557 21.1724 183.488 21.2725 183.42 21.375C183.249 21.6338 183.071 21.8779 182.885 22.1074C182.7 22.3369 182.521 22.5811 182.351 22.8398C182.214 22.9619 182.106 23.084 182.028 23.2061C181.945 23.3379 181.833 23.46 181.691 23.5723C181.667 23.6699 181.643 23.7725 181.618 23.8799C181.599 23.9873 181.577 24.0972 181.552 24.2095C181.533 24.3218 181.511 24.4365 181.486 24.5537C181.462 24.6709 181.438 24.7881 181.413 24.9053C181.408 24.9688 181.394 25.0347 181.369 25.103C181.359 25.1372 181.35 25.1714 181.34 25.2056C181.33 25.2349 181.32 25.2666 181.311 25.3008C181.291 25.3691 181.286 25.4521 181.296 25.5498C181.301 25.6377 181.286 25.7207 181.252 25.7988C181.267 25.8379 181.279 25.894 181.289 25.9673C181.293 26.0308 181.311 26.0869 181.34 26.1357C181.394 26.2236 181.452 26.2676 181.516 26.2676C181.589 26.2285 181.628 26.2114 181.633 26.2163C181.638 26.2212 181.652 26.2188 181.677 26.209C181.726 26.1797 181.774 26.1406 181.823 26.0918C181.872 26.043 181.916 25.999 181.955 25.96C182.009 25.9355 182.045 25.9136 182.065 25.894C182.08 25.8794 182.106 25.8574 182.146 25.8281C182.175 25.8086 182.202 25.7939 182.226 25.7842C182.25 25.7744 182.272 25.7598 182.292 25.7402C182.434 25.5938 182.565 25.4839 182.688 25.4106C182.814 25.3374 182.917 25.2471 182.995 25.1396L183.259 24.9785C183.312 24.9492 183.364 24.9077 183.413 24.854C183.457 24.8003 183.513 24.7588 183.581 24.7295C183.61 24.6904 183.63 24.666 183.64 24.6562C183.649 24.6465 183.669 24.6221 183.698 24.583C183.757 24.5439 183.815 24.5049 183.874 24.4658C183.933 24.4268 183.989 24.3877 184.042 24.3486C184.096 24.3096 184.152 24.2705 184.211 24.2314C184.274 24.1924 184.338 24.1533 184.401 24.1143C184.421 24.0654 184.453 24.0264 184.497 23.9971C184.541 23.9678 184.577 23.9385 184.606 23.9092C184.636 23.8799 184.66 23.8481 184.68 23.814C184.704 23.7749 184.738 23.7529 184.782 23.748C184.787 23.7041 184.809 23.6699 184.848 23.6455C184.887 23.6211 184.919 23.5869 184.943 23.543ZM184.152 18.0791H184.138C184.05 18.0986 183.989 18.1426 183.955 18.2109C183.92 18.2793 183.889 18.3574 183.859 18.4453C183.84 18.4844 183.82 18.5186 183.801 18.5479C183.786 18.5771 183.774 18.6016 183.764 18.6211C183.745 18.6553 183.737 18.7139 183.742 18.7969C183.591 19.0459 183.447 19.3022 183.31 19.5659C183.173 19.8247 183.042 20.0908 182.915 20.3643C182.792 20.6377 182.668 20.9136 182.541 21.1919C182.414 21.4653 182.287 21.7412 182.16 22.0195C182.36 21.8193 182.543 21.585 182.709 21.3164C182.792 21.1797 182.878 21.0527 182.966 20.9355C183.059 20.8184 183.151 20.7109 183.244 20.6133C183.312 20.4473 183.383 20.2861 183.457 20.1299C183.535 19.9736 183.615 19.8247 183.698 19.6831C183.859 19.4097 183.986 19.085 184.079 18.709C184.04 18.5869 184.045 18.4819 184.094 18.394C184.143 18.3062 184.162 18.2012 184.152 18.0791ZM189.191 25.7402C189.26 25.7402 189.309 25.7451 189.338 25.7549C189.367 25.7646 189.392 25.7695 189.411 25.7695C189.509 25.7695 189.633 25.7012 189.785 25.5645C189.941 25.4229 190.065 25.3154 190.158 25.2422C190.358 25.1982 190.52 25.0713 190.642 24.8613C190.769 24.6465 190.91 24.4609 191.066 24.3047C191.267 24.1045 191.428 23.9263 191.55 23.77C191.677 23.6089 191.784 23.5283 191.872 23.5283C191.95 23.5283 192.006 23.5649 192.041 23.6382C192.084 23.7261 192.116 23.7871 192.136 23.8213C192.116 23.8408 192.106 23.8701 192.106 23.9092C192.106 23.9531 192.097 23.9873 192.077 24.0117C192.058 24.041 192.028 24.0703 191.989 24.0996C191.95 24.1289 191.916 24.1631 191.887 24.2021L191.74 24.3779C191.613 24.5049 191.494 24.666 191.381 24.8613C191.269 25.0566 191.157 25.2422 191.044 25.418C190.937 25.5889 190.822 25.7109 190.7 25.7842C190.441 25.9502 190.234 26.126 190.078 26.3115C189.926 26.4922 189.758 26.6387 189.572 26.751C189.553 26.751 189.541 26.7485 189.536 26.7437C189.531 26.7388 189.523 26.7363 189.514 26.7363C189.47 26.7363 189.438 26.7461 189.418 26.7656C189.399 26.7852 189.372 26.7949 189.338 26.7949C189.157 26.7266 189.013 26.6509 188.906 26.5679C188.798 26.48 188.659 26.292 188.488 26.0039C188.444 25.9307 188.405 25.8501 188.371 25.7622C188.337 25.6646 188.298 25.5791 188.254 25.5059L188.056 25.147C188.002 25.0493 187.976 24.8857 187.976 24.6562C187.976 24.5586 187.985 24.4121 188.005 24.2168C188.024 24.0215 188.044 23.8652 188.063 23.748C187.912 23.8994 187.773 24.0874 187.646 24.312C187.583 24.4194 187.521 24.5244 187.463 24.627C187.404 24.7295 187.346 24.8271 187.287 24.9199C187.131 25.1592 186.962 25.396 186.782 25.6304C186.606 25.855 186.516 26.0283 186.511 26.1504C186.452 26.209 186.389 26.2944 186.32 26.4067C186.252 26.519 186.198 26.6167 186.159 26.6997C186.125 26.7778 186.125 26.7998 186.159 26.7656C186.022 26.9902 185.825 27.1489 185.566 27.2417C185.307 27.3345 185.065 27.3809 184.841 27.3809C184.797 27.376 184.753 27.3711 184.709 27.3662C184.665 27.3613 184.621 27.3564 184.577 27.3516C184.494 27.3467 184.411 27.3125 184.328 27.249L184.108 27.0879C183.952 27.0098 183.845 26.8877 183.786 26.7217C183.728 26.5557 183.698 26.375 183.698 26.1797C183.82 25.8721 183.891 25.5962 183.911 25.3521C183.93 25.1128 183.986 24.876 184.079 24.6416C184.216 24.2803 184.409 23.958 184.658 23.6748C184.907 23.3916 185.168 23.1328 185.441 22.8984C185.661 22.7129 185.913 22.5103 186.196 22.2905C186.484 22.0659 186.691 21.8779 186.818 21.7266C186.975 21.7021 187.106 21.6558 187.214 21.5874C187.326 21.5142 187.438 21.4458 187.551 21.3823C187.663 21.3188 187.795 21.2871 187.946 21.2871C188.171 21.2871 188.303 21.3262 188.342 21.4043C188.381 21.4824 188.439 21.5898 188.518 21.7266C188.581 21.5654 188.63 21.4019 188.664 21.2358C188.684 21.1528 188.706 21.0723 188.73 20.9941C188.759 20.916 188.791 20.8428 188.825 20.7744C188.884 20.4717 188.984 20.1494 189.125 19.8076C189.267 19.4658 189.409 19.1509 189.55 18.8628C189.667 18.6284 189.782 18.4062 189.895 18.1963C190.012 17.9814 190.09 17.8447 190.129 17.7861C190.28 17.5518 190.444 17.354 190.62 17.1929C190.791 17.0317 190.939 16.8584 191.066 16.6729C191.164 16.5557 191.259 16.4214 191.352 16.27C191.45 16.104 191.525 16.0039 191.579 15.9697C191.853 16.043 191.997 16.1504 192.011 16.292C192.026 16.4336 192.033 16.5947 192.033 16.7754C192.033 16.9316 192.019 17.0879 191.989 17.2441L191.491 18.2842C191.354 18.5381 191.225 18.7969 191.103 19.0605C190.981 19.3242 190.866 19.5928 190.759 19.8662C190.578 20.2178 190.38 20.5254 190.166 20.7891C190.058 20.9209 189.956 21.0576 189.858 21.1992C189.765 21.3408 189.675 21.4873 189.587 21.6387C189.553 21.7412 189.501 21.8413 189.433 21.939C189.399 21.9878 189.367 22.0366 189.338 22.0854C189.309 22.1294 189.279 22.1758 189.25 22.2246L188.986 22.8545C188.928 22.9326 188.898 23.0059 188.898 23.0742C188.918 23.1182 188.928 23.1572 188.928 23.1914V23.2646C188.928 23.3086 188.928 23.3525 188.928 23.3965C188.928 23.4404 188.925 23.4844 188.92 23.5283C188.916 23.5723 188.913 23.6187 188.913 23.6675C188.913 23.7114 188.913 23.7578 188.913 23.8066C188.913 24.3047 188.933 24.793 188.972 25.2715C188.952 25.3057 188.942 25.3301 188.942 25.3447C188.942 25.4131 188.979 25.4839 189.052 25.5571C189.125 25.6255 189.172 25.6865 189.191 25.7402ZM187.785 22.1807L187.419 22.415C187.346 22.4395 187.248 22.5103 187.126 22.6274L186.818 22.9131L186.511 23.1914C186.442 23.3184 186.35 23.4258 186.232 23.5137C186.115 23.6016 186.018 23.6992 185.939 23.8066C185.832 23.9434 185.727 24.1045 185.625 24.29C185.522 24.4756 185.476 24.6318 185.485 24.7588C185.461 24.8467 185.434 24.9297 185.405 25.0078C185.38 25.0811 185.354 25.1494 185.324 25.2129C185.266 25.335 185.236 25.4766 185.236 25.6377C185.236 25.7646 185.278 25.8306 185.361 25.8354C185.444 25.8403 185.505 25.8428 185.544 25.8428C185.69 25.7451 185.844 25.6035 186.005 25.418C186.171 25.2275 186.32 25.0322 186.452 24.832C186.589 24.6318 186.682 24.4658 186.73 24.334C186.838 24.1484 186.96 23.9507 187.097 23.7407C187.233 23.5308 187.385 23.3428 187.551 23.1768L187.932 22.5615C187.941 22.5371 187.951 22.5151 187.961 22.4956C187.971 22.4712 187.98 22.4492 187.99 22.4297C188.01 22.3955 188.02 22.3516 188.02 22.2979C188.02 22.2344 188 22.1758 187.961 22.1221C187.922 22.1221 187.888 22.1294 187.858 22.144C187.829 22.1587 187.805 22.1709 187.785 22.1807Z" fill="#F58218"/>
<defs>
<linearGradient id="paint0_linear_32_12454" x1="139.496" y1="118.639" x2="139.496" y2="41.3128" gradientUnits="userSpaceOnUse">
<stop stop-color="#808080" stop-opacity="0.25"/>
<stop offset="0.54" stop-color="#808080" stop-opacity="0.12"/>
<stop offset="1" stop-color="#808080" stop-opacity="0.1"/>
</linearGradient>
<clipPath id="clip0_32_12454">
<rect width="172" height="127" fill="white"/>
</clipPath>
</defs>
</svg>
