<svg width="375" height="315" viewBox="0 0 375 315" fill="none" xmlns="http://www.w3.org/2000/svg">
<g clip-path="url(#clip0_19_8451)">
<path d="M42.4992 302.371C42.1482 302.387 41.8008 302.295 41.504 302.107C41.2071 301.919 40.9753 301.645 40.8397 301.321C40.7042 300.998 40.6716 300.64 40.7463 300.298C40.821 299.955 40.9994 299.643 41.2574 299.405L41.3748 298.939C41.3593 298.902 41.3438 298.864 41.3282 298.827C40.9746 297.993 40.3822 297.282 39.6253 296.783C38.8684 296.285 37.9808 296.02 37.074 296.024C36.1671 296.027 35.2815 296.298 34.5284 296.802C33.7752 297.307 33.1881 298.022 32.8407 298.859C31.4526 302.197 29.6852 305.541 29.2501 309.071C29.0584 310.632 29.1393 312.213 29.489 313.746C26.2286 306.644 24.5356 298.925 24.5247 291.112C24.524 289.152 24.6331 287.193 24.8514 285.244C25.0319 283.647 25.2822 282.061 25.6024 280.487C27.3499 271.944 31.1019 263.936 36.5502 257.122C39.1872 255.686 41.3197 253.476 42.6605 250.792C43.1462 249.827 43.4895 248.797 43.6797 247.734C43.3822 247.773 42.5581 243.249 42.7824 242.971C42.3679 242.343 41.6259 242.031 41.1732 241.418C38.9215 238.369 35.8192 238.902 34.1997 243.044C30.7401 244.788 30.7066 247.68 32.8294 250.461C34.18 252.23 34.3656 254.624 35.5505 256.518C35.4286 256.674 35.3018 256.825 35.1799 256.981C32.9513 259.843 31.0089 262.916 29.3806 266.156C29.7766 262.526 29.304 258.854 28.0016 255.442C26.6817 252.263 24.2078 249.585 22.0292 246.836C19.4123 243.534 14.0461 244.975 13.5851 249.161C13.5806 249.201 13.5763 249.242 13.572 249.282C13.8956 249.465 14.2124 249.658 14.5223 249.863C14.9117 250.123 15.2134 250.494 15.3879 250.928C15.5624 251.362 15.6016 251.838 15.5003 252.295C15.399 252.751 15.162 253.166 14.8203 253.486C14.4785 253.806 14.0481 254.015 13.5853 254.086L13.5379 254.093C13.6532 255.258 13.8569 256.412 14.1475 257.546C11.3525 268.339 17.3865 272.27 26.0022 272.447C26.1924 272.544 26.3778 272.642 26.568 272.734C24.932 277.364 23.9058 282.186 23.5152 287.08C23.2941 289.967 23.3072 292.868 23.5543 295.753L23.5396 295.651C22.9154 292.443 21.2015 289.548 18.6874 287.455C14.9534 284.392 9.678 283.264 5.64966 280.802C5.22155 280.528 4.72376 280.381 4.215 280.38C3.70625 280.379 3.20775 280.523 2.7783 280.795C2.34885 281.068 2.00636 281.457 1.79123 281.917C1.5761 282.378 1.4973 282.89 1.56413 283.394C1.56953 283.429 1.57502 283.465 1.58061 283.501C2.18111 283.745 2.7658 284.027 3.33126 284.344C3.65486 284.526 3.97162 284.719 4.28155 284.924C4.6709 285.184 4.97259 285.555 5.14709 285.989C5.32159 286.423 5.36076 286.899 5.25948 287.356C5.15819 287.812 4.92117 288.228 4.57947 288.547C4.23776 288.867 3.80732 289.076 3.34452 289.147L3.2971 289.155C3.26297 289.16 3.2337 289.164 3.19962 289.169C4.22566 291.616 5.66575 293.868 7.45681 295.826C9.20439 305.248 16.7103 306.142 24.7392 303.398H24.7441C25.625 307.221 26.9014 310.942 28.5527 314.501H42.1582C42.207 314.35 42.2509 314.194 42.2948 314.043C41.0354 314.122 39.7711 314.047 38.53 313.819C39.5395 312.582 40.5489 311.336 41.5584 310.099C41.5809 310.076 41.6021 310.051 41.6218 310.026C42.1338 309.393 42.6508 308.765 43.1628 308.132L43.163 308.131C43.1903 306.19 42.9669 304.254 42.4992 302.371Z" fill="#F2F2F2"/>
<path d="M58.1484 314.197H80.1034C83.8584 301.571 80.1234 271.733 85.0728 259.538C94.5685 236.154 106.699 211.481 129.341 200.064C139.008 195.189 149.549 193.284 160.314 193.388C175.184 193.529 190.473 197.515 204.47 202.798C210.196 204.954 215.869 207.325 221.521 209.748C242.811 218.883 263.87 228.834 286.766 231.523C315.738 234.924 349.802 221.98 357.715 194.099C363.754 172.753 352.877 150.592 341.47 131.528C330.064 112.464 317.313 92.0668 319.396 69.9947C319.404 69.9206 319.411 69.8391 319.426 69.765C320.21 61.8371 324.95 56.1396 331.572 52.4868H302.741C302.361 73.0771 314.29 91.2518 325.025 109.197C336.431 128.253 347.308 150.422 341.269 171.768C333.356 199.641 267.832 166.968 238.86 163.56C230.678 162.604 243.675 166.005 235.874 163.56C223.638 159.729 222.282 194.863 210.375 189.706C202.962 186.49 195.542 183.297 188.025 180.459C184.912 179.281 181.731 178.177 178.514 177.154C178.511 177.154 178.508 177.154 178.506 177.152C178.503 177.151 178.501 177.149 178.499 177.147C156.895 170.316 133.268 167.656 113.306 177.532C113.172 177.599 113.03 177.666 112.895 177.732C90.2537 189.143 78.1228 213.815 68.6271 237.199C60.7813 256.53 62.0154 293.806 58.1484 314.197Z" fill="#F2F2F2"/>
<path d="M188.291 313.55C81.1425 315.816 78.793 268.948 78.793 213.201C78.793 157.454 127.654 113.844 188.202 113.844C248.749 113.844 296.836 157.438 296.836 213.183C296.836 268.929 248.839 313.55 188.291 313.55Z" fill="white"/>
<path d="M187.682 314.159C80.5331 316.425 78.1836 269.557 78.1836 213.81C78.1836 158.063 127.443 112.711 187.991 112.711C248.539 112.711 297.798 158.065 297.798 213.81C297.798 269.556 248.23 314.159 187.682 314.159ZM187.991 115.493C129.109 115.493 82.1967 159.606 81.2051 213.81C80.2828 264.227 138.456 327.14 187.991 312.128C214.556 285.192 289.66 256.181 294.777 213.81C301.284 159.93 246.873 115.493 187.991 115.493Z" fill="#2F3139"/>
<path d="M-31 314.275C-31.0003 314.37 -30.9817 314.464 -30.9453 314.552C-30.9089 314.641 -30.8554 314.721 -30.7879 314.788C-30.7204 314.855 -30.6402 314.909 -30.552 314.945C-30.4637 314.982 -30.3692 315 -30.2737 315H406.274C406.466 315 406.651 314.923 406.787 314.787C406.923 314.651 407 314.467 407 314.275C407 314.082 406.923 313.898 406.787 313.762C406.651 313.626 406.466 313.549 406.274 313.549H-30.2737C-30.3692 313.549 -30.4637 313.568 -30.552 313.604C-30.6402 313.64 -30.7204 313.694 -30.7879 313.761C-30.8554 313.828 -30.9089 313.909 -30.9453 313.997C-30.9817 314.085 -31.0003 314.179 -31 314.275Z" fill="#CCCCCC"/>
<path d="M263.152 304.992H255.614L252.027 275.956L263.154 275.956L263.152 304.992Z" fill="#A0616A"/>
<path d="M263.418 312.846L240.236 312.845V312.552C240.237 310.162 241.187 307.871 242.879 306.181C244.571 304.491 246.866 303.542 249.259 303.542L253.495 300.334L261.395 303.542L263.419 303.543L263.418 312.846Z" fill="#46474D"/>
<path d="M251.699 237.686C243.09 229.339 233.197 222.423 222.396 217.203L216.887 223.413L220.396 216.258C205.939 209.666 190.246 206.214 174.353 206.13C158.461 206.046 142.731 209.333 128.206 215.772L131.068 221.98L126.673 216.463C115.327 221.733 104.943 228.862 95.9526 237.553C95.0284 238.413 94.4574 239.586 94.3507 240.843C94.3046 241.526 94.4058 242.211 94.6476 242.851C94.8894 243.492 95.2662 244.073 95.7523 244.555C97.1375 245.21 99.1115 246.713 102.044 250.838C102.944 251.724 104.154 252.224 105.417 252.232C106.681 252.239 107.897 251.754 108.807 250.88C126.225 234.043 149.516 224.63 173.757 224.63C197.999 224.63 221.29 234.043 238.708 250.88C239.618 251.754 240.834 252.239 242.098 252.232C243.361 252.224 244.571 251.724 245.47 250.838C248.422 248.187 249.111 244.44 251.647 244.67C252.54 243.808 253.081 242.646 253.168 241.409C253.205 240.72 253.094 240.03 252.84 239.388C252.587 238.745 252.197 238.165 251.699 237.686Z" fill="#F58218"/>
<path d="M194.222 246.722L186.684 246.721L183.098 217.685L194.224 217.686L194.222 246.722Z" fill="#A0616A"/>
<path d="M194.489 254.575L171.307 254.574V254.282C171.307 251.892 172.258 249.6 173.95 247.911C175.642 246.221 177.937 245.272 180.33 245.271L184.565 242.063L192.465 245.272L194.489 245.272L194.489 254.575Z" fill="#46474D"/>
<path d="M271.771 139.817L218.272 145.398L205.126 158.369L184.216 165.187C181.584 166.045 179.276 167.686 177.603 169.889C175.929 172.093 174.969 174.754 174.852 177.517C174.307 190.252 173.232 211.395 172.096 211.173C170.473 210.857 173.718 218.78 175.992 218.32C178.265 217.86 180.629 223.026 179.057 223.944C177.486 224.863 180.104 232.721 180.104 232.721L196.48 230.086C198.529 214.646 206.016 198.372 197.192 187.013C212.136 182.17 225.3 178.121 234.979 175.625L240.215 173.456L251.084 288.782L266.455 289.034C270.697 267.246 272.828 247.637 269.512 233.647C269.512 233.647 269.989 191.623 271.807 192.082C273.624 192.542 272.083 187.067 272.083 187.067C272.083 187.067 270.491 182.404 272.447 180.47C274.404 178.536 273.182 167.159 273.182 167.159C276.414 156.392 275.441 147.503 271.771 139.817Z" fill="#46474D"/>
<path d="M278.098 116.284C278.627 113.912 279.157 111.538 279.687 109.165C281.175 102.52 282.661 95.8771 284.145 89.2375C286.092 80.538 288.048 71.5357 286.373 62.7815C286.122 61.4649 285.77 60.1694 285.321 58.9064C282.812 51.7401 277.271 45.4606 269.924 44.1381L268.724 39.6715L252.329 37.6562L249.226 41.9295C242.547 41.3962 238.582 48.037 233.975 53.5095L232.144 55.3378C230.81 57.0043 230.536 63.2648 229.703 65.0889C225.998 73.2003 231.104 65.3175 230.924 74.2306C230.738 83.4668 228.919 92.4294 228.732 101.665C228.713 102.656 226.577 103.412 226.21 105.149C226.011 106.087 227.666 107.826 227.415 108.875C227.201 109.769 228.27 113.366 228.04 114.291C226.976 118.581 224.566 120.271 224.46 122.386C224.412 123.2 224.29 124.009 224.097 124.801C223.965 125.363 222.117 124.689 221.937 125.261C221.635 126.22 222.965 128.43 222.601 129.39C221.895 131.249 222.37 134.532 221.937 136.231C220.123 143.362 220.82 140.532 216.887 146.754C226.953 149.793 231.301 159.97 241.656 161.802C242.123 160.296 242.588 158.786 243.052 157.271C244.425 157.359 245.805 157.442 247.186 157.517C247.264 158.832 247.342 160.147 247.42 161.454C257.916 162.13 268.444 162.187 278.947 161.626C278.595 160.572 278.314 159.495 278.105 158.404C277.529 155.369 278.768 152.078 278.9 149.074C278.994 146.849 277.934 144.958 277.965 142.561C277.973 142.118 280.467 141.745 280.459 141.293C280.42 137.309 278.152 131.979 278.9 128.065C279.679 124.042 277.21 120.285 278.098 116.286L278.098 116.284Z" fill="#2F3139"/>
<path d="M201.409 20.0537C200.019 20.0553 198.686 20.6074 197.703 21.589C196.721 22.5705 196.168 23.9012 196.166 25.2893V56.8363C196.168 58.2243 196.721 59.5551 197.703 60.5366C198.686 61.5181 200.019 62.0702 201.409 62.0718H211.183C212.573 62.0702 213.905 61.5181 214.888 60.5366C215.871 59.5551 216.424 58.2243 216.426 56.8362C217.983 40.9847 217.411 32.43 216.426 25.2893C216.424 23.9012 215.871 22.5705 214.888 21.5889C213.905 20.6074 212.573 20.0553 211.183 20.0537L201.409 20.0537Z" fill="#F58218"/>
<path d="M200.189 20.0537C198.799 20.0553 197.466 20.6074 196.483 21.5889C195.5 22.5704 194.947 23.9011 194.946 25.2891C194.384 37.6899 193.994 49.5163 194.946 56.8361C194.947 58.2242 195.5 59.555 196.483 60.5365C197.466 61.5181 198.799 62.0702 200.189 62.0718H209.962C211.352 62.0702 212.685 61.5181 213.668 60.5366C214.651 59.555 215.204 58.2243 215.205 56.8362V25.2893C215.204 23.9012 214.651 22.5705 213.668 21.589C212.685 20.6075 211.352 20.0554 209.962 20.0537L200.189 20.0537Z" fill="#2F3139"/>
<path d="M225.35 65.9674C225.35 65.9674 234.594 65.593 229.889 69.5787C226.827 72.1724 219.932 90.2286 212.769 92.413C211.926 92.6697 211.038 92.7488 210.163 92.645C209.287 92.5413 208.443 92.2572 207.683 91.8105C206.923 91.3639 206.264 90.7645 205.748 90.0504C205.233 89.3363 204.871 88.523 204.687 87.662L198.193 57.4402L206.675 56.1519L211.844 80.0713L225.35 65.9674Z" fill="#A0616A"/>
<path d="M202.903 59.6473C206.216 59.6473 208.902 56.9653 208.902 53.6569C208.902 50.3485 206.216 47.6665 202.903 47.6665C199.59 47.6665 196.904 50.3485 196.904 53.6569C196.904 56.9653 199.59 59.6473 202.903 59.6473Z" fill="#A0616A"/>
<path d="M238.002 49.2621C237.937 49.3706 237.964 49.5091 238.063 49.5879C243.418 53.8613 244.965 67.1512 241.549 73.0213C234.948 84.3634 221.934 93.0959 221.379 91.8831C220.619 90.2223 219.294 92.4524 219.339 93.1825C219.384 93.9125 216.877 93.6948 217.169 94.4674C217.893 96.3819 213.551 95.9141 211.522 95.6511C209.036 95.329 205.733 94.5053 204.278 92.4049C202.491 89.8226 201.818 86.5297 201.582 84.8911C201.487 84.2294 201.231 83.5942 200.798 83.0851C199.54 81.6074 199.924 79.3519 201.6 78.3736L212.632 71.9338C213.434 71.4656 214.411 72.1697 214.221 73.0787C213.994 74.1628 215.36 74.8366 216.083 73.9969L221.226 68.0166C221.418 67.7932 221.577 67.5436 221.699 67.2753L222.658 65.1617C223.034 64.3317 223.682 63.6542 224.494 63.2401L224.695 63.1374C225.524 62.7148 226.149 61.9783 226.431 61.092C226.73 60.151 227.415 59.3815 228.315 58.9751L229.174 58.5875C229.348 58.5091 229.502 58.3937 229.626 58.2494L237.603 48.9744C237.8 48.7453 238.157 49.0026 238.002 49.2621Z" fill="#F58218"/>
<path d="M283.01 160.469C283.695 160.017 284.273 159.421 284.703 158.722C285.133 158.024 285.404 157.239 285.497 156.425C285.591 155.61 285.504 154.785 285.244 154.007C284.983 153.23 284.555 152.519 283.989 151.924L285.143 100.679L275.003 102.254L275.718 151.959C274.781 152.974 274.249 154.296 274.224 155.677C274.198 157.057 274.68 158.399 275.579 159.448C276.478 160.497 277.731 161.18 279.1 161.368C280.47 161.556 281.861 161.236 283.01 160.469Z" fill="#A0616A"/>
<path d="M281.4 57.3258C281.932 57.2408 283.752 58.4683 283.987 58.9533C284.399 59.8049 285.089 61.021 286.228 62.754C286.912 63.7948 287.376 67.9916 287.7 73.4681C287.806 75.2523 288.823 76.5057 288.902 78.4966C288.969 80.1863 288.101 82.5937 288.153 84.3459C288.18 85.2805 288.878 86.0937 288.902 87.0288C288.912 87.4186 288.249 87.9326 288.258 88.3209C288.269 88.7398 288.278 89.1574 288.288 89.5737C288.525 99.9824 288.576 109.383 288.811 109.224C289.313 108.886 288.066 110.636 288.69 110.928C289.313 111.22 288.157 112.67 288.455 113.421C288.818 114.337 288.367 115.347 288.082 116.266C287.695 117.512 287.451 118.676 287.227 119.69C286.88 121.26 287.639 123.117 288.251 124.605C288.878 126.128 287.183 127.23 285.562 126.938L276.748 125.346C275.082 125.046 273.167 123.365 272.938 121.688C272.601 119.225 273.764 117.012 273.667 114.527L273.475 109.581L270.357 73.6427C269.787 67.0664 273.449 60.8517 279.478 58.1638L281.271 57.3641C281.312 57.3458 281.356 57.3329 281.4 57.3258Z" fill="#F58218"/>
<path d="M194.751 28.145C194.546 28.145 194.379 28.2426 194.379 28.3627V30.1038C194.379 30.2238 194.546 30.3214 194.751 30.3214C194.956 30.3214 195.123 30.2238 195.123 30.1038V28.3627C195.123 28.2426 194.956 28.145 194.751 28.145Z" fill="#2F3139"/>
<path d="M194.751 32.7588C194.546 32.7588 194.379 32.8564 194.379 32.9764V36.3498C194.379 36.4699 194.546 36.5675 194.751 36.5675C194.956 36.5675 195.123 36.4699 195.123 36.3498V32.9764C195.123 32.8564 194.956 32.7588 194.751 32.7588Z" fill="#2F3139"/>
<path d="M215.503 33.3682C215.394 33.3806 215.293 33.4354 215.224 33.5207C215.154 33.606 215.121 33.7151 215.131 33.8246V40.8991C215.12 40.9543 215.12 41.0113 215.134 41.066C215.147 41.1208 215.173 41.1719 215.208 41.2156C215.244 41.2593 215.289 41.2945 215.34 41.3187C215.391 41.3429 215.447 41.3555 215.503 41.3555C215.559 41.3555 215.615 41.3429 215.666 41.3187C215.717 41.2945 215.762 41.2593 215.798 41.2156C215.833 41.1719 215.859 41.1208 215.872 41.066C215.885 41.0113 215.886 40.9543 215.875 40.8991V33.8246C215.885 33.7151 215.852 33.606 215.782 33.5207C215.713 33.4354 215.612 33.3806 215.503 33.3682Z" fill="#2F3139"/>
<path d="M194.142 38.1562C193.936 38.1562 193.77 38.2539 193.77 38.3739V41.7473C193.77 41.8674 193.936 41.9649 194.142 41.9649C194.347 41.9649 194.514 41.8673 194.514 41.7473V38.3739C194.514 38.2539 194.347 38.1562 194.142 38.1562Z" fill="#2F3139"/>
<path d="M259.378 36.0736C267.84 36.0736 274.699 29.2238 274.699 20.7741C274.699 12.3244 267.84 5.47461 259.378 5.47461C250.916 5.47461 244.057 12.3244 244.057 20.7741C244.057 29.2238 250.916 36.0736 259.378 36.0736Z" fill="#A0616A"/>
<path d="M276.485 27.8038C275.289 30.1942 274.15 31.6891 272.082 33.0253C271.977 32.7207 271.892 32.4095 271.828 32.0937C271.608 32.585 271.393 33.0752 271.168 33.5677C269.859 34.2972 271.271 33.1717 269.13 33.9873L267.328 30.9001C266.835 29.4347 267.534 27.8386 268.423 26.5704C269.313 25.3074 270.421 24.1494 270.903 22.681C271.386 21.2127 270.958 19.2673 269.511 18.7208C268.087 18.1749 266.513 19.2104 264.999 19.0305C263.251 18.8247 262.062 16.9988 261.967 15.2422C261.873 13.4855 262.59 11.7988 263.293 10.1913C261.176 11.7059 254.62 14.4193 251.051 14.549C250.955 13.4373 250.44 12.4033 249.611 11.6553C249.756 12.6674 249.51 13.6967 248.921 14.5333C245.427 14.3544 244.77 19.4225 242.966 17.5873C243.529 17.3043 241.454 11.0059 242.017 10.7229C241.583 9.5371 241.151 8.35476 240.719 7.17586C241.522 7.37792 242.331 7.58405 243.139 7.78501C243.189 7.35395 243.32 6.93622 243.526 6.55373C244.102 6.2258 244.715 5.9674 245.352 5.78396C245.557 5.7292 245.767 5.67335 245.98 5.62785C246.295 5.55784 246.613 5.50598 246.934 5.47253C246.469 5.20353 246.001 4.9408 245.535 4.66665C245.479 4.63519 245.429 4.60262 245.374 4.57116C246.028 4.12217 246.711 3.71719 247.419 3.3589C250.405 1.79927 253.503 0.210083 256.869 0.0156833C259.055 -0.12333 261.223 0.499674 263.001 1.77839C264.534 2.87798 266.39 3.43567 268.276 3.36322C269.194 3.35625 270.101 3.55797 270.929 3.95312C270.549 4.33444 270.135 4.67893 269.69 4.98193C270.661 5.00714 271.627 5.03347 272.599 5.06387C273.688 6.05327 274.606 7.21492 275.317 8.5022C278.723 14.3125 279.501 21.7845 276.485 27.8038Z" fill="#46474D"/>
<path d="M227.283 266.16C227.167 265.396 226.87 264.671 226.416 264.045C225.963 263.419 225.366 262.91 224.676 262.561C218.199 259.251 211.411 256.587 204.41 254.608L197.858 263.233L202.7 254.132C184.779 249.331 165.941 249.064 147.891 253.356L150.41 260.293L146.294 253.753C138.166 255.794 130.296 258.749 122.835 262.561C122.149 262.912 121.554 263.421 121.102 264.045C120.649 264.669 120.35 265.391 120.23 266.152C120.109 266.913 120.171 267.692 120.41 268.425C120.648 269.158 121.057 269.825 121.602 270.37C124.434 270.544 126.305 273.172 128.172 276.93C128.887 277.635 129.803 278.102 130.794 278.267C131.786 278.432 132.804 278.287 133.709 277.851C146.221 271.909 159.901 268.826 173.756 268.826C187.61 268.826 201.291 271.909 213.802 277.851C214.708 278.287 215.726 278.432 216.717 278.267C217.708 278.102 218.624 277.635 219.339 276.93C220.462 273.891 222.775 272.094 225.91 270.37C226.458 269.828 226.868 269.163 227.107 268.431C227.346 267.699 227.406 266.92 227.283 266.16Z" fill="#F58218"/>
<path d="M191.088 295.86C189.653 295.635 188.21 295.439 186.758 295.271L181.066 304.315L185.307 295.117C178.416 294.414 171.475 294.341 164.57 294.899L168.912 304.315L163.068 295.029C160.838 295.24 158.624 295.518 156.426 295.86C155.673 295.972 154.968 296.293 154.39 296.786C153.812 297.28 153.385 297.927 153.158 298.652C152.917 299.383 152.884 300.167 153.063 300.916C153.242 301.664 153.626 302.349 154.172 302.892C156.522 305.191 159.114 308.384 163.372 312.079C163.788 312.5 164.289 312.825 164.843 313.033C165.397 313.241 165.989 313.326 166.579 313.283C168.939 313.109 171.354 313.02 173.757 313.02C176.159 313.02 178.575 313.109 180.934 313.283C181.524 313.325 182.116 313.24 182.67 313.032C183.224 312.824 183.726 312.499 184.142 312.079C188.539 308.331 190.761 304.894 193.342 302.892C193.888 302.349 194.272 301.665 194.451 300.916C194.63 300.167 194.597 299.383 194.355 298.652C194.129 297.927 193.702 297.28 193.124 296.786C192.546 296.292 191.84 295.972 191.088 295.86Z" fill="#F58218"/>
</g>
<defs>
<clipPath id="clip0_19_8451">
<rect width="438" height="315" fill="white" transform="translate(-31)"/>
</clipPath>
</defs>
</svg>
