<svg width="135" height="116" viewBox="0 0 135 116" fill="none" xmlns="http://www.w3.org/2000/svg">
<g clip-path="url(#clip0_42_4411)">
<path d="M130.141 94.9191H4.85916C2.17987 94.9191 0 92.7077 0 89.9895V74.6924H135V89.9895C135 92.7077 132.82 94.9191 130.141 94.9191Z" fill="#E6E6E6"/>
<path d="M83.714 92.3604H51.7656V115.511H83.714V92.3604Z" fill="#E6E6E6"/>
<path d="M85.6355 112.587H49.8438V115.511H85.6355V112.587Z" fill="#E6E6E6"/>
<path d="M134.88 81.1504H0V3.38293C0 1.51762 1.49594 0 3.3346 0H131.545C133.384 0 134.88 1.51762 134.88 3.38293V81.1504Z" fill="#2F3139"/>
<path d="M131.637 3.53369H3.12305V76.8859H131.637V3.53369Z" fill="white"/>
<path d="M28.011 47.2536C28.9946 46.4291 30.2112 46.2756 30.7284 46.9107C31.2455 47.5459 30.8673 48.7289 29.8832 49.5536C29.4946 49.8885 29.0325 50.1242 28.5357 50.2408L24.3246 53.681L22.7754 51.6418L27.0913 48.4668C27.2979 47.9937 27.6133 47.5777 28.011 47.2536Z" fill="#FFB6B6"/>
<path d="M3.6701 55.0156C3.66797 54.8634 3.66937 53.5363 4.63782 52.6975C5.75031 51.734 7.32008 52.124 7.87066 52.2608C9.14252 52.5768 9.24683 53.1303 10.4412 53.699C12.6759 54.763 9.87597 54.2184 11.2056 53.8772C11.6659 53.7591 18.2873 53.2933 19.9355 52.2641C23.1411 50.2626 25.3252 49.0488 25.3252 49.0488L26.753 51.9459C26.753 51.9459 24.6884 54.8583 21.7826 57.0159C18.8019 59.2291 17.3116 60.3357 15.0467 60.7632C14.8516 60.8 10.0547 61.6309 6.19118 58.7026C5.30992 58.0347 3.69526 56.8109 3.6701 55.0156Z" fill="#F58218"/>
<path d="M8.09894 47.6477C10.846 47.6477 13.0729 45.3885 13.0729 42.6017C13.0729 39.8149 10.846 37.5557 8.09894 37.5557C5.35191 37.5557 3.125 39.8149 3.125 42.6017C3.125 45.3885 5.35191 47.6477 8.09894 47.6477Z" fill="#FFB6B6"/>
<path d="M47.0539 76.5026L41.9314 71.1831L39.2871 73.9814L43.1035 79.0818L46.8891 79.521L47.0539 76.5026Z" fill="#FFB6B6"/>
<path d="M17.8034 66.5275C18.103 66.5528 19.0551 66.7463 19.9652 66.2384C20.5863 65.8917 20.9048 65.3763 21.0124 65.2123C22.3471 63.1787 27.4699 60.0076 32.0675 59.8124C33.1086 59.7682 33.794 59.8906 34.4169 60.22C35.3001 60.6871 35.6527 61.3562 36.7735 62.9235C37.3866 63.7808 38.065 64.5885 38.6855 65.4404C42.3182 70.4276 43.6953 70.8191 43.5545 72.418C43.3984 74.1919 41.5125 75.875 40.2591 75.6807C39.7458 75.6011 39.547 75.239 38.8612 74.506C36.8503 72.3566 36.0184 72.7537 34.5867 71.1074C32.9152 69.1854 33.134 67.5917 32.262 67.5301C31.4533 67.4731 31.1096 68.8326 29.3831 70.6387C28.5931 71.4651 28.0306 71.8442 26.3167 73.0504C19.6424 77.7478 19.5359 78.0779 18.189 78.4525C17.5997 78.6164 13.417 79.7798 11.927 77.9284C9.59541 75.0314 15.1037 66.3 17.8034 66.5275Z" fill="#2F3139"/>
<path d="M45.4877 77.7049C45.8644 77.5333 46.3049 77.3326 46.4467 76.8712C46.5426 76.5589 46.4873 76.1739 46.2891 75.9079C46.0604 75.6009 45.7219 75.5604 45.7356 75.5061C45.7564 75.4234 46.5569 75.4558 47.4357 75.7709C47.6015 75.8304 48.3528 76.1088 49.3084 76.8657C50.074 77.4721 49.971 77.5937 50.4511 77.9433C51.9249 79.0166 53.3071 78.1707 54.1046 79.1772C54.4124 79.5657 54.5436 80.1172 54.4141 80.5632C54.154 81.4587 52.8891 81.7669 52.1978 81.9261C50.5329 82.3093 49.2727 81.9964 47.9569 81.7715C43.4819 81.0065 40.9675 81.7032 40.631 80.6515C40.5673 80.4524 40.6708 80.4694 41.0158 79.0086C41.3564 77.5668 41.3452 77.1709 41.6352 77.0554C42.0718 76.8816 42.365 77.6722 43.4648 77.9427C44.4394 78.1825 45.2436 77.8161 45.4877 77.7049Z" fill="#2F3139"/>
<path d="M37.9471 93.9047L36.6529 86.585L32.916 87.394L33.2508 93.7885L36.14 96.3084L37.9471 93.9047Z" fill="#FFB6B6"/>
<path d="M19.2652 68.9881C19.4992 69.1797 20.1799 69.8822 21.2141 69.9803C21.9199 70.0473 22.4687 69.8023 22.6485 69.7279C24.8785 68.8055 30.8727 69.0999 34.785 71.5576C35.6709 72.1141 36.1703 72.6058 36.5034 73.2332C36.9757 74.1229 36.8971 74.8774 36.957 76.8128C36.9897 77.8714 37.104 78.9262 37.1459 79.9846C37.3913 86.1807 38.3141 87.2891 37.3126 88.5319C36.2015 89.9109 33.7094 90.2291 32.7798 89.3543C32.3991 88.9961 32.435 88.5832 32.2733 87.586C31.7991 84.662 30.8909 84.5166 30.6176 82.3388C30.2984 79.7962 31.3616 78.6021 30.6741 78.0544C30.0365 77.5465 28.9996 78.4757 26.5713 78.9866C25.4602 79.2203 24.7848 79.2136 22.699 79.2353C14.5764 79.32 14.3055 79.5324 12.9836 79.0751C12.4053 78.875 8.30042 77.4549 8.09226 75.0742C7.76652 71.3487 17.1573 67.2619 19.2652 68.9881Z" fill="#2F3139"/>
<path d="M35.9855 94.0076C36.3922 94.0802 36.8678 94.1651 37.2405 93.864C37.4927 93.6602 37.6601 93.3102 37.6433 92.9771C37.624 92.5928 37.3663 92.3665 37.4077 92.3294C37.4707 92.2728 38.1152 92.7556 38.6679 93.517C38.7722 93.6606 39.2397 94.319 39.6115 95.4897C39.9093 96.4276 39.7568 96.4695 39.9605 97.0323C40.5859 98.76 42.1979 98.8475 42.3006 100.135C42.3403 100.631 42.1436 101.163 41.7896 101.458C41.0786 102.051 39.8614 101.585 39.2013 101.323C37.6116 100.692 36.742 99.7148 35.7777 98.7791C32.4983 95.5968 30.0322 94.7409 30.3359 93.6789C30.3933 93.4779 30.4696 93.5509 31.5636 92.5388C32.6435 91.5398 32.8534 91.2058 33.1573 91.2755C33.6147 91.3804 33.4197 92.2015 34.18 93.0519C34.8538 93.8055 35.722 93.9605 35.9855 94.0076Z" fill="#2F3139"/>
<path d="M8.77711 43.5663C8.97075 42.8636 8.72753 42.6075 8.97543 42.2921C8.97543 42.2921 9.07519 42.1651 9.96702 41.8226C9.70389 40.2738 9.90091 40.0119 9.90091 40.0119C10.128 39.7101 10.5828 39.6371 10.8925 39.6766C11.5474 39.7601 11.6634 40.3607 12.0824 40.3472C12.6613 40.3286 13.3556 39.153 13.1401 38.1341C12.9643 37.303 12.2063 36.6857 12.0163 36.7928C11.8279 36.899 11.1497 36.4307 10.8925 36.5246C10.7169 36.5886 9.89007 36.5034 9.7026 36.5916C9.49787 36.688 8.91156 37.2879 8.85551 37.2123C8.46597 36.687 8.47426 36.5036 8.24826 36.3904C7.8478 36.1898 7.41243 36.5606 6.66172 36.9269C5.11711 37.6807 4.66483 37.2311 3.95137 37.8658C3.59097 38.1865 3.3977 38.7993 3.02589 40.0119C2.5059 41.7077 2.24591 42.5555 2.49704 43.3651C2.75314 44.1907 3.13029 44.011 3.68695 45.1758C4.3066 46.4725 4.09303 47.2261 4.67854 47.5231C5.13106 47.7526 5.8583 47.6065 6.13287 47.1878C6.60298 46.4708 5.3879 45.501 5.80234 44.3711C6.05674 43.6775 6.84152 43.1516 7.32278 43.298C7.86695 43.4636 7.90702 44.4534 8.24827 44.4381C8.54049 44.425 8.74337 43.6887 8.77711 43.5663Z" fill="#2F3139"/>
<path d="M5.0095 48.3948C6.02735 47.2371 10.1733 48.4354 10.5624 50.2726C10.7225 51.0283 10.1316 51.3474 10.298 52.2175C10.5414 53.4901 11.9194 53.4034 12.9422 54.6989C14.3944 56.5381 12.8984 58.336 14.5288 61.4053C14.8772 62.0612 15.1708 62.614 15.7848 63.149C17.1937 64.3766 18.5049 63.9556 19.2223 65.0938C19.7588 65.945 19.5384 66.9941 19.4867 67.2399C19.275 68.2476 18.7012 68.4931 18.2968 69.3189C17.6241 70.6927 18.3858 71.7013 18.429 73.3427C18.4831 75.3964 17.4074 78.2432 15.2559 79.1773C12.8389 80.2267 9.92376 78.4887 8.51311 76.763C7.67137 75.7333 7.42703 74.7834 7.05878 73.611C5.413 68.3712 4.48321 68.845 3.22463 64.6914C1.78584 59.9431 1.503 54.3802 3.22463 52.6199C3.45283 52.3866 4.08082 51.8473 4.48065 50.8762C5.01866 49.5695 4.55387 48.9131 5.0095 48.3948Z" fill="#F58218"/>
<path d="M20.0488 75.3467C20.838 76.3638 20.9603 77.6014 20.3221 78.1108C19.684 78.6202 18.5271 78.2085 17.7378 77.1908C17.417 76.7887 17.1958 76.3145 17.0927 75.8079L13.8027 71.4551L15.5027 70.1396L18.8752 74.3851C19.3365 74.6059 19.7389 74.9356 20.0488 75.3467Z" fill="#FFB6B6"/>
<path d="M8.00018 52.8071C8.14655 52.7739 9.42746 52.5046 10.4345 53.2952C11.5913 54.2035 11.5352 55.8421 11.5156 56.4168C11.4702 57.7444 10.9574 57.961 10.6523 59.2632C10.0815 61.6996 11.1685 63.9639 11.7691 65.2148C11.9769 65.6478 12.6448 66.9728 13.9742 68.3997C16.5597 71.1749 18.8666 72.6351 18.8666 72.6351L16.3883 74.87C16.3883 74.87 12.4407 73.6493 9.76573 71.2037C7.02187 68.695 2.80229 59.819 1.92756 57.6569C1.85223 57.4707 2.91928 60.4978 4.95668 56.0632C5.42141 55.0517 6.27289 53.1984 8.00018 52.8071Z" fill="#F58218"/>
<path d="M71.4317 50.7251L68.4727 49.3031C69.6863 51.0214 70.7321 53.705 71.292 55.8405C72.24 53.8513 73.7681 51.4174 75.2807 49.9635L72.1533 50.7797C74.0804 41.1983 81.3287 34.3197 89.629 34.3197L89.7465 33.9736C81.0766 33.9736 73.3993 40.7568 71.4317 50.7251Z" fill="#2F3139"/>
<path d="M85.0507 65.3243H66.3542C65.5612 65.3243 64.916 64.6698 64.916 63.8653C64.916 63.0608 65.5612 62.4062 66.3542 62.4062H85.0507C85.8437 62.4062 86.4889 63.0608 86.4889 63.8653C86.4889 64.6698 85.8437 65.3243 85.0507 65.3243Z" fill="#F58218"/>
<path d="M109.93 65.3243H91.2331C90.4401 65.3243 89.7949 64.6698 89.7949 63.8653C89.7949 63.0608 90.4401 62.4062 91.2331 62.4062H109.93C110.723 62.4062 111.368 63.0608 111.368 63.8653C111.368 64.6698 110.723 65.3243 109.93 65.3243Z" fill="#E6E6E6"/>
<path d="M98.8603 25.6327H80.6865C80.2283 25.6327 79.8555 25.2545 79.8555 24.7896C79.8555 24.3248 80.2283 23.9468 80.6865 23.9468H98.8603C99.3185 23.9468 99.6911 24.3248 99.6911 24.7896C99.6911 25.2545 99.3185 25.6327 98.8603 25.6327Z" fill="#2F3139"/>
<path d="M108.613 34.6263H70.9345C70.4763 34.6263 70.1035 34.2481 70.1035 33.7833C70.1035 33.3185 70.4763 32.9404 70.9345 32.9404H108.613C109.071 32.9404 109.444 33.3185 109.444 33.7833C109.444 34.2481 109.071 34.6263 108.613 34.6263Z" fill="#2F3139"/>
<path d="M8.16992 115.727C8.16992 115.879 8.2898 116 8.43907 116H126.562C126.711 116 126.831 115.879 126.831 115.727C126.831 115.576 126.711 115.454 126.562 115.454H8.43907C8.2898 115.454 8.16992 115.576 8.16992 115.727Z" fill="#2F3139" fill-opacity="0.21"/>
<path d="M37.1744 51.0042C37.1423 51.0042 37.1104 51.003 37.0782 51.001C35.1855 50.8777 28.7091 49.948 24.8427 43.166C24.524 42.6076 24.5868 41.8977 24.9988 41.3997L32.1591 32.7448C32.452 32.3908 32.9043 32.1869 33.3624 32.1925C33.679 32.2001 34.4287 32.2813 34.5743 32.8676C35.4344 36.3313 39.0666 40.404 43.4348 40.9439C43.8776 40.9985 44.233 41.3992 44.3855 42.0157C44.5046 42.4957 44.3946 42.9905 44.0837 43.3732L38.3476 50.4395C38.0562 50.7984 37.6286 51.0042 37.1744 51.0042ZM33.3349 32.5407C32.985 32.5407 32.6447 32.6997 32.4222 32.9686L25.2619 41.6235C24.9423 42.0098 24.8934 42.5595 25.1398 42.9915C28.921 49.624 35.2505 50.5328 37.1003 50.6533C37.4781 50.679 37.8408 50.5157 38.0826 50.2181L43.8187 43.1517C44.0595 42.8553 44.1447 42.4723 44.0526 42.1006C43.9626 41.7368 43.742 41.3327 43.3932 41.2895C38.8807 40.732 35.1292 36.528 34.2413 32.9526C34.1694 32.6631 33.7364 32.55 33.3553 32.5408C33.3485 32.5407 33.3417 32.5407 33.3349 32.5407Z" fill="#2F3139"/>
<path d="M29.1821 43.451L34.3445 38.1112C34.6973 37.7461 34.1445 37.1844 33.7912 37.5499L28.6289 42.8897C28.276 43.2547 28.8288 43.8165 29.1821 43.451Z" fill="#E6E6E6"/>
<path d="M32.2976 44.9553C33.7223 43.6598 34.9604 42.1598 35.9742 40.5139C36.2418 40.0794 35.5651 39.6805 35.2986 40.1132C34.3184 41.7045 33.1215 43.1417 31.7443 44.394C31.3685 44.7357 31.9234 45.2956 32.2976 44.9553Z" fill="#E6E6E6"/>
<path d="M35.1055 46.7565C36.4027 45.2988 37.5069 43.6718 38.3762 41.9169C38.6017 41.4616 37.9269 41.0592 37.7005 41.5162C36.8606 43.2118 35.8058 44.7865 34.5522 46.1952C34.2155 46.5736 34.7672 47.1367 35.1055 46.7565Z" fill="#E6E6E6"/>
<path d="M32.8941 37.1433C35.7685 37.1433 38.0987 34.8291 38.0987 31.9745C38.0987 29.1198 35.7685 26.8057 32.8941 26.8057C30.0196 26.8057 27.6895 29.1198 27.6895 31.9745C27.6895 34.8291 30.0196 37.1433 32.8941 37.1433Z" fill="#F58218"/>
<path d="M35.6026 34.4262C34.8022 32.4296 34.0017 30.4331 33.2013 28.4366C33.0907 28.1608 32.7444 28.151 32.6365 28.4366C31.8456 30.5298 31.3288 32.714 31.0803 34.9409C31.038 35.3203 31.624 35.3172 31.666 34.9409C31.7632 34.0695 31.9076 33.2045 32.0929 32.3488C32.7525 32.3839 33.4175 32.3088 34.054 32.1301C34.3819 32.9481 34.7099 33.7661 35.0379 34.5841C35.178 34.9337 35.7448 34.7808 35.6026 34.4262ZM32.2257 31.7614C32.423 30.9422 32.6595 30.1327 32.9339 29.3363L33.8315 31.5752C33.3058 31.7152 32.7681 31.7775 32.2257 31.7614Z" fill="white"/>
</g>
<defs>
<clipPath id="clip0_42_4411">
<rect width="135" height="116" fill="white"/>
</clipPath>
</defs>
</svg>
