<svg width="110" height="133" viewBox="0 0 110 133" fill="none" xmlns="http://www.w3.org/2000/svg">
<path d="M98.293 127.057C98.0735 127.057 97.8559 127.061 97.6395 127.068C96.0289 124.109 92.8923 122.101 89.2868 122.101C87.7538 122.101 86.3073 122.466 85.025 123.11C82.9881 118.987 78.7422 116.15 73.832 116.15C72.2383 116.15 70.7169 116.454 69.3154 116.999C66.8549 112.542 62.3649 109.365 57.0914 108.711V96.2627C57.0914 95.0876 57.4347 93.9179 58.1666 92.9989C58.7028 92.3254 59.0238 91.4736 59.0238 90.5457C59.0238 90.5434 59.0234 90.5411 59.0234 90.5388C59.0684 90.5403 59.1126 90.5457 59.1579 90.5457C61.6149 90.5457 63.5953 88.5046 63.4958 86.0256C63.4073 83.8219 61.6061 81.9911 59.4039 81.8696C57.4116 81.7597 55.6961 82.9955 55.0715 84.7491C54.4468 82.9955 52.7313 81.7593 50.739 81.8696C48.5368 81.9915 46.7356 83.8219 46.6472 86.0256C46.548 88.5046 48.528 90.5457 50.985 90.5457C51.0304 90.5457 51.0746 90.5403 51.1196 90.5388C51.1196 90.5411 51.1192 90.5434 51.1192 90.5457C51.1192 91.474 51.4401 92.3258 51.9764 92.9989C52.7082 93.9179 53.0515 95.0876 53.0515 96.2627V108.681C47.6712 109.265 43.0793 112.473 40.5804 116.999C39.1793 116.454 37.6579 116.15 36.0638 116.15C31.1536 116.15 26.9076 118.987 24.8708 123.11C23.5888 122.466 22.142 122.101 20.609 122.101C17.0031 122.101 13.8668 124.109 12.2563 127.068C12.0398 127.061 11.8223 127.057 11.6028 127.057C6.02185 127.057 1.33229 129.295 0 132.323H109.895C108.563 129.294 103.874 127.057 98.293 127.057Z" fill="#CECECE"/>
<path d="M41.506 124.583C42.7253 118.721 48.6641 119.492 48.6641 119.492C48.9051 117.463 50.8086 117.846 50.8086 117.846C51.3571 115.047 54.5944 115.484 54.5944 115.484V92.9125C53.6796 91.4253 54.2581 89.7628 54.2581 89.7628C52.2197 89.5003 51.4847 87.1002 51.4847 87.1002L52.2047 82.9388L52.2381 82.0493C51.7673 81.9071 51.2633 81.8406 50.739 81.8698C48.5368 81.9916 46.7356 83.8221 46.6472 86.0258C46.548 88.5047 48.528 90.5458 50.985 90.5458C51.0304 90.5458 51.0746 90.5405 51.1196 90.5389C51.1196 90.5412 51.1192 90.5435 51.1192 90.5458C51.1192 91.4741 51.4401 92.3259 51.9764 92.999C52.7082 93.9181 53.0515 95.0878 53.0515 96.2629V108.681C47.6712 109.265 43.0793 112.473 40.5804 116.999C39.1793 116.454 37.6579 116.15 36.0638 116.15C31.1536 116.15 26.9076 118.987 24.8708 123.111C23.5888 122.466 22.142 122.101 20.609 122.101C17.0031 122.101 13.8668 124.109 12.2563 127.068C12.0398 127.061 11.8223 127.057 11.6028 127.057C6.02185 127.057 1.33229 129.295 0 132.323H31.4988C32.4236 123.878 41.506 124.583 41.506 124.583Z" fill="#E0E0E0"/>
<path d="M59.2656 121.346C59.2656 121.346 65.0599 120.383 64.6148 127.558C64.6148 127.558 66.7893 126.508 67.3605 128.607C67.3605 128.607 71.6353 125.574 73.706 131.057C73.706 131.057 73.385 124.962 67.8998 127.032C67.8998 127.032 67.2613 125.574 65.8906 125.866C65.8906 125.866 65.8902 119.713 59.2656 121.346Z" fill="#E0E0E0"/>
<path d="M73.6953 120.409C73.6953 120.409 78.5267 119.607 78.1558 125.588C78.1558 125.588 79.9689 124.713 80.4452 126.464C80.4452 126.464 84.0096 123.935 85.7359 128.506C85.7359 128.506 85.4684 123.424 80.8945 125.151C80.8945 125.151 80.3622 123.935 79.2194 124.178C79.2194 124.178 79.219 119.047 73.6953 120.409Z" fill="#E0E0E0"/>
<path d="M42.3968 64.863L37.7127 68.7477C35.5985 70.5009 34.375 73.1047 34.375 75.8512V79.6747C34.375 81.145 35.6892 82.267 37.1414 82.0368L45.1452 80.7656L49.7071 66.5101L42.3968 64.863Z" fill="#E67B18"/>
<path d="M39.4858 80.5159C38.0336 80.7465 36.719 79.6245 36.719 78.1538V74.3303C36.719 71.5838 37.9425 68.98 40.0567 67.2268L42.7981 64.9531L42.3968 64.8628L37.7127 68.7474C35.5985 70.5006 34.375 73.1045 34.375 75.8509V79.6745C34.375 81.1448 35.6892 82.2672 37.1414 82.0365L45.1452 80.7654L45.5323 79.5557L39.4858 80.5159Z" fill="#F58218"/>
<path d="M67.7552 64.863L72.4394 68.7477C74.5536 70.5009 75.7771 73.1047 75.7771 75.8512V79.6747C75.7771 81.145 74.4625 82.267 73.0106 82.0368L65.0069 80.7656L60.4453 66.5105L67.7552 64.863Z" fill="#E67B18"/>
<path d="M70.6683 80.5159C72.1205 80.7465 73.4348 79.6245 73.4348 78.1538V74.3303C73.4348 71.5838 72.2112 68.98 70.0971 67.2268L67.3556 64.9531L67.757 64.8628L72.4411 68.7474C74.5553 70.5006 75.7788 73.1045 75.7788 75.8509V79.6745C75.7788 81.1448 74.4645 82.2672 73.0119 82.0365L65.0082 80.7654L64.6211 79.5557L70.6683 80.5159Z" fill="#F58218"/>
<path d="M65.3397 77.8503H44.8125V87.1003H65.3397V77.8503Z" fill="#F58218"/>
<path d="M50.1344 77.8503H44.8125V87.1003H50.1344V77.8503Z" fill="#E67B18"/>
<path d="M65.3375 77.8503H60.0156V87.1003H65.3375V77.8503Z" fill="#E47815"/>
<path d="M44.7016 78.8008H65.4494C75.071 69.9157 81.1002 57.1978 81.1002 43.0684C81.1002 24.3709 70.5479 8.14084 55.0755 0.000244141C39.603 8.14084 29.0508 24.3709 29.0508 43.0684C29.0508 57.1978 35.0799 69.9153 44.7016 78.8008Z" fill="#E0E0E0"/>
<path d="M55.0742 0C63.0784 8.1406 68.5375 24.3707 68.5375 43.0681C68.5375 57.1979 65.4185 69.9154 60.4411 78.8006H65.4481C75.0698 69.9154 81.0989 57.1975 81.0989 43.0681C81.0989 24.3707 70.5467 8.1406 55.0742 0Z" fill="#F9F9F9"/>
<path d="M29.0508 43.0681C29.0508 57.1979 35.0799 69.9154 44.7016 78.8006H49.709C44.7316 69.9154 41.6126 57.1975 41.6126 43.0681C41.6126 24.3707 47.0717 8.1406 55.0759 0C39.6034 8.1406 29.0508 24.3707 29.0508 43.0681Z" fill="#B5B5B5"/>
<path d="M32.0039 26.3422H78.1437C73.9765 14.967 65.6822 5.58133 55.0738 0C44.4654 5.58172 36.1711 14.967 32.0039 26.3422Z" fill="#F58218"/>
<path d="M32.0039 26.3422H43.1631C45.3145 14.967 49.597 5.58133 55.0738 0C44.4654 5.58172 36.1711 14.967 32.0039 26.3422Z" fill="#E67B18"/>
<path d="M55.0742 0C60.5514 5.58172 64.8335 14.967 66.9853 26.3422H78.1445C73.9773 14.967 65.683 5.58172 55.0742 0Z" fill="#E47815"/>
<path d="M78.2048 28.3699H31.9551C31.4304 28.3699 30.9549 28.1574 30.6113 27.8133C30.2673 27.4693 30.0547 26.9942 30.0547 26.4695C30.0547 25.9448 30.2673 25.4693 30.6113 25.1257C30.9553 24.7817 31.4304 24.5691 31.9551 24.5691H78.2048C78.7295 24.5691 79.205 24.7817 79.5487 25.1257C79.8927 25.4697 80.1053 25.9448 80.1053 26.4695C80.1053 27.0822 79.8154 27.6273 79.3649 27.9748C79.0443 28.2223 78.6419 28.3699 78.2048 28.3699Z" fill="#E5C22E"/>
<path d="M41.582 26.469C41.582 25.9443 41.7946 25.4692 42.1386 25.1252C42.4826 24.7812 42.9577 24.5686 43.4824 24.5686H31.9473C31.4226 24.5686 30.9475 24.7812 30.6035 25.1252C30.2594 25.4692 30.0469 25.9443 30.0469 26.469C30.0469 26.9937 30.2594 27.4692 30.6035 27.8129C30.9475 28.1569 31.4226 28.3694 31.9473 28.3694H43.4824C42.9574 28.3694 42.4823 28.1569 42.1386 27.8129C41.795 27.4692 41.582 26.9937 41.582 26.469Z" fill="#C6A517"/>
<path d="M68.5137 26.469C68.5137 26.9937 68.3011 27.4692 67.9571 27.8129C67.6131 28.1569 67.138 28.3694 66.6133 28.3694H78.148C78.6727 28.3694 79.1482 28.1569 79.4919 27.8129C79.8359 27.4688 80.0485 26.9937 80.0485 26.469C80.0485 25.9443 79.8359 25.4692 79.4919 25.1252C79.1478 24.7812 78.6727 24.5686 78.148 24.5686H66.6133C67.138 24.5686 67.6135 24.7812 67.9571 25.1252C68.3011 25.4692 68.5137 25.9443 68.5137 26.469Z" fill="#FFE05C"/>
<path d="M66.6386 80.7015H43.5137C42.989 80.7015 42.5135 80.4889 42.1699 80.1449C41.8258 79.8009 41.6133 79.3257 41.6133 78.8011C41.6133 78.2764 41.8258 77.8009 42.1699 77.4572C42.5139 77.1132 42.989 76.9006 43.5137 76.9006H66.6386C67.1636 76.9006 67.6388 77.1132 67.9824 77.4572C68.3264 77.8013 68.539 78.2764 68.539 78.8011C68.539 79.4138 68.2492 79.9588 67.7987 80.3063C67.4781 80.5543 67.0756 80.7015 66.6386 80.7015Z" fill="#E5C22E"/>
<path d="M47.4737 78.8011C47.4737 78.2764 47.6862 77.8009 48.0303 77.4572C48.3743 77.1132 48.8494 76.9006 49.3741 76.9006H43.5137C42.989 76.9006 42.5135 77.1132 42.1699 77.4572C41.8258 77.8013 41.6133 78.2764 41.6133 78.8011C41.6133 79.3257 41.8258 79.8012 42.1699 80.1449C42.5139 80.4889 42.989 80.7015 43.5137 80.7015H49.3741C48.8494 80.7015 48.3739 80.4889 48.0303 80.1449C47.6862 79.8009 47.4737 79.3257 47.4737 78.8011Z" fill="#C6A517"/>
<path d="M62.6778 78.8011C62.6778 79.3257 62.4652 79.8012 62.1212 80.1449C61.7771 80.4889 61.302 80.7015 60.7773 80.7015H66.6377C67.1628 80.7015 67.6379 80.4889 67.9816 80.1449C68.3256 79.8009 68.5382 79.3257 68.5382 78.8011C68.5382 78.2764 68.3256 77.8009 67.9816 77.4572C67.6375 77.1132 67.1624 76.9006 66.6377 76.9006H60.7773C61.302 76.9006 61.7775 77.1132 62.1212 77.4572C62.4648 77.8009 62.6778 78.276 62.6778 78.8011Z" fill="#FFE05C"/>
<path d="M63.6084 54.1374C68.3221 49.4237 68.3221 41.7814 63.6084 37.0677C58.8948 32.354 51.2524 32.354 46.5388 37.0677C41.8251 41.7814 41.8251 49.4237 46.5388 54.1374C51.2524 58.8511 58.8948 58.851 63.6084 54.1374Z" fill="#F58218"/>
<path d="M55.0746 55.1849C60.3669 55.1849 64.6571 50.8947 64.6571 45.6025C64.6571 40.3102 60.3669 36.02 55.0746 36.02C49.7824 36.02 45.4922 40.3102 45.4922 45.6025C45.4922 50.8947 49.7824 55.1849 55.0746 55.1849Z" fill="#E67B18"/>
<path d="M60.8081 51.3367C63.975 48.1698 63.975 43.0352 60.8081 39.8683C57.6412 36.7014 52.5066 36.7014 49.3397 39.8683C46.1728 43.0352 46.1728 48.1698 49.3397 51.3367C52.5066 54.5037 57.6412 54.5037 60.8081 51.3367Z" fill="#2B3B66"/>
<path opacity="0.2" d="M62.859 47.8601L57.3314 53.3873C56.6142 53.5949 55.8585 53.7121 55.0743 53.7121C54.7995 53.7121 54.5281 53.6979 54.2606 53.671L63.1426 44.7889C63.1692 45.0564 63.1838 45.3278 63.1838 45.6026C63.1838 46.3868 63.0665 47.1425 62.859 47.8601ZM60.7425 39.8083L49.28 51.2708C49.5103 51.5061 49.7551 51.7263 50.0123 51.9324L61.404 40.5406C61.198 40.2831 60.9778 40.0386 60.7425 39.8083ZM62.977 43.8048C62.8939 43.4378 62.7836 43.0818 62.6525 42.7359L52.2075 53.1809C52.5539 53.3119 52.9098 53.4223 53.2765 53.5053L62.977 43.8048ZM55.0743 37.4932C54.5296 37.4932 53.9984 37.5489 53.4837 37.6512L47.1228 44.012C47.0206 44.5267 46.9648 45.0579 46.9648 45.6026C46.9648 46.0285 47.0075 46.4433 47.0709 46.8515L56.3232 37.5993C55.915 37.5358 55.5002 37.4932 55.0743 37.4932ZM60.3674 39.4674C59.8603 39.0296 59.2987 38.6563 58.6941 38.3534L47.8255 49.222C48.128 49.8271 48.5016 50.3887 48.9394 50.8953L60.3674 39.4674Z" fill="#E0E0E0"/>
</svg>
