<svg width="26" height="26" viewBox="0 0 26 26" fill="none" xmlns="http://www.w3.org/2000/svg">
<g clip-path="url(#clip0_1362_669)">
<path d="M24.8182 11.8183H4.035L7.92657 7.9266C8.38811 7.46514 8.38811 6.71681 7.92657 6.25528C7.46511 5.79381 6.71678 5.79381 6.25524 6.25528L0.346155 12.1644C-0.115385 12.6258 -0.115385 13.3742 0.346155 13.8357L6.25524 19.7448C6.36487 19.8547 6.49514 19.9419 6.63855 20.0013C6.78197 20.0607 6.93571 20.0912 7.09095 20.091C7.24617 20.0912 7.39991 20.0607 7.54332 20.0013C7.68672 19.9419 7.81697 19.8547 7.92657 19.7448C8.38811 19.2833 8.38811 18.535 7.92657 18.0735L4.035 14.1819H24.8182C25.4709 14.1819 26 13.6527 26 13.0001C26 12.3474 25.4709 11.8183 24.8182 11.8183Z" fill="#202326"/>
</g>
<defs>
<clipPath id="clip0_1362_669">
<rect width="26" height="26" fill="white"/>
</clipPath>
</defs>
</svg>
