<svg width="16" height="15" viewBox="0 0 16 15" fill="none" xmlns="http://www.w3.org/2000/svg">
<path d="M7.05539 0.71739C7.36669 -0.17817 8.63322 -0.178173 8.94452 0.717387L10.1226 4.10662C10.2599 4.50169 10.6286 4.76956 11.0468 4.77808L14.6342 4.85119C15.5821 4.8705 15.9735 6.07505 15.218 6.64785L12.3587 8.81562C12.0254 9.06831 11.8846 9.50173 12.0057 9.90207L13.0447 13.3365C13.3193 14.244 12.2946 14.9884 11.5164 14.4469L8.57114 12.3974C8.22782 12.1585 7.77209 12.1585 7.42878 12.3974L4.48354 14.4469C3.7053 14.9884 2.68065 14.244 2.9552 13.3365L3.99424 9.90207C4.11536 9.50173 3.97453 9.06831 3.64123 8.81562L0.781938 6.64785C0.0264051 6.07505 0.417783 4.8705 1.36571 4.85119L4.95311 4.77808C5.37128 4.76956 5.73997 4.50169 5.8773 4.10662L7.05539 0.71739Z" fill="#FFC51B"/>
</svg>
