<svg width="16" height="15" viewBox="0 0 16 15" fill="none" xmlns="http://www.w3.org/2000/svg">
<path d="M7.76382 0.963638C7.84164 0.739742 8.15828 0.73975 8.2361 0.963634L9.41419 4.35287L10.1226 4.10662L9.4142 4.35287C9.65452 5.04424 10.2997 5.51301 11.0315 5.52793L14.6189 5.60103C14.8559 5.60586 14.9538 5.907 14.7649 6.0502L11.9056 8.21796C11.3223 8.66017 11.0759 9.41866 11.2878 10.1193L12.3268 13.5537C12.3955 13.7805 12.1393 13.9666 11.9448 13.8313L8.99952 11.7818C8.39872 11.3637 7.6012 11.3637 7.00039 11.7818L4.05516 13.8313C3.86059 13.9667 3.60443 13.7805 3.67307 13.5537L4.71211 10.1193C4.92406 9.41866 4.67762 8.66017 4.09435 8.21796L3.64123 8.81562L4.09434 8.21796L1.23505 6.0502C1.04616 5.907 1.14401 5.60586 1.38099 5.60103L4.96839 5.52793C5.70019 5.51301 6.3454 5.04424 6.58572 4.35287L7.76382 0.963638Z" stroke="#FFC51B" stroke-width="1.5"/>
</svg>
