<svg width="243" height="243" viewBox="0 0 243 243" fill="none" xmlns="http://www.w3.org/2000/svg">
<g clip-path="url(#clip0_47_6005)">
<path d="M23.3683 204.706L21.2282 196.291C17.4336 194.688 13.5514 193.299 9.59997 192.132L9.32984 196.043L8.23432 191.734C3.33385 190.337 0 189.723 0 189.723C0 189.723 4.50212 206.796 13.9481 219.848L24.9535 221.776L16.4037 223.005C17.5919 224.43 18.8689 225.78 20.2269 227.045C33.9666 239.761 49.2702 245.595 54.4082 240.075C59.5462 234.556 52.5731 219.775 38.8335 207.061C34.5741 203.119 29.2234 199.956 23.8671 197.465L23.3683 204.706Z" fill="#F2F2F2"/>
<path d="M43.7217 195.566L46.2527 187.259C43.8359 183.931 41.2327 180.741 38.4556 177.705L36.1967 180.914L37.4925 176.661C34.021 172.941 31.4857 170.697 31.4857 170.697C31.4857 170.697 26.4894 187.633 27.8074 203.674L36.2293 210.996L28.2716 207.642C28.55 209.475 28.9438 211.288 29.4506 213.072C34.6203 231.038 44.6962 243.919 51.9557 241.842C59.2152 239.766 60.9097 223.518 55.7401 205.552C54.1376 199.983 51.1969 194.517 47.9028 189.626L43.7217 195.566Z" fill="#F2F2F2"/>
<path d="M169.565 57.5668H168.23V21.1043C168.23 18.3329 167.682 15.5886 166.618 13.0281C165.555 10.4676 163.995 8.14104 162.03 6.18132C160.064 4.2216 157.731 2.66706 155.163 1.60647C152.594 0.545878 149.842 0 147.062 0H69.5777C63.9637 0 58.5796 2.22349 54.61 6.18132C50.6403 10.1392 48.4102 15.5071 48.4102 21.1043V221.144C48.4102 223.915 48.9577 226.66 50.0214 229.22C51.0852 231.781 52.6444 234.107 54.61 236.067C56.5756 238.027 58.909 239.581 61.4772 240.642C64.0454 241.702 66.7979 242.248 69.5777 242.248H147.062C152.676 242.248 158.06 240.025 162.03 236.067C165.999 232.109 168.229 226.741 168.229 221.144V83.5216H169.564L169.565 57.5668Z" fill="#2F3139"/>
<path d="M147.915 5.48828H137.802C138.267 6.62528 138.445 7.85889 138.319 9.08043C138.193 10.302 137.768 11.4739 137.081 12.493C136.394 13.5122 135.466 14.3472 134.379 14.9246C133.292 15.5019 132.079 15.8039 130.848 15.8038H86.4578C85.2263 15.8038 84.0136 15.5017 82.9267 14.9243C81.8398 14.3469 80.912 13.5119 80.225 12.4928C79.5381 11.4737 79.113 10.3017 78.9873 9.08026C78.8617 7.85878 79.0392 6.62523 79.5043 5.48828H70.0577C65.8652 5.48828 61.8445 7.14876 58.88 10.1044C55.9155 13.0601 54.25 17.0689 54.25 21.2488V220.998C54.25 225.178 55.9155 229.187 58.88 232.142C61.8445 235.098 65.8652 236.758 70.0577 236.758H147.915C152.108 236.758 156.129 235.098 159.093 232.142C162.058 229.187 163.723 225.178 163.723 220.998V21.2485C163.723 17.0686 162.058 13.0599 159.093 10.1043C156.129 7.14871 152.108 5.48828 147.915 5.48828Z" fill="white"/>
<path d="M99.0658 85.0588C99.0656 83.6625 99.4342 82.2909 100.135 81.0818C100.835 79.8728 101.843 78.869 103.056 78.1715C101.843 77.4733 100.468 77.1056 99.0673 77.1055C97.667 77.1053 96.2914 77.4727 95.0787 78.1706C93.8659 78.8686 92.8588 79.8726 92.1586 81.0816C91.4585 82.2906 91.0898 83.6622 91.0898 85.0583C91.0898 86.4544 91.4585 87.8259 92.1586 89.0349C92.8588 90.244 93.8659 91.2479 95.0787 91.9459C96.2914 92.6438 97.667 93.0112 99.0673 93.0111C100.468 93.0109 101.843 92.6432 103.056 91.945C101.843 91.2477 100.835 90.2441 100.135 89.0352C99.4343 87.8263 99.0657 86.4548 99.0658 85.0588Z" fill="#CCCCCC"/>
<path d="M109.093 85.0588C109.093 83.6625 109.462 82.2908 110.162 81.0818C110.862 79.8727 111.87 78.869 113.083 78.1715C111.871 77.4733 110.495 77.1056 109.095 77.1055C107.694 77.1053 106.319 77.4727 105.106 78.1706C103.893 78.8686 102.886 79.8726 102.186 81.0816C101.486 82.2906 101.117 83.6622 101.117 85.0583C101.117 86.4544 101.486 87.8259 102.186 89.0349C102.886 90.244 103.893 91.2479 105.106 91.9459C106.319 92.6438 107.694 93.0112 109.095 93.0111C110.495 93.0109 111.871 92.6432 113.083 91.945C111.87 91.2477 110.863 90.2441 110.162 89.0352C109.462 87.8263 109.093 86.4548 109.093 85.0588Z" fill="#CCCCCC"/>
<path d="M118.893 93.0111C123.298 93.0111 126.869 89.4505 126.869 85.0583C126.869 80.6661 123.298 77.1055 118.893 77.1055C114.487 77.1055 110.916 80.6661 110.916 85.0583C110.916 89.4505 114.487 93.0111 118.893 93.0111Z" fill="#F58218"/>
<path d="M132.225 109.898H85.7358C85.2932 109.898 84.8689 109.722 84.5559 109.41C84.243 109.098 84.0669 108.675 84.0664 108.234V61.8831C84.0669 61.4419 84.243 61.0188 84.5559 60.7068C84.8689 60.3948 85.2932 60.2193 85.7358 60.2188H132.225C132.668 60.2193 133.092 60.3948 133.405 60.7068C133.718 61.0188 133.894 61.4419 133.895 61.8831V108.234C133.894 108.675 133.718 109.098 133.405 109.41C133.092 109.722 132.668 109.898 132.225 109.898ZM85.7358 60.8849C85.4702 60.8852 85.2156 60.9904 85.0279 61.1777C84.8401 61.3649 84.7345 61.6187 84.7342 61.8835V108.234C84.7345 108.499 84.8401 108.753 85.0279 108.94C85.2156 109.127 85.4702 109.232 85.7358 109.233H132.225C132.491 109.232 132.745 109.127 132.933 108.94C133.121 108.753 133.226 108.499 133.227 108.234V61.8835C133.226 61.6187 133.121 61.3649 132.933 61.1777C132.745 60.9904 132.491 60.8852 132.225 60.8849H85.7358Z" fill="#CCCCCC"/>
<path d="M142.605 145.428H71.3047V146.094H142.605V145.428Z" fill="#CCCCCC"/>
<path d="M73.5564 141.271C74.8 141.271 75.8081 140.266 75.8081 139.026C75.8081 137.786 74.8 136.781 73.5564 136.781C72.3128 136.781 71.3047 137.786 71.3047 139.026C71.3047 140.266 72.3128 141.271 73.5564 141.271Z" fill="#F58218"/>
<path d="M142.605 167.877H71.3047V168.543H142.605V167.877Z" fill="#CCCCCC"/>
<path d="M73.5564 163.719C74.8 163.719 75.8081 162.714 75.8081 161.474C75.8081 160.235 74.8 159.229 73.5564 159.229C72.3128 159.229 71.3047 160.235 71.3047 161.474C71.3047 162.714 72.3128 163.719 73.5564 163.719Z" fill="#F58218"/>
<path d="M141.3 193.44H118.767C118.378 193.44 118.005 193.285 117.729 193.011C117.454 192.737 117.299 192.365 117.299 191.976V184.102C117.299 183.714 117.454 183.342 117.729 183.068C118.005 182.793 118.378 182.639 118.767 182.639H141.3C141.689 182.639 142.062 182.793 142.337 183.068C142.613 183.342 142.768 183.714 142.768 184.102V191.976C142.768 192.365 142.613 192.737 142.337 193.011C142.062 193.285 141.689 193.44 141.3 193.44Z" fill="#F58218"/>
<path d="M80.9002 141.271C82.1437 141.271 83.1519 140.266 83.1519 139.026C83.1519 137.786 82.1437 136.781 80.9002 136.781C79.6566 136.781 78.6484 137.786 78.6484 139.026C78.6484 140.266 79.6566 141.271 80.9002 141.271Z" fill="#F58218"/>
<path d="M88.2459 141.271C89.4894 141.271 90.4976 140.266 90.4976 139.026C90.4976 137.786 89.4894 136.781 88.2459 136.781C87.0023 136.781 85.9941 137.786 85.9941 139.026C85.9941 140.266 87.0023 141.271 88.2459 141.271Z" fill="#F58218"/>
<path d="M80.9002 163.719C82.1437 163.719 83.1519 162.714 83.1519 161.474C83.1519 160.235 82.1437 159.229 80.9002 159.229C79.6566 159.229 78.6484 160.235 78.6484 161.474C78.6484 162.714 79.6566 163.719 80.9002 163.719Z" fill="#F58218"/>
<path d="M88.2459 163.719C89.4894 163.719 90.4976 162.714 90.4976 161.474C90.4976 160.235 89.4894 159.229 88.2459 159.229C87.0023 159.229 85.9941 160.235 85.9941 161.474C85.9941 162.714 87.0023 163.719 88.2459 163.719Z" fill="#F58218"/>
<path d="M242.093 243H7.85683C7.35539 243 6.94922 242.822 6.94922 242.604C6.94922 242.385 7.35539 242.207 7.85683 242.207H242.093C242.594 242.207 243.001 242.385 243.001 242.604C243.001 242.822 242.594 243 242.093 243Z" fill="#3F3D56"/>
<path d="M184.221 159.206C184.381 159.279 184.535 159.364 184.681 159.462L199.314 153.235L199.836 149.392L205.683 149.356L205.337 158.171L186.024 163.263C185.983 163.397 185.935 163.528 185.878 163.656C185.599 164.25 185.15 164.749 184.587 165.089C184.025 165.429 183.374 165.597 182.716 165.569C182.059 165.542 181.424 165.322 180.892 164.936C180.36 164.551 179.953 164.017 179.724 163.402C179.495 162.787 179.454 162.118 179.605 161.48C179.756 160.841 180.092 160.261 180.573 159.813C181.053 159.365 181.656 159.068 182.305 158.96C182.954 158.852 183.62 158.937 184.221 159.206Z" fill="#FFB8B8"/>
<path d="M207.809 239.079H203.809L201.906 223.697L207.809 223.698L207.809 239.079Z" fill="#FFB8B8"/>
<path d="M200.952 237.939H208.666V242.782H196.096C196.096 241.497 196.607 240.266 197.518 239.358C198.429 238.45 199.664 237.939 200.952 237.939Z" fill="#2F2E41"/>
<path d="M223.363 237.952L219.383 238.343L215.977 223.222L221.851 222.645L223.363 237.952Z" fill="#FFB8B8"/>
<path d="M216.429 237.488L224.105 236.734L224.582 241.553L212.072 242.782C212.009 242.149 212.072 241.51 212.257 240.902C212.443 240.293 212.746 239.727 213.151 239.235C213.555 238.744 214.053 238.336 214.616 238.037C215.178 237.737 215.794 237.551 216.429 237.488Z" fill="#2F2E41"/>
<path d="M208.923 133.078C213.348 133.078 216.936 129.502 216.936 125.089C216.936 120.677 213.348 117.101 208.923 117.101C204.498 117.101 200.91 120.677 200.91 125.089C200.91 129.502 204.498 133.078 208.923 133.078Z" fill="#FFB8B8"/>
<path d="M202.915 235.968C202.571 235.969 202.238 235.848 201.975 235.628C201.711 235.408 201.534 235.103 201.475 234.765C199.405 223.307 192.638 185.843 192.476 184.805C192.472 184.782 192.471 184.757 192.471 184.733V181.94C192.47 181.838 192.502 181.739 192.562 181.656L193.456 180.408C193.498 180.348 193.554 180.298 193.619 180.263C193.683 180.228 193.755 180.208 193.829 180.205C198.925 179.966 215.617 179.268 216.423 180.273C217.233 181.282 216.947 184.341 216.881 184.944L216.884 185.007L224.383 232.819C224.442 233.201 224.348 233.59 224.121 233.902C223.894 234.215 223.553 234.426 223.171 234.489L218.487 235.259C218.139 235.315 217.781 235.244 217.48 235.059C217.18 234.875 216.955 234.588 216.848 234.253C215.399 229.638 210.542 214.113 208.859 208.106C208.848 208.068 208.824 208.035 208.791 208.013C208.758 207.991 208.718 207.982 208.679 207.988C208.64 207.993 208.604 208.013 208.578 208.043C208.552 208.073 208.538 208.111 208.539 208.151C208.623 213.877 208.826 228.488 208.896 233.534L208.904 234.077C208.907 234.445 208.771 234.801 208.524 235.074C208.277 235.347 207.936 235.518 207.569 235.553L203.052 235.962C203.006 235.966 202.96 235.968 202.915 235.968Z" fill="#2F2E41"/>
<path d="M203.836 136.22C202.438 137.049 201.601 138.572 201.121 140.121C200.232 142.991 199.697 145.957 199.528 148.955L199.02 157.933L192.738 181.733C198.183 186.326 201.323 185.282 208.652 181.525C215.981 177.768 216.819 182.778 216.819 182.778L218.285 162.527L220.379 140.398C219.909 139.834 219.377 139.324 218.793 138.878C216.857 137.377 214.605 136.334 212.207 135.828C209.808 135.321 207.326 135.363 204.946 135.952L203.836 136.22Z" fill="#F58218"/>
<path d="M201.797 164.013C201.966 164.076 202.13 164.153 202.287 164.242L216.755 157.022L216.995 153.11L222.963 152.7L223.283 161.617L203.948 167.992C203.79 168.667 203.43 169.278 202.915 169.744C202.401 170.21 201.756 170.509 201.067 170.6C200.377 170.692 199.676 170.572 199.057 170.257C198.438 169.942 197.929 169.447 197.599 168.836C197.27 168.226 197.134 167.53 197.21 166.841C197.287 166.152 197.572 165.503 198.027 164.979C198.483 164.455 199.088 164.083 199.761 163.91C200.435 163.737 201.145 163.773 201.797 164.013Z" fill="#FFB8B8"/>
<path d="M220.275 140.499C223.835 141.752 224.462 155.323 224.462 155.323C220.274 153.026 215.249 156.784 215.249 156.784C215.249 156.784 214.202 153.235 212.945 148.642C212.566 147.35 212.521 145.984 212.814 144.669C213.106 143.355 213.728 142.137 214.621 141.126C214.621 141.126 216.716 139.246 220.275 140.499Z" fill="#F58218"/>
<path d="M216.107 127.202C215.108 126.406 213.746 127.854 213.746 127.854L212.947 120.687C212.947 120.687 207.956 121.283 204.761 120.488C201.566 119.693 201.067 123.375 201.067 123.375C200.902 121.887 200.869 120.389 200.967 118.895C201.167 117.104 203.763 115.312 208.355 114.117C212.947 112.923 215.343 118.099 215.343 118.099C218.538 119.691 217.105 127.999 216.107 127.202Z" fill="#2F2E41"/>
</g>
<defs>
<clipPath id="clip0_47_6005">
<rect width="243" height="243" fill="white"/>
</clipPath>
</defs>
</svg>
