<svg width="243" height="243" viewBox="0 0 243 243" fill="none" xmlns="http://www.w3.org/2000/svg">
<g clip-path="url(#clip0_47_6038)">
<path d="M23.3683 204.706L21.2282 196.291C17.4336 194.688 13.5514 193.299 9.59997 192.132L9.32984 196.043L8.23432 191.734C3.33385 190.337 0 189.723 0 189.723C0 189.723 4.50212 206.796 13.9481 219.848L24.9535 221.776L16.4037 223.005C17.5919 224.43 18.8689 225.78 20.2269 227.045C33.9666 239.761 49.2702 245.595 54.4082 240.075C59.5462 234.556 52.5731 219.775 38.8335 207.061C34.5741 203.119 29.2234 199.956 23.8671 197.465L23.3683 204.706Z" fill="#F2F2F2"/>
<path d="M43.7217 195.566L46.2527 187.259C43.8359 183.931 41.2327 180.741 38.4556 177.705L36.1967 180.914L37.4925 176.661C34.021 172.941 31.4857 170.697 31.4857 170.697C31.4857 170.697 26.4894 187.633 27.8074 203.674L36.2293 210.996L28.2716 207.642C28.55 209.475 28.9438 211.288 29.4506 213.072C34.6203 231.038 44.6962 243.919 51.9557 241.842C59.2152 239.766 60.9097 223.518 55.7401 205.552C54.1376 199.983 51.1969 194.517 47.9028 189.626L43.7217 195.566Z" fill="#F2F2F2"/>
<path d="M169.565 57.5668H168.23V21.1043C168.23 18.3329 167.682 15.5886 166.618 13.0281C165.555 10.4676 163.995 8.14104 162.03 6.18132C160.064 4.2216 157.731 2.66706 155.163 1.60647C152.594 0.545878 149.842 0 147.062 0H69.5777C63.9637 0 58.5796 2.22349 54.61 6.18132C50.6403 10.1392 48.4102 15.5071 48.4102 21.1043V221.144C48.4102 223.915 48.9577 226.66 50.0214 229.22C51.0852 231.781 52.6444 234.107 54.61 236.067C56.5756 238.027 58.909 239.581 61.4772 240.642C64.0454 241.702 66.7979 242.248 69.5777 242.248H147.062C152.676 242.248 158.06 240.025 162.03 236.067C165.999 232.109 168.229 226.741 168.229 221.144V83.5216H169.564L169.565 57.5668Z" fill="#2F3139"/>
<path d="M147.915 5.48828H137.802C138.267 6.62528 138.445 7.85889 138.319 9.08043C138.193 10.302 137.768 11.4739 137.081 12.493C136.394 13.5122 135.466 14.3472 134.379 14.9246C133.292 15.5019 132.079 15.8039 130.848 15.8038H86.4578C85.2263 15.8038 84.0136 15.5017 82.9267 14.9243C81.8398 14.3469 80.912 13.5119 80.225 12.4928C79.5381 11.4737 79.113 10.3017 78.9873 9.08026C78.8617 7.85878 79.0392 6.62523 79.5043 5.48828H70.0577C65.8652 5.48828 61.8445 7.14876 58.88 10.1044C55.9155 13.0601 54.25 17.0689 54.25 21.2488V220.998C54.25 225.178 55.9155 229.187 58.88 232.142C61.8445 235.098 65.8652 236.758 70.0577 236.758H147.915C152.108 236.758 156.129 235.098 159.093 232.142C162.058 229.187 163.723 225.178 163.723 220.998V21.2485C163.723 17.0686 162.058 13.0599 159.093 10.1043C156.129 7.14871 152.108 5.48828 147.915 5.48828Z" fill="white"/>
<path d="M142.605 145.428H71.3047V146.094H142.605V145.428Z" fill="#CCCCCC"/>
<path d="M73.5564 141.271C74.8 141.271 75.8081 140.266 75.8081 139.026C75.8081 137.786 74.8 136.781 73.5564 136.781C72.3128 136.781 71.3047 137.786 71.3047 139.026C71.3047 140.266 72.3128 141.271 73.5564 141.271Z" fill="#F58218"/>
<path d="M142.605 167.877H71.3047V168.543H142.605V167.877Z" fill="#CCCCCC"/>
<path d="M73.5564 163.719C74.8 163.719 75.8081 162.714 75.8081 161.474C75.8081 160.235 74.8 159.229 73.5564 159.229C72.3128 159.229 71.3047 160.235 71.3047 161.474C71.3047 162.714 72.3128 163.719 73.5564 163.719Z" fill="#F58218"/>
<path d="M141.3 193.44H118.767C118.378 193.44 118.005 193.285 117.729 193.011C117.454 192.737 117.299 192.365 117.299 191.976V184.102C117.299 183.714 117.454 183.342 117.729 183.068C118.005 182.793 118.378 182.639 118.767 182.639H141.3C141.689 182.639 142.062 182.793 142.337 183.068C142.613 183.342 142.768 183.714 142.768 184.102V191.976C142.768 192.365 142.613 192.737 142.337 193.011C142.062 193.285 141.689 193.44 141.3 193.44Z" fill="#F58218"/>
<path d="M80.9002 141.271C82.1437 141.271 83.1519 140.266 83.1519 139.026C83.1519 137.786 82.1437 136.781 80.9002 136.781C79.6566 136.781 78.6484 137.786 78.6484 139.026C78.6484 140.266 79.6566 141.271 80.9002 141.271Z" fill="#F58218"/>
<path d="M88.2459 141.271C89.4894 141.271 90.4976 140.266 90.4976 139.026C90.4976 137.786 89.4894 136.781 88.2459 136.781C87.0023 136.781 85.9941 137.786 85.9941 139.026C85.9941 140.266 87.0023 141.271 88.2459 141.271Z" fill="#F58218"/>
<path d="M80.9002 163.719C82.1437 163.719 83.1519 162.714 83.1519 161.474C83.1519 160.235 82.1437 159.229 80.9002 159.229C79.6566 159.229 78.6484 160.235 78.6484 161.474C78.6484 162.714 79.6566 163.719 80.9002 163.719Z" fill="#F58218"/>
<path d="M88.2459 163.719C89.4894 163.719 90.4976 162.714 90.4976 161.474C90.4976 160.235 89.4894 159.229 88.2459 159.229C87.0023 159.229 85.9941 160.235 85.9941 161.474C85.9941 162.714 87.0023 163.719 88.2459 163.719Z" fill="#F58218"/>
<path d="M242.093 243H7.85683C7.35539 243 6.94922 242.822 6.94922 242.604C6.94922 242.385 7.35539 242.207 7.85683 242.207H242.093C242.594 242.207 243.001 242.385 243.001 242.604C243.001 242.822 242.594 243 242.093 243Z" fill="#3F3D56"/>
<path d="M184.221 159.206C184.381 159.279 184.535 159.364 184.681 159.462L199.314 153.235L199.836 149.392L205.683 149.356L205.337 158.171L186.024 163.263C185.983 163.397 185.935 163.528 185.878 163.656C185.599 164.25 185.15 164.749 184.587 165.089C184.025 165.429 183.374 165.597 182.716 165.569C182.059 165.542 181.424 165.322 180.892 164.936C180.36 164.551 179.953 164.017 179.724 163.402C179.495 162.787 179.454 162.118 179.605 161.48C179.756 160.841 180.092 160.261 180.573 159.813C181.053 159.365 181.656 159.068 182.305 158.96C182.954 158.852 183.62 158.937 184.221 159.206Z" fill="#FFB8B8"/>
<path d="M207.809 239.079H203.809L201.906 223.697L207.809 223.698L207.809 239.079Z" fill="#FFB8B8"/>
<path d="M200.952 237.939H208.666V242.782H196.096C196.096 241.497 196.607 240.266 197.518 239.358C198.429 238.45 199.664 237.939 200.952 237.939Z" fill="#2F2E41"/>
<path d="M223.363 237.952L219.383 238.343L215.977 223.222L221.851 222.645L223.363 237.952Z" fill="#FFB8B8"/>
<path d="M216.429 237.488L224.105 236.734L224.582 241.553L212.072 242.782C212.009 242.149 212.072 241.51 212.257 240.902C212.443 240.293 212.746 239.727 213.151 239.235C213.555 238.744 214.053 238.336 214.616 238.037C215.178 237.737 215.794 237.551 216.429 237.488Z" fill="#2F2E41"/>
<path d="M208.923 133.078C213.348 133.078 216.936 129.502 216.936 125.089C216.936 120.677 213.348 117.101 208.923 117.101C204.498 117.101 200.91 120.677 200.91 125.089C200.91 129.502 204.498 133.078 208.923 133.078Z" fill="#FFB8B8"/>
<path d="M202.915 235.968C202.571 235.969 202.238 235.848 201.975 235.628C201.711 235.408 201.534 235.103 201.475 234.765C199.405 223.307 192.638 185.843 192.476 184.805C192.472 184.782 192.471 184.757 192.471 184.733V181.94C192.47 181.838 192.502 181.739 192.562 181.656L193.456 180.408C193.498 180.348 193.554 180.298 193.619 180.263C193.683 180.228 193.755 180.208 193.829 180.205C198.925 179.966 215.617 179.268 216.423 180.273C217.233 181.282 216.947 184.341 216.881 184.944L216.884 185.007L224.383 232.819C224.442 233.201 224.348 233.59 224.121 233.902C223.894 234.215 223.553 234.426 223.171 234.489L218.487 235.259C218.139 235.315 217.781 235.244 217.48 235.059C217.18 234.875 216.955 234.588 216.848 234.253C215.399 229.638 210.542 214.113 208.859 208.106C208.848 208.068 208.824 208.035 208.791 208.013C208.758 207.991 208.718 207.982 208.679 207.988C208.64 207.993 208.604 208.013 208.578 208.043C208.552 208.073 208.538 208.111 208.539 208.151C208.623 213.877 208.826 228.488 208.896 233.534L208.904 234.077C208.907 234.445 208.771 234.801 208.524 235.074C208.277 235.347 207.936 235.518 207.569 235.553L203.052 235.962C203.006 235.966 202.96 235.968 202.915 235.968Z" fill="#2F2E41"/>
<path d="M203.836 136.22C202.438 137.049 201.601 138.572 201.121 140.121C200.232 142.991 199.697 145.957 199.528 148.955L199.02 157.933L192.738 181.733C198.183 186.326 201.323 185.282 208.652 181.525C215.981 177.768 216.819 182.778 216.819 182.778L218.285 162.527L220.379 140.398C219.909 139.834 219.377 139.324 218.793 138.878C216.857 137.377 214.605 136.334 212.207 135.828C209.808 135.321 207.326 135.363 204.946 135.952L203.836 136.22Z" fill="#F58218"/>
<path d="M201.797 164.013C201.966 164.076 202.13 164.153 202.287 164.242L216.755 157.022L216.995 153.11L222.963 152.7L223.283 161.617L203.948 167.992C203.79 168.667 203.43 169.278 202.915 169.744C202.401 170.21 201.756 170.509 201.067 170.6C200.377 170.692 199.676 170.572 199.057 170.257C198.438 169.942 197.929 169.447 197.599 168.836C197.27 168.226 197.134 167.53 197.21 166.841C197.287 166.152 197.572 165.503 198.027 164.979C198.483 164.455 199.088 164.083 199.761 163.91C200.435 163.737 201.145 163.773 201.797 164.013Z" fill="#FFB8B8"/>
<path d="M220.275 140.499C223.835 141.752 224.462 155.323 224.462 155.323C220.274 153.026 215.249 156.784 215.249 156.784C215.249 156.784 214.202 153.235 212.945 148.642C212.566 147.35 212.521 145.984 212.814 144.669C213.106 143.355 213.728 142.137 214.621 141.126C214.621 141.126 216.716 139.246 220.275 140.499Z" fill="#F58218"/>
<path d="M216.107 127.202C215.108 126.406 213.746 127.854 213.746 127.854L212.947 120.687C212.947 120.687 207.956 121.283 204.761 120.488C201.566 119.693 201.067 123.375 201.067 123.375C200.902 121.887 200.869 120.389 200.967 118.895C201.167 117.104 203.763 115.312 208.355 114.117C212.947 112.923 215.343 118.099 215.343 118.099C218.538 119.691 217.105 127.999 216.107 127.202Z" fill="#2F2E41"/>
<path d="M82.2273 68.3613H67V88.3292H82.2273V68.3613Z" fill="#EBEBEB"/>
<path d="M100.567 68.3613H85.3398V88.3292H100.567V68.3613Z" fill="#EBEBEB"/>
<path d="M118.907 68.3613H103.68V88.3292H118.907V68.3613Z" fill="#EBEBEB"/>
<path d="M137.247 68.3613H122.02V88.3292H137.247V68.3613Z" fill="#EBEBEB"/>
<path d="M155.585 68.3613H140.357V88.3292H155.585V68.3613Z" fill="#EBEBEB"/>
<path d="M76.8117 77.3157C77.5423 78.031 77.9 78.9852 77.9 79.939C77.9 80.8784 77.5275 81.8322 76.8117 82.5476C76.0964 83.2781 75.1426 83.6358 74.2032 83.6358C74.1732 83.6358 74.1732 83.6358 74.1732 83.6358C73.249 83.6358 72.2804 83.2781 71.5794 82.5476C71.2365 82.2343 71.2365 81.6978 71.5794 81.3549C71.8927 81.0273 72.444 81.0273 72.7721 81.3549C73.1594 81.7578 73.6663 81.951 74.2032 81.951C74.7097 81.951 75.2318 81.7574 75.6191 81.3549C76.0068 80.9672 76.2152 80.4459 76.2152 79.939C76.2152 79.4025 76.0216 78.896 75.6191 78.5083C75.2314 78.1054 74.7245 77.9266 74.2032 77.9266C73.6963 77.9266 73.1594 78.1054 72.7721 78.5083C72.444 78.836 71.9075 78.836 71.5794 78.5083C71.5198 78.4487 71.475 78.3739 71.4154 78.3143C71.4154 78.2847 71.4154 78.2695 71.4006 78.2695C71.4006 78.2395 71.3858 78.2098 71.3706 78.195C71.3706 78.1502 71.3558 78.1206 71.3558 78.0906C71.3558 78.0758 71.341 78.0758 71.341 78.0606C71.3262 77.9714 71.3262 77.8818 71.341 77.8074L71.7879 73.9469C71.8327 73.6937 71.9667 73.4848 72.1603 73.3504C72.1904 73.3356 72.2052 73.3356 72.22 73.3204C72.2348 73.3056 72.25 73.3056 72.2648 73.2904C72.384 73.2312 72.5032 73.2012 72.6524 73.2012H77.0498C77.5267 73.2012 77.8992 73.5736 77.8992 74.051C77.8992 74.4982 77.5267 74.8859 77.0498 74.8859H73.3826L73.2038 76.3615C73.5318 76.2722 73.8747 76.2274 74.2028 76.2274C75.1426 76.2274 76.0964 76.5851 76.8117 77.3157Z" fill="#C7C7C7"/>
<path d="M95.1476 77.3016C95.8778 78.0169 96.2354 78.9707 96.2354 79.9101C96.2354 80.8487 95.8778 81.8029 95.1476 82.5335C94.4318 83.2489 93.478 83.6217 92.5242 83.6217C91.5852 83.6217 90.631 83.2489 89.9157 82.5335C89.588 82.2058 89.588 81.6689 89.9157 81.3408C90.2437 81.0132 90.7803 81.0132 91.1083 81.3408C91.496 81.7285 92.0029 81.9218 92.5242 81.9218C93.0459 81.9218 93.5525 81.7281 93.9553 81.3408C94.3578 80.9388 94.5515 80.4315 94.5515 79.9101C94.5515 79.3884 94.3578 78.8811 93.9553 78.4938C93.5677 78.0914 93.0611 77.9125 92.5394 77.8981C92.301 77.9129 92.0773 77.8085 91.9281 77.6297C91.9133 77.6297 91.9133 77.6297 91.9133 77.6148C91.5704 77.2868 91.5704 76.7651 91.8833 76.4222L93.4036 74.8719H90.9887C90.5266 74.8719 90.1541 74.4994 90.1541 74.0221C90.1541 73.56 90.5266 73.1875 90.9887 73.1875H95.3861C95.863 73.1875 96.2358 73.56 96.2358 74.0221C96.2358 74.1709 96.1914 74.3053 96.1314 74.425C96.087 74.4994 96.0422 74.5738 95.9826 74.6334L94.1046 76.5714C94.4915 76.7499 94.8491 76.9887 95.1476 77.3016Z" fill="#C7C7C7"/>
<path d="M113.488 77.3016C114.218 78.0169 114.576 78.9707 114.576 79.9101C114.576 80.8487 114.218 81.8029 113.488 82.5335C112.772 83.2489 111.818 83.6217 110.864 83.6217C109.925 83.6217 108.971 83.2489 108.256 82.5335C107.928 82.2058 107.928 81.6689 108.256 81.3408C108.584 81.0132 109.12 81.0132 109.448 81.3408C109.836 81.7285 110.343 81.9218 110.864 81.9218C111.386 81.9218 111.893 81.7281 112.295 81.3408C112.697 80.9388 112.891 80.4315 112.891 79.9101C112.891 79.3884 112.697 78.8811 112.295 78.4938C111.908 78.0914 111.401 77.9125 110.879 77.8981C110.641 77.9129 110.417 77.8085 110.268 77.6297C110.253 77.6297 110.253 77.6297 110.253 77.6148C109.91 77.2868 109.91 76.7651 110.223 76.4222L111.743 74.8719H109.329C108.867 74.8719 108.494 74.4994 108.494 74.0221C108.494 73.56 108.867 73.1875 109.329 73.1875H113.726C114.203 73.1875 114.576 73.56 114.576 74.0221C114.576 74.1709 114.531 74.3053 114.471 74.425C114.427 74.4994 114.382 74.5738 114.322 74.6334L112.444 76.5714C112.832 76.7499 113.189 76.9887 113.488 77.3016Z" fill="#C7C7C7"/>
<path d="M133.193 80.0888C133.193 82.0412 131.598 83.6364 129.646 83.6364C127.678 83.6364 126.068 82.0416 126.068 80.0888C126.068 78.8518 126.694 77.7635 127.664 77.1226C127.35 76.7197 127.171 76.198 127.171 75.6467C127.171 74.3052 128.274 73.2021 129.646 73.2021C130.987 73.2021 132.09 74.3052 132.09 75.6467C132.09 76.198 131.912 76.7197 131.599 77.1226C132.553 77.7631 133.193 78.8514 133.193 80.0888ZM131.569 80.0888C131.569 79.0306 130.704 78.1508 129.646 78.1508C128.573 78.1508 127.708 79.0302 127.693 80.0888C127.708 81.1471 128.573 82.0116 129.646 82.0116C130.704 82.0112 131.569 81.1471 131.569 80.0888ZM128.797 75.6467C128.797 76.1088 129.169 76.4965 129.646 76.4965C130.093 76.4965 130.466 76.1088 130.466 75.6467C130.466 75.1994 130.094 74.8269 129.646 74.8269C129.169 74.8269 128.797 75.1994 128.797 75.6467Z" fill="#C7C7C7"/>
<path d="M122.119 95.3164H100.465V102.1H122.119V95.3164Z" fill="#F58218"/>
<path d="M105.08 99.2337C105.14 99.1597 105.25 99.1497 105.325 99.2101C105.472 99.3305 105.727 99.4714 105.965 99.4686C106.132 99.4686 106.283 99.4181 106.384 99.3445C106.484 99.2705 106.528 99.1865 106.528 99.1029C106.528 99.0597 106.518 99.0293 106.498 98.9957C106.478 98.9621 106.447 98.9288 106.397 98.8948C106.3 98.8316 106.135 98.7744 105.938 98.7376H105.931C105.774 98.7076 105.626 98.6672 105.499 98.6068C105.371 98.5464 105.261 98.4627 105.187 98.3455C105.137 98.2651 105.11 98.1711 105.11 98.0707C105.11 97.8694 105.224 97.6954 105.378 97.581C105.536 97.4673 105.74 97.4033 105.958 97.4033C106.28 97.4033 106.518 97.5606 106.689 97.6714C106.766 97.725 106.789 97.8322 106.736 97.9094C106.685 97.9898 106.578 98.0134 106.498 97.9598C106.327 97.8458 106.163 97.7454 105.958 97.7454C105.807 97.7454 105.673 97.7922 105.582 97.859C105.492 97.9258 105.455 97.9998 105.455 98.0703C105.455 98.1103 105.462 98.1371 105.478 98.1639C105.495 98.1907 105.525 98.2211 105.569 98.2507C105.656 98.3115 105.807 98.3647 105.988 98.3983H105.995C106.165 98.4315 106.323 98.4755 106.457 98.5392C106.594 98.606 106.715 98.6936 106.792 98.8176C106.842 98.898 106.873 98.9981 106.873 99.1021C106.873 99.3165 106.752 99.5014 106.585 99.6218C106.42 99.7426 106.203 99.813 105.964 99.813C105.602 99.8094 105.298 99.6286 105.106 99.4778C105.033 99.4177 105.022 99.3073 105.08 99.2337Z" fill="white"/>
<path d="M108.361 99.8162C107.821 99.8162 107.393 99.3805 107.393 98.8476V97.6546C107.393 97.5505 107.473 97.4697 107.577 97.4697C107.678 97.4697 107.765 97.5505 107.765 97.6546V98.8476C107.765 99.1765 108.033 99.4445 108.362 99.4445C108.693 99.4445 108.959 99.1765 108.959 98.8476V97.6546C108.959 97.5505 109.043 97.4697 109.146 97.4697C109.25 97.4697 109.33 97.5505 109.33 97.6546V98.8476C109.33 99.3805 108.897 99.8162 108.361 99.8162Z" fill="white"/>
<path d="M110.115 99.6322V97.6546C110.115 97.5505 110.199 97.4697 110.3 97.4697C110.303 97.4697 110.303 97.4697 110.31 97.4697C110.31 97.4697 110.31 97.4697 110.313 97.4697H110.776C111.128 97.4697 111.413 97.7546 111.413 98.1067C111.413 98.2507 111.366 98.3819 111.285 98.4887C111.486 98.6164 111.624 98.8408 111.624 99.0953C111.624 99.4946 111.302 99.8158 110.906 99.8158H110.313C110.309 99.8158 110.309 99.8126 110.309 99.8126C110.302 99.8126 110.302 99.8158 110.3 99.8158C110.199 99.8166 110.115 99.7326 110.115 99.6322ZM110.488 98.3787H110.776C110.923 98.3787 111.041 98.2547 111.041 98.1071C111.041 97.9598 110.923 97.8426 110.776 97.8426H110.488V98.3787ZM110.488 99.4446H110.907C111.097 99.441 111.252 99.2901 111.252 99.0957C111.252 98.9048 111.097 98.754 110.907 98.7504H110.488V99.4446Z" fill="white"/>
<path d="M114.123 97.6546V99.6322C114.123 99.7326 114.036 99.8162 113.935 99.8162C113.831 99.8162 113.751 99.7322 113.751 99.6322V98.2211L113.269 98.8912C113.231 98.9416 113.178 98.9684 113.118 98.9684H113.114H113.111C113.05 98.9684 112.994 98.9416 112.956 98.8912L112.477 98.2211V99.6322C112.477 99.7326 112.393 99.8162 112.29 99.8162C112.189 99.8162 112.105 99.7322 112.105 99.6322V97.6546C112.105 97.5537 112.189 97.4697 112.29 97.4697C112.293 97.4697 112.293 97.4697 112.3 97.4697C112.354 97.4697 112.414 97.4965 112.447 97.5469L113.114 98.4719L113.782 97.5469C113.818 97.4965 113.872 97.4697 113.933 97.4697C113.933 97.4697 113.933 97.4697 113.936 97.4697C114.035 97.4733 114.123 97.5537 114.123 97.6546Z" fill="white"/>
<path d="M114.957 97.6546C114.957 97.5505 115.037 97.4697 115.141 97.4697C115.242 97.4697 115.329 97.5505 115.329 97.6546V99.6322C115.329 99.7362 115.242 99.8162 115.141 99.8162C115.037 99.8162 114.957 99.7358 114.957 99.6322V97.6546Z" fill="white"/>
<path d="M117.391 97.8422H116.858V99.6322C116.858 99.7362 116.777 99.8162 116.674 99.8162C116.573 99.8162 116.489 99.7358 116.489 99.6322V97.8422H115.959C115.855 97.8422 115.775 97.7546 115.775 97.6546C115.775 97.5505 115.856 97.4697 115.959 97.4697H117.391C117.491 97.4697 117.575 97.5505 117.575 97.6546C117.575 97.7546 117.491 97.8422 117.391 97.8422Z" fill="white"/>
<path d="M114.114 36.0078V39.0537H113.253V36.0078C113.253 34.8496 112.374 33.9078 111.291 33.9078C110.209 33.9078 109.329 34.8496 109.329 36.0078V39.0537H108.469V36.0078C108.469 34.3491 109.735 33 111.291 33C112.848 33 114.114 34.3491 114.114 36.0078Z" fill="#EBEBEB"/>
<path d="M108.469 36.7998L109.329 36.8342V39.0535H108.469V36.7998Z" fill="#C7C7C7"/>
<path d="M114.114 37.0293V39.0534H113.254V36.9941L114.114 37.0293Z" fill="#C7C7C7"/>
<path d="M115.217 37.9268H107.365V44.443H115.217V37.9268Z" fill="#F58218"/>
<path d="M111.623 41.1412L111.952 42.7003H110.557L110.886 41.1412C110.689 41.0167 110.557 40.8003 110.557 40.5518C110.557 40.163 110.869 39.8545 111.254 39.8545C111.639 39.8545 111.951 40.163 111.951 40.5518C111.952 40.8003 111.819 41.0167 111.623 41.1412Z" fill="#263238"/>
<path d="M68.7324 60.8357C68.7324 60.7885 68.7724 60.748 68.8204 60.748H68.8312H69.5446C69.9471 60.748 70.2724 61.0773 70.2724 61.4794C70.2724 61.8815 69.9467 62.2072 69.5446 62.2072L68.9117 62.2148V63.2206C68.9117 63.2682 68.8717 63.3086 68.8204 63.3086C68.7728 63.3086 68.7324 63.2686 68.7324 63.2206V60.8357ZM69.5442 62.0351C69.8479 62.0315 70.0963 61.7827 70.0963 61.479C70.0963 61.1753 69.8475 60.9269 69.5442 60.9269H68.9113V62.0351H69.5442Z" fill="#263238"/>
<path d="M70.8496 60.8357C70.8496 60.7885 70.89 60.748 70.9372 60.748C70.9884 60.748 71.0289 60.7881 71.0289 60.8357V63.2202C71.0289 63.2678 70.9888 63.3082 70.9372 63.3082C70.89 63.3082 70.8496 63.2682 70.8496 63.2202V60.8357Z" fill="#263238"/>
<path d="M71.7715 62.4154C71.7715 61.9181 72.1592 61.5156 72.6417 61.5156C73.1026 61.5156 73.4682 61.8813 73.5051 62.3498V62.3534V62.3642C73.5051 62.4118 73.465 62.4446 73.4174 62.4446H71.9475C71.9659 62.8359 72.2728 63.1324 72.6421 63.1324C72.8797 63.1324 73.0994 63.0079 73.2202 62.8067C73.2458 62.7627 73.3006 62.7555 73.3374 62.7775C73.3774 62.8067 73.3922 62.8579 73.3666 62.9019C73.213 63.1472 72.9461 63.308 72.6425 63.308C72.1592 63.308 71.7715 62.9055 71.7715 62.4154ZM71.9583 62.2726H73.315C73.2566 61.9361 72.9713 61.6913 72.6421 61.6913C72.3056 61.6913 72.0239 61.9325 71.9583 62.2726Z" fill="#263238"/>
<path d="M75.6304 61.6027V63.219C75.6304 63.2666 75.5904 63.307 75.5427 63.307C75.4951 63.307 75.4551 63.267 75.4551 63.219V62.9522C75.3015 63.1642 75.0566 63.307 74.7822 63.307C74.3105 63.307 73.9336 62.9009 73.9336 62.4108C73.9336 61.9207 74.3105 61.5146 74.7822 61.5146C75.0566 61.5146 75.3015 61.6535 75.4551 61.8659V61.6027C75.4551 61.5515 75.4951 61.5151 75.5427 61.5151C75.5904 61.5151 75.6304 61.5519 75.6304 61.6027ZM75.4547 62.4112C75.4547 62.0092 75.1515 61.6871 74.7818 61.6871C74.4161 61.6871 74.1088 62.0092 74.1088 62.4112C74.1088 62.8133 74.4161 63.1318 74.7818 63.1318C75.1511 63.1318 75.4547 62.8133 75.4547 62.4112Z" fill="#263238"/>
<path d="M76.2659 62.9342C76.2951 62.8977 76.3499 62.8901 76.3903 62.923C76.5147 63.0142 76.7124 63.1314 76.9388 63.1314C77.0776 63.1314 77.1985 63.0874 77.2793 63.0218C77.3669 62.9634 77.4145 62.8829 77.4145 62.8021C77.4109 62.7181 77.3777 62.6597 77.2865 62.5829C77.2097 62.5245 77.0816 62.4805 76.906 62.4513L76.8984 62.4476C76.7376 62.4184 76.5951 62.3816 76.4923 62.3088C76.3791 62.2428 76.2987 62.126 76.2987 61.9868C76.2987 61.8439 76.3791 61.7199 76.4923 61.6355C76.5983 61.5623 76.7484 61.5146 76.9312 61.5146C77.1617 61.5146 77.3261 61.6207 77.4653 61.7087C77.5053 61.7379 77.5165 61.7927 77.4909 61.8331C77.4653 61.8731 77.4105 61.8843 77.3701 61.8587C77.2385 61.7707 77.1068 61.6795 76.9312 61.6795C76.7852 61.6795 76.6679 61.7195 76.5911 61.7819C76.5179 61.8403 76.4779 61.9135 76.4779 61.9868C76.4779 62.06 76.5107 62.1112 76.5803 62.166C76.6607 62.2208 76.7816 62.2648 76.946 62.2904H76.9532C77.1252 62.316 77.2641 62.3672 77.3885 62.4368C77.5057 62.5137 77.5897 62.6529 77.5897 62.8025C77.5897 62.9526 77.5057 63.0734 77.3853 63.1646C77.2609 63.2562 77.1144 63.3074 76.9388 63.3074C76.6499 63.3038 76.4231 63.1682 76.2771 63.0514C76.2398 63.0182 76.2362 62.971 76.2659 62.9342Z" fill="#263238"/>
<path d="M78.0605 62.4154C78.0605 61.9181 78.4482 61.5156 78.9311 61.5156C79.392 61.5156 79.7577 61.8813 79.7941 62.3498V62.3534V62.3642C79.7941 62.4118 79.7541 62.4446 79.7065 62.4446H78.2366C78.255 62.8359 78.5619 63.1324 78.9311 63.1324C79.1688 63.1324 79.3884 63.0079 79.5093 62.8067C79.5349 62.7627 79.5897 62.7555 79.6261 62.7775C79.6661 62.8067 79.6809 62.8579 79.6553 62.9019C79.5017 63.1472 79.2348 63.308 78.9311 63.308C78.4486 63.308 78.0605 62.9055 78.0605 62.4154ZM78.2474 62.2726H79.6041C79.5457 61.9361 79.26 61.6913 78.9311 61.6913C78.5947 61.6913 78.313 61.9325 78.2474 62.2726Z" fill="#263238"/>
<path d="M81.3848 62.4154C81.3848 61.9181 81.7724 61.5156 82.2554 61.5156C82.7162 61.5156 83.0819 61.8813 83.1183 62.3498V62.3534V62.3642C83.1183 62.4118 83.0783 62.4446 83.0307 62.4446H81.5608C81.5792 62.8359 81.8861 63.1324 82.2558 63.1324C82.4934 63.1324 82.7131 63.0079 82.8335 62.8067C82.8591 62.7627 82.9139 62.7555 82.9507 62.7775C82.9907 62.8067 83.0055 62.8579 82.9799 62.9019C82.8263 63.1472 82.5594 63.308 82.2558 63.308C81.7724 63.308 81.3848 62.9055 81.3848 62.4154ZM81.5712 62.2726H82.9279C82.8695 61.9361 82.5842 61.6913 82.255 61.6913C81.9189 61.6913 81.6368 61.9325 81.5712 62.2726Z" fill="#263238"/>
<path d="M85.0205 62.2471C85.0205 61.9434 84.7753 61.695 84.4684 61.695C84.1647 61.695 83.9195 61.9434 83.9123 62.2471V63.2197V63.2345C83.9087 63.2489 83.9051 63.2637 83.8939 63.2745C83.8791 63.2965 83.8535 63.3073 83.8279 63.3073H83.8058C83.7802 63.3001 83.7582 63.2817 83.7474 63.2597C83.7438 63.2561 83.7438 63.2525 83.7438 63.2485C83.7438 63.2449 83.7402 63.2413 83.7402 63.2413V63.2193V62.2467V62.2171V61.6066C83.7402 61.559 83.777 61.5186 83.8279 61.5186C83.8751 61.5186 83.9119 61.559 83.9119 61.6066V61.7786C84.0435 61.621 84.2447 61.519 84.468 61.519C84.8701 61.519 85.1957 61.8482 85.1957 62.2467V63.2193C85.1957 63.2705 85.1557 63.3073 85.1077 63.3073C85.0605 63.3073 85.0201 63.2705 85.0201 63.2193V62.2471H85.0205Z" fill="#263238"/>
<path d="M86.6071 61.6033C86.6071 61.6473 86.5631 61.6913 86.5191 61.6913H86.2886V62.9968C86.2886 63.0848 86.3766 63.1284 86.4203 63.1284C86.4643 63.1284 86.5115 63.176 86.5115 63.2196C86.5115 63.2636 86.4643 63.3076 86.4203 63.3076C86.241 63.3076 86.1058 63.176 86.1058 62.9968V61.6913H85.8825C85.7949 61.6913 85.7949 61.6473 85.7949 61.6033C85.7949 61.5593 85.7949 61.5157 85.8825 61.5157H86.1058V60.8503C86.1058 60.8063 86.1498 60.7627 86.1934 60.7627C86.241 60.7627 86.2886 60.8067 86.2886 60.8503V61.5157H86.5191C86.5631 61.5157 86.6071 61.5597 86.6071 61.6033Z" fill="#263238"/>
<path d="M87.1699 62.4154C87.1699 61.9181 87.5576 61.5156 88.0405 61.5156C88.5014 61.5156 88.8671 61.8813 88.9035 62.3498V62.3534V62.3642C88.9035 62.4118 88.8635 62.4446 88.8159 62.4446H87.346C87.3644 62.8359 87.6712 63.1324 88.0405 63.1324C88.2782 63.1324 88.4978 63.0079 88.6186 62.8067C88.6442 62.7627 88.699 62.7555 88.7355 62.7775C88.7755 62.8067 88.7903 62.8579 88.7647 62.9019C88.611 63.1472 88.3442 63.308 88.0405 63.308C87.558 63.308 87.1699 62.9055 87.1699 62.4154ZM87.3568 62.2726H88.7135C88.655 61.9361 88.3698 61.6913 88.0405 61.6913C87.704 61.6913 87.4224 61.9325 87.3568 62.2726Z" fill="#263238"/>
<path d="M89.4492 61.6066C89.4492 61.5554 89.4892 61.5186 89.5404 61.5186C89.5845 61.5186 89.6249 61.5554 89.6249 61.6066V62.0015C89.6321 61.9867 89.6393 61.9719 89.6505 61.9574C89.7857 61.7454 90.0233 61.5186 90.3674 61.5186C90.415 61.5186 90.4554 61.5554 90.4554 61.6066C90.4554 61.6538 90.415 61.6942 90.3674 61.6942C90.1334 61.6942 89.9725 61.8258 89.8481 61.9867C89.7273 62.1475 89.6577 62.3303 89.6321 62.4035C89.6249 62.4183 89.6249 62.4255 89.6249 62.4327V63.2189C89.6249 63.2701 89.5845 63.3069 89.5404 63.3069C89.4892 63.3069 89.4492 63.2701 89.4492 63.2189V61.6066Z" fill="#263238"/>
<path d="M92.7766 61.6033C92.7766 61.6473 92.7326 61.6913 92.689 61.6913H92.4585V62.9968C92.4585 63.0848 92.5466 63.1284 92.5902 63.1284C92.6342 63.1284 92.6814 63.176 92.6814 63.2196C92.6814 63.2636 92.6342 63.3076 92.5902 63.3076C92.4109 63.3076 92.2757 63.176 92.2757 62.9968V61.6913H92.0525C91.9648 61.6913 91.9648 61.6473 91.9648 61.6033C91.9648 61.5593 91.9648 61.5157 92.0525 61.5157H92.2757V60.8503C92.2757 60.8063 92.3197 60.7627 92.3633 60.7627C92.4109 60.7627 92.4585 60.8067 92.4585 60.8503V61.5157H92.689C92.7326 61.5157 92.7766 61.5597 92.7766 61.6033Z" fill="#263238"/>
<path d="M94.8573 62.2214C94.8573 61.9069 94.6012 61.6949 94.2868 61.6949C93.9759 61.6949 93.7199 61.9069 93.7199 62.2214V63.2196V63.2304C93.7199 63.238 93.7163 63.2412 93.7163 63.2452C93.7127 63.2524 93.7127 63.256 93.7087 63.2596C93.6979 63.2816 93.6794 63.2964 93.6538 63.3036C93.6538 63.3036 93.6502 63.3072 93.6466 63.3072H93.6394H93.6286C93.603 63.3072 93.5774 63.2964 93.559 63.278C93.5518 63.2672 93.5482 63.2596 93.5446 63.2484C93.541 63.2376 93.541 63.23 93.541 63.2192V62.221V62.1918V60.8347C93.541 60.7875 93.581 60.7471 93.6286 60.7471C93.6798 60.7471 93.7199 60.7871 93.7199 60.8347V61.7785C93.8551 61.6177 94.0599 61.5148 94.2868 61.5148C94.7001 61.5148 95.0365 61.8077 95.0365 62.2206V63.2188C95.0365 63.2664 94.9965 63.3068 94.9453 63.3068C94.8977 63.3068 94.8577 63.2668 94.8577 63.2188L94.8573 62.2214Z" fill="#263238"/>
<path d="M95.6543 62.4154C95.6543 61.9181 96.042 61.5156 96.5245 61.5156C96.9854 61.5156 97.3511 61.8813 97.3879 62.3498V62.3534V62.3642C97.3879 62.4118 97.3479 62.4446 97.2999 62.4446H95.8299C95.8483 62.8359 96.1552 63.1324 96.5245 63.1324C96.7621 63.1324 96.9818 63.0079 97.1026 62.8067C97.1282 62.7627 97.183 62.7555 97.2198 62.7775C97.2598 62.8067 97.2746 62.8579 97.249 62.9019C97.0954 63.1472 96.8286 63.308 96.5249 63.308C96.042 63.308 95.6543 62.9055 95.6543 62.4154ZM95.8407 62.2726H97.1974C97.139 61.9361 96.8538 61.6913 96.5245 61.6913C96.188 61.6913 95.9064 61.9325 95.8407 62.2726Z" fill="#263238"/>
<path d="M100.269 60.7109C100.953 60.7109 101.491 61.2923 101.495 62.0092C101.491 62.7262 100.954 63.3075 100.269 63.3075C99.5781 63.3075 99.0368 62.7262 99.0332 62.0092C99.0368 61.2923 99.5781 60.7109 100.269 60.7109ZM100.269 63.1287C100.833 63.1287 101.308 62.635 101.312 62.0096C101.308 61.3767 100.833 60.8942 100.269 60.8942C99.6877 60.8942 99.2124 61.3767 99.2124 62.0096C99.2124 62.6346 99.6877 63.1287 100.269 63.1287Z" fill="#263238"/>
<path d="M102.715 60.9273H101.943C101.895 60.9273 101.855 60.8873 101.855 60.8357C101.855 60.7885 101.895 60.748 101.943 60.748H103.662C103.709 60.748 103.749 60.7881 103.749 60.8357C103.749 60.8869 103.709 60.9273 103.662 60.9273H102.89V63.2202C102.89 63.2678 102.85 63.3082 102.802 63.3082C102.754 63.3082 102.714 63.2682 102.714 63.2202V60.9273H102.715Z" fill="#263238"/>
<path d="M104.424 60.8357C104.424 60.7885 104.464 60.748 104.512 60.748H104.523H105.236C105.638 60.748 105.964 61.0773 105.964 61.4794C105.964 61.8815 105.638 62.2072 105.236 62.2072L104.603 62.2148V63.2206C104.603 63.2682 104.563 63.3086 104.512 63.3086C104.464 63.3086 104.424 63.2686 104.424 63.2206V60.8357ZM105.236 62.0351C105.539 62.0315 105.788 61.7827 105.788 61.479C105.788 61.1753 105.539 60.9269 105.236 60.9269H104.603V62.0351H105.236Z" fill="#263238"/>
<path d="M107.484 62.4082C107.484 61.9105 107.894 61.5156 108.406 61.5156C108.618 61.5156 108.819 61.5888 108.976 61.7133C109.013 61.7389 109.02 61.7937 108.987 61.8341C108.958 61.8669 108.907 61.8777 108.866 61.8485C108.738 61.7461 108.577 61.6877 108.405 61.6877C107.988 61.6877 107.66 62.0133 107.66 62.4082C107.66 62.8103 107.989 63.1324 108.405 63.1324C108.577 63.1324 108.738 63.074 108.866 62.9747C108.906 62.9455 108.958 62.9567 108.987 62.9895C109.02 63.0296 109.013 63.0848 108.969 63.1176C108.819 63.2344 108.617 63.3076 108.405 63.3076C107.894 63.308 107.484 62.9127 107.484 62.4082Z" fill="#263238"/>
<path d="M110.409 61.5156C110.881 61.5156 111.258 61.9253 111.258 62.4118C111.258 62.8983 110.881 63.308 110.409 63.308C109.941 63.308 109.561 62.8983 109.561 62.4118C109.561 61.9253 109.941 61.5156 110.409 61.5156ZM110.409 63.1324C110.775 63.1324 111.082 62.8103 111.082 62.4118C111.082 62.0133 110.775 61.6877 110.409 61.6877C110.043 61.6877 109.736 62.0133 109.736 62.4118C109.736 62.8103 110.044 63.1324 110.409 63.1324Z" fill="#263238"/>
<path d="M113.365 62.9605C113.208 63.1726 112.959 63.3078 112.677 63.3078C112.195 63.3078 111.811 62.9057 111.811 62.4156C111.811 61.9183 112.195 61.5158 112.677 61.5158C112.959 61.5158 113.207 61.6546 113.365 61.8671V60.8357C113.365 60.7885 113.405 60.748 113.456 60.748C113.504 60.748 113.544 60.7881 113.544 60.8357V62.3792V62.416V63.2206C113.544 63.2682 113.504 63.3086 113.456 63.3086C113.405 63.3086 113.365 63.2686 113.365 63.2206V62.9605ZM113.365 62.4448V62.3864C113.35 62.0023 113.047 61.6951 112.677 61.6951C112.301 61.6951 111.989 62.0167 111.989 62.4156C111.989 62.8105 112.301 63.129 112.677 63.129C113.047 63.129 113.35 62.8253 113.365 62.4448Z" fill="#263238"/>
<path d="M114.162 62.4154C114.162 61.9181 114.55 61.5156 115.033 61.5156C115.493 61.5156 115.859 61.8813 115.896 62.3498V62.3534V62.3642C115.896 62.4118 115.855 62.4446 115.808 62.4446H114.338C114.356 62.8359 114.663 63.1324 115.033 63.1324C115.27 63.1324 115.49 63.0079 115.61 62.8067C115.636 62.7627 115.691 62.7555 115.727 62.7775C115.768 62.8067 115.782 62.8579 115.757 62.9019C115.603 63.1472 115.336 63.308 115.033 63.308C114.55 63.308 114.162 62.9055 114.162 62.4154ZM114.349 62.2726H115.705C115.647 61.9361 115.362 61.6913 115.032 61.6913C114.696 61.6913 114.414 61.9325 114.349 62.2726Z" fill="#263238"/>
<path d="M117.488 62.9342C117.518 62.8977 117.572 62.8901 117.613 62.923C117.737 63.0142 117.935 63.1314 118.161 63.1314C118.301 63.1314 118.421 63.0874 118.501 63.0218C118.589 62.9634 118.637 62.8829 118.637 62.8021C118.633 62.7181 118.601 62.6597 118.509 62.5829C118.432 62.5245 118.304 62.4805 118.129 62.4513L118.121 62.4476C117.96 62.4184 117.817 62.3816 117.715 62.3088C117.602 62.2428 117.521 62.126 117.521 61.9868C117.521 61.8439 117.602 61.7199 117.715 61.6355C117.821 61.5623 117.971 61.5146 118.154 61.5146C118.385 61.5146 118.549 61.6207 118.688 61.7087C118.729 61.7379 118.739 61.7927 118.713 61.8331C118.688 61.8731 118.633 61.8843 118.593 61.8587C118.461 61.7707 118.329 61.6795 118.154 61.6795C118.008 61.6795 117.891 61.7195 117.814 61.7819C117.741 61.8403 117.7 61.9135 117.7 61.9868C117.7 62.06 117.733 62.1112 117.803 62.166C117.883 62.2208 118.004 62.2648 118.169 62.2904H118.176C118.348 62.316 118.487 62.3672 118.611 62.4368C118.728 62.5137 118.812 62.6529 118.812 62.8025C118.812 62.9526 118.728 63.0734 118.607 63.1646C118.483 63.2562 118.337 63.3074 118.161 63.3074C117.872 63.3038 117.646 63.1682 117.499 63.0514C117.463 63.0182 117.459 62.971 117.488 62.9342Z" fill="#263238"/>
<path d="M119.285 62.4154C119.285 61.9181 119.673 61.5156 120.156 61.5156C120.617 61.5156 120.982 61.8813 121.019 62.3498V62.3534V62.3642C121.019 62.4118 120.978 62.4446 120.931 62.4446H119.461C119.479 62.8359 119.786 63.1324 120.155 63.1324C120.393 63.1324 120.613 63.0079 120.733 62.8067C120.759 62.7627 120.814 62.7555 120.85 62.7775C120.891 62.8067 120.906 62.8579 120.88 62.9019C120.726 63.1472 120.459 63.308 120.155 63.308C119.673 63.308 119.285 62.9055 119.285 62.4154ZM119.472 62.2726H120.829C120.77 61.9361 120.485 61.6913 120.155 61.6913C119.819 61.6913 119.537 61.9325 119.472 62.2726Z" fill="#263238"/>
<path d="M122.919 62.2471C122.919 61.9434 122.674 61.695 122.367 61.695C122.063 61.695 121.818 61.9434 121.811 62.2471V63.2197V63.2345C121.807 63.2489 121.803 63.2637 121.792 63.2745C121.778 63.2965 121.752 63.3073 121.726 63.3073H121.704C121.679 63.3001 121.657 63.2817 121.646 63.2597C121.642 63.2561 121.642 63.2525 121.642 63.2485C121.642 63.2449 121.639 63.2413 121.639 63.2413V63.2193V62.2467V62.2171V61.6066C121.639 61.559 121.675 61.5186 121.727 61.5186C121.774 61.5186 121.811 61.559 121.811 61.6066V61.7786C121.942 61.621 122.143 61.519 122.367 61.519C122.769 61.519 123.095 61.8482 123.095 62.2467V63.2193C123.095 63.2705 123.054 63.3073 123.007 63.3073C122.959 63.3073 122.919 63.2705 122.919 63.2193V62.2471Z" fill="#263238"/>
<path d="M124.507 61.6033C124.507 61.6473 124.463 61.6913 124.42 61.6913H124.189V62.9968C124.189 63.0848 124.277 63.1284 124.321 63.1284C124.364 63.1284 124.412 63.176 124.412 63.2196C124.412 63.2636 124.365 63.3076 124.321 63.3076C124.142 63.3076 124.006 63.176 124.006 62.9968V61.6913H123.783C123.695 61.6913 123.695 61.6473 123.695 61.6033C123.695 61.5593 123.695 61.5157 123.783 61.5157H124.006V60.8503C124.006 60.8063 124.05 60.7627 124.094 60.7627C124.142 60.7627 124.189 60.8067 124.189 60.8503V61.5157H124.42C124.463 61.5157 124.507 61.5597 124.507 61.6033Z" fill="#263238"/>
<path d="M127.066 61.6033C127.066 61.6473 127.022 61.6913 126.978 61.6913H126.748V62.9968C126.748 63.0848 126.835 63.1284 126.879 63.1284C126.923 63.1284 126.971 63.176 126.971 63.2196C126.971 63.2636 126.923 63.3076 126.879 63.3076C126.7 63.3076 126.565 63.176 126.565 62.9968V61.6913H126.342C126.254 61.6913 126.254 61.6473 126.254 61.6033C126.254 61.5593 126.254 61.5157 126.342 61.5157H126.565V60.8503C126.565 60.8063 126.609 60.7627 126.653 60.7627C126.7 60.7627 126.748 60.8067 126.748 60.8503V61.5157H126.978C127.023 61.5157 127.066 61.5597 127.066 61.6033Z" fill="#263238"/>
<path d="M128.612 61.5156C129.084 61.5156 129.461 61.9253 129.461 62.4118C129.461 62.8983 129.084 63.308 128.612 63.308C128.144 63.308 127.764 62.8983 127.764 62.4118C127.764 61.9253 128.144 61.5156 128.612 61.5156ZM128.612 63.1324C128.978 63.1324 129.285 62.8103 129.285 62.4118C129.285 62.0133 128.978 61.6877 128.612 61.6877C128.247 61.6877 127.939 62.0133 127.939 62.4118C127.939 62.8103 128.247 63.1324 128.612 63.1324Z" fill="#263238"/>
<path d="M131.082 61.6C131.082 61.5524 131.122 61.5156 131.166 61.5156C131.217 61.5156 131.258 61.5524 131.258 61.6V62.5727C131.258 62.8799 131.503 63.1248 131.806 63.1248C132.113 63.1248 132.358 62.8795 132.362 62.5727V61.6C132.362 61.5852 132.366 61.5672 132.377 61.556C132.377 61.5524 132.38 61.5484 132.38 61.5452C132.384 61.5452 132.384 61.5416 132.388 61.5416C132.395 61.5308 132.41 61.5232 132.421 61.5196H132.428C132.432 61.5196 132.436 61.516 132.439 61.516H132.45H132.461C132.476 61.5196 132.491 61.5268 132.505 61.5344C132.513 61.5416 132.524 61.5528 132.527 61.5636C132.535 61.5744 132.538 61.5892 132.538 61.6004V62.5731V62.6059V63.1652C132.538 63.6333 132.158 64.0066 131.686 64.0066C131.555 64.0066 131.43 63.9737 131.316 63.9225C131.276 63.8969 131.258 63.8457 131.28 63.8057C131.302 63.7617 131.35 63.7509 131.393 63.7617C131.481 63.8057 131.584 63.8313 131.686 63.8313C132.059 63.8313 132.359 63.5353 132.363 63.1656V63.0484C132.227 63.202 132.03 63.3044 131.807 63.3044C131.408 63.3008 131.082 62.9751 131.082 62.5731V61.6H131.082Z" fill="#263238"/>
<path d="M134.036 61.5156C134.508 61.5156 134.885 61.9253 134.885 62.4118C134.885 62.8983 134.508 63.308 134.036 63.308C133.568 63.308 133.188 62.8983 133.188 62.4118C133.187 61.9253 133.568 61.5156 134.036 61.5156ZM134.036 63.1324C134.402 63.1324 134.709 62.8103 134.709 62.4118C134.709 62.0133 134.402 61.6877 134.036 61.6877C133.67 61.6877 133.363 62.0133 133.363 62.4118C133.363 62.8103 133.67 63.1324 134.036 63.1324Z" fill="#263238"/>
<path d="M135.463 61.6003C135.463 61.5491 135.503 61.5127 135.551 61.5127C135.598 61.5127 135.638 61.5491 135.638 61.6003V62.5769C135.638 62.8842 135.883 63.129 136.187 63.133C136.494 63.1294 136.743 62.8842 136.743 62.5769V61.6003C136.743 61.5491 136.787 61.5127 136.831 61.5127C136.882 61.5127 136.922 61.5491 136.922 61.6003V62.5769C136.922 62.979 136.597 63.3083 136.187 63.3083C135.785 63.3083 135.463 62.979 135.463 62.5769V61.6003H135.463Z" fill="#263238"/>
<path d="M137.74 61.6066C137.74 61.5554 137.78 61.5186 137.832 61.5186C137.876 61.5186 137.916 61.5554 137.916 61.6066V62.0015C137.923 61.9867 137.93 61.9719 137.941 61.9574C138.077 61.7454 138.314 61.5186 138.658 61.5186C138.706 61.5186 138.746 61.5554 138.746 61.6066C138.746 61.6538 138.706 61.6942 138.658 61.6942C138.424 61.6942 138.263 61.8258 138.139 61.9867C138.018 62.1475 137.949 62.3303 137.923 62.4035C137.916 62.4183 137.916 62.4255 137.916 62.4327V63.2189C137.916 63.2701 137.876 63.3069 137.832 63.3069C137.781 63.3069 137.74 63.2701 137.74 63.2189V61.6066Z" fill="#263238"/>
<path d="M141.723 62.2471C141.723 61.9434 141.478 61.695 141.171 61.695C140.867 61.695 140.623 61.9434 140.615 62.2471V63.2197V63.2345C140.611 63.2489 140.607 63.2637 140.597 63.2745C140.582 63.2965 140.557 63.3073 140.531 63.3073H140.509C140.483 63.3001 140.461 63.2817 140.451 63.2597C140.447 63.2561 140.447 63.2525 140.447 63.2485C140.447 63.2449 140.443 63.2413 140.443 63.2413V63.2193V62.2467V62.2171V61.6066C140.443 61.559 140.48 61.5186 140.531 61.5186C140.579 61.5186 140.615 61.559 140.615 61.6066V61.7786C140.747 61.621 140.948 61.519 141.172 61.519C141.574 61.519 141.899 61.8482 141.899 62.2467V63.2193C141.899 63.2705 141.858 63.3073 141.811 63.3073C141.764 63.3073 141.724 63.2705 141.724 63.2193V62.2471H141.723Z" fill="#263238"/>
<path d="M142.648 61.6003C142.648 61.5491 142.688 61.5127 142.736 61.5127C142.784 61.5127 142.824 61.5491 142.824 61.6003V62.5769C142.824 62.8842 143.069 63.129 143.373 63.133C143.679 63.1294 143.929 62.8842 143.929 62.5769V61.6003C143.929 61.5491 143.973 61.5127 144.016 61.5127C144.068 61.5127 144.108 61.5491 144.108 61.6003V62.5769C144.108 62.979 143.782 63.3083 143.373 63.3083C142.971 63.3083 142.649 62.979 142.649 62.5769V61.6003H142.648Z" fill="#263238"/>
<path d="M147.491 62.2471C147.484 61.9434 147.243 61.691 146.935 61.691C146.632 61.691 146.383 61.9434 146.383 62.2471V63.2237V63.2345C146.383 63.2381 146.38 63.2417 146.38 63.2417V63.2489C146.372 63.2709 146.354 63.2857 146.336 63.2965C146.321 63.3037 146.306 63.3073 146.292 63.3073H146.28H146.273C146.27 63.3073 146.266 63.3037 146.266 63.3037C146.258 63.3037 146.251 63.2965 146.244 63.2929C146.24 63.2929 146.236 63.2893 146.233 63.2857L146.222 63.2749C146.218 63.2713 146.218 63.2677 146.214 63.2677C146.214 63.2641 146.214 63.2641 146.211 63.2601C146.211 63.2601 146.211 63.2565 146.207 63.2529C146.207 63.2493 146.207 63.2457 146.204 63.2421V63.2313V63.2241V62.2475C146.204 61.9438 145.959 61.6914 145.651 61.6914C145.344 61.6914 145.099 61.9438 145.099 62.2475V63.2241C145.099 63.2533 145.085 63.2789 145.059 63.2933C145.056 63.2969 145.045 63.3041 145.037 63.3041C145.034 63.3077 145.03 63.3077 145.023 63.3077H145.012H145.001C144.968 63.3041 144.939 63.2749 144.928 63.2417V63.2233V62.2467V62.2171V61.6026C144.928 61.5554 144.968 61.5186 145.012 61.5186C145.063 61.5186 145.1 61.5554 145.1 61.6026V61.7746C145.231 61.6174 145.429 61.5186 145.652 61.5186C145.93 61.5186 146.168 61.6722 146.292 61.899C146.42 61.6726 146.662 61.5186 146.936 61.5186C147.338 61.5186 147.663 61.8438 147.663 62.2463V63.2229C147.663 63.2669 147.627 63.3069 147.576 63.3069C147.528 63.3069 147.492 63.2669 147.492 63.2229L147.491 62.2471Z" fill="#263238"/>
<path d="M148.404 62.4514V62.415V62.3782V60.8347C148.404 60.7875 148.444 60.7471 148.492 60.7471C148.543 60.7471 148.584 60.7871 148.584 60.8347V61.8661C148.74 61.6541 148.99 61.5148 149.271 61.5148C149.754 61.5148 150.138 61.9173 150.138 62.4146C150.138 62.9047 149.754 63.3068 149.271 63.3068C148.99 63.3068 148.74 63.1716 148.584 62.9595V63.2192C148.584 63.2668 148.543 63.3072 148.492 63.3072C148.444 63.3072 148.404 63.2672 148.404 63.2192V62.4514ZM148.584 62.415C148.584 62.8099 148.895 63.1284 149.271 63.1284C149.652 63.1284 149.959 62.8103 149.959 62.415C149.959 62.0161 149.652 61.6945 149.271 61.6945C148.902 61.6945 148.598 62.0017 148.584 62.3858V62.415Z" fill="#263238"/>
<path d="M150.689 62.4154C150.689 61.9181 151.077 61.5156 151.56 61.5156C152.021 61.5156 152.387 61.8813 152.423 62.3498V62.3534V62.3642C152.423 62.4118 152.383 62.4446 152.335 62.4446H150.865C150.884 62.8359 151.19 63.1324 151.56 63.1324C151.798 63.1324 152.017 63.0079 152.138 62.8067C152.163 62.7627 152.218 62.7555 152.255 62.7775C152.295 62.8067 152.31 62.8579 152.284 62.9019C152.131 63.1472 151.864 63.308 151.56 63.308C151.077 63.308 150.689 62.9055 150.689 62.4154ZM150.876 62.2726H152.233C152.174 61.9361 151.889 61.6913 151.56 61.6913C151.224 61.6913 150.942 61.9325 150.876 62.2726Z" fill="#263238"/>
<path d="M152.967 61.6066C152.967 61.5554 153.007 61.5186 153.059 61.5186C153.103 61.5186 153.143 61.5554 153.143 61.6066V62.0015C153.15 61.9867 153.157 61.9719 153.168 61.9574C153.304 61.7454 153.541 61.5186 153.885 61.5186C153.933 61.5186 153.973 61.5554 153.973 61.6066C153.973 61.6538 153.933 61.6942 153.885 61.6942C153.651 61.6942 153.49 61.8258 153.366 61.9867C153.245 62.1475 153.176 62.3303 153.15 62.4035C153.142 62.4183 153.142 62.4255 153.142 62.4327V63.2189C153.142 63.2701 153.102 63.3069 153.058 63.3069C153.007 63.3069 152.967 63.2701 152.967 63.2189L152.967 61.6066Z" fill="#263238"/>
<path d="M93.3576 53.5971C93.3436 53.5831 93.3296 53.5759 93.308 53.5619C93.308 53.5547 93.3008 53.5547 93.3008 53.5407C93.2868 53.5267 93.2728 53.5127 93.2656 53.4983C93.2656 53.4983 93.2584 53.4983 93.2584 53.4911C93.2512 53.4767 93.2372 53.4487 93.2228 53.4347L91.4924 49.3102C91.4076 49.1198 91.4996 48.8865 91.7044 48.8089C91.8953 48.7241 92.1213 48.8161 92.2061 49.0138L93.5832 52.2837L94.9603 49.0138C95.0452 48.8161 95.2784 48.7241 95.4688 48.8089C95.6665 48.8869 95.7585 49.1198 95.6809 49.3102L93.9365 53.4347C93.9293 53.4487 93.9225 53.4771 93.9081 53.4911C93.9081 53.4983 93.9081 53.4983 93.9009 53.4983C93.8937 53.5123 93.8729 53.5263 93.8657 53.5407C93.8585 53.5551 93.8585 53.5551 93.8517 53.5619C93.8377 53.5759 93.8233 53.5831 93.8093 53.5971C93.8093 53.5971 93.8093 53.5971 93.7953 53.6043C93.7813 53.6115 93.7597 53.6328 93.7389 53.64C93.7317 53.64 93.7317 53.6399 93.7249 53.6471C93.7037 53.6471 93.6897 53.6544 93.6685 53.6612C93.6685 53.6612 93.6613 53.6612 93.6545 53.6612C93.6264 53.6684 93.6048 53.6684 93.5836 53.6684C93.5624 53.6684 93.534 53.6684 93.5128 53.6612C93.5128 53.6612 93.5056 53.6612 93.4988 53.6612C93.4848 53.654 93.4564 53.6471 93.4424 53.6471C93.4424 53.6399 93.4352 53.64 93.4352 53.64C93.4352 53.64 93.4352 53.64 93.428 53.64C93.414 53.6328 93.3856 53.6115 93.3644 53.5975C93.3644 53.5975 93.3648 53.5971 93.3576 53.5971Z" fill="#263238"/>
<path d="M96.2266 51.9023C96.2338 50.9417 96.9823 50.1367 97.9497 50.1367C98.8679 50.1367 99.5953 50.8217 99.6517 51.7751C99.6517 51.7823 99.6517 51.7963 99.6517 51.8103C99.6517 51.8247 99.6517 51.8599 99.6445 51.8739C99.6233 52.0431 99.4749 52.1563 99.2772 52.1563H97.0315C97.0671 52.3188 97.1448 52.5024 97.2716 52.6225C97.42 52.7921 97.7025 52.9189 97.9493 52.9401C98.2038 52.9613 98.5075 52.8977 98.6839 52.7637C98.8323 52.6084 99.122 52.6296 99.2136 52.7425C99.3052 52.8413 99.376 53.0533 99.2136 53.2014C98.8675 53.519 98.451 53.6675 97.9493 53.6675C96.9823 53.6607 96.2338 52.8625 96.2266 51.9023ZM96.9963 51.5562H98.9948C98.9239 51.2738 98.5639 50.8573 97.9493 50.8077C97.3496 50.8357 97.0527 51.2666 96.9963 51.5562Z" fill="#263238"/>
<path d="M102.805 50.5107C102.805 50.7083 102.642 50.8852 102.43 50.8852C102.268 50.8852 102.126 50.9276 102.006 51.0196C101.872 51.1044 101.766 51.2244 101.682 51.3585C101.512 51.5845 101.427 51.853 101.392 51.9518V53.2937C101.392 53.4985 101.215 53.6682 101.003 53.6682C100.799 53.6682 100.629 53.4985 100.629 53.2937V50.5111C100.629 50.3062 100.798 50.1438 101.003 50.1438C101.215 50.1438 101.392 50.3062 101.392 50.5111V50.5607C101.434 50.5111 101.491 50.4547 101.54 50.4195C101.773 50.2642 102.077 50.137 102.43 50.1438C102.642 50.1434 102.805 50.3059 102.805 50.5107Z" fill="#263238"/>
<path d="M104.501 49.2533C104.501 49.4654 104.338 49.6418 104.12 49.6418C103.908 49.6418 103.738 49.465 103.738 49.2533V49.1049C103.738 48.8933 103.908 48.7236 104.12 48.7236C104.338 48.7236 104.501 48.8933 104.501 49.1049V49.2533ZM104.501 50.5316V53.2862C104.501 53.4983 104.338 53.6675 104.12 53.6675C103.908 53.6675 103.738 53.4979 103.738 53.2862V50.5316C103.738 50.3056 103.908 50.1431 104.12 50.1431C104.338 50.1431 104.501 50.3056 104.501 50.5316Z" fill="#263238"/>
<path d="M106.873 49.903V50.0019H107.086C107.298 50.0019 107.474 50.1715 107.474 50.3904C107.474 50.602 107.298 50.7788 107.086 50.7788H106.873V53.2718C106.873 53.4838 106.704 53.6603 106.485 53.6603C106.266 53.6603 106.097 53.4838 106.097 53.2718V50.7788H105.913C105.694 50.7788 105.518 50.602 105.518 50.3904C105.518 50.1715 105.694 50.0019 105.913 50.0019H106.097V49.903C106.097 49.6418 106.125 49.4157 106.231 49.2109C106.329 48.9989 106.527 48.8364 106.739 48.7732C106.88 48.7308 107.015 48.7168 107.163 48.7168C107.375 48.7168 107.551 48.8936 107.551 49.1053C107.551 49.3241 107.375 49.501 107.163 49.501C107.071 49.501 107.007 49.5082 106.979 49.5222C106.951 49.5294 106.943 49.5362 106.937 49.5434C106.93 49.543 106.873 49.6418 106.873 49.903Z" fill="#263238"/>
<path d="M109.042 49.2533C109.042 49.4654 108.879 49.6418 108.661 49.6418C108.449 49.6418 108.279 49.465 108.279 49.2533V49.1049C108.279 48.8933 108.449 48.7236 108.661 48.7236C108.879 48.7236 109.042 48.8933 109.042 49.1049V49.2533ZM109.042 50.5316V53.2862C109.042 53.4983 108.879 53.6675 108.661 53.6675C108.449 53.6675 108.279 53.4979 108.279 53.2862V50.5316C108.279 50.3056 108.449 50.1431 108.661 50.1431C108.88 50.1431 109.042 50.3056 109.042 50.5316Z" fill="#263238"/>
<path d="M110.012 51.9095C110.012 50.9277 110.831 50.1439 111.806 50.1367C112.229 50.1367 112.625 50.2919 112.928 50.5252C113.091 50.6524 113.119 50.8925 113.006 51.0477C112.865 51.2173 112.639 51.2458 112.477 51.1185C112.293 50.9845 112.067 50.8925 111.806 50.8925C111.234 50.8925 110.761 51.3654 110.761 51.9095C110.761 52.4532 111.234 52.9193 111.806 52.9193C112.06 52.9193 112.293 52.8277 112.477 52.6933C112.632 52.5732 112.865 52.6016 113.006 52.7709C113.119 52.9261 113.091 53.1522 112.928 53.2934C112.625 53.5122 112.229 53.6679 111.806 53.6679C110.831 53.6679 110.012 52.8765 110.012 51.9095Z" fill="#263238"/>
<path d="M117.279 51.9091V53.2934C117.279 53.4982 117.11 53.6679 116.905 53.6679C116.721 53.6679 116.581 53.5334 116.538 53.3642C116.27 53.5551 115.952 53.6679 115.599 53.6679C115.119 53.6679 114.702 53.4698 114.398 53.1522C114.094 52.8273 113.918 52.3896 113.918 51.9095C113.918 51.4222 114.094 50.9841 114.398 50.6664C114.702 50.3416 115.119 50.1367 115.599 50.1367C115.952 50.1367 116.27 50.2567 116.538 50.4476C116.581 50.2712 116.722 50.1367 116.905 50.1367C117.11 50.1367 117.279 50.306 117.279 50.518V51.9091ZM116.531 51.9091C116.531 51.6126 116.425 51.3582 116.255 51.1817C116.086 50.9909 115.846 50.8921 115.599 50.8921C115.344 50.8921 115.105 50.9909 114.942 51.1817C114.773 51.3582 114.674 51.6126 114.674 51.9091C114.674 52.1988 114.773 52.4528 114.942 52.6365C115.105 52.8133 115.345 52.9121 115.599 52.9121C115.846 52.9121 116.086 52.8133 116.255 52.6365C116.425 52.4528 116.531 52.1984 116.531 51.9091Z" fill="#263238"/>
<path d="M120.256 50.5244C120.256 50.7365 120.072 50.9129 119.86 50.9129H119.684V52.8833C119.903 52.8833 120.072 53.0598 120.072 53.2786C120.072 53.4975 119.903 53.6671 119.684 53.6671C119.253 53.6671 118.9 53.3138 118.9 52.8833V50.9129H118.695C118.476 50.9129 118.307 50.7365 118.307 50.5244C118.307 50.3056 118.476 50.1359 118.695 50.1359H118.9V49.1121C118.9 48.8933 119.076 48.7236 119.296 48.7236C119.514 48.7236 119.684 48.8933 119.684 49.1121V50.1359H119.86C120.072 50.1363 120.256 50.3056 120.256 50.5244Z" fill="#263238"/>
<path d="M122.263 49.2533C122.263 49.4654 122.101 49.6418 121.882 49.6418C121.67 49.6418 121.5 49.465 121.5 49.2533V49.1049C121.5 48.8933 121.67 48.7236 121.882 48.7236C122.101 48.7236 122.263 48.8933 122.263 49.1049V49.2533ZM122.263 50.5316V53.2862C122.263 53.4983 122.101 53.6675 121.882 53.6675C121.67 53.6675 121.5 53.4979 121.5 53.2862V50.5316C121.5 50.3056 121.67 50.1431 121.882 50.1431C122.101 50.1431 122.263 50.3056 122.263 50.5316Z" fill="#263238"/>
<path d="M123.804 53.1518C123.5 52.8409 123.316 52.4032 123.316 51.9091C123.316 51.4286 123.5 51.0121 123.804 50.6732C124.122 50.3416 124.531 50.1367 125.019 50.1367C125.485 50.1367 125.908 50.3416 126.198 50.6732C126.516 51.0125 126.692 51.429 126.692 51.9091C126.692 52.4032 126.516 52.8413 126.198 53.1518C125.908 53.4838 125.485 53.6887 125.019 53.6887C124.531 53.6887 124.122 53.4838 123.804 53.1518ZM124.086 51.9091C124.086 52.2128 124.178 52.46 124.341 52.6577C124.517 52.8269 124.75 52.9189 125.019 52.9189C125.266 52.9189 125.492 52.8273 125.669 52.6577C125.845 52.4596 125.944 52.2128 125.944 51.9091C125.944 51.6194 125.845 51.365 125.669 51.1745C125.492 51.0193 125.266 50.9061 125.019 50.9061C124.75 50.9061 124.517 51.0193 124.341 51.1745C124.178 51.365 124.086 51.6194 124.086 51.9091Z" fill="#263238"/>
<path d="M130.84 51.6058V53.2938C130.84 53.4986 130.677 53.6683 130.472 53.6683C130.275 53.6683 130.098 53.4986 130.098 53.2938V51.6058C130.098 51.2101 129.767 50.8925 129.364 50.8925C128.968 50.8925 128.657 51.2101 128.657 51.6058V53.2938C128.657 53.315 128.657 53.3362 128.643 53.3646C128.608 53.5338 128.453 53.6683 128.269 53.6683C128.057 53.6683 127.895 53.4986 127.895 53.2938V51.6058V50.5112C127.895 50.3064 128.057 50.1367 128.269 50.1367C128.417 50.1367 128.551 50.2215 128.615 50.3556C128.827 50.2215 129.088 50.1367 129.364 50.1367C130.183 50.1367 130.84 50.8077 130.84 51.6058Z" fill="#263238"/>
</g>
<defs>
<clipPath id="clip0_47_6038">
<rect width="243" height="243" fill="white"/>
</clipPath>
</defs>
</svg>
