<svg width="287" height="200" viewBox="0 0 287 200" fill="none" xmlns="http://www.w3.org/2000/svg">
<g clip-path="url(#clip0_76_78666)">
<path d="M57.1828 200C88.7641 200 114.366 198.052 114.366 195.65C114.366 193.247 88.7641 191.3 57.1828 191.3C25.6016 191.3 0 193.247 0 195.65C0 198.052 25.6016 200 57.1828 200Z" fill="#E6E6E6"/>
<path d="M43.709 44.3759C53.6605 40.1364 66.0553 42.8225 78.1602 44.6868C78.2728 42.4292 79.6382 39.6815 78.2079 38.1065C76.4703 36.1929 76.6303 34.1823 77.6759 32.1602C80.3497 26.9892 76.5189 21.487 72.6509 16.9119C71.7791 15.8831 70.6773 15.0747 69.435 14.5524C68.1927 14.0301 66.8449 13.8087 65.5011 13.9062L58.3361 14.4188C56.5926 14.5435 54.9286 15.1986 53.567 16.2964C52.2053 17.3942 51.2109 18.8823 50.7167 20.5617C49.0058 22.8922 48.0901 25.2163 48.6666 27.5283C46.104 29.2824 45.6735 31.3997 46.825 33.7866C47.8015 35.2895 47.7911 36.7524 46.7806 38.1748C45.4535 39.9883 44.4371 42.0104 43.773 44.1582L43.709 44.3759Z" fill="#2F2E41"/>
<path d="M280.2 172.897H77.375C75.5713 172.897 73.8415 172.179 72.5661 170.902C71.2907 169.624 70.5742 167.891 70.5742 166.085C144.098 157.526 216.24 157.526 287 166.085C287 167.891 286.284 169.624 285.009 170.902C283.733 172.179 282.003 172.897 280.2 172.897Z" fill="#2F2E41"/>
<path d="M287 166.486L70.5742 166.086L95.6573 123.813L95.7773 123.613V30.4487C95.7772 29.3179 95.9995 28.1981 96.4315 27.1534C96.8635 26.1086 97.4968 25.1593 98.2951 24.3597C99.0934 23.5601 100.041 22.9259 101.084 22.4932C102.127 22.0605 103.245 21.8378 104.374 21.8379H252C253.129 21.8378 254.247 22.0605 255.29 22.4932C256.333 22.9259 257.281 23.5601 258.079 24.3597C258.878 25.1593 259.511 26.1086 259.943 27.1534C260.375 28.1981 260.597 29.3179 260.597 30.4487V124.254L287 166.486Z" fill="#3F3D56"/>
<path d="M104.179 27.8477C103.437 27.8485 102.725 28.1443 102.2 28.6701C101.675 29.1959 101.38 29.9088 101.379 30.6525V115.598C101.38 116.342 101.675 117.055 102.2 117.581C102.725 118.106 103.437 118.402 104.179 118.403H253.397C254.14 118.402 254.852 118.106 255.376 117.581C255.901 117.055 256.197 116.342 256.198 115.598V30.6525C256.197 29.9089 255.901 29.1959 255.377 28.6701C254.852 28.1443 254.14 27.8485 253.397 27.8477H104.179Z" fill="white"/>
<path d="M104.804 129.622C104.575 129.622 104.35 129.689 104.157 129.813C103.964 129.936 103.81 130.113 103.714 130.322L95.9849 147.151C95.9008 147.334 95.864 147.535 95.8779 147.736C95.8918 147.937 95.956 148.132 96.0646 148.301C96.1731 148.471 96.3226 148.611 96.4992 148.708C96.6757 148.804 96.8738 148.855 97.0751 148.855H259.609C259.814 148.855 260.015 148.803 260.193 148.703C260.372 148.603 260.522 148.459 260.63 148.285C260.737 148.111 260.799 147.912 260.808 147.707C260.817 147.502 260.774 147.299 260.682 147.115L252.281 130.287C252.182 130.086 252.029 129.918 251.839 129.801C251.65 129.683 251.431 129.621 251.208 129.622H104.804Z" fill="#2F2E41"/>
<path d="M178.187 26.4451C179.181 26.4451 179.987 25.6378 179.987 24.642C179.987 23.6461 179.181 22.8389 178.187 22.8389C177.193 22.8389 176.387 23.6461 176.387 24.642C176.387 25.6378 177.193 26.4451 178.187 26.4451Z" fill="white"/>
<path d="M162.211 152.062C161.947 152.062 161.691 152.149 161.481 152.31C161.272 152.471 161.121 152.696 161.052 152.951L159.114 160.163C159.066 160.341 159.059 160.528 159.095 160.709C159.131 160.89 159.208 161.061 159.32 161.207C159.432 161.354 159.576 161.472 159.741 161.554C159.906 161.636 160.088 161.678 160.272 161.678H197.142C197.334 161.678 197.522 161.632 197.692 161.544C197.862 161.457 198.009 161.329 198.12 161.173C198.231 161.017 198.303 160.837 198.33 160.647C198.357 160.457 198.339 160.264 198.276 160.083L195.784 152.87C195.702 152.634 195.549 152.429 195.345 152.284C195.142 152.14 194.899 152.062 194.649 152.062H162.211Z" fill="#2F2E41"/>
<path d="M260.598 122.21V123.813H95.6582L95.7823 123.612V122.21H260.598Z" fill="#2F2E41"/>
<path d="M255.996 56.0963C271.461 56.0963 283.999 43.5387 283.999 28.0481C283.999 12.5576 271.461 0 255.996 0C240.53 0 227.992 12.5576 227.992 28.0481C227.992 43.5387 240.53 56.0963 255.996 56.0963Z" fill="#F58218"/>
<path d="M267.598 40.2696H244.395C243.971 40.2692 243.564 40.1002 243.264 39.7997C242.964 39.4992 242.795 39.0918 242.795 38.6669V24.6428C242.795 24.2179 242.964 23.8104 243.264 23.51C243.564 23.2095 243.971 23.0405 244.395 23.04H267.598C268.022 23.0405 268.429 23.2095 268.729 23.51C269.029 23.8104 269.198 24.2179 269.198 24.6428V38.6669C269.198 39.0918 269.029 39.4992 268.729 39.7997C268.429 40.1002 268.022 40.2692 267.598 40.2696ZM244.395 24.6428V38.6669H267.599L267.598 24.6428L244.395 24.6428Z" fill="white"/>
<path d="M263.197 24.6425H248.795V18.2315C248.795 13.588 251.823 10.2178 255.996 10.2178C260.168 10.2178 263.197 13.588 263.197 18.2315L263.197 24.6425ZM250.395 23.0398H261.596V18.2315C261.596 14.4569 259.293 11.8205 255.996 11.8205C252.698 11.8205 250.395 14.4569 250.395 18.2315L250.395 23.0398Z" fill="white"/>
<path d="M255.997 32.8569C256.88 32.8569 257.597 32.1393 257.597 31.2541C257.597 30.3689 256.88 29.6514 255.997 29.6514C255.113 29.6514 254.396 30.3689 254.396 31.2541C254.396 32.1393 255.113 32.8569 255.997 32.8569Z" fill="white"/>
<path d="M236.447 89.5901H121.126C120.56 89.5894 120.017 89.3639 119.616 88.9629C119.216 88.5619 118.991 88.0182 118.99 87.4511V58.7991C118.991 58.2321 119.216 57.6884 119.616 57.2874C120.017 56.8864 120.56 56.6608 121.126 56.6602H236.447C237.013 56.6608 237.556 56.8864 237.956 57.2874C238.357 57.6884 238.582 58.2321 238.582 58.7991V87.4511C238.582 88.0182 238.357 88.5619 237.956 88.9629C237.556 89.3639 237.013 89.5894 236.447 89.5901ZM121.126 57.5158C120.786 57.5161 120.46 57.6515 120.22 57.8921C119.98 58.1327 119.845 58.4589 119.844 58.7992V87.4511C119.845 87.7914 119.98 88.1176 120.22 88.3582C120.46 88.5988 120.786 88.7341 121.126 88.7345H236.447C236.787 88.7341 237.112 88.5988 237.353 88.3582C237.593 88.1176 237.728 87.7914 237.728 87.4511V58.7991C237.728 58.4589 237.593 58.1327 237.353 57.8921C237.112 57.6514 236.787 57.5161 236.447 57.5158L121.126 57.5158Z" fill="#E6E6E6"/>
<path d="M139.045 80.7397C143.849 80.7397 147.744 76.8387 147.744 72.0266C147.744 67.2145 143.849 63.3135 139.045 63.3135C134.24 63.3135 130.346 67.2145 130.346 72.0266C130.346 76.8387 134.24 80.7397 139.045 80.7397Z" fill="#E6E6E6"/>
<path d="M159.136 66.2178C158.945 66.2175 158.756 66.2548 158.58 66.3276C158.404 66.4005 158.244 66.5074 158.109 66.6423C157.974 66.7772 157.867 66.9374 157.794 67.1137C157.721 67.29 157.684 67.4791 157.684 67.67C157.684 67.8609 157.721 68.0499 157.794 68.2262C157.867 68.4025 157.974 68.5627 158.109 68.6976C158.244 68.8325 158.404 68.9394 158.58 69.0123C158.756 69.0851 158.945 69.1224 159.136 69.1221H227.487C227.871 69.1221 228.24 68.9691 228.512 68.6968C228.784 68.4245 228.936 68.0551 228.936 67.67C228.936 67.2848 228.784 66.9154 228.512 66.6431C228.24 66.3708 227.871 66.2178 227.487 66.2178H159.136Z" fill="#E6E6E6"/>
<path d="M159.137 74.9307C158.753 74.9307 158.384 75.0837 158.112 75.356C157.84 75.6283 157.688 75.9977 157.688 76.3828C157.688 76.768 157.84 77.1374 158.112 77.4097C158.384 77.682 158.753 77.835 159.137 77.835H188.549C188.933 77.835 189.302 77.682 189.574 77.4097C189.846 77.1374 189.999 76.768 189.999 76.3828C189.999 75.9977 189.846 75.6283 189.574 75.356C189.302 75.0837 188.933 74.9307 188.549 74.9307H159.137Z" fill="#E6E6E6"/>
<path d="M95.373 75.5181L74.055 86.8698L73.7852 77.4101C80.7432 76.2466 87.3631 74.221 93.4841 70.9234L95.7137 65.4061C95.9566 64.805 96.3515 64.2774 96.8595 63.8752C97.3675 63.473 97.9712 63.2101 98.6113 63.1122C99.2514 63.0143 99.9059 63.0848 100.511 63.3168C101.115 63.5488 101.649 63.9343 102.06 64.4354C102.662 65.1687 102.962 66.1035 102.901 67.0504C102.84 67.9973 102.422 68.8856 101.732 69.5353L95.373 75.5181Z" fill="#FFB8B8"/>
<path d="M43.2862 141.059C43.1307 140.487 43.0977 139.889 43.1893 139.304C43.281 138.719 43.4952 138.161 43.818 137.664L48.5009 130.466C49.6085 128.764 51.3081 127.534 53.2699 127.015C55.2316 126.497 57.3157 126.727 59.1177 127.661C57.1496 131.016 57.424 133.96 59.7974 136.518C56.1129 138.319 52.7076 140.645 49.6869 143.421C49.1355 143.798 48.5022 144.037 47.8398 144.119C47.1774 144.201 46.5051 144.123 45.8788 143.891C45.2526 143.66 44.6906 143.283 44.2396 142.79C43.7887 142.297 43.4618 141.703 43.2862 141.059Z" fill="#2F2E41"/>
<path d="M96.3441 131.647C95.6354 132.83 94.6351 133.81 93.4391 134.495C92.2432 135.179 90.8917 135.544 89.5144 135.554L58.4039 135.79L57.0547 127.952L70.8169 123.898L59.2135 114.979L71.8963 100.113L94.9323 121.618C96.2787 122.875 97.1535 124.557 97.4105 126.382C97.6675 128.208 97.291 130.066 96.3441 131.647Z" fill="#2F2E41"/>
<path d="M53.5478 185.252H46.2619C39.7202 140.339 33.0614 95.3014 52.7382 78.4912L75.9451 82.2751L72.9768 102.006L60.0241 116.871L53.5478 185.252Z" fill="#2F2E41"/>
<path d="M59.9516 195.425C59.3813 195.581 58.7844 195.614 58.2004 195.522C57.6163 195.43 57.0583 195.216 56.5629 194.893L48.652 193.828C46.952 192.718 45.7241 191.016 45.2064 189.051C44.6888 187.086 44.9182 184.999 45.8504 183.194C49.2005 185.165 52.1394 184.89 54.6933 182.513C56.4978 186.162 59.4709 185.939 62.3104 189.014C62.6863 189.566 62.9251 190.201 63.0068 190.864C63.0884 191.528 63.0106 192.201 62.7799 192.828C62.5491 193.455 62.172 194.018 61.6801 194.47C61.1881 194.922 60.5955 195.249 59.9516 195.425Z" fill="#2F2E41"/>
<path d="M70.8166 48.4901L57.3242 45.2468C59.5651 40.6525 59.7496 35.5405 58.6734 30.1111L67.8483 29.8408C68.1358 36.5924 69.0055 42.9002 70.8166 48.4901Z" fill="#FFB8B8"/>
<path d="M74.5255 90.4133C64.7036 97.1169 57.7636 90.6426 52.4677 80.6536C53.2036 74.5413 52.012 67.2266 49.8052 59.2786C48.8237 55.773 49.1901 52.0262 50.8321 48.778C52.474 45.5297 55.2722 43.0161 58.6742 41.7334L70.2776 46.5984C80.1303 54.6423 82.0696 63.3555 78.3731 72.5453L74.5255 90.4133Z" fill="#F58218"/>
<path d="M46.26 55.2475L35.466 60.9233L54.6252 72.2751L57.2911 78.8614C57.4691 79.301 57.5557 79.7723 57.5459 80.2466C57.536 80.7208 57.4298 81.1881 57.2338 81.6199C57.0377 82.0517 56.7559 82.439 56.4056 82.7582C56.0552 83.0773 55.6436 83.3217 55.1959 83.4763C54.687 83.6521 54.1443 83.7075 53.6104 83.6381C53.0765 83.5688 52.5659 83.3766 52.1186 83.0766C51.6712 82.7766 51.2993 82.3769 51.0319 81.9089C50.7645 81.4409 50.6089 80.9173 50.5773 80.379L50.3077 75.7887L25.9565 67.74C25.1361 67.4688 24.388 67.0142 23.769 66.4105C23.1499 65.8069 22.6761 65.0701 22.3835 64.2559C21.9569 63.0691 21.9352 61.7741 22.3217 60.5736C22.7083 59.3731 23.4812 58.3348 24.5197 57.6213L44.1012 44.166L46.26 55.2475Z" fill="#FFB8B8"/>
<path d="M57.0542 56.3285C52.5525 54.3525 48.4589 56.499 43.292 58.2204L42.4824 43.8956C47.613 41.1567 52.5047 40.4183 57.0542 42.5443L57.0542 56.3285Z" fill="#F58218"/>
<path d="M62.4406 36.936C67.1981 36.936 71.0549 33.073 71.0549 28.3078C71.0549 23.5426 67.1981 19.6797 62.4406 19.6797C57.683 19.6797 53.8262 23.5426 53.8262 28.3078C53.8262 33.073 57.683 36.936 62.4406 36.936Z" fill="#FFB8B8"/>
<path d="M72.746 27.2196C64.2171 28.0563 57.718 26.6592 53.5645 22.6812V19.4775H72.0222L72.746 27.2196Z" fill="#2F2E41"/>
</g>
<defs>
<clipPath id="clip0_76_78666">
<rect width="287" height="200" fill="white"/>
</clipPath>
</defs>
</svg>
