<svg width="142" height="127" viewBox="0 0 142 127" fill="none" xmlns="http://www.w3.org/2000/svg">
<g clip-path="url(#clip0_49_7306)">
<path d="M67.3916 26.3369H66.7772V9.65502C66.7772 8.3871 66.5252 7.13161 66.0357 5.96021C65.5461 4.78881 64.8286 3.72444 63.924 2.82789C63.0194 1.93134 61.9455 1.22016 60.7636 0.734947C59.5817 0.249737 58.315 1.07428e-06 57.0357 0H21.3763C18.7927 -4.88151e-06 16.3149 1.01721 14.488 2.82787C12.6611 4.63853 11.6348 7.09432 11.6348 9.65499V101.173C11.6348 102.441 11.8867 103.696 12.3763 104.868C12.8658 106.039 13.5834 107.104 14.488 108C15.3926 108.897 16.4665 109.608 17.6483 110.093C18.8302 110.578 20.097 110.828 21.3763 110.828H57.0356C59.6193 110.828 62.097 109.811 63.9239 108C65.7508 106.189 66.7772 103.734 66.7772 101.173V38.2113H67.3916V26.3369Z" fill="#2F3139"/>
<path d="M57.4302 2.51172H52.7755C52.9895 3.03186 53.0712 3.5962 53.0134 4.15502C52.9556 4.71383 52.76 5.24998 52.4438 5.71622C52.1277 6.18246 51.7007 6.56449 51.2005 6.82865C50.7003 7.09281 50.1422 7.231 49.5754 7.23105H29.1466C28.5798 7.23101 28.0218 7.09282 27.5216 6.82865C27.0214 6.56449 26.5944 6.18246 26.2782 5.71622C25.9621 5.24998 25.7665 4.71384 25.7087 4.15502C25.6508 3.5962 25.7325 3.03186 25.9466 2.51172H21.5991C20.6437 2.51172 19.6977 2.69822 18.8151 3.06057C17.9325 3.42291 17.1305 3.95402 16.455 4.62355C15.7794 5.29308 15.2436 6.08793 14.878 6.96272C14.5124 7.83751 14.3242 8.7751 14.3242 9.72197V101.106C14.3242 102.053 14.5124 102.99 14.878 103.865C15.2436 104.74 15.7794 105.535 16.455 106.204C17.1305 106.874 17.9325 107.405 18.8151 107.767C19.6977 108.129 20.6437 108.316 21.5991 108.316H57.4302C58.3855 108.316 59.3315 108.129 60.2142 107.767C61.0968 107.405 61.8988 106.874 62.5743 106.204C63.2498 105.535 63.7857 104.74 64.1513 103.865C64.5169 102.99 64.705 102.053 64.705 101.106V9.72197C64.705 8.7751 64.5169 7.83751 64.1513 6.96272C63.7857 6.08793 63.2498 5.29308 62.5743 4.62355C61.8988 3.95402 61.0968 3.42291 60.2142 3.06057C59.3315 2.69822 58.3855 2.51172 57.4302 2.51172Z" fill="white"/>
<path d="M78.8222 110.844H0.206341C0.151616 110.844 0.0991321 110.822 0.0604357 110.784C0.0217393 110.745 0 110.693 0 110.639C0 110.585 0.0217393 110.533 0.0604357 110.494C0.0991321 110.456 0.151616 110.435 0.206341 110.435H78.8222C78.8769 110.435 78.9294 110.456 78.9681 110.494C79.0068 110.533 79.0286 110.585 79.0286 110.639C79.0286 110.693 79.0068 110.745 78.9681 110.784C78.9294 110.822 78.8769 110.844 78.8222 110.844Z" fill="#CBCBCB"/>
<path d="M39.5145 70.6943C49.1379 70.6943 56.9393 62.9622 56.9393 53.4243C56.9393 43.8863 49.1379 36.1543 39.5145 36.1543C29.8911 36.1543 22.0898 43.8863 22.0898 53.4243C22.0898 62.9622 29.8911 70.6943 39.5145 70.6943Z" fill="#F58218"/>
<path d="M37.7893 60.0126C37.3973 60.0132 37.0157 59.8876 36.7021 59.6545L36.6826 59.64L32.5876 56.5353C32.3979 56.3911 32.2388 56.2114 32.1192 56.0063C31.9996 55.8013 31.922 55.5749 31.8907 55.34C31.8594 55.1052 31.8751 54.8666 31.9368 54.6378C31.9986 54.409 32.1052 54.1944 32.2506 54.0065C32.396 53.8185 32.5773 53.6607 32.7842 53.5422C32.9911 53.4237 33.2196 53.3468 33.4565 53.3157C33.6934 53.2847 33.9342 53.3003 34.1651 53.3615C34.3959 53.4227 34.6124 53.5283 34.802 53.6724L37.4544 55.6884L43.7223 47.5839C43.8676 47.396 44.0489 47.2383 44.2557 47.1199C44.4626 47.0014 44.6909 46.9245 44.9277 46.8935C45.1645 46.8625 45.4052 46.878 45.636 46.9392C45.8667 47.0003 46.0831 47.106 46.2727 47.25L46.2732 47.2504L46.2343 47.304L46.2743 47.2504C46.6567 47.5418 46.907 47.9716 46.97 48.4456C47.0331 48.9196 46.9039 49.399 46.6107 49.7787L39.2384 59.3071C39.0678 59.5266 38.8485 59.7043 38.5975 59.8263C38.3465 59.9482 38.0705 60.0113 37.7909 60.0105L37.7893 60.0126Z" fill="white"/>
<path d="M111.053 112.542C111.265 112.202 111.514 111.887 111.797 111.602C111.913 111.482 112.036 111.369 112.163 111.259C112.933 110.58 113.872 110.116 114.884 109.915C115.895 109.714 116.942 109.784 117.917 110.118C118.892 110.451 119.76 111.036 120.431 111.812C121.103 112.588 121.554 113.527 121.737 114.533C122.588 111.414 120.373 108.341 118.146 105.981C115.917 103.622 113.37 101.034 113.383 97.8014C113.389 96.0026 114.277 94.3978 115.618 93.2081C115.659 93.172 115.7 93.136 115.743 93.1013C117.363 91.7248 119.447 91.0049 121.58 91.0852C125.541 91.2955 129 93.9344 131.402 97.0645C135.269 102.101 136.963 109.171 134.256 114.904C131.875 119.947 126.797 122.941 121.615 125.348C120.891 125.684 120.169 126.01 119.448 126.326C119.443 126.328 119.438 126.331 119.433 126.332C119.399 126.347 119.364 126.362 119.331 126.378C119.183 126.443 119.034 126.508 118.886 126.572L118.955 126.617L119.168 126.753C119.094 126.709 119.021 126.666 118.947 126.622C118.925 126.608 118.902 126.596 118.88 126.582C116.334 125.068 113.754 123.467 111.995 121.104C110.171 118.65 109.438 115.135 111.053 112.542Z" fill="#F58218"/>
<path d="M128.035 106.842C128.599 108.113 128.973 109.459 129.144 110.836C129.28 112.065 129.229 113.307 128.994 114.52C128.488 117.014 127.386 119.351 125.779 121.335C124.567 122.841 123.168 124.189 121.615 125.347C120.891 125.684 120.169 126.01 119.448 126.326C119.444 126.327 119.438 126.33 119.434 126.331C119.399 126.347 119.364 126.362 119.332 126.377C119.183 126.442 119.034 126.507 118.887 126.572L118.955 126.616L119.168 126.753C119.094 126.708 119.021 126.665 118.947 126.621C118.925 126.607 118.902 126.595 118.88 126.581C119.44 124.639 119.523 122.593 119.12 120.613C118.718 118.632 117.843 116.777 116.568 115.201C115.286 113.645 113.651 112.412 111.797 111.601C111.913 111.481 112.036 111.368 112.163 111.259C112.877 111.584 113.561 111.971 114.206 112.415C116.515 113.997 118.248 116.273 119.15 118.906C119.955 121.296 120.056 123.863 119.44 126.307C119.568 126.224 119.696 126.139 119.821 126.055C122.192 124.47 124.377 122.567 126.023 120.232C127.443 118.26 128.352 115.971 128.669 113.568C128.984 110.944 128.322 108.363 127.14 106.021C125.834 103.516 124.189 101.199 122.25 99.1352C120.303 97.0145 118.101 95.1381 115.693 93.5476C115.639 93.5113 115.601 93.4558 115.587 93.3924C115.573 93.3291 115.584 93.2628 115.618 93.2073C115.644 93.1568 115.689 93.1184 115.743 93.1005C115.77 93.0936 115.799 93.0929 115.827 93.0984C115.855 93.104 115.881 93.1158 115.904 93.1328C116.201 93.3294 116.495 93.5276 116.787 93.7318C119.211 95.4332 121.413 97.4265 123.341 99.6658C125.204 101.824 126.9 104.223 128.035 106.842Z" fill="white"/>
<path d="M76.14 8.01894C78.1837 8.01894 79.8405 6.37687 79.8405 4.35127C79.8405 2.32567 78.1837 0.683594 76.14 0.683594C74.0962 0.683594 72.4395 2.32567 72.4395 4.35127C72.4395 6.37687 74.0962 8.01894 76.14 8.01894Z" fill="#F58218" fill-opacity="0.21"/>
<path d="M122.155 57.1011C123.401 57.1011 124.411 56.1 124.411 54.865C124.411 53.63 123.401 52.6289 122.155 52.6289C120.909 52.6289 119.898 53.63 119.898 54.865C119.898 56.1 120.909 57.1011 122.155 57.1011Z" fill="#F58218" fill-opacity="0.21"/>
<path d="M57.3997 127H136.016C136.07 127 136.123 126.978 136.161 126.94C136.2 126.902 136.222 126.85 136.222 126.795C136.222 126.741 136.2 126.689 136.161 126.651C136.123 126.612 136.07 126.591 136.016 126.591H57.3997C57.345 126.591 57.2925 126.612 57.2538 126.651C57.2151 126.689 57.1934 126.741 57.1934 126.795C57.1934 126.85 57.2151 126.902 57.2538 126.94C57.2925 126.978 57.345 127 57.3997 127Z" fill="#CBCBCB"/>
<path d="M127.34 19.763C127.443 19.0366 127.274 18.298 126.864 17.6869C126.454 17.0759 125.833 16.6351 125.117 16.4479C124.402 16.2606 123.642 16.3401 122.981 16.6712C122.321 17.0023 121.806 17.562 121.534 18.2443L115.154 25.493L117.026 30.6746L123.442 22.2048C123.861 22.3377 124.304 22.378 124.74 22.3229C125.176 22.2678 125.594 22.1186 125.966 21.8858C126.337 21.653 126.653 21.3423 126.89 20.9755C127.128 20.6088 127.281 20.1949 127.34 19.763Z" fill="#FFB7B7"/>
<path d="M100.895 47.9669L122.072 25.5672L119.215 21.0664L92.6543 43.3301L100.895 47.9669Z" fill="#2F3139"/>
<path d="M96.1685 34.3574C100.271 34.3574 103.597 31.0612 103.597 26.9951C103.597 22.929 100.271 19.6328 96.1685 19.6328C92.066 19.6328 88.7402 22.929 88.7402 26.9951C88.7402 31.0612 92.066 34.3574 96.1685 34.3574Z" fill="#2F3139"/>
<path d="M96.7656 22.8364C98.3641 21.2298 100.298 19.9901 102.432 19.2044C103.802 18.7015 105.293 18.3907 106.725 18.6764C108.157 18.962 109.512 19.9439 109.911 21.3366C110.238 22.4753 109.901 23.7014 109.394 24.7734C108.887 25.8454 108.21 26.8395 107.8 27.9515C107.381 29.0861 107.256 30.3063 107.434 31.5013C107.612 32.6964 108.088 33.8284 108.82 34.7946C109.551 35.7609 110.515 36.5307 111.623 37.0343C112.731 37.5379 113.948 37.7593 115.164 37.6784C113.757 37.8654 112.46 38.5208 111.084 38.8696C109.709 39.2185 108.086 39.1948 107.064 38.2182C105.982 37.1849 105.96 35.505 106.013 34.0171C106.09 31.8053 106.168 29.5936 106.246 27.3818C106.286 26.2538 106.319 25.0897 105.909 24.037C105.499 22.9842 104.523 22.0623 103.384 22.0719C102.521 22.0791 101.758 22.5973 101.065 23.1083C100.373 23.6193 99.6408 24.1646 98.7811 24.2406C97.9215 24.3166 96.94 23.686 97.0043 22.833L96.7656 22.8364Z" fill="#2F3139"/>
<path d="M67.9556 76.4302C67.2425 76.6265 66.4815 76.5568 65.8167 76.2342C65.152 75.9116 64.6298 75.3585 64.349 74.6798C64.0683 74.001 64.0485 73.2438 64.2934 72.5515C64.5383 71.8593 65.0308 71.2801 65.6778 70.9238L72.0951 63.708L77.5229 64.8702L69.8888 72.2813C70.0765 72.6753 70.1747 73.1053 70.1765 73.541C70.1784 73.9767 70.0838 74.4075 69.8995 74.803C69.7152 75.1986 69.4456 75.5493 69.1098 75.8304C68.7739 76.1116 68.3799 76.3163 67.9556 76.4302Z" fill="#FFB7B7"/>
<path d="M89.0692 50.5969L73.0746 70.4956L68.1992 68.2771L86.9989 39.2686L89.0692 50.5969Z" fill="#2F3139"/>
<path d="M76.3061 110.682L72.4941 110.623L72.9526 123.5H76.3055L76.3061 110.682Z" fill="#FFB7B7"/>
<path d="M77.1611 122.415L70.5579 122.415H70.5576C69.4416 122.415 68.3713 122.855 67.5822 123.637C66.7931 124.419 66.3497 125.48 66.3496 126.586V126.721L77.1609 126.722L77.1611 122.415Z" fill="#48494D"/>
<path d="M101.545 107.267L97.3809 109.916L105.71 119.848L108.532 118.053L101.545 107.267Z" fill="#FFB7B7"/>
<path d="M108.661 116.683L103.105 120.218L103.104 120.218C102.165 120.816 101.504 121.759 101.266 122.84C101.029 123.92 101.234 125.05 101.837 125.981L101.911 126.095L111.008 120.306L108.661 116.683Z" fill="#48494D"/>
<path d="M103.028 67.946C103.028 67.946 93.776 37.489 90.8026 37.0774C87.8292 36.6659 83.0384 44.8924 83.0384 44.8924C76.8269 52.7472 70.4219 78.1907 70.4219 78.1907C70.4219 78.1907 81.0993 78.8529 88.9045 82.9687C96.7097 87.0845 105.921 82.7603 105.921 82.7603L103.028 67.946Z" fill="#2F3139"/>
<path opacity="0.1" d="M103.028 67.9458C103.028 67.9458 93.776 37.4889 90.8026 37.0773C87.8292 36.6657 84.2552 44.9757 84.2552 44.9757C81.1601 57.6552 70.4219 78.1905 70.4219 78.1905C70.4219 78.1905 81.0993 78.8527 88.9045 82.9685C96.7097 87.0844 105.921 82.7602 105.921 82.7602L103.028 67.9458Z" fill="black"/>
<path d="M95.4376 58.8332V74.1376L97.2548 96.3072L106.334 113.077L102.001 116.145L89.6202 100.193L84.7235 84.3538L77.0334 119.417L71.2559 119.008L75.2684 70.3936L82.8826 56.71L95.4376 58.8332Z" fill="#48494D"/>
<path d="M86.1094 44.0304C83.2206 46.8936 85.903 49.9612 85.903 49.9612L82.6016 57.3235L95.601 60.8002L100.144 40.6809L97.0488 37.4088C90.8585 37.2043 90.8552 37.0771 90.8552 37.0771C89.7706 38.1291 86.1094 44.0304 86.1094 44.0304Z" fill="#F58218"/>
<path d="M100.667 38.597C100.076 38.1651 99.4053 37.8536 98.6925 37.6804C97.9798 37.5073 97.2395 37.4761 96.5145 37.5886C95.7895 37.7011 95.0942 37.955 94.4689 38.3357C93.8436 38.7164 93.3007 39.2162 92.8717 39.8063C89.6037 44.3162 86.5819 51.5985 90.7454 60.6809C97.4307 75.2643 103.248 82.7299 105.613 82.7291C105.717 82.73 105.819 82.714 105.917 82.6818C107.373 82.1923 109.478 79.7508 109.859 77.5992C109.995 76.8291 109.963 75.7564 109.034 75.0199C106.365 72.904 101.573 66.3157 100.078 57.644C99.2521 52.8524 100.854 48.4877 102.343 45.6701C102.972 44.5042 103.156 43.1527 102.862 41.8632C102.567 40.5738 101.813 39.4328 100.739 38.6495L100.667 38.597Z" fill="#2F3139"/>
<path d="M96.5514 33.6339C99.2012 32.1982 100.175 28.9053 98.7266 26.279C97.278 23.6527 93.9556 22.6875 91.3058 24.1231C88.6559 25.5588 87.6821 28.8517 89.1306 31.478C90.5792 34.1044 93.9016 35.0696 96.5514 33.6339Z" fill="#FFB7B7"/>
<path d="M86.2383 28.4694H94.134L94.215 27.3459L94.6198 28.4694H95.8356L95.9961 26.2426L96.7984 28.4694H99.1509V28.3591C99.1492 26.8088 98.527 25.3225 97.421 24.2263C96.315 23.1301 94.8154 22.5135 93.2512 22.5117H92.138C90.5738 22.5135 89.0743 23.1301 87.9682 24.2263C86.8622 25.3225 86.24 26.8088 86.2383 28.3591V28.4694Z" fill="#2F3139"/>
<path d="M97.9579 32.508L101.327 31.4244V23.3145H94.9629L95.1205 23.4704C97.3128 25.6404 99.751 33.3394 97.9579 32.508Z" fill="#2F3139"/>
</g>
<defs>
<clipPath id="clip0_49_7306">
<rect width="142" height="127" fill="white"/>
</clipPath>
</defs>
</svg>
