<svg width="375" height="387" viewBox="0 0 375 387" fill="none" xmlns="http://www.w3.org/2000/svg">
<path d="M341.5 367.102C342.054 367.122 342.601 366.973 343.066 366.676C343.532 366.379 343.893 365.949 344.102 365.442C344.311 364.936 344.357 364.378 344.234 363.845C344.111 363.312 343.825 362.829 343.415 362.462C343.344 362.195 343.293 362.004 343.222 361.737C343.739 360.405 344.648 359.255 345.832 358.435C347.015 357.615 348.42 357.162 349.866 357.135C351.313 357.108 352.734 357.508 353.948 358.283C355.163 359.058 356.115 360.173 356.683 361.486C359.957 368.852 364.177 376.47 362.194 384.636C375.537 356.036 370.564 320.662 350.203 296.502C344.611 293.531 340.05 288.202 338.816 281.976C341.578 282.871 344.99 280.629 342.892 277.788C341.984 276.703 341.068 275.627 340.16 274.542C350.512 263.456 363.14 280.607 351.771 295.546C355.582 300.168 358.892 305.171 361.649 310.472C360.969 304.822 361.66 299.093 363.663 293.757C365.697 288.782 369.559 284.573 372.954 280.257C377.082 274.998 385.705 277.325 386.331 283.943C382.487 285.23 382.039 290.73 386.457 291.44C385.421 303.773 377.371 315.173 366.184 320.682C370.445 332.131 372.184 344.345 371.284 356.509C373.131 342.285 388.554 338.693 399.303 332.946C399.986 332.504 400.785 332.268 401.602 332.267C402.418 332.266 403.218 332.499 403.903 332.939C404.588 333.378 405.128 334.005 405.458 334.742C405.788 335.479 405.893 336.295 405.761 337.09C404.276 337.702 402.856 338.459 401.522 339.348C400.897 339.771 400.42 340.374 400.156 341.075C399.893 341.776 399.855 342.54 400.049 343.263C400.243 343.986 400.659 344.632 401.24 345.112C401.82 345.593 402.537 345.885 403.292 345.947C397.975 359.294 383.983 368.355 369.522 368.44C368.19 374.41 366.233 380.228 363.682 385.798L342.221 386C342.141 385.765 342.07 385.523 341.998 385.289C343.986 385.393 345.979 385.257 347.933 384.884C342.618 378.794 338.524 375.7 341.5 367.102Z" fill="#F2F2F2"/>
<path d="M74.7006 360.746C73.9971 360.771 73.3027 360.58 72.7115 360.198C72.1203 359.815 71.6609 359.261 71.3956 358.609C71.1302 357.957 71.0716 357.239 71.2279 356.552C71.3841 355.866 71.7476 355.244 72.2691 354.771C72.3589 354.428 72.4234 354.182 72.5132 353.838C71.8565 352.122 70.7024 350.641 69.1986 349.586C67.6949 348.53 65.9102 347.947 64.0731 347.913C62.2361 347.878 60.4306 348.392 58.8879 349.39C57.3453 350.388 56.1358 351.824 55.4146 353.514C51.255 362.999 45.895 372.809 48.4141 383.324C31.4643 346.496 37.7815 300.947 63.6454 269.837C70.749 266.012 76.5425 259.15 78.1101 251.134C74.6014 252.286 70.2682 249.399 72.9327 245.74C74.086 244.343 75.2501 242.957 76.4032 241.56C63.2529 227.285 47.2122 249.371 61.6534 268.606C56.8127 274.558 52.6075 281 49.1063 287.826C49.9691 280.55 49.0922 273.174 46.5479 266.303C43.9639 259.897 39.0578 254.477 34.7449 248.92C29.5012 242.148 18.5475 245.145 17.7521 253.667C22.6352 255.323 23.2042 262.405 17.5917 263.32C18.9082 279.2 29.1347 293.879 43.3447 300.974C37.9318 315.716 35.7232 331.442 36.8661 347.105C34.5203 328.79 14.9286 324.165 1.27454 316.764C0.406441 316.196 -0.608331 315.892 -1.64599 315.891C-2.68365 315.889 -3.69934 316.19 -4.56915 316.756C-5.43897 317.321 -6.12531 318.128 -6.54446 319.077C-6.9636 320.027 -7.09744 321.077 -6.92963 322.101C-5.04287 322.889 -3.23909 323.863 -1.54482 325.008C-0.751013 325.553 -0.145117 326.33 0.189812 327.232C0.52474 328.135 0.57231 329.119 0.325993 330.05C0.0796757 330.98 -0.448467 331.812 -1.18604 332.431C-1.92361 333.05 -2.83451 333.425 -3.79387 333.506C2.96051 350.692 20.7353 362.359 39.1041 362.469C40.7963 370.156 43.2827 377.647 46.5235 384.82L73.7857 385.08C73.8863 384.778 73.9772 384.466 74.0681 384.164C71.5431 384.299 69.0112 384.124 66.5288 383.643C73.2804 375.802 78.482 371.818 74.7015 360.746L74.7006 360.746Z" fill="#F2F2F2"/>
<g clip-path="url(#clip0_93_102304)">
<path d="M112.368 121.922C113.693 118.574 116.551 116.59 118.748 117.486C120.945 118.382 121.654 121.826 120.329 125.173C119.818 126.517 118.984 127.712 117.89 128.656L112.089 142.76L105.309 139.73L111.747 126.147C111.602 124.697 111.814 123.247 112.364 121.917L112.368 121.922Z" fill="#A0616A"/>
<path d="M88.0584 211.966C88.0584 211.966 78.3296 207.255 79.0042 203.873C79.6788 200.487 108.663 128.372 108.663 128.372L122.083 137.187L88.0584 211.971V211.966Z" fill="#E6E6E6"/>
<path d="M233.975 387H140.919C127.383 387 116.373 375.993 116.373 362.462V119.538C116.373 106.007 127.383 95 140.919 95H233.975C247.511 95 258.521 106.007 258.521 119.538V362.462C258.521 375.993 247.511 387 233.975 387Z" fill="#D7D7D8"/>
<path d="M234.043 380.357H140.851C130.833 380.357 122.68 372.207 122.68 362.193V119.331C122.68 109.316 130.833 101.166 140.851 101.166H234.043C244.061 101.166 252.214 109.316 252.214 119.331V362.193C252.214 372.207 244.061 380.357 234.043 380.357Z" fill="white"/>
<path d="M200.626 117.332H174.273C170.794 117.332 167.965 114.504 167.965 111.026C167.965 107.548 170.794 104.721 174.273 104.721H200.626C204.105 104.721 206.933 107.548 206.933 111.026C206.933 114.504 204.105 117.332 200.626 117.332Z" fill="#D7D7D8"/>
<path d="M231.494 192.202H143.405C139.418 192.202 136.187 195.431 136.187 199.415C136.187 203.399 139.418 206.628 143.405 206.628H231.494C235.48 206.628 238.712 203.399 238.712 199.415C238.712 195.431 235.48 192.202 231.494 192.202Z" fill="#F58218"/>
<path d="M168.722 180.212H139.574C138.879 180.212 138.316 180.775 138.316 181.469C138.316 182.164 138.879 182.727 139.574 182.727H168.722C169.416 182.727 169.979 182.164 169.979 181.469C169.979 180.775 169.416 180.212 168.722 180.212Z" fill="#F58218"/>
<path d="M231.494 241.041H143.405C139.418 241.041 136.187 244.271 136.187 248.254C136.187 252.238 139.418 255.468 143.405 255.468H231.494C235.48 255.468 238.712 252.238 238.712 248.254C238.712 244.271 235.48 241.041 231.494 241.041Z" fill="#D7D7D8"/>
<path d="M168.722 229.047H139.574C138.879 229.047 138.316 229.61 138.316 230.304C138.316 230.998 138.879 231.561 139.574 231.561H168.722C169.416 231.561 169.979 230.998 169.979 230.304C169.979 229.61 169.416 229.047 168.722 229.047Z" fill="#D7D7D8"/>
<path d="M231.494 289.875H143.405C139.418 289.875 136.187 293.105 136.187 297.089C136.187 301.073 139.418 304.302 143.405 304.302H231.494C235.48 304.302 238.712 301.073 238.712 297.089C238.712 293.105 235.48 289.875 231.494 289.875Z" fill="#D7D7D8"/>
<path d="M168.722 277.886H139.574C138.879 277.886 138.316 278.449 138.316 279.143C138.316 279.838 138.879 280.4 139.574 280.4H168.722C169.416 280.4 169.979 279.838 169.979 279.143C169.979 278.449 169.416 277.886 168.722 277.886Z" fill="#D7D7D8"/>
<path d="M283.217 154.441C283.217 154.441 273.281 155.564 272.64 170.94C272.105 183.753 271.016 190.896 276.23 193.57C278.095 194.524 280.287 194.61 282.277 193.955L303.566 186.956C303.566 186.956 303.889 163.888 296.516 158.285C289.144 152.678 283.217 154.441 283.217 154.441Z" fill="#2F2E41"/>
<path d="M294.955 189.788L284.18 193.329V177.828H293.953L294.955 189.788Z" fill="#FFB6B6"/>
<path d="M262.02 277.799C261.437 281.349 259.066 283.897 256.729 283.488C254.392 283.079 252.966 279.866 253.553 276.311C253.765 274.89 254.329 273.541 255.197 272.39L257.866 257.375L265.133 258.897L261.726 273.536C262.174 274.923 262.275 276.383 262.02 277.799Z" fill="#FFB6B6"/>
<path d="M320.754 276.075C321.472 279.601 320.156 282.823 317.824 283.271C315.492 283.719 313.02 281.219 312.307 277.693C312.003 276.287 312.051 274.832 312.446 273.445L309.608 258.459L316.942 257.298L318.961 272.192C319.872 273.329 320.484 274.659 320.754 276.075Z" fill="#FFB6B6"/>
<path d="M290.902 363.339H280.812V377.65H290.902V363.339Z" fill="#FFB6B6"/>
<path d="M270.987 386.316C269.927 386.316 268.983 386.292 268.269 386.224C265.59 385.979 263.032 383.999 261.745 382.843C261.167 382.323 260.984 381.494 261.282 380.781C261.499 380.271 261.928 379.885 262.463 379.736L269.546 377.713L281.015 369.977L281.145 370.208C281.193 370.295 282.321 372.323 282.696 373.691C282.841 374.211 282.802 374.644 282.586 374.982C282.436 375.213 282.224 375.348 282.055 375.425C282.263 375.642 282.913 376.085 284.918 376.403C287.843 376.865 288.459 373.835 288.484 373.71L288.503 373.609L288.589 373.551C289.982 372.655 290.84 372.246 291.134 372.332C291.317 372.385 291.625 372.482 292.459 380.733C292.541 380.993 293.124 382.891 292.729 384.707C292.3 386.682 283.665 386.003 281.935 385.849C281.887 385.854 275.42 386.316 270.992 386.316H270.987Z" fill="#2F2E41"/>
<path d="M319.632 352.098L311.07 357.435L318.646 369.579L327.207 364.241L319.632 352.098Z" fill="#FFB6B6"/>
<path d="M308.264 384.355C307.078 384.355 305.989 384.211 305.214 384.076C304.452 383.941 303.855 383.334 303.729 382.573C303.643 382.024 303.802 381.47 304.178 381.061L309.117 375.598L314.754 362.968L314.986 363.093C315.072 363.141 317.101 364.264 318.147 365.227C318.547 365.593 318.744 365.984 318.735 366.383C318.73 366.663 318.624 366.884 318.518 367.043C318.807 367.12 319.592 367.149 321.462 366.359C324.189 365.208 323.11 362.308 323.062 362.188L323.023 362.091L323.066 362C323.775 360.502 324.281 359.702 324.579 359.62C324.767 359.567 325.076 359.485 330.15 366.051C330.357 366.224 331.856 367.53 332.482 369.278C333.161 371.181 325.476 375.174 323.929 375.955C323.881 375.993 315.839 381.836 312.533 383.498C311.222 384.158 309.671 384.36 308.259 384.36L308.264 384.355Z" fill="#2F2E41"/>
<path d="M298.333 243.661H270.081L267.518 269.933L278.736 367.005H293.158L287.39 310.94L310.784 361.557L323.602 352.588L305.334 305.333C305.334 305.333 311.859 264.167 306.732 253.912C301.605 243.661 298.333 243.661 298.333 243.661Z" fill="#2F2E41"/>
<path d="M312.384 245.266H263.354L280.981 187.279H300.53L312.384 245.266Z" fill="#F58218"/>
<path d="M284.065 187.288C284.065 187.288 271.888 186.966 270.606 190.174C269.325 193.377 254.262 269.625 254.262 269.625H264.198L284.07 187.288H284.065Z" fill="#F58218"/>
<path d="M291.987 187.356C291.987 187.356 302.713 185.998 303.995 189.201C305.276 192.404 320.339 268.652 320.339 268.652H310.403L291.987 187.356Z" fill="#F58218"/>
<path d="M285.515 182.12C291.444 182.12 296.251 177.315 296.251 171.387C296.251 165.46 291.444 160.655 285.515 160.655C279.586 160.655 274.779 165.46 274.779 171.387C274.779 177.315 279.586 182.12 285.515 182.12Z" fill="#FFB6B6"/>
<path d="M282.576 158.444C282.576 158.444 276.668 182.428 283.236 193.637L273.984 191.672C273.984 191.672 270.399 165.424 277.608 160.65L282.576 158.439V158.444Z" fill="#2F2E41"/>
<path d="M351 385.743C351 386.143 350.677 386.465 350.277 386.465H24.7228C24.3228 386.465 24 386.143 24 385.743C24 385.343 24.3228 385.02 24.7228 385.02H350.277C350.677 385.02 351 385.343 351 385.743Z" fill="#2E2E41"/>
<path d="M79.4622 179.167L91.8026 183.223V165.463H80.6042L79.4622 179.167Z" fill="#A0616A"/>
<path d="M90.2751 170.376C97.0666 170.376 102.572 164.872 102.572 158.083C102.572 151.294 97.0666 145.79 90.2751 145.79C83.4836 145.79 77.978 151.294 77.978 158.083C77.978 164.872 83.4836 170.376 90.2751 170.376Z" fill="#A0616A"/>
<path d="M87.143 159.046L88.8392 161.103L91.9038 155.737C91.9038 155.737 95.8165 155.939 95.8165 153.035C95.8165 150.13 99.4064 150.048 99.4064 150.048C99.4064 150.048 104.49 141.175 93.9613 143.512C93.9613 143.512 86.6563 138.512 83.0279 142.784C83.0279 142.784 71.8921 148.391 75.0772 158.15L80.3729 168.213L81.5727 165.935C81.5727 165.935 80.8451 156.373 87.143 159.037V159.046Z" fill="#2F2E41"/>
<path d="M75.7565 377.804H85.8467V363.493H75.7565V377.804Z" fill="#A0616A"/>
<path d="M84.7337 386.003C83.0086 386.157 74.3737 386.841 73.94 384.861C73.5449 383.045 74.1279 381.147 74.2098 380.887C75.0386 372.631 75.347 372.539 75.535 372.486C75.8289 372.4 76.6866 372.809 78.0792 373.705L78.1659 373.763L78.1852 373.864C78.2093 373.994 78.8261 377.024 81.751 376.557C83.7555 376.239 84.406 375.796 84.6132 375.579C84.4446 375.502 84.2325 375.367 84.0832 375.136C83.8663 374.799 83.8278 374.365 83.9723 373.845C84.3482 372.472 85.4757 370.444 85.5239 370.362L85.654 370.131L97.1223 377.867L104.206 379.89C104.741 380.044 105.169 380.425 105.386 380.935C105.685 381.648 105.502 382.477 104.924 382.997C103.637 384.153 101.083 386.133 98.3992 386.379C97.6861 386.446 96.7416 386.47 95.6815 386.47C91.2532 386.47 84.7867 386.012 84.7385 386.003H84.7337Z" fill="#2F2E41"/>
<path d="M98.7366 240.111L72.268 238.758C72.268 238.758 68.2108 254.134 73.3378 270.155L73.9545 366.634H88.9115L103.011 267.11L98.7366 240.111Z" fill="#2F2E41"/>
<path d="M94.2696 175.756L79.7415 168.049C79.7415 168.049 64.0859 190.92 66.2494 203.31C68.4178 215.699 72.263 238.762 72.263 238.762L104.312 240.116L98.7172 194.697L94.2696 175.756Z" fill="#E6E6E6"/>
<path d="M82.9362 377.804H93.0264V363.493H82.9362V377.804Z" fill="#A0616A"/>
<path d="M91.9134 386.003C90.1883 386.157 81.5534 386.841 81.1197 384.861C80.7246 383.045 81.3076 381.147 81.3895 380.887C82.2183 372.631 82.5267 372.539 82.7147 372.486C83.0086 372.4 83.8663 372.809 85.2589 373.705L85.3456 373.763L85.3649 373.864C85.389 373.994 86.0058 377.024 88.9307 376.557C90.9352 376.239 91.5857 375.796 91.7929 375.579C91.6243 375.502 91.4122 375.367 91.2629 375.136C91.046 374.799 91.0075 374.365 91.152 373.845C91.5279 372.472 92.6554 370.444 92.7036 370.362L92.8337 370.131L104.302 377.867L111.385 379.89C111.92 380.044 112.349 380.425 112.566 380.935C112.865 381.648 112.682 382.477 112.103 382.997C110.817 384.153 108.263 386.133 105.579 386.379C104.866 386.446 103.921 386.47 102.861 386.47C98.4329 386.47 91.9664 386.012 91.9182 386.003H91.9134Z" fill="#2F2E41"/>
<path d="M104.312 240.111L72.2631 238.758C72.2631 238.758 68.2059 254.134 73.3329 270.155L79.5296 366.634H94.4865L108.586 267.11L104.312 240.111Z" fill="#2F2E41"/>
<path d="M116.623 265.304C117.804 268.705 116.932 272.072 114.681 272.828C112.431 273.58 109.651 271.436 108.47 268.03C107.979 266.677 107.834 265.227 108.046 263.801L103.242 249.326L110.354 247.202L114.339 261.696C115.394 262.703 116.18 263.941 116.628 265.304H116.623Z" fill="#A0616A"/>
<path d="M76.301 181.2C76.301 181.2 86.7478 178.425 88.4487 181.431C90.1449 184.437 115.226 258.001 115.226 258.001L99.305 260.073L76.3058 181.2H76.301Z" fill="#E6E6E6"/>
</g>
<path d="M351.984 117.011H274.042C273.562 117.011 273.101 116.819 272.761 116.48C272.421 116.14 272.23 115.679 272.23 115.198V66.9833C272.23 66.5027 272.421 66.042 272.761 65.7022C273.101 65.3624 273.562 65.1712 274.042 65.1707H351.984C352.465 65.1712 352.926 65.3624 353.265 65.7022C353.605 66.042 353.796 66.5027 353.797 66.9833V115.198C353.796 115.679 353.605 116.14 353.265 116.48C352.926 116.819 352.465 117.011 351.984 117.011Z" fill="white"/>
<path d="M351.984 117.011H274.042C273.562 117.011 273.101 116.819 272.761 116.48C272.421 116.14 272.23 115.679 272.23 115.198V66.9833C272.23 66.5027 272.421 66.042 272.761 65.7022C273.101 65.3624 273.562 65.1712 274.042 65.1707H351.984C352.465 65.1712 352.926 65.3624 353.265 65.7022C353.605 66.042 353.796 66.5027 353.797 66.9833V115.198C353.796 115.679 353.605 116.14 353.265 116.48C352.926 116.819 352.465 117.011 351.984 117.011ZM274.042 65.8957C273.754 65.896 273.478 66.0107 273.274 66.2146C273.07 66.4185 272.955 66.6949 272.955 66.9833V115.198C272.955 115.487 273.07 115.763 273.274 115.967C273.478 116.171 273.754 116.286 274.042 116.286H351.984C352.273 116.286 352.549 116.171 352.753 115.967C352.957 115.763 353.071 115.487 353.072 115.198V66.9833C353.071 66.6949 352.957 66.4185 352.753 66.2146C352.549 66.0107 352.273 65.896 351.984 65.8957H274.042Z" fill="#3F3D56"/>
<path d="M336.577 81.2732H289.449C289.017 81.2732 288.602 81.1013 288.296 80.7954C287.99 80.4894 287.818 80.0745 287.818 79.6419C287.818 79.2092 287.99 78.7942 288.296 78.4883C288.602 78.1824 289.017 78.0105 289.449 78.0105H336.577C337.01 78.0105 337.425 78.1824 337.731 78.4883C338.037 78.7942 338.208 79.2092 338.208 79.6419C338.208 80.0745 338.037 80.4894 337.731 80.7954C337.425 81.1013 337.01 81.2732 336.577 81.2732Z" fill="#CCCCCC"/>
<path d="M336.577 92.5115H289.449C289.017 92.5115 288.602 92.3396 288.296 92.0337C287.99 91.7277 287.818 91.3128 287.818 90.8801C287.818 90.4475 287.99 90.0325 288.296 89.7266C288.602 89.4207 289.017 89.2488 289.449 89.2488H336.577C337.01 89.2488 337.425 89.4207 337.731 89.7266C338.037 90.0325 338.208 90.4475 338.208 90.8801C338.208 91.3128 338.037 91.7277 337.731 92.0337C337.425 92.3396 337.01 92.5115 336.577 92.5115Z" fill="#CCCCCC"/>
<path d="M332.379 110.33C335.598 110.33 338.209 107.719 338.209 104.5C338.209 101.28 335.598 98.6697 332.379 98.6697C329.159 98.6697 326.549 101.28 326.549 104.5C326.549 107.719 329.159 110.33 332.379 110.33Z" fill="#F58218"/>
<path d="M332.539 101.753V101.198H332.703V101.753C332.936 101.763 333.164 101.819 333.375 101.918C333.529 101.99 333.661 102.1 333.759 102.237C333.85 102.365 333.899 102.518 333.898 102.674C333.901 102.788 333.863 102.9 333.79 102.988C333.759 103.028 333.719 103.061 333.673 103.083C333.627 103.105 333.576 103.117 333.525 103.116C333.487 103.117 333.449 103.11 333.414 103.095C333.379 103.081 333.347 103.059 333.321 103.032C333.293 103.005 333.272 102.973 333.257 102.937C333.243 102.901 333.236 102.863 333.237 102.824C333.237 102.77 333.248 102.716 333.269 102.667L333.335 102.528C333.359 102.47 333.37 102.408 333.368 102.345C333.37 102.248 333.339 102.154 333.281 102.077C333.216 101.996 333.13 101.935 333.032 101.903C332.925 101.868 332.815 101.846 332.703 101.837V103.836L332.74 103.858C333.083 104.04 333.395 104.275 333.664 104.556C333.783 104.697 333.878 104.857 333.944 105.029C334.009 105.196 334.043 105.374 334.044 105.554C334.047 105.786 333.987 106.015 333.869 106.215C333.754 106.411 333.585 106.569 333.383 106.672C333.169 106.776 332.939 106.843 332.703 106.869V107.465H332.539V106.88C332.3 106.878 332.064 106.83 331.844 106.738C331.625 106.656 331.431 106.517 331.283 106.336C331.153 106.173 331.083 105.97 331.084 105.762C331.08 105.615 331.125 105.472 331.212 105.354C331.247 105.304 331.293 105.262 331.347 105.233C331.401 105.204 331.461 105.189 331.523 105.188C331.56 105.187 331.596 105.193 331.63 105.207C331.665 105.22 331.696 105.24 331.722 105.266C331.748 105.292 331.768 105.323 331.782 105.358C331.795 105.392 331.802 105.428 331.801 105.465C331.788 105.578 331.741 105.684 331.665 105.768C331.626 105.82 331.592 105.876 331.565 105.936C331.546 105.982 331.537 106.031 331.537 106.081C331.538 106.215 331.584 106.344 331.667 106.448C331.758 106.564 331.879 106.654 332.016 106.708C332.173 106.77 332.341 106.799 332.509 106.796H332.539V104.41L332.33 104.289C332.133 104.175 331.983 104.08 331.879 104.004C331.778 103.931 331.684 103.848 331.6 103.756C331.39 103.532 331.273 103.237 331.274 102.93C331.273 102.739 331.321 102.551 331.413 102.384C331.503 102.217 331.636 102.076 331.797 101.976C332.021 101.841 332.277 101.764 332.539 101.753ZM332.539 101.834C332.397 101.838 332.258 101.869 332.128 101.925C331.998 101.989 331.891 102.092 331.822 102.22C331.744 102.359 331.703 102.516 331.705 102.676C331.704 102.871 331.764 103.061 331.876 103.219C331.936 103.306 332.008 103.383 332.089 103.449C332.221 103.548 332.359 103.638 332.502 103.719L332.539 103.741V101.834ZM332.703 106.789C332.797 106.781 332.89 106.761 332.98 106.73C333.052 106.702 333.12 106.663 333.18 106.613C333.292 106.517 333.38 106.395 333.434 106.257C333.498 106.105 333.53 105.941 333.529 105.776C333.514 105.512 333.43 105.256 333.286 105.034C333.141 104.812 332.94 104.632 332.703 104.512V106.789Z" fill="white"/>
<path d="M298.89 84.7381H220.948C220.468 84.7376 220.007 84.5464 219.667 84.2066C219.327 83.8668 219.136 83.4061 219.135 82.9255V34.7103C219.136 34.2297 219.327 33.769 219.667 33.4292C220.007 33.0894 220.468 32.8983 220.948 32.8977H298.89C299.371 32.8983 299.831 33.0894 300.171 33.4292C300.511 33.769 300.702 34.2297 300.703 34.7103V82.9255C300.702 83.4061 300.511 83.8668 300.171 84.2066C299.831 84.5464 299.371 84.7376 298.89 84.7381Z" fill="white"/>
<path d="M298.89 84.7381H220.948C220.468 84.7376 220.007 84.5464 219.667 84.2066C219.327 83.8668 219.136 83.4061 219.135 82.9255V34.7103C219.136 34.2297 219.327 33.769 219.667 33.4292C220.007 33.0894 220.468 32.8983 220.948 32.8977H298.89C299.371 32.8983 299.831 33.0894 300.171 33.4292C300.511 33.769 300.702 34.2297 300.703 34.7103V82.9255C300.702 83.4061 300.511 83.8668 300.171 84.2066C299.831 84.5464 299.371 84.7376 298.89 84.7381ZM220.948 33.6228C220.66 33.6231 220.383 33.7377 220.179 33.9416C219.976 34.1455 219.861 34.422 219.861 34.7103V82.9255C219.861 83.2139 219.976 83.4903 220.179 83.6942C220.383 83.8981 220.66 84.0128 220.948 84.0131H298.89C299.178 84.0128 299.455 83.8981 299.659 83.6942C299.863 83.4903 299.977 83.2139 299.978 82.9255V34.7103C299.977 34.422 299.863 34.1455 299.659 33.9416C299.455 33.7377 299.178 33.6231 298.89 33.6228H220.948Z" fill="#3F3D56"/>
<path d="M283.483 49.0002H236.355C235.922 49.0002 235.507 48.8284 235.201 48.5224C234.896 48.2165 234.724 47.8016 234.724 47.3689C234.724 46.9362 234.896 46.5213 235.201 46.2154C235.507 45.9094 235.922 45.7375 236.355 45.7375H283.483C283.915 45.7375 284.33 45.9094 284.636 46.2154C284.942 46.5213 285.114 46.9362 285.114 47.3689C285.114 47.8016 284.942 48.2165 284.636 48.5224C284.33 48.8284 283.915 49.0002 283.483 49.0002Z" fill="#CCCCCC"/>
<path d="M283.483 60.2383H236.355C235.922 60.2383 235.507 60.0664 235.201 59.7605C234.896 59.4545 234.724 59.0396 234.724 58.6069C234.724 58.1743 234.896 57.7593 235.201 57.4534C235.507 57.1475 235.922 56.9756 236.355 56.9756H283.483C283.915 56.9756 284.33 57.1475 284.636 57.4534C284.942 57.7593 285.114 58.1743 285.114 58.6069C285.114 59.0396 284.942 59.4545 284.636 59.7605C284.33 60.0664 283.915 60.2383 283.483 60.2383Z" fill="#CCCCCC"/>
<path d="M279.284 78.0567C282.504 78.0567 285.114 75.4465 285.114 72.2267C285.114 69.0069 282.504 66.3967 279.284 66.3967C276.064 66.3967 273.454 69.0069 273.454 72.2267C273.454 75.4465 276.064 78.0567 279.284 78.0567Z" fill="#F58218"/>
<path d="M279.444 69.4802V68.9248H279.609V69.4802C279.842 69.4904 280.07 69.5462 280.281 69.6447C280.434 69.7167 280.567 69.8268 280.665 69.9645C280.756 70.0919 280.804 70.2446 280.804 70.4011C280.807 70.5155 280.769 70.6272 280.696 70.7154C280.665 70.7555 280.624 70.7879 280.578 70.8101C280.532 70.8323 280.482 70.8436 280.431 70.8433C280.393 70.844 280.355 70.8369 280.32 70.8225C280.285 70.808 280.253 70.7865 280.226 70.7592C280.199 70.7321 280.177 70.6996 280.163 70.6638C280.148 70.628 280.141 70.5896 280.142 70.5509C280.142 70.4969 280.154 70.4434 280.175 70.3938L280.241 70.255C280.264 70.1969 280.275 70.1347 280.274 70.0722C280.276 69.9754 280.245 69.8808 280.186 69.8037C280.122 69.7229 280.036 69.6625 279.938 69.6301C279.831 69.5951 279.721 69.573 279.609 69.5643V71.5631L279.645 71.585C279.989 71.7669 280.301 72.0025 280.57 72.283C280.689 72.4239 280.784 72.5839 280.849 72.7563C280.915 72.9233 280.949 73.1011 280.95 73.2806C280.953 73.5129 280.892 73.7417 280.775 73.942C280.66 74.1376 280.491 74.2961 280.289 74.3988C280.075 74.5034 279.845 74.5702 279.609 74.5961V75.1917H279.444V74.6071C279.206 74.6052 278.97 74.5568 278.75 74.4646C278.531 74.383 278.337 74.2442 278.189 74.0626C278.059 73.8998 277.989 73.6973 277.99 73.4889C277.985 73.3425 278.031 73.1989 278.118 73.0814C278.153 73.0307 278.199 72.9892 278.253 72.9602C278.307 72.9313 278.367 72.9158 278.429 72.9152C278.465 72.9139 278.502 72.9202 278.536 72.9336C278.57 72.9471 278.602 72.9675 278.628 72.9935C278.654 73.0194 278.674 73.0505 278.688 73.0847C278.701 73.1189 278.708 73.1556 278.706 73.1923C278.694 73.3048 278.647 73.4106 278.571 73.4949C278.532 73.5471 278.498 73.6033 278.471 73.6627C278.452 73.7089 278.443 73.7585 278.443 73.8085C278.444 73.9417 278.49 74.0708 278.573 74.1748C278.664 74.2913 278.784 74.3813 278.922 74.4355C279.079 74.4967 279.247 74.5265 279.415 74.523H279.444V72.1368L279.236 72.0163C279.039 71.9018 278.888 71.8068 278.785 71.7312C278.684 71.6579 278.59 71.5746 278.505 71.4827C278.295 71.2591 278.179 70.9636 278.18 70.6569C278.179 70.4659 278.227 70.2779 278.319 70.1106C278.409 69.9437 278.541 69.8032 278.703 69.7031C278.927 69.5677 279.182 69.4911 279.444 69.4802ZM279.444 69.5606C279.303 69.565 279.163 69.596 279.033 69.6519C278.903 69.7163 278.796 69.8195 278.728 69.9473C278.649 70.0863 278.609 70.2435 278.611 70.4031C278.61 70.5977 278.67 70.7879 278.782 70.9465C278.842 71.0329 278.914 71.1103 278.995 71.1764C279.127 71.2748 279.265 71.3649 279.408 71.4462L279.444 71.4682V69.5606ZM279.609 74.5157C279.703 74.5079 279.796 74.4882 279.885 74.4573C279.958 74.4292 280.025 74.3897 280.085 74.3403C280.198 74.2442 280.286 74.1219 280.34 73.9841C280.404 73.8319 280.436 73.6684 280.435 73.5035C280.42 73.2388 280.336 72.9826 280.191 72.7606C280.046 72.5387 279.845 72.3588 279.609 72.2392V74.5157Z" fill="white"/>
<path d="M244.755 51.8404H166.813C166.332 51.8399 165.871 51.6487 165.532 51.3089C165.192 50.9691 165.001 50.5084 165 50.0278V1.81261C165.001 1.33204 165.192 0.871316 165.532 0.531506C165.871 0.191696 166.332 0.000549972 166.813 0H244.755C245.235 0.000549974 245.696 0.191696 246.036 0.531506C246.375 0.871316 246.567 1.33204 246.567 1.81261V50.0278C246.567 50.5084 246.375 50.9691 246.036 51.3089C245.696 51.6487 245.235 51.8399 244.755 51.8404Z" fill="white"/>
<path d="M244.755 51.8404H166.813C166.332 51.8399 165.871 51.6487 165.532 51.3089C165.192 50.9691 165.001 50.5084 165 50.0278V1.81261C165.001 1.33204 165.192 0.871316 165.532 0.531506C165.871 0.191696 166.332 0.000549972 166.813 0H244.755C245.235 0.000549974 245.696 0.191696 246.036 0.531506C246.375 0.871316 246.567 1.33204 246.567 1.81261V50.0278C246.567 50.5084 246.375 50.9691 246.036 51.3089C245.696 51.6487 245.235 51.8399 244.755 51.8404ZM166.813 0.725041C166.524 0.725356 166.248 0.840041 166.044 1.04393C165.84 1.24782 165.725 1.52426 165.725 1.81261V50.0278C165.725 50.3162 165.84 50.5926 166.044 50.7965C166.248 51.0004 166.524 51.1151 166.813 51.1154H244.755C245.043 51.1151 245.319 51.0004 245.523 50.7965C245.727 50.5926 245.842 50.3162 245.842 50.0278V1.81261C245.842 1.52426 245.727 1.24782 245.523 1.04393C245.319 0.840041 245.043 0.725356 244.755 0.725041H166.813Z" fill="#3F3D56"/>
<path d="M229.347 16.1025H182.22C181.787 16.1025 181.372 15.9307 181.066 15.6247C180.76 15.3188 180.588 14.9039 180.588 14.4712C180.588 14.0385 180.76 13.6236 181.066 13.3177C181.372 13.0117 181.787 12.8398 182.22 12.8398H229.347C229.78 12.8398 230.195 13.0117 230.501 13.3177C230.807 13.6236 230.979 14.0385 230.979 14.4712C230.979 14.9039 230.807 15.3188 230.501 15.6247C230.195 15.9307 229.78 16.1025 229.347 16.1025Z" fill="#CCCCCC"/>
<path d="M229.347 27.3406H182.22C181.787 27.3406 181.372 27.1687 181.066 26.8628C180.76 26.5568 180.588 26.1419 180.588 25.7092C180.588 25.2766 180.76 24.8616 181.066 24.5557C181.372 24.2498 181.787 24.0779 182.22 24.0779H229.347C229.78 24.0779 230.195 24.2498 230.501 24.5557C230.807 24.8616 230.979 25.2766 230.979 25.7092C230.979 26.1419 230.807 26.5568 230.501 26.8628C230.195 27.1687 229.78 27.3406 229.347 27.3406Z" fill="#CCCCCC"/>
<path d="M225.149 45.159C228.369 45.159 230.979 42.5488 230.979 39.329C230.979 36.1092 228.369 33.499 225.149 33.499C221.929 33.499 219.319 36.1092 219.319 39.329C219.319 42.5488 221.929 45.159 225.149 45.159Z" fill="#F58218"/>
<path d="M225.309 36.5825V36.0271H225.473V36.5825C225.706 36.5927 225.935 36.6485 226.146 36.747C226.299 36.8189 226.431 36.9291 226.529 37.0668C226.62 37.1942 226.669 37.3469 226.668 37.5034C226.672 37.6178 226.633 37.7295 226.56 37.8177C226.529 37.8578 226.489 37.8902 226.443 37.9124C226.397 37.9346 226.347 37.9459 226.296 37.9456C226.258 37.9463 226.22 37.9392 226.185 37.9248C226.149 37.9103 226.117 37.8888 226.091 37.8615C226.063 37.8344 226.042 37.8019 226.027 37.7661C226.013 37.7303 226.006 37.6919 226.007 37.6532C226.007 37.5992 226.018 37.5457 226.04 37.4961L226.106 37.3573C226.129 37.2992 226.14 37.237 226.138 37.1745C226.14 37.0777 226.109 36.9831 226.051 36.906C225.987 36.8252 225.9 36.7648 225.802 36.7324C225.696 36.6974 225.585 36.6753 225.473 36.6666V38.6654L225.51 38.6873C225.853 38.8692 226.166 39.1048 226.434 39.3853C226.554 39.5262 226.648 39.6862 226.714 39.8586C226.78 40.0256 226.814 40.2034 226.814 40.3829C226.817 40.6152 226.757 40.844 226.639 41.0443C226.524 41.2399 226.355 41.3984 226.153 41.5011C225.94 41.6057 225.71 41.6725 225.473 41.6984V42.294H225.309V41.7094C225.07 41.7075 224.835 41.6591 224.615 41.5669C224.395 41.4853 224.202 41.3465 224.054 41.1649C223.924 41.0021 223.853 40.7996 223.855 40.5912C223.85 40.4448 223.895 40.3012 223.982 40.1837C224.017 40.133 224.063 40.0914 224.117 40.0625C224.171 40.0336 224.232 40.0181 224.293 40.0175C224.33 40.0162 224.366 40.0225 224.401 40.0359C224.435 40.0494 224.466 40.0698 224.492 40.0958C224.518 40.1217 224.539 40.1528 224.552 40.187C224.566 40.2212 224.572 40.2578 224.571 40.2946C224.558 40.4071 224.511 40.5129 224.436 40.5972C224.396 40.6494 224.363 40.7056 224.335 40.765C224.316 40.8112 224.307 40.8608 224.308 40.9108C224.308 41.044 224.354 41.1731 224.437 41.2771C224.528 41.3936 224.649 41.4836 224.786 41.5378C224.943 41.599 225.111 41.6288 225.28 41.6253H225.309V39.2391L225.101 39.1186C224.903 39.0041 224.753 38.9091 224.649 38.8335C224.548 38.7602 224.455 38.6769 224.37 38.585C224.16 38.3614 224.043 38.0659 224.045 37.7592C224.044 37.5682 224.091 37.3802 224.183 37.2129C224.274 37.046 224.406 36.9055 224.567 36.8054C224.792 36.67 225.047 36.5934 225.309 36.5825ZM225.309 36.6629C225.167 36.6673 225.028 36.6983 224.898 36.7542C224.768 36.8186 224.661 36.9218 224.592 37.0496C224.514 37.1886 224.474 37.3458 224.476 37.5054C224.474 37.7 224.534 37.8902 224.647 38.0488C224.706 38.1352 224.778 38.2126 224.86 38.2787C224.991 38.3771 225.129 38.4672 225.273 38.5485L225.309 38.5705V36.6629ZM225.473 41.618C225.568 41.6102 225.66 41.5905 225.75 41.5596C225.822 41.5315 225.89 41.492 225.95 41.4426C226.063 41.3465 226.15 41.2242 226.205 41.0864C226.268 40.9342 226.3 40.7707 226.299 40.6058C226.285 40.3411 226.201 40.0849 226.056 39.8629C225.911 39.641 225.71 39.4611 225.473 39.3415V41.618Z" fill="white"/>
<defs>
<clipPath id="clip0_93_102304">
<rect width="327" height="292" fill="white" transform="translate(24 95)"/>
</clipPath>
</defs>
</svg>
